<?xml version="1.0" encoding="utf-8" standalone="no"?>
<!DOCTYPE svg PUBLIC "-//W3C//DTD SVG 1.1//EN"
  "http://www.w3.org/Graphics/SVG/1.1/DTD/svg11.dtd">
<svg height="576pt" version="1.1" viewBox="0 0 864 576" width="864pt" xmlns="http://www.w3.org/2000/svg" xmlns:xlink="http://www.w3.org/1999/xlink">
 <metadata>
  <rdf:RDF xmlns:cc="http://creativecommons.org/ns#" xmlns:dc="http://purl.org/dc/elements/1.1/" xmlns:rdf="http://www.w3.org/1999/02/22-rdf-syntax-ns#">
   <cc:Work>
    <dc:type rdf:resource="http://purl.org/dc/dcmitype/StillImage"/>
    <dc:date>2025-04-03T22:22:17.539458</dc:date>
    <dc:format>image/svg+xml</dc:format>
    <dc:creator>
     <cc:Agent>
      <dc:title>Matplotlib v3.4.3, https://matplotlib.org/</dc:title>
     </cc:Agent>
    </dc:creator>
   </cc:Work>
  </rdf:RDF>
 </metadata>
 <defs>
  <style type="text/css">*{stroke-linecap:butt;stroke-linejoin:round;}</style>
 </defs>
 <g id="figure_1">
  <g id="patch_1">
   <path d="M 0 576 
L 864 576 
L 864 0 
L 0 0 
z
" style="fill:#ffffff;"/>
  </g>
  <g id="axes_1">
   <g id="patch_2">
    <path d="M 108 512.64 
L 777.6 512.64 
L 777.6 69.12 
L 108 69.12 
z
" style="fill:#ffffff;"/>
   </g>
   <g id="patch_3">
    <path clip-path="url(#pa13efcba9d)" d="M 138.436364 512.64 
L 186.49378 512.64 
L 186.49378 90.24 
L 138.436364 90.24 
z
" style="fill:#1f77b4;opacity:0.7;"/>
   </g>
   <g id="patch_4">
    <path clip-path="url(#pa13efcba9d)" d="M 458.819139 512.64 
L 506.876555 512.64 
L 506.876555 203.15373 
L 458.819139 203.15373 
z
" style="fill:#1f77b4;opacity:0.7;"/>
   </g>
   <g id="patch_5">
    <path clip-path="url(#pa13efcba9d)" d="M 186.49378 512.64 
L 234.551196 512.64 
L 234.551196 233.948384 
L 186.49378 233.948384 
z
" style="fill:#ff7f0e;opacity:0.5;"/>
   </g>
   <g id="patch_6">
    <path clip-path="url(#pa13efcba9d)" d="M 506.876555 512.64 
L 554.933971 512.64 
L 554.933971 385.355431 
L 506.876555 385.355431 
z
" style="fill:#ff7f0e;opacity:0.5;"/>
   </g>
   <g id="patch_7">
    <path clip-path="url(#pa13efcba9d)" d="M 234.551196 512.64 
L 282.608612 512.64 
L 282.608612 151.829307 
L 234.551196 151.829307 
z
" style="fill:#2ca02c;opacity:0.3;"/>
   </g>
   <g id="patch_8">
    <path clip-path="url(#pa13efcba9d)" d="M 554.933971 512.64 
L 602.991388 512.64 
L 602.991388 234.974872 
L 554.933971 234.974872 
z
" style="fill:#2ca02c;opacity:0.3;"/>
   </g>
   <g id="patch_9">
    <path clip-path="url(#pa13efcba9d)" d="M 282.608612 512.64 
L 330.666029 512.64 
L 330.666029 161.580948 
L 282.608612 161.580948 
z
" style="fill:#d62728;opacity:0.3;"/>
   </g>
   <g id="patch_10">
    <path clip-path="url(#pa13efcba9d)" d="M 602.991388 512.64 
L 651.048804 512.64 
L 651.048804 262.690061 
L 602.991388 262.690061 
z
" style="fill:#d62728;opacity:0.3;"/>
   </g>
   <g id="patch_11">
    <path clip-path="url(#pa13efcba9d)" d="M 330.666029 512.64 
L 378.723445 512.64 
L 378.723445 152.342552 
L 330.666029 152.342552 
z
" style="fill:#9467bd;opacity:0.5;"/>
   </g>
   <g id="patch_12">
    <path clip-path="url(#pa13efcba9d)" d="M 651.048804 512.64 
L 699.10622 512.64 
L 699.10622 238.567582 
L 651.048804 238.567582 
z
" style="fill:#9467bd;opacity:0.5;"/>
   </g>
   <g id="patch_13">
    <path clip-path="url(#pa13efcba9d)" d="M 378.723445 512.64 
L 426.780861 512.64 
L 426.780861 115.388967 
L 378.723445 115.388967 
z
" style="fill:#8c564b;opacity:0.7;"/>
   </g>
   <g id="patch_14">
    <path clip-path="url(#pa13efcba9d)" d="M 699.10622 512.64 
L 747.163636 512.64 
L 747.163636 221.117278 
L 699.10622 221.117278 
z
" style="fill:#8c564b;opacity:0.7;"/>
   </g>
   <g id="matplotlib.axis_1">
    <g id="xtick_1">
     <g id="line2d_1">
      <defs>
       <path d="M 0 0 
L 0 3.5 
" id="mb07d5a47ba" style="stroke:#000000;stroke-width:0.8;"/>
      </defs>
      <g>
       <use style="stroke:#000000;stroke-width:0.8;" x="306.637321" xlink:href="#mb07d5a47ba" y="512.64"/>
      </g>
     </g>
     <g id="text_1">
      <!-- 低频 -->
      <g transform="translate(278.637321 542.0225)scale(0.28 -0.28)">
       <defs>
        <path d="M 2275 4809 
Q 4069 4809 5994 5072 
L 6169 4603 
Q 5306 4522 4497 4469 
Q 4513 3594 4556 2872 
L 6250 2872 
L 6250 2422 
L 4591 2422 
Q 4775 250 5581 -172 
Q 5756 -247 5806 -41 
Q 5863 278 5913 897 
Q 6156 784 6363 728 
Q 6300 141 6225 -241 
Q 6119 -728 5738 -728 
Q 5275 -728 4856 -178 
Q 4259 644 4122 2422 
L 2750 2422 
L 2750 209 
Q 3425 597 3913 878 
Q 3950 591 4006 397 
Q 3206 -59 2744 -353 
Q 2563 -472 2388 -634 
L 2063 -222 
Q 2275 -41 2275 316 
L 2275 4809 
z
M 38 2397 
Q 1000 3697 1531 5334 
L 1988 5172 
Q 1678 4309 1306 3578 
L 1306 -828 
L 856 -828 
L 856 2778 
Q 550 2288 213 1872 
Q 138 2122 38 2397 
z
M 4016 4441 
Q 3366 4403 2750 4384 
L 2750 2872 
L 4094 2872 
Q 4059 3481 4016 4441 
z
M 3531 -116 
L 3856 141 
Q 4206 -191 4544 -566 
L 4181 -859 
Q 3888 -491 3531 -116 
z
" id="MicrosoftYaHei-4f4e" transform="scale(0.015625)"/>
        <path d="M 3200 3716 
L 4113 3716 
L 4269 4522 
L 2938 4522 
L 2938 4947 
L 6294 4947 
L 6294 4522 
L 4788 4522 
L 4600 3716 
L 6019 3716 
L 6019 478 
L 5550 478 
L 5550 3291 
L 3669 3291 
L 3669 478 
L 3200 478 
L 3200 3716 
z
M 94 3034 
L 525 3034 
L 525 4691 
L 963 4691 
L 963 3034 
L 1600 3034 
L 1600 5272 
L 2050 5272 
L 2050 4291 
L 2925 4291 
L 2925 3878 
L 2050 3878 
L 2050 3034 
L 3006 3034 
L 3006 2609 
L 94 2609 
L 94 3034 
z
M 4356 2884 
L 4825 2884 
L 4825 1934 
Q 4825 1216 4650 716 
Q 5619 128 6375 -403 
L 6075 -841 
Q 5306 -234 4450 303 
Q 4413 241 4369 184 
Q 3913 -447 2763 -884 
Q 2625 -691 2444 -478 
Q 3525 -72 3944 447 
Q 4356 947 4356 1966 
L 4356 2884 
z
M 1550 2459 
L 2000 2459 
L 2000 853 
Q 2394 1309 2663 1866 
L 3100 1609 
Q 2206 -47 394 -909 
Q 275 -741 69 -503 
Q 1125 -47 1819 659 
L 1550 659 
L 1550 2459 
z
M 38 578 
Q 381 1191 669 2084 
L 1113 1947 
Q 806 1028 456 366 
Q 269 472 38 578 
z
" id="MicrosoftYaHei-9891" transform="scale(0.015625)"/>
       </defs>
       <use xlink:href="#MicrosoftYaHei-4f4e"/>
       <use x="100" xlink:href="#MicrosoftYaHei-9891"/>
      </g>
     </g>
    </g>
    <g id="xtick_2">
     <g id="line2d_2">
      <g>
       <use style="stroke:#000000;stroke-width:0.8;" x="627.020096" xlink:href="#mb07d5a47ba" y="512.64"/>
      </g>
     </g>
     <g id="text_2">
      <!-- 高频 -->
      <g transform="translate(599.020096 542.0225)scale(0.28 -0.28)">
       <defs>
        <path d="M 1194 3922 
L 5250 3922 
L 5250 2397 
L 4775 2397 
L 4775 2597 
L 1669 2597 
L 1669 2403 
L 1194 2403 
L 1194 3922 
z
M 969 -784 
L 494 -784 
L 494 2147 
L 5956 2147 
L 5956 22 
Q 5956 -747 5231 -747 
Q 4825 -747 4319 -734 
Q 4281 -522 4219 -241 
Q 4794 -284 5100 -284 
Q 5481 -284 5481 97 
L 5481 1747 
L 969 1747 
L 969 -784 
z
M 1813 1334 
L 4638 1334 
L 4638 28 
L 2263 28 
L 2263 -241 
L 1813 -241 
L 1813 1334 
z
M 125 4747 
L 2988 4747 
Q 2850 5013 2725 5216 
L 3194 5403 
Q 3372 5094 3541 4747 
L 6275 4747 
L 6275 4334 
L 125 4334 
L 125 4747 
z
M 4775 3534 
L 1669 3534 
L 1669 2984 
L 4775 2984 
L 4775 3534 
z
M 4188 416 
L 4188 947 
L 2263 947 
L 2263 416 
L 4188 416 
z
" id="MicrosoftYaHei-9ad8" transform="scale(0.015625)"/>
       </defs>
       <use xlink:href="#MicrosoftYaHei-9ad8"/>
       <use x="100" xlink:href="#MicrosoftYaHei-9891"/>
      </g>
     </g>
    </g>
   </g>
   <g id="matplotlib.axis_2">
    <g id="ytick_1">
     <g id="line2d_3">
      <defs>
       <path d="M 0 0 
L -3.5 0 
" id="m2e89a514f4" style="stroke:#000000;stroke-width:0.8;"/>
      </defs>
      <g>
       <use style="stroke:#000000;stroke-width:0.8;" x="108" xlink:href="#m2e89a514f4" y="512.64"/>
      </g>
     </g>
     <g id="text_3">
      <!-- 0.0 -->
      <g transform="translate(63.5 523.055625)scale(0.3 -0.3)">
       <defs>
        <path d="M 231 2094 
Q 231 2819 450 3342 
Q 669 3866 1031 4122 
Q 1313 4325 1613 4325 
Q 2100 4325 2488 3828 
Q 2972 3213 2972 2159 
Q 2972 1422 2759 906 
Q 2547 391 2217 158 
Q 1888 -75 1581 -75 
Q 975 -75 572 641 
Q 231 1244 231 2094 
z
M 844 2016 
Q 844 1141 1059 588 
Q 1238 122 1591 122 
Q 1759 122 1940 273 
Q 2122 425 2216 781 
Q 2359 1319 2359 2297 
Q 2359 3022 2209 3506 
Q 2097 3866 1919 4016 
Q 1791 4119 1609 4119 
Q 1397 4119 1231 3928 
Q 1006 3669 925 3112 
Q 844 2556 844 2016 
z
" id="TimesNewRomanPSMT-30" transform="scale(0.015625)"/>
        <path d="M 800 606 
Q 947 606 1047 504 
Q 1147 403 1147 259 
Q 1147 116 1045 14 
Q 944 -88 800 -88 
Q 656 -88 554 14 
Q 453 116 453 259 
Q 453 406 554 506 
Q 656 606 800 606 
z
" id="TimesNewRomanPSMT-2e" transform="scale(0.015625)"/>
       </defs>
       <use xlink:href="#TimesNewRomanPSMT-30"/>
       <use x="50" xlink:href="#TimesNewRomanPSMT-2e"/>
       <use x="75" xlink:href="#TimesNewRomanPSMT-30"/>
      </g>
     </g>
    </g>
    <g id="ytick_2">
     <g id="line2d_4">
      <g>
       <use style="stroke:#000000;stroke-width:0.8;" x="108" xlink:href="#m2e89a514f4" y="461.315577"/>
      </g>
     </g>
     <g id="text_4">
      <!-- 10.0 -->
      <g transform="translate(48.5 471.731202)scale(0.3 -0.3)">
       <defs>
        <path d="M 750 3822 
L 1781 4325 
L 1884 4325 
L 1884 747 
Q 1884 391 1914 303 
Q 1944 216 2037 169 
Q 2131 122 2419 116 
L 2419 0 
L 825 0 
L 825 116 
Q 1125 122 1212 167 
Q 1300 213 1334 289 
Q 1369 366 1369 747 
L 1369 3034 
Q 1369 3497 1338 3628 
Q 1316 3728 1258 3775 
Q 1200 3822 1119 3822 
Q 1003 3822 797 3725 
L 750 3822 
z
" id="TimesNewRomanPSMT-31" transform="scale(0.015625)"/>
       </defs>
       <use xlink:href="#TimesNewRomanPSMT-31"/>
       <use x="50" xlink:href="#TimesNewRomanPSMT-30"/>
       <use x="100" xlink:href="#TimesNewRomanPSMT-2e"/>
       <use x="125" xlink:href="#TimesNewRomanPSMT-30"/>
      </g>
     </g>
    </g>
    <g id="ytick_3">
     <g id="line2d_5">
      <g>
       <use style="stroke:#000000;stroke-width:0.8;" x="108" xlink:href="#m2e89a514f4" y="409.991154"/>
      </g>
     </g>
     <g id="text_5">
      <!-- 20.0 -->
      <g transform="translate(48.5 420.406779)scale(0.3 -0.3)">
       <defs>
        <path d="M 2934 816 
L 2638 0 
L 138 0 
L 138 116 
Q 1241 1122 1691 1759 
Q 2141 2397 2141 2925 
Q 2141 3328 1894 3587 
Q 1647 3847 1303 3847 
Q 991 3847 742 3664 
Q 494 3481 375 3128 
L 259 3128 
Q 338 3706 661 4015 
Q 984 4325 1469 4325 
Q 1984 4325 2329 3994 
Q 2675 3663 2675 3213 
Q 2675 2891 2525 2569 
Q 2294 2063 1775 1497 
Q 997 647 803 472 
L 1909 472 
Q 2247 472 2383 497 
Q 2519 522 2628 598 
Q 2738 675 2819 816 
L 2934 816 
z
" id="TimesNewRomanPSMT-32" transform="scale(0.015625)"/>
       </defs>
       <use xlink:href="#TimesNewRomanPSMT-32"/>
       <use x="50" xlink:href="#TimesNewRomanPSMT-30"/>
       <use x="100" xlink:href="#TimesNewRomanPSMT-2e"/>
       <use x="125" xlink:href="#TimesNewRomanPSMT-30"/>
      </g>
     </g>
    </g>
    <g id="ytick_4">
     <g id="line2d_6">
      <g>
       <use style="stroke:#000000;stroke-width:0.8;" x="108" xlink:href="#m2e89a514f4" y="358.666731"/>
      </g>
     </g>
     <g id="text_6">
      <!-- 30.0 -->
      <g transform="translate(48.5 369.082356)scale(0.3 -0.3)">
       <defs>
        <path d="M 325 3431 
Q 506 3859 782 4092 
Q 1059 4325 1472 4325 
Q 1981 4325 2253 3994 
Q 2459 3747 2459 3466 
Q 2459 3003 1878 2509 
Q 2269 2356 2469 2072 
Q 2669 1788 2669 1403 
Q 2669 853 2319 450 
Q 1863 -75 997 -75 
Q 569 -75 414 31 
Q 259 138 259 259 
Q 259 350 332 419 
Q 406 488 509 488 
Q 588 488 669 463 
Q 722 447 909 348 
Q 1097 250 1169 231 
Q 1284 197 1416 197 
Q 1734 197 1970 444 
Q 2206 691 2206 1028 
Q 2206 1275 2097 1509 
Q 2016 1684 1919 1775 
Q 1784 1900 1550 2001 
Q 1316 2103 1072 2103 
L 972 2103 
L 972 2197 
Q 1219 2228 1467 2375 
Q 1716 2522 1828 2728 
Q 1941 2934 1941 3181 
Q 1941 3503 1739 3701 
Q 1538 3900 1238 3900 
Q 753 3900 428 3381 
L 325 3431 
z
" id="TimesNewRomanPSMT-33" transform="scale(0.015625)"/>
       </defs>
       <use xlink:href="#TimesNewRomanPSMT-33"/>
       <use x="50" xlink:href="#TimesNewRomanPSMT-30"/>
       <use x="100" xlink:href="#TimesNewRomanPSMT-2e"/>
       <use x="125" xlink:href="#TimesNewRomanPSMT-30"/>
      </g>
     </g>
    </g>
    <g id="ytick_5">
     <g id="line2d_7">
      <g>
       <use style="stroke:#000000;stroke-width:0.8;" x="108" xlink:href="#m2e89a514f4" y="307.342309"/>
      </g>
     </g>
     <g id="text_7">
      <!-- 40.0 -->
      <g transform="translate(48.5 317.757934)scale(0.3 -0.3)">
       <defs>
        <path d="M 2978 1563 
L 2978 1119 
L 2409 1119 
L 2409 0 
L 1894 0 
L 1894 1119 
L 100 1119 
L 100 1519 
L 2066 4325 
L 2409 4325 
L 2409 1563 
L 2978 1563 
z
M 1894 1563 
L 1894 3666 
L 406 1563 
L 1894 1563 
z
" id="TimesNewRomanPSMT-34" transform="scale(0.015625)"/>
       </defs>
       <use xlink:href="#TimesNewRomanPSMT-34"/>
       <use x="50" xlink:href="#TimesNewRomanPSMT-30"/>
       <use x="100" xlink:href="#TimesNewRomanPSMT-2e"/>
       <use x="125" xlink:href="#TimesNewRomanPSMT-30"/>
      </g>
     </g>
    </g>
    <g id="ytick_6">
     <g id="line2d_8">
      <g>
       <use style="stroke:#000000;stroke-width:0.8;" x="108" xlink:href="#m2e89a514f4" y="256.017886"/>
      </g>
     </g>
     <g id="text_8">
      <!-- 50.0 -->
      <g transform="translate(48.5 266.433511)scale(0.3 -0.3)">
       <defs>
        <path d="M 2778 4238 
L 2534 3706 
L 1259 3706 
L 981 3138 
Q 1809 3016 2294 2522 
Q 2709 2097 2709 1522 
Q 2709 1188 2573 903 
Q 2438 619 2231 419 
Q 2025 219 1772 97 
Q 1413 -75 1034 -75 
Q 653 -75 479 54 
Q 306 184 306 341 
Q 306 428 378 495 
Q 450 563 559 563 
Q 641 563 702 538 
Q 763 513 909 409 
Q 1144 247 1384 247 
Q 1750 247 2026 523 
Q 2303 800 2303 1197 
Q 2303 1581 2056 1914 
Q 1809 2247 1375 2428 
Q 1034 2569 447 2591 
L 1259 4238 
L 2778 4238 
z
" id="TimesNewRomanPSMT-35" transform="scale(0.015625)"/>
       </defs>
       <use xlink:href="#TimesNewRomanPSMT-35"/>
       <use x="50" xlink:href="#TimesNewRomanPSMT-30"/>
       <use x="100" xlink:href="#TimesNewRomanPSMT-2e"/>
       <use x="125" xlink:href="#TimesNewRomanPSMT-30"/>
      </g>
     </g>
    </g>
    <g id="ytick_7">
     <g id="line2d_9">
      <g>
       <use style="stroke:#000000;stroke-width:0.8;" x="108" xlink:href="#m2e89a514f4" y="204.693463"/>
      </g>
     </g>
     <g id="text_9">
      <!-- 60.0 -->
      <g transform="translate(48.5 215.109088)scale(0.3 -0.3)">
       <defs>
        <path d="M 2869 4325 
L 2869 4209 
Q 2456 4169 2195 4045 
Q 1934 3922 1679 3669 
Q 1425 3416 1258 3105 
Q 1091 2794 978 2366 
Q 1428 2675 1881 2675 
Q 2316 2675 2634 2325 
Q 2953 1975 2953 1425 
Q 2953 894 2631 456 
Q 2244 -75 1606 -75 
Q 1172 -75 869 213 
Q 275 772 275 1663 
Q 275 2231 503 2743 
Q 731 3256 1154 3653 
Q 1578 4050 1965 4187 
Q 2353 4325 2688 4325 
L 2869 4325 
z
M 925 2138 
Q 869 1716 869 1456 
Q 869 1156 980 804 
Q 1091 453 1309 247 
Q 1469 100 1697 100 
Q 1969 100 2183 356 
Q 2397 613 2397 1088 
Q 2397 1622 2184 2012 
Q 1972 2403 1581 2403 
Q 1463 2403 1327 2353 
Q 1191 2303 925 2138 
z
" id="TimesNewRomanPSMT-36" transform="scale(0.015625)"/>
       </defs>
       <use xlink:href="#TimesNewRomanPSMT-36"/>
       <use x="50" xlink:href="#TimesNewRomanPSMT-30"/>
       <use x="100" xlink:href="#TimesNewRomanPSMT-2e"/>
       <use x="125" xlink:href="#TimesNewRomanPSMT-30"/>
      </g>
     </g>
    </g>
    <g id="ytick_8">
     <g id="line2d_10">
      <g>
       <use style="stroke:#000000;stroke-width:0.8;" x="108" xlink:href="#m2e89a514f4" y="153.36904"/>
      </g>
     </g>
     <g id="text_10">
      <!-- 70.0 -->
      <g transform="translate(48.5 163.784665)scale(0.3 -0.3)">
       <defs>
        <path d="M 644 4238 
L 2916 4238 
L 2916 4119 
L 1503 -88 
L 1153 -88 
L 2419 3728 
L 1253 3728 
Q 900 3728 750 3644 
Q 488 3500 328 3200 
L 238 3234 
L 644 4238 
z
" id="TimesNewRomanPSMT-37" transform="scale(0.015625)"/>
       </defs>
       <use xlink:href="#TimesNewRomanPSMT-37"/>
       <use x="50" xlink:href="#TimesNewRomanPSMT-30"/>
       <use x="100" xlink:href="#TimesNewRomanPSMT-2e"/>
       <use x="125" xlink:href="#TimesNewRomanPSMT-30"/>
      </g>
     </g>
    </g>
    <g id="ytick_9">
     <g id="line2d_11">
      <g>
       <use style="stroke:#000000;stroke-width:0.8;" x="108" xlink:href="#m2e89a514f4" y="102.044617"/>
      </g>
     </g>
     <g id="text_11">
      <!-- 80.0 -->
      <g transform="translate(48.5 112.460242)scale(0.3 -0.3)">
       <defs>
        <path d="M 1228 2134 
Q 725 2547 579 2797 
Q 434 3047 434 3316 
Q 434 3728 753 4026 
Q 1072 4325 1600 4325 
Q 2113 4325 2425 4047 
Q 2738 3769 2738 3413 
Q 2738 3175 2569 2928 
Q 2400 2681 1866 2347 
Q 2416 1922 2594 1678 
Q 2831 1359 2831 1006 
Q 2831 559 2490 242 
Q 2150 -75 1597 -75 
Q 994 -75 656 303 
Q 388 606 388 966 
Q 388 1247 577 1523 
Q 766 1800 1228 2134 
z
M 1719 2469 
Q 2094 2806 2194 3001 
Q 2294 3197 2294 3444 
Q 2294 3772 2109 3958 
Q 1925 4144 1606 4144 
Q 1288 4144 1088 3959 
Q 888 3775 888 3528 
Q 888 3366 970 3203 
Q 1053 3041 1206 2894 
L 1719 2469 
z
M 1375 2016 
Q 1116 1797 991 1539 
Q 866 1281 866 981 
Q 866 578 1086 336 
Q 1306 94 1647 94 
Q 1984 94 2187 284 
Q 2391 475 2391 747 
Q 2391 972 2272 1150 
Q 2050 1481 1375 2016 
z
" id="TimesNewRomanPSMT-38" transform="scale(0.015625)"/>
       </defs>
       <use xlink:href="#TimesNewRomanPSMT-38"/>
       <use x="50" xlink:href="#TimesNewRomanPSMT-30"/>
       <use x="100" xlink:href="#TimesNewRomanPSMT-2e"/>
       <use x="125" xlink:href="#TimesNewRomanPSMT-30"/>
      </g>
     </g>
    </g>
    <g id="text_12">
     <!-- 原任务完成率(%) -->
     <g transform="translate(37.539375 396.689375)rotate(-90)scale(0.28 -0.28)">
      <defs>
       <path d="M 1950 3853 
L 3081 3853 
Q 3200 4153 3306 4472 
L 1256 4472 
L 1256 2772 
Q 1256 1322 1088 634 
Q 919 -103 394 -866 
Q 238 -653 44 -434 
Q 475 209 613 834 
Q 756 1428 756 2659 
L 756 4928 
L 6219 4928 
L 6219 4472 
L 3856 4472 
Q 3716 4134 3584 3853 
L 5719 3853 
L 5719 1291 
L 5250 1291 
L 5250 1416 
L 4094 1416 
L 4094 16 
Q 4094 -772 3381 -766 
Q 3163 -766 2594 -753 
Q 2569 -516 2513 -209 
Q 3000 -272 3281 -272 
Q 3594 -272 3594 91 
L 3594 1416 
L 2419 1416 
L 2419 1291 
L 1950 1291 
L 1950 3853 
z
M 2419 1834 
L 5250 1834 
L 5250 2434 
L 2419 2434 
L 2419 1834 
z
M 5250 3434 
L 2419 3434 
L 2419 2841 
L 5250 2841 
L 5250 3434 
z
M 2488 1172 
L 2919 891 
Q 2313 -9 1613 -703 
Q 1450 -566 1206 -397 
Q 1838 184 2488 1172 
z
M 4925 1159 
Q 5738 391 6313 -266 
L 5894 -641 
Q 5294 122 4556 859 
L 4925 1159 
z
" id="MicrosoftYaHei-539f" transform="scale(0.015625)"/>
       <path d="M 2138 -3 
L 3963 -3 
L 3963 1972 
L 2025 1972 
L 2025 2447 
L 3963 2447 
L 3963 4306 
Q 3188 4253 2338 4209 
Q 2306 4428 2250 4691 
Q 4356 4803 5969 4978 
L 6063 4484 
Q 5325 4409 4488 4347 
L 4488 2447 
L 6319 2447 
L 6319 1972 
L 4488 1972 
L 4488 -3 
L 6225 -3 
L 6225 -466 
L 2138 -466 
L 2138 -3 
z
M 75 2309 
Q 1044 3616 1606 5291 
L 2100 5109 
Q 1819 4375 1513 3741 
L 1513 -841 
L 1019 -841 
L 1019 2822 
Q 666 2225 281 1753 
Q 194 2003 75 2309 
z
" id="MicrosoftYaHei-4efb" transform="scale(0.015625)"/>
       <path d="M 1900 5391 
L 2369 5191 
Q 2228 4959 2075 4741 
L 5456 4741 
L 5456 4322 
Q 4875 3616 3866 3088 
Q 4916 2706 6369 2616 
Q 6169 2334 6019 2091 
Q 4391 2306 3288 2819 
Q 2047 2291 288 1984 
Q 181 2178 31 2422 
Q 1597 2663 2750 3103 
Q 2038 3538 1609 4131 
Q 1125 3556 538 3066 
Q 350 3266 194 3403 
Q 1344 4316 1900 5391 
z
M 588 1728 
L 2406 1728 
Q 2450 2031 2481 2403 
L 2988 2403 
Q 2947 2031 2903 1728 
L 5425 1728 
Q 5363 609 5306 159 
Q 5206 -722 4256 -728 
Q 3888 -734 3150 -703 
Q 3113 -472 3056 -184 
Q 3775 -247 4244 -253 
Q 4775 -241 4831 284 
Q 4888 753 4913 1284 
L 2828 1284 
Q 2497 -219 500 -897 
Q 356 -691 194 -478 
Q 1988 103 2319 1284 
L 588 1284 
L 588 1728 
z
M 4788 4328 
L 1997 4328 
Q 2500 3725 3291 3334 
Q 4194 3756 4788 4328 
z
" id="MicrosoftYaHei-52a1" transform="scale(0.015625)"/>
       <path d="M 275 1959 
L 6150 1959 
L 6150 1516 
L 4131 1516 
L 4131 191 
Q 4131 -222 4538 -222 
L 5200 -222 
Q 5625 -222 5675 65 
Q 5725 353 5744 884 
Q 5969 797 6294 697 
Q 6250 184 6181 -141 
Q 6094 -678 5425 -678 
L 4406 -678 
Q 3625 -678 3625 122 
L 3625 1516 
L 2503 1516 
Q 2488 -247 438 -834 
Q 313 -628 125 -372 
Q 1975 78 2006 1516 
L 275 1516 
L 275 1959 
z
M 325 4534 
L 3000 4534 
Q 2878 4788 2688 5128 
L 3175 5353 
Q 3422 4878 3575 4534 
L 6075 4534 
L 6075 3384 
L 5563 3384 
L 5563 4091 
L 838 4091 
L 838 3384 
L 325 3384 
L 325 4534 
z
M 1050 3253 
L 5450 3253 
L 5450 2816 
L 1050 2816 
L 1050 3253 
z
" id="MicrosoftYaHei-5b8c" transform="scale(0.015625)"/>
       <path d="M 2750 -347 
Q 3472 138 4038 781 
Q 3675 1703 3609 3759 
L 1250 3759 
L 1250 2809 
L 3050 2809 
Q 3013 1616 2950 803 
Q 2875 -59 2113 -59 
Q 1856 -59 1431 -34 
Q 1394 197 1331 484 
Q 1769 422 2063 422 
Q 2425 422 2469 922 
Q 2519 1497 2544 2347 
L 1247 2347 
Q 1197 175 369 -866 
Q 213 -653 44 -434 
Q 750 503 750 2528 
L 750 4222 
L 3591 4222 
Q 3569 4716 3550 5291 
L 4069 5291 
Q 4066 4850 4084 4222 
L 6238 4222 
L 6238 3759 
L 4100 3759 
Q 4163 2078 4409 1247 
Q 5016 2069 5406 3109 
L 5900 2903 
Q 5363 1631 4609 691 
Q 5069 -244 5506 -244 
Q 5666 -244 5750 47 
Q 5838 503 5888 984 
Q 6156 878 6363 809 
Q 6269 141 6156 -284 
Q 6038 -741 5631 -778 
Q 5250 -803 4900 -522 
Q 4522 -231 4256 278 
Q 3728 -291 3106 -722 
Q 2944 -534 2750 -347 
z
M 4544 4984 
L 4806 5309 
Q 5331 5009 5788 4684 
L 5488 4309 
Q 5038 4666 4544 4984 
z
" id="MicrosoftYaHei-6210" transform="scale(0.015625)"/>
       <path d="M 2525 2009 
Q 2622 2016 3928 2081 
Q 3772 2300 3625 2491 
L 3963 2703 
Q 4413 2203 4794 1653 
L 4394 1403 
Q 4284 1569 4178 1725 
Q 2991 1659 2213 1597 
Q 2075 1584 1881 1541 
L 1725 1966 
Q 1913 2028 2006 2084 
Q 2534 2441 3050 2913 
Q 2597 2894 2275 2866 
Q 2144 2847 1988 2809 
L 1800 3191 
Q 1956 3247 2088 3366 
Q 2509 3722 2875 4228 
L 231 4228 
L 231 4666 
L 3031 4666 
Q 2878 4944 2744 5153 
L 3194 5372 
Q 3438 5000 3616 4666 
L 6175 4666 
L 6175 4228 
L 3053 4228 
L 3350 4072 
Q 2844 3553 2494 3247 
Q 2850 3256 3425 3269 
Q 3675 3519 3925 3797 
L 4356 3547 
Q 3363 2603 2525 2009 
z
M 144 991 
L 2994 991 
L 2994 1541 
L 3488 1541 
L 3488 991 
L 6275 991 
L 6275 553 
L 3488 553 
L 3488 -853 
L 2994 -853 
L 2994 553 
L 144 553 
L 144 991 
z
M 1719 2672 
L 1944 2303 
Q 1200 1866 425 1409 
L 163 1828 
Q 813 2134 1719 2672 
z
M 4856 2678 
Q 5750 2172 6250 1816 
L 5975 1409 
Q 5331 1909 4600 2341 
L 4856 2678 
z
M 5994 3591 
Q 5519 3178 4963 2809 
L 4644 3141 
Q 5244 3534 5638 3928 
L 5994 3591 
z
M 363 3634 
L 681 3941 
Q 1200 3528 1588 3159 
L 1238 2816 
Q 875 3197 363 3634 
z
" id="MicrosoftYaHei-7387" transform="scale(0.015625)"/>
       <path d="M 1531 -1100 
Q 478 100 478 1847 
Q 478 3594 1531 4841 
L 2072 4841 
Q 1016 3544 1016 1853 
Q 1016 166 2066 -1100 
L 1531 -1100 
z
" id="MicrosoftYaHei-28" transform="scale(0.015625)"/>
       <path d="M 272 3619 
Q 272 4213 589 4563 
Q 906 4913 1444 4913 
Q 1959 4913 2248 4591 
Q 2538 4269 2538 3694 
Q 2538 3122 2219 2765 
Q 1900 2409 1372 2409 
Q 872 2409 572 2740 
Q 272 3072 272 3619 
z
M 753 3650 
Q 753 3247 928 3028 
Q 1103 2809 1406 2809 
Q 1719 2809 1889 3036 
Q 2059 3263 2059 3675 
Q 2059 4078 1892 4298 
Q 1725 4519 1422 4519 
Q 1113 4519 933 4289 
Q 753 4059 753 3650 
z
M 4647 4841 
L 1538 -31 
L 1016 -31 
L 4125 4841 
L 4647 4841 
z
M 3172 1134 
Q 3172 1728 3489 2083 
Q 3806 2438 4341 2438 
Q 4853 2438 5143 2114 
Q 5434 1791 5434 1203 
Q 5434 634 5112 279 
Q 4791 -75 4272 -75 
Q 3769 -75 3470 261 
Q 3172 597 3172 1134 
z
M 3650 1163 
Q 3650 769 3825 548 
Q 4000 328 4303 328 
Q 4616 328 4786 556 
Q 4956 784 4956 1194 
Q 4956 1600 4786 1815 
Q 4616 2031 4319 2031 
Q 4000 2031 3825 1801 
Q 3650 1572 3650 1163 
z
" id="MicrosoftYaHei-25" transform="scale(0.015625)"/>
       <path d="M 78 -1100 
Q 1131 163 1131 1853 
Q 1131 3547 72 4841 
L 616 4841 
Q 1672 3603 1672 1847 
Q 1672 91 616 -1100 
L 78 -1100 
z
" id="MicrosoftYaHei-29" transform="scale(0.015625)"/>
      </defs>
      <use xlink:href="#MicrosoftYaHei-539f"/>
      <use x="100" xlink:href="#MicrosoftYaHei-4efb"/>
      <use x="200" xlink:href="#MicrosoftYaHei-52a1"/>
      <use x="300" xlink:href="#MicrosoftYaHei-5b8c"/>
      <use x="400" xlink:href="#MicrosoftYaHei-6210"/>
      <use x="500" xlink:href="#MicrosoftYaHei-7387"/>
      <use x="600" xlink:href="#MicrosoftYaHei-28"/>
      <use x="633.398438" xlink:href="#MicrosoftYaHei-25"/>
      <use x="722.363281" xlink:href="#MicrosoftYaHei-29"/>
     </g>
    </g>
   </g>
   <g id="patch_15">
    <path d="M 108 512.64 
L 108 69.12 
" style="fill:none;stroke:#000000;stroke-linecap:square;stroke-linejoin:miter;stroke-width:0.8;"/>
   </g>
   <g id="patch_16">
    <path d="M 777.6 512.64 
L 777.6 69.12 
" style="fill:none;stroke:#000000;stroke-linecap:square;stroke-linejoin:miter;stroke-width:0.8;"/>
   </g>
   <g id="patch_17">
    <path d="M 108 512.64 
L 777.6 512.64 
" style="fill:none;stroke:#000000;stroke-linecap:square;stroke-linejoin:miter;stroke-width:0.8;"/>
   </g>
   <g id="patch_18">
    <path d="M 108 69.12 
L 777.6 69.12 
" style="fill:none;stroke:#000000;stroke-linecap:square;stroke-linejoin:miter;stroke-width:0.8;"/>
   </g>
   <g id="legend_1">
    <g id="patch_19">
     <path d="M 545.720625 329.05625 
L 758 329.05625 
Q 763.6 329.05625 763.6 323.45625 
L 763.6 88.72 
Q 763.6 83.12 758 83.12 
L 545.720625 83.12 
Q 540.120625 83.12 540.120625 88.72 
L 540.120625 323.45625 
Q 540.120625 329.05625 545.720625 329.05625 
z
" style="fill:#ffffff;opacity:0.8;stroke:#cccccc;stroke-linejoin:miter;"/>
    </g>
    <g id="patch_20">
     <path d="M 551.320625 113.92 
L 607.320625 113.92 
L 607.320625 94.32 
L 551.320625 94.32 
z
" style="fill:#1f77b4;opacity:0.7;"/>
    </g>
    <g id="text_13">
     <!-- RDSE -->
     <g transform="translate(629.720625 113.92)scale(0.28 -0.28)">
      <defs>
       <path d="M 4325 0 
L 3194 0 
L 1759 1981 
Q 1600 1975 1500 1975 
Q 1459 1975 1412 1976 
Q 1366 1978 1316 1981 
L 1316 750 
Q 1316 350 1403 253 
Q 1522 116 1759 116 
L 1925 116 
L 1925 0 
L 109 0 
L 109 116 
L 269 116 
Q 538 116 653 291 
Q 719 388 719 750 
L 719 3488 
Q 719 3888 631 3984 
Q 509 4122 269 4122 
L 109 4122 
L 109 4238 
L 1653 4238 
Q 2328 4238 2648 4139 
Q 2969 4041 3192 3777 
Q 3416 3513 3416 3147 
Q 3416 2756 3161 2468 
Q 2906 2181 2372 2063 
L 3247 847 
Q 3547 428 3762 290 
Q 3978 153 4325 116 
L 4325 0 
z
M 1316 2178 
Q 1375 2178 1419 2176 
Q 1463 2175 1491 2175 
Q 2097 2175 2405 2437 
Q 2713 2700 2713 3106 
Q 2713 3503 2464 3751 
Q 2216 4000 1806 4000 
Q 1625 4000 1316 3941 
L 1316 2178 
z
" id="TimesNewRomanPSMT-52" transform="scale(0.015625)"/>
       <path d="M 109 0 
L 109 116 
L 269 116 
Q 538 116 650 288 
Q 719 391 719 750 
L 719 3488 
Q 719 3884 631 3984 
Q 509 4122 269 4122 
L 109 4122 
L 109 4238 
L 1834 4238 
Q 2784 4238 3279 4022 
Q 3775 3806 4076 3303 
Q 4378 2800 4378 2141 
Q 4378 1256 3841 663 
Q 3238 0 2003 0 
L 109 0 
z
M 1319 306 
Q 1716 219 1984 219 
Q 2709 219 3187 728 
Q 3666 1238 3666 2109 
Q 3666 2988 3187 3494 
Q 2709 4000 1959 4000 
Q 1678 4000 1319 3909 
L 1319 306 
z
" id="TimesNewRomanPSMT-44" transform="scale(0.015625)"/>
       <path d="M 2934 4334 
L 2934 2869 
L 2819 2869 
Q 2763 3291 2617 3541 
Q 2472 3791 2203 3937 
Q 1934 4084 1647 4084 
Q 1322 4084 1109 3886 
Q 897 3688 897 3434 
Q 897 3241 1031 3081 
Q 1225 2847 1953 2456 
Q 2547 2138 2764 1967 
Q 2981 1797 3098 1565 
Q 3216 1334 3216 1081 
Q 3216 600 2842 251 
Q 2469 -97 1881 -97 
Q 1697 -97 1534 -69 
Q 1438 -53 1133 45 
Q 828 144 747 144 
Q 669 144 623 97 
Q 578 50 556 -97 
L 441 -97 
L 441 1356 
L 556 1356 
Q 638 900 775 673 
Q 913 447 1195 297 
Q 1478 147 1816 147 
Q 2206 147 2432 353 
Q 2659 559 2659 841 
Q 2659 997 2573 1156 
Q 2488 1316 2306 1453 
Q 2184 1547 1640 1851 
Q 1097 2156 867 2337 
Q 638 2519 519 2737 
Q 400 2956 400 3219 
Q 400 3675 750 4004 
Q 1100 4334 1641 4334 
Q 1978 4334 2356 4169 
Q 2531 4091 2603 4091 
Q 2684 4091 2736 4139 
Q 2788 4188 2819 4334 
L 2934 4334 
z
" id="TimesNewRomanPSMT-53" transform="scale(0.015625)"/>
       <path d="M 1338 4006 
L 1338 2331 
L 2269 2331 
Q 2631 2331 2753 2441 
Q 2916 2584 2934 2947 
L 3050 2947 
L 3050 1472 
L 2934 1472 
Q 2891 1781 2847 1869 
Q 2791 1978 2662 2040 
Q 2534 2103 2269 2103 
L 1338 2103 
L 1338 706 
Q 1338 425 1363 364 
Q 1388 303 1450 267 
Q 1513 231 1688 231 
L 2406 231 
Q 2766 231 2928 281 
Q 3091 331 3241 478 
Q 3434 672 3638 1063 
L 3763 1063 
L 3397 0 
L 131 0 
L 131 116 
L 281 116 
Q 431 116 566 188 
Q 666 238 702 338 
Q 738 438 738 747 
L 738 3500 
Q 738 3903 656 3997 
Q 544 4122 281 4122 
L 131 4122 
L 131 4238 
L 3397 4238 
L 3444 3309 
L 3322 3309 
Q 3256 3644 3176 3769 
Q 3097 3894 2941 3959 
Q 2816 4006 2500 4006 
L 1338 4006 
z
" id="TimesNewRomanPSMT-45" transform="scale(0.015625)"/>
      </defs>
      <use xlink:href="#TimesNewRomanPSMT-52"/>
      <use x="66.699219" xlink:href="#TimesNewRomanPSMT-44"/>
      <use x="138.916016" xlink:href="#TimesNewRomanPSMT-53"/>
      <use x="194.53125" xlink:href="#TimesNewRomanPSMT-45"/>
     </g>
    </g>
    <g id="patch_21">
     <path d="M 551.320625 153.509375 
L 607.320625 153.509375 
L 607.320625 133.909375 
L 551.320625 133.909375 
z
" style="fill:#ff7f0e;opacity:0.5;"/>
    </g>
    <g id="text_14">
     <!-- w/o DGPA -->
     <g transform="translate(629.720625 153.509375)scale(0.28 -0.28)">
      <defs>
       <path d="M 41 2863 
L 1241 2863 
L 1241 2747 
Q 1075 2734 1023 2687 
Q 972 2641 972 2553 
Q 972 2456 1025 2319 
L 1638 672 
L 2253 2013 
L 2091 2434 
Q 2016 2622 1894 2694 
Q 1825 2738 1638 2747 
L 1638 2863 
L 3000 2863 
L 3000 2747 
Q 2775 2738 2681 2666 
Q 2619 2616 2619 2506 
Q 2619 2444 2644 2378 
L 3294 734 
L 3897 2319 
Q 3959 2488 3959 2588 
Q 3959 2647 3898 2694 
Q 3838 2741 3659 2747 
L 3659 2863 
L 4563 2863 
L 4563 2747 
Q 4291 2706 4163 2378 
L 3206 -88 
L 3078 -88 
L 2363 1741 
L 1528 -88 
L 1413 -88 
L 494 2319 
Q 403 2547 315 2626 
Q 228 2706 41 2747 
L 41 2863 
z
" id="TimesNewRomanPSMT-77" transform="scale(0.015625)"/>
       <path d="M 1794 4444 
L 259 -88 
L 9 -88 
L 1544 4444 
L 1794 4444 
z
" id="TimesNewRomanPSMT-2f" transform="scale(0.015625)"/>
       <path d="M 1600 2947 
Q 2250 2947 2644 2453 
Q 2978 2031 2978 1484 
Q 2978 1100 2793 706 
Q 2609 313 2286 112 
Q 1963 -88 1566 -88 
Q 919 -88 538 428 
Q 216 863 216 1403 
Q 216 1797 411 2186 
Q 606 2575 925 2761 
Q 1244 2947 1600 2947 
z
M 1503 2744 
Q 1338 2744 1170 2645 
Q 1003 2547 900 2300 
Q 797 2053 797 1666 
Q 797 1041 1045 587 
Q 1294 134 1700 134 
Q 2003 134 2200 384 
Q 2397 634 2397 1244 
Q 2397 2006 2069 2444 
Q 1847 2744 1503 2744 
z
" id="TimesNewRomanPSMT-6f" transform="scale(0.015625)"/>
       <path id="TimesNewRomanPSMT-20" transform="scale(0.015625)"/>
       <path d="M 3928 4334 
L 4038 2997 
L 3928 2997 
Q 3763 3497 3500 3750 
Q 3122 4116 2528 4116 
Q 1719 4116 1297 3475 
Q 944 2934 944 2188 
Q 944 1581 1178 1081 
Q 1413 581 1792 348 
Q 2172 116 2572 116 
Q 2806 116 3025 175 
Q 3244 234 3447 350 
L 3447 1575 
Q 3447 1894 3398 1992 
Q 3350 2091 3248 2142 
Q 3147 2194 2891 2194 
L 2891 2313 
L 4531 2313 
L 4531 2194 
L 4453 2194 
Q 4209 2194 4119 2031 
Q 4056 1916 4056 1575 
L 4056 278 
Q 3697 84 3347 -6 
Q 2997 -97 2569 -97 
Q 1341 -97 703 691 
Q 225 1281 225 2053 
Q 225 2613 494 3125 
Q 813 3734 1369 4063 
Q 1834 4334 2469 4334 
Q 2700 4334 2889 4296 
Q 3078 4259 3425 4131 
Q 3600 4066 3659 4066 
Q 3719 4066 3761 4120 
Q 3803 4175 3813 4334 
L 3928 4334 
z
" id="TimesNewRomanPSMT-47" transform="scale(0.015625)"/>
       <path d="M 1313 1984 
L 1313 750 
Q 1313 350 1400 253 
Q 1519 116 1759 116 
L 1922 116 
L 1922 0 
L 106 0 
L 106 116 
L 266 116 
Q 534 116 650 291 
Q 713 388 713 750 
L 713 3488 
Q 713 3888 628 3984 
Q 506 4122 266 4122 
L 106 4122 
L 106 4238 
L 1659 4238 
Q 2228 4238 2556 4120 
Q 2884 4003 3109 3725 
Q 3334 3447 3334 3066 
Q 3334 2547 2992 2222 
Q 2650 1897 2025 1897 
Q 1872 1897 1694 1919 
Q 1516 1941 1313 1984 
z
M 1313 2163 
Q 1478 2131 1606 2115 
Q 1734 2100 1825 2100 
Q 2150 2100 2386 2351 
Q 2622 2603 2622 3003 
Q 2622 3278 2509 3514 
Q 2397 3750 2190 3867 
Q 1984 3984 1722 3984 
Q 1563 3984 1313 3925 
L 1313 2163 
z
" id="TimesNewRomanPSMT-50" transform="scale(0.015625)"/>
       <path d="M 2928 1419 
L 1288 1419 
L 1000 750 
Q 894 503 894 381 
Q 894 284 986 211 
Q 1078 138 1384 116 
L 1384 0 
L 50 0 
L 50 116 
Q 316 163 394 238 
Q 553 388 747 847 
L 2238 4334 
L 2347 4334 
L 3822 809 
Q 4000 384 4145 257 
Q 4291 131 4550 116 
L 4550 0 
L 2878 0 
L 2878 116 
Q 3131 128 3220 200 
Q 3309 272 3309 375 
Q 3309 513 3184 809 
L 2928 1419 
z
M 2841 1650 
L 2122 3363 
L 1384 1650 
L 2841 1650 
z
" id="TimesNewRomanPSMT-41" transform="scale(0.015625)"/>
      </defs>
      <use xlink:href="#TimesNewRomanPSMT-77"/>
      <use x="72.216797" xlink:href="#TimesNewRomanPSMT-2f"/>
      <use x="100" xlink:href="#TimesNewRomanPSMT-6f"/>
      <use x="150" xlink:href="#TimesNewRomanPSMT-20"/>
      <use x="175" xlink:href="#TimesNewRomanPSMT-44"/>
      <use x="247.216797" xlink:href="#TimesNewRomanPSMT-47"/>
      <use x="319.433594" xlink:href="#TimesNewRomanPSMT-50"/>
      <use x="365.923828" xlink:href="#TimesNewRomanPSMT-41"/>
     </g>
    </g>
    <g id="patch_22">
     <path d="M 551.320625 193.09875 
L 607.320625 193.09875 
L 607.320625 173.49875 
L 551.320625 173.49875 
z
" style="fill:#2ca02c;opacity:0.3;"/>
    </g>
    <g id="text_15">
     <!-- w/o Attn -->
     <g transform="translate(629.720625 193.09875)scale(0.28 -0.28)">
      <defs>
       <path d="M 1031 3803 
L 1031 2863 
L 1700 2863 
L 1700 2644 
L 1031 2644 
L 1031 788 
Q 1031 509 1111 412 
Q 1191 316 1316 316 
Q 1419 316 1516 380 
Q 1613 444 1666 569 
L 1788 569 
Q 1678 263 1478 108 
Q 1278 -47 1066 -47 
Q 922 -47 784 33 
Q 647 113 581 261 
Q 516 409 516 719 
L 516 2644 
L 63 2644 
L 63 2747 
Q 234 2816 414 2980 
Q 594 3144 734 3369 
Q 806 3488 934 3803 
L 1031 3803 
z
" id="TimesNewRomanPSMT-74" transform="scale(0.015625)"/>
       <path d="M 1034 2341 
Q 1538 2947 1994 2947 
Q 2228 2947 2397 2830 
Q 2566 2713 2666 2444 
Q 2734 2256 2734 1869 
L 2734 647 
Q 2734 375 2778 278 
Q 2813 200 2889 156 
Q 2966 113 3172 113 
L 3172 0 
L 1756 0 
L 1756 113 
L 1816 113 
Q 2016 113 2095 173 
Q 2175 234 2206 353 
Q 2219 400 2219 647 
L 2219 1819 
Q 2219 2209 2117 2386 
Q 2016 2563 1775 2563 
Q 1403 2563 1034 2156 
L 1034 647 
Q 1034 356 1069 288 
Q 1113 197 1189 155 
Q 1266 113 1500 113 
L 1500 0 
L 84 0 
L 84 113 
L 147 113 
Q 366 113 442 223 
Q 519 334 519 647 
L 519 1709 
Q 519 2225 495 2337 
Q 472 2450 423 2490 
Q 375 2531 294 2531 
Q 206 2531 84 2484 
L 38 2597 
L 900 2947 
L 1034 2947 
L 1034 2341 
z
" id="TimesNewRomanPSMT-6e" transform="scale(0.015625)"/>
      </defs>
      <use xlink:href="#TimesNewRomanPSMT-77"/>
      <use x="72.216797" xlink:href="#TimesNewRomanPSMT-2f"/>
      <use x="100" xlink:href="#TimesNewRomanPSMT-6f"/>
      <use x="150" xlink:href="#TimesNewRomanPSMT-20"/>
      <use x="169.5" xlink:href="#TimesNewRomanPSMT-41"/>
      <use x="241.716797" xlink:href="#TimesNewRomanPSMT-74"/>
      <use x="269.5" xlink:href="#TimesNewRomanPSMT-74"/>
      <use x="297.283203" xlink:href="#TimesNewRomanPSMT-6e"/>
     </g>
    </g>
    <g id="patch_23">
     <path d="M 551.320625 232.688125 
L 607.320625 232.688125 
L 607.320625 213.088125 
L 551.320625 213.088125 
z
" style="fill:#d62728;opacity:0.3;"/>
    </g>
    <g id="text_16">
     <!-- w/o AMN -->
     <g transform="translate(629.720625 232.688125)scale(0.28 -0.28)">
      <defs>
       <path d="M 2619 0 
L 981 3566 
L 981 734 
Q 981 344 1066 247 
Q 1181 116 1431 116 
L 1581 116 
L 1581 0 
L 106 0 
L 106 116 
L 256 116 
Q 525 116 638 278 
Q 706 378 706 734 
L 706 3503 
Q 706 3784 644 3909 
Q 600 4000 483 4061 
Q 366 4122 106 4122 
L 106 4238 
L 1306 4238 
L 2844 922 
L 4356 4238 
L 5556 4238 
L 5556 4122 
L 5409 4122 
Q 5138 4122 5025 3959 
Q 4956 3859 4956 3503 
L 4956 734 
Q 4956 344 5044 247 
Q 5159 116 5409 116 
L 5556 116 
L 5556 0 
L 3756 0 
L 3756 116 
L 3906 116 
Q 4178 116 4288 278 
Q 4356 378 4356 734 
L 4356 3566 
L 2722 0 
L 2619 0 
z
" id="TimesNewRomanPSMT-4d" transform="scale(0.015625)"/>
       <path d="M -84 4238 
L 1066 4238 
L 3656 1059 
L 3656 3503 
Q 3656 3894 3569 3991 
Q 3453 4122 3203 4122 
L 3056 4122 
L 3056 4238 
L 4531 4238 
L 4531 4122 
L 4381 4122 
Q 4113 4122 4000 3959 
Q 3931 3859 3931 3503 
L 3931 -69 
L 3819 -69 
L 1025 3344 
L 1025 734 
Q 1025 344 1109 247 
Q 1228 116 1475 116 
L 1625 116 
L 1625 0 
L 150 0 
L 150 116 
L 297 116 
Q 569 116 681 278 
Q 750 378 750 734 
L 750 3681 
Q 566 3897 470 3965 
Q 375 4034 191 4094 
Q 100 4122 -84 4122 
L -84 4238 
z
" id="TimesNewRomanPSMT-4e" transform="scale(0.015625)"/>
      </defs>
      <use xlink:href="#TimesNewRomanPSMT-77"/>
      <use x="72.216797" xlink:href="#TimesNewRomanPSMT-2f"/>
      <use x="100" xlink:href="#TimesNewRomanPSMT-6f"/>
      <use x="150" xlink:href="#TimesNewRomanPSMT-20"/>
      <use x="169.5" xlink:href="#TimesNewRomanPSMT-41"/>
      <use x="241.716797" xlink:href="#TimesNewRomanPSMT-4d"/>
      <use x="330.632812" xlink:href="#TimesNewRomanPSMT-4e"/>
     </g>
    </g>
    <g id="patch_24">
     <path d="M 551.320625 272.2775 
L 607.320625 272.2775 
L 607.320625 252.6775 
L 551.320625 252.6775 
z
" style="fill:#9467bd;opacity:0.5;"/>
    </g>
    <g id="text_17">
     <!-- PPO -->
     <g transform="translate(629.720625 272.2775)scale(0.28 -0.28)">
      <defs>
       <path d="M 2341 4334 
Q 3166 4334 3770 3707 
Q 4375 3081 4375 2144 
Q 4375 1178 3765 540 
Q 3156 -97 2291 -97 
Q 1416 -97 820 525 
Q 225 1147 225 2134 
Q 225 3144 913 3781 
Q 1509 4334 2341 4334 
z
M 2281 4106 
Q 1713 4106 1369 3684 
Q 941 3159 941 2147 
Q 941 1109 1384 550 
Q 1725 125 2284 125 
Q 2881 125 3270 590 
Q 3659 1056 3659 2059 
Q 3659 3147 3231 3681 
Q 2888 4106 2281 4106 
z
" id="TimesNewRomanPSMT-4f" transform="scale(0.015625)"/>
      </defs>
      <use xlink:href="#TimesNewRomanPSMT-50"/>
      <use x="55.615234" xlink:href="#TimesNewRomanPSMT-50"/>
      <use x="111.230469" xlink:href="#TimesNewRomanPSMT-4f"/>
     </g>
    </g>
    <g id="patch_25">
     <path d="M 551.320625 311.866875 
L 607.320625 311.866875 
L 607.320625 292.266875 
L 551.320625 292.266875 
z
" style="fill:#8c564b;opacity:0.7;"/>
    </g>
    <g id="text_18">
     <!-- A2C -->
     <g transform="translate(629.720625 311.866875)scale(0.28 -0.28)">
      <defs>
       <path d="M 3853 4334 
L 3950 2894 
L 3853 2894 
Q 3659 3541 3300 3825 
Q 2941 4109 2438 4109 
Q 2016 4109 1675 3895 
Q 1334 3681 1139 3212 
Q 944 2744 944 2047 
Q 944 1472 1128 1050 
Q 1313 628 1683 403 
Q 2053 178 2528 178 
Q 2941 178 3256 354 
Q 3572 531 3950 1056 
L 4047 994 
Q 3728 428 3303 165 
Q 2878 -97 2294 -97 
Q 1241 -97 663 684 
Q 231 1266 231 2053 
Q 231 2688 515 3219 
Q 800 3750 1298 4042 
Q 1797 4334 2388 4334 
Q 2847 4334 3294 4109 
Q 3425 4041 3481 4041 
Q 3566 4041 3628 4100 
Q 3709 4184 3744 4334 
L 3853 4334 
z
" id="TimesNewRomanPSMT-43" transform="scale(0.015625)"/>
      </defs>
      <use xlink:href="#TimesNewRomanPSMT-41"/>
      <use x="72.216797" xlink:href="#TimesNewRomanPSMT-32"/>
      <use x="122.216797" xlink:href="#TimesNewRomanPSMT-43"/>
     </g>
    </g>
   </g>
  </g>
 </g>
 <defs>
  <clipPath id="pa13efcba9d">
   <rect height="443.52" width="669.6" x="108" y="69.12"/>
  </clipPath>
 </defs>
</svg>
