<?xml version="1.0" encoding="utf-8" standalone="no"?>
<!DOCTYPE svg PUBLIC "-//W3C//DTD SVG 1.1//EN"
  "http://www.w3.org/Graphics/SVG/1.1/DTD/svg11.dtd">
<svg height="720pt" version="1.1" viewBox="0 0 864 720" width="864pt" xmlns="http://www.w3.org/2000/svg" xmlns:xlink="http://www.w3.org/1999/xlink">
 <metadata>
  <rdf:RDF xmlns:cc="http://creativecommons.org/ns#" xmlns:dc="http://purl.org/dc/elements/1.1/" xmlns:rdf="http://www.w3.org/1999/02/22-rdf-syntax-ns#">
   <cc:Work>
    <dc:type rdf:resource="http://purl.org/dc/dcmitype/StillImage"/>
    <dc:date>2025-02-27T18:27:01.828085</dc:date>
    <dc:format>image/svg+xml</dc:format>
    <dc:creator>
     <cc:Agent>
      <dc:title>Matplotlib v3.4.3, https://matplotlib.org/</dc:title>
     </cc:Agent>
    </dc:creator>
   </cc:Work>
  </rdf:RDF>
 </metadata>
 <defs>
  <style type="text/css">*{stroke-linecap:butt;stroke-linejoin:round;}</style>
 </defs>
 <g id="figure_1">
  <g id="patch_1">
   <path d="M 0 720 
L 864 720 
L 864 0 
L 0 0 
z
" style="fill:#ffffff;"/>
  </g>
  <g id="axes_1">
   <g id="patch_2">
    <path d="M 110.36 613.24 
L 837.556364 613.24 
L 837.556364 10.8 
L 110.36 10.8 
z
" style="fill:#ffffff;"/>
   </g>
   <g id="matplotlib.axis_1">
    <g id="xtick_1">
     <g id="line2d_1">
      <path clip-path="url(#p9769518483)" d="M 143.41438 613.24 
L 143.41438 10.8 
" style="fill:none;stroke:#b0b0b0;stroke-dasharray:2.96,1.28;stroke-dashoffset:0;stroke-opacity:0.5;stroke-width:0.8;"/>
     </g>
     <g id="line2d_2">
      <defs>
       <path d="M 0 0 
L 0 3.5 
" id="mcd331ad8a2" style="stroke:#000000;stroke-width:0.8;"/>
      </defs>
      <g>
       <use style="stroke:#000000;stroke-width:0.8;" x="143.41438" xlink:href="#mcd331ad8a2" y="613.24"/>
      </g>
     </g>
     <g id="text_1">
      <!-- 0 -->
      <g transform="translate(131.91438 652.18125)scale(0.46 -0.46)">
       <defs>
        <path d="M 231 2094 
Q 231 2819 450 3342 
Q 669 3866 1031 4122 
Q 1313 4325 1613 4325 
Q 2100 4325 2488 3828 
Q 2972 3213 2972 2159 
Q 2972 1422 2759 906 
Q 2547 391 2217 158 
Q 1888 -75 1581 -75 
Q 975 -75 572 641 
Q 231 1244 231 2094 
z
M 844 2016 
Q 844 1141 1059 588 
Q 1238 122 1591 122 
Q 1759 122 1940 273 
Q 2122 425 2216 781 
Q 2359 1319 2359 2297 
Q 2359 3022 2209 3506 
Q 2097 3866 1919 4016 
Q 1791 4119 1609 4119 
Q 1397 4119 1231 3928 
Q 1006 3669 925 3112 
Q 844 2556 844 2016 
z
" id="TimesNewRomanPSMT-30" transform="scale(0.015625)"/>
       </defs>
       <use xlink:href="#TimesNewRomanPSMT-30"/>
      </g>
     </g>
    </g>
    <g id="xtick_2">
     <g id="line2d_3">
      <path clip-path="url(#p9769518483)" d="M 275.631901 613.24 
L 275.631901 10.8 
" style="fill:none;stroke:#b0b0b0;stroke-dasharray:2.96,1.28;stroke-dashoffset:0;stroke-opacity:0.5;stroke-width:0.8;"/>
     </g>
     <g id="line2d_4">
      <g>
       <use style="stroke:#000000;stroke-width:0.8;" x="275.631901" xlink:href="#mcd331ad8a2" y="613.24"/>
      </g>
     </g>
     <g id="text_2">
      <!-- 200 -->
      <g transform="translate(241.131901 652.18125)scale(0.46 -0.46)">
       <defs>
        <path d="M 2934 816 
L 2638 0 
L 138 0 
L 138 116 
Q 1241 1122 1691 1759 
Q 2141 2397 2141 2925 
Q 2141 3328 1894 3587 
Q 1647 3847 1303 3847 
Q 991 3847 742 3664 
Q 494 3481 375 3128 
L 259 3128 
Q 338 3706 661 4015 
Q 984 4325 1469 4325 
Q 1984 4325 2329 3994 
Q 2675 3663 2675 3213 
Q 2675 2891 2525 2569 
Q 2294 2063 1775 1497 
Q 997 647 803 472 
L 1909 472 
Q 2247 472 2383 497 
Q 2519 522 2628 598 
Q 2738 675 2819 816 
L 2934 816 
z
" id="TimesNewRomanPSMT-32" transform="scale(0.015625)"/>
       </defs>
       <use xlink:href="#TimesNewRomanPSMT-32"/>
       <use x="50" xlink:href="#TimesNewRomanPSMT-30"/>
       <use x="100" xlink:href="#TimesNewRomanPSMT-30"/>
      </g>
     </g>
    </g>
    <g id="xtick_3">
     <g id="line2d_5">
      <path clip-path="url(#p9769518483)" d="M 407.849421 613.24 
L 407.849421 10.8 
" style="fill:none;stroke:#b0b0b0;stroke-dasharray:2.96,1.28;stroke-dashoffset:0;stroke-opacity:0.5;stroke-width:0.8;"/>
     </g>
     <g id="line2d_6">
      <g>
       <use style="stroke:#000000;stroke-width:0.8;" x="407.849421" xlink:href="#mcd331ad8a2" y="613.24"/>
      </g>
     </g>
     <g id="text_3">
      <!-- 400 -->
      <g transform="translate(373.349421 652.18125)scale(0.46 -0.46)">
       <defs>
        <path d="M 2978 1563 
L 2978 1119 
L 2409 1119 
L 2409 0 
L 1894 0 
L 1894 1119 
L 100 1119 
L 100 1519 
L 2066 4325 
L 2409 4325 
L 2409 1563 
L 2978 1563 
z
M 1894 1563 
L 1894 3666 
L 406 1563 
L 1894 1563 
z
" id="TimesNewRomanPSMT-34" transform="scale(0.015625)"/>
       </defs>
       <use xlink:href="#TimesNewRomanPSMT-34"/>
       <use x="50" xlink:href="#TimesNewRomanPSMT-30"/>
       <use x="100" xlink:href="#TimesNewRomanPSMT-30"/>
      </g>
     </g>
    </g>
    <g id="xtick_4">
     <g id="line2d_7">
      <path clip-path="url(#p9769518483)" d="M 540.066942 613.24 
L 540.066942 10.8 
" style="fill:none;stroke:#b0b0b0;stroke-dasharray:2.96,1.28;stroke-dashoffset:0;stroke-opacity:0.5;stroke-width:0.8;"/>
     </g>
     <g id="line2d_8">
      <g>
       <use style="stroke:#000000;stroke-width:0.8;" x="540.066942" xlink:href="#mcd331ad8a2" y="613.24"/>
      </g>
     </g>
     <g id="text_4">
      <!-- 600 -->
      <g transform="translate(505.566942 652.18125)scale(0.46 -0.46)">
       <defs>
        <path d="M 2869 4325 
L 2869 4209 
Q 2456 4169 2195 4045 
Q 1934 3922 1679 3669 
Q 1425 3416 1258 3105 
Q 1091 2794 978 2366 
Q 1428 2675 1881 2675 
Q 2316 2675 2634 2325 
Q 2953 1975 2953 1425 
Q 2953 894 2631 456 
Q 2244 -75 1606 -75 
Q 1172 -75 869 213 
Q 275 772 275 1663 
Q 275 2231 503 2743 
Q 731 3256 1154 3653 
Q 1578 4050 1965 4187 
Q 2353 4325 2688 4325 
L 2869 4325 
z
M 925 2138 
Q 869 1716 869 1456 
Q 869 1156 980 804 
Q 1091 453 1309 247 
Q 1469 100 1697 100 
Q 1969 100 2183 356 
Q 2397 613 2397 1088 
Q 2397 1622 2184 2012 
Q 1972 2403 1581 2403 
Q 1463 2403 1327 2353 
Q 1191 2303 925 2138 
z
" id="TimesNewRomanPSMT-36" transform="scale(0.015625)"/>
       </defs>
       <use xlink:href="#TimesNewRomanPSMT-36"/>
       <use x="50" xlink:href="#TimesNewRomanPSMT-30"/>
       <use x="100" xlink:href="#TimesNewRomanPSMT-30"/>
      </g>
     </g>
    </g>
    <g id="xtick_5">
     <g id="line2d_9">
      <path clip-path="url(#p9769518483)" d="M 672.284463 613.24 
L 672.284463 10.8 
" style="fill:none;stroke:#b0b0b0;stroke-dasharray:2.96,1.28;stroke-dashoffset:0;stroke-opacity:0.5;stroke-width:0.8;"/>
     </g>
     <g id="line2d_10">
      <g>
       <use style="stroke:#000000;stroke-width:0.8;" x="672.284463" xlink:href="#mcd331ad8a2" y="613.24"/>
      </g>
     </g>
     <g id="text_5">
      <!-- 800 -->
      <g transform="translate(637.784463 652.18125)scale(0.46 -0.46)">
       <defs>
        <path d="M 1228 2134 
Q 725 2547 579 2797 
Q 434 3047 434 3316 
Q 434 3728 753 4026 
Q 1072 4325 1600 4325 
Q 2113 4325 2425 4047 
Q 2738 3769 2738 3413 
Q 2738 3175 2569 2928 
Q 2400 2681 1866 2347 
Q 2416 1922 2594 1678 
Q 2831 1359 2831 1006 
Q 2831 559 2490 242 
Q 2150 -75 1597 -75 
Q 994 -75 656 303 
Q 388 606 388 966 
Q 388 1247 577 1523 
Q 766 1800 1228 2134 
z
M 1719 2469 
Q 2094 2806 2194 3001 
Q 2294 3197 2294 3444 
Q 2294 3772 2109 3958 
Q 1925 4144 1606 4144 
Q 1288 4144 1088 3959 
Q 888 3775 888 3528 
Q 888 3366 970 3203 
Q 1053 3041 1206 2894 
L 1719 2469 
z
M 1375 2016 
Q 1116 1797 991 1539 
Q 866 1281 866 981 
Q 866 578 1086 336 
Q 1306 94 1647 94 
Q 1984 94 2187 284 
Q 2391 475 2391 747 
Q 2391 972 2272 1150 
Q 2050 1481 1375 2016 
z
" id="TimesNewRomanPSMT-38" transform="scale(0.015625)"/>
       </defs>
       <use xlink:href="#TimesNewRomanPSMT-38"/>
       <use x="50" xlink:href="#TimesNewRomanPSMT-30"/>
       <use x="100" xlink:href="#TimesNewRomanPSMT-30"/>
      </g>
     </g>
    </g>
    <g id="xtick_6">
     <g id="line2d_11">
      <path clip-path="url(#p9769518483)" d="M 804.501983 613.24 
L 804.501983 10.8 
" style="fill:none;stroke:#b0b0b0;stroke-dasharray:2.96,1.28;stroke-dashoffset:0;stroke-opacity:0.5;stroke-width:0.8;"/>
     </g>
     <g id="line2d_12">
      <g>
       <use style="stroke:#000000;stroke-width:0.8;" x="804.501983" xlink:href="#mcd331ad8a2" y="613.24"/>
      </g>
     </g>
     <g id="text_6">
      <!-- 1000 -->
      <g transform="translate(758.501983 652.18125)scale(0.46 -0.46)">
       <defs>
        <path d="M 750 3822 
L 1781 4325 
L 1884 4325 
L 1884 747 
Q 1884 391 1914 303 
Q 1944 216 2037 169 
Q 2131 122 2419 116 
L 2419 0 
L 825 0 
L 825 116 
Q 1125 122 1212 167 
Q 1300 213 1334 289 
Q 1369 366 1369 747 
L 1369 3034 
Q 1369 3497 1338 3628 
Q 1316 3728 1258 3775 
Q 1200 3822 1119 3822 
Q 1003 3822 797 3725 
L 750 3822 
z
" id="TimesNewRomanPSMT-31" transform="scale(0.015625)"/>
       </defs>
       <use xlink:href="#TimesNewRomanPSMT-31"/>
       <use x="50" xlink:href="#TimesNewRomanPSMT-30"/>
       <use x="100" xlink:href="#TimesNewRomanPSMT-30"/>
       <use x="150" xlink:href="#TimesNewRomanPSMT-30"/>
      </g>
     </g>
    </g>
    <g id="text_7">
     <!-- episode -->
     <g transform="translate(403.696776 697.962187)scale(0.46 -0.46)">
      <defs>
       <path d="M 681 1784 
Q 678 1147 991 784 
Q 1303 422 1725 422 
Q 2006 422 2214 576 
Q 2422 731 2563 1106 
L 2659 1044 
Q 2594 616 2278 264 
Q 1963 -88 1488 -88 
Q 972 -88 605 314 
Q 238 716 238 1394 
Q 238 2128 614 2539 
Q 991 2950 1559 2950 
Q 2041 2950 2350 2633 
Q 2659 2316 2659 1784 
L 681 1784 
z
M 681 1966 
L 2006 1966 
Q 1991 2241 1941 2353 
Q 1863 2528 1708 2628 
Q 1553 2728 1384 2728 
Q 1125 2728 920 2526 
Q 716 2325 681 1966 
z
" id="TimesNewRomanPSMT-65" transform="scale(0.015625)"/>
       <path d="M -6 2578 
L 875 2934 
L 994 2934 
L 994 2266 
Q 1216 2644 1439 2795 
Q 1663 2947 1909 2947 
Q 2341 2947 2628 2609 
Q 2981 2197 2981 1534 
Q 2981 794 2556 309 
Q 2206 -88 1675 -88 
Q 1444 -88 1275 -22 
Q 1150 25 994 166 
L 994 -706 
Q 994 -1000 1030 -1079 
Q 1066 -1159 1155 -1206 
Q 1244 -1253 1478 -1253 
L 1478 -1369 
L -22 -1369 
L -22 -1253 
L 56 -1253 
Q 228 -1256 350 -1188 
Q 409 -1153 442 -1076 
Q 475 -1000 475 -688 
L 475 2019 
Q 475 2297 450 2372 
Q 425 2447 370 2484 
Q 316 2522 222 2522 
Q 147 2522 31 2478 
L -6 2578 
z
M 994 2081 
L 994 1013 
Q 994 666 1022 556 
Q 1066 375 1236 237 
Q 1406 100 1666 100 
Q 1978 100 2172 344 
Q 2425 663 2425 1241 
Q 2425 1897 2138 2250 
Q 1938 2494 1663 2494 
Q 1513 2494 1366 2419 
Q 1253 2363 994 2081 
z
" id="TimesNewRomanPSMT-70" transform="scale(0.015625)"/>
       <path d="M 928 4444 
Q 1059 4444 1151 4351 
Q 1244 4259 1244 4128 
Q 1244 3997 1151 3903 
Q 1059 3809 928 3809 
Q 797 3809 703 3903 
Q 609 3997 609 4128 
Q 609 4259 701 4351 
Q 794 4444 928 4444 
z
M 1188 2947 
L 1188 647 
Q 1188 378 1227 289 
Q 1266 200 1342 156 
Q 1419 113 1622 113 
L 1622 0 
L 231 0 
L 231 113 
Q 441 113 512 153 
Q 584 194 626 287 
Q 669 381 669 647 
L 669 1750 
Q 669 2216 641 2353 
Q 619 2453 572 2492 
Q 525 2531 444 2531 
Q 356 2531 231 2484 
L 188 2597 
L 1050 2947 
L 1188 2947 
z
" id="TimesNewRomanPSMT-69" transform="scale(0.015625)"/>
       <path d="M 2050 2947 
L 2050 1972 
L 1947 1972 
Q 1828 2431 1642 2597 
Q 1456 2763 1169 2763 
Q 950 2763 815 2647 
Q 681 2531 681 2391 
Q 681 2216 781 2091 
Q 878 1963 1175 1819 
L 1631 1597 
Q 2266 1288 2266 781 
Q 2266 391 1970 151 
Q 1675 -88 1309 -88 
Q 1047 -88 709 6 
Q 606 38 541 38 
Q 469 38 428 -44 
L 325 -44 
L 325 978 
L 428 978 
Q 516 541 762 319 
Q 1009 97 1316 97 
Q 1531 97 1667 223 
Q 1803 350 1803 528 
Q 1803 744 1651 891 
Q 1500 1038 1047 1263 
Q 594 1488 453 1669 
Q 313 1847 313 2119 
Q 313 2472 555 2709 
Q 797 2947 1181 2947 
Q 1350 2947 1591 2875 
Q 1750 2828 1803 2828 
Q 1853 2828 1881 2850 
Q 1909 2872 1947 2947 
L 2050 2947 
z
" id="TimesNewRomanPSMT-73" transform="scale(0.015625)"/>
       <path d="M 1600 2947 
Q 2250 2947 2644 2453 
Q 2978 2031 2978 1484 
Q 2978 1100 2793 706 
Q 2609 313 2286 112 
Q 1963 -88 1566 -88 
Q 919 -88 538 428 
Q 216 863 216 1403 
Q 216 1797 411 2186 
Q 606 2575 925 2761 
Q 1244 2947 1600 2947 
z
M 1503 2744 
Q 1338 2744 1170 2645 
Q 1003 2547 900 2300 
Q 797 2053 797 1666 
Q 797 1041 1045 587 
Q 1294 134 1700 134 
Q 2003 134 2200 384 
Q 2397 634 2397 1244 
Q 2397 2006 2069 2444 
Q 1847 2744 1503 2744 
z
" id="TimesNewRomanPSMT-6f" transform="scale(0.015625)"/>
       <path d="M 2222 322 
Q 2013 103 1813 7 
Q 1613 -88 1381 -88 
Q 913 -88 563 304 
Q 213 697 213 1313 
Q 213 1928 600 2439 
Q 988 2950 1597 2950 
Q 1975 2950 2222 2709 
L 2222 3238 
Q 2222 3728 2198 3840 
Q 2175 3953 2125 3993 
Q 2075 4034 2000 4034 
Q 1919 4034 1784 3984 
L 1744 4094 
L 2597 4444 
L 2738 4444 
L 2738 1134 
Q 2738 631 2761 520 
Q 2784 409 2836 365 
Q 2888 322 2956 322 
Q 3041 322 3181 375 
L 3216 266 
L 2366 -88 
L 2222 -88 
L 2222 322 
z
M 2222 541 
L 2222 2016 
Q 2203 2228 2109 2403 
Q 2016 2578 1861 2667 
Q 1706 2756 1559 2756 
Q 1284 2756 1069 2509 
Q 784 2184 784 1559 
Q 784 928 1059 592 
Q 1334 256 1672 256 
Q 1956 256 2222 541 
z
" id="TimesNewRomanPSMT-64" transform="scale(0.015625)"/>
      </defs>
      <use xlink:href="#TimesNewRomanPSMT-65"/>
      <use x="44.384766" xlink:href="#TimesNewRomanPSMT-70"/>
      <use x="94.384766" xlink:href="#TimesNewRomanPSMT-69"/>
      <use x="122.167969" xlink:href="#TimesNewRomanPSMT-73"/>
      <use x="161.083984" xlink:href="#TimesNewRomanPSMT-6f"/>
      <use x="211.083984" xlink:href="#TimesNewRomanPSMT-64"/>
      <use x="261.083984" xlink:href="#TimesNewRomanPSMT-65"/>
     </g>
    </g>
   </g>
   <g id="matplotlib.axis_2">
    <g id="ytick_1">
     <g id="line2d_13">
      <path clip-path="url(#p9769518483)" d="M 110.36 613.24 
L 837.556364 613.24 
" style="fill:none;stroke:#b0b0b0;stroke-dasharray:2.96,1.28;stroke-dashoffset:0;stroke-opacity:0.5;stroke-width:0.8;"/>
     </g>
     <g id="line2d_14">
      <defs>
       <path d="M 0 0 
L -3.5 0 
" id="m4be38c5de6" style="stroke:#000000;stroke-width:0.8;"/>
      </defs>
      <g>
       <use style="stroke:#000000;stroke-width:0.8;" x="110.36" xlink:href="#m4be38c5de6" y="613.24"/>
      </g>
     </g>
     <g id="text_8">
      <!-- 0 -->
      <g transform="translate(80.36 629.210625)scale(0.46 -0.46)">
       <use xlink:href="#TimesNewRomanPSMT-30"/>
      </g>
     </g>
    </g>
    <g id="ytick_2">
     <g id="line2d_15">
      <path clip-path="url(#p9769518483)" d="M 110.36 544.014231 
L 837.556364 544.014231 
" style="fill:none;stroke:#b0b0b0;stroke-dasharray:2.96,1.28;stroke-dashoffset:0;stroke-opacity:0.5;stroke-width:0.8;"/>
     </g>
     <g id="line2d_16">
      <g>
       <use style="stroke:#000000;stroke-width:0.8;" x="110.36" xlink:href="#m4be38c5de6" y="544.014231"/>
      </g>
     </g>
     <g id="text_9">
      <!-- 10 -->
      <g transform="translate(57.36 559.984856)scale(0.46 -0.46)">
       <use xlink:href="#TimesNewRomanPSMT-31"/>
       <use x="50" xlink:href="#TimesNewRomanPSMT-30"/>
      </g>
     </g>
    </g>
    <g id="ytick_3">
     <g id="line2d_17">
      <path clip-path="url(#p9769518483)" d="M 110.36 474.788461 
L 837.556364 474.788461 
" style="fill:none;stroke:#b0b0b0;stroke-dasharray:2.96,1.28;stroke-dashoffset:0;stroke-opacity:0.5;stroke-width:0.8;"/>
     </g>
     <g id="line2d_18">
      <g>
       <use style="stroke:#000000;stroke-width:0.8;" x="110.36" xlink:href="#m4be38c5de6" y="474.788461"/>
      </g>
     </g>
     <g id="text_10">
      <!-- 20 -->
      <g transform="translate(57.36 490.759086)scale(0.46 -0.46)">
       <use xlink:href="#TimesNewRomanPSMT-32"/>
       <use x="50" xlink:href="#TimesNewRomanPSMT-30"/>
      </g>
     </g>
    </g>
    <g id="ytick_4">
     <g id="line2d_19">
      <path clip-path="url(#p9769518483)" d="M 110.36 405.562692 
L 837.556364 405.562692 
" style="fill:none;stroke:#b0b0b0;stroke-dasharray:2.96,1.28;stroke-dashoffset:0;stroke-opacity:0.5;stroke-width:0.8;"/>
     </g>
     <g id="line2d_20">
      <g>
       <use style="stroke:#000000;stroke-width:0.8;" x="110.36" xlink:href="#m4be38c5de6" y="405.562692"/>
      </g>
     </g>
     <g id="text_11">
      <!-- 30 -->
      <g transform="translate(57.36 421.533317)scale(0.46 -0.46)">
       <defs>
        <path d="M 325 3431 
Q 506 3859 782 4092 
Q 1059 4325 1472 4325 
Q 1981 4325 2253 3994 
Q 2459 3747 2459 3466 
Q 2459 3003 1878 2509 
Q 2269 2356 2469 2072 
Q 2669 1788 2669 1403 
Q 2669 853 2319 450 
Q 1863 -75 997 -75 
Q 569 -75 414 31 
Q 259 138 259 259 
Q 259 350 332 419 
Q 406 488 509 488 
Q 588 488 669 463 
Q 722 447 909 348 
Q 1097 250 1169 231 
Q 1284 197 1416 197 
Q 1734 197 1970 444 
Q 2206 691 2206 1028 
Q 2206 1275 2097 1509 
Q 2016 1684 1919 1775 
Q 1784 1900 1550 2001 
Q 1316 2103 1072 2103 
L 972 2103 
L 972 2197 
Q 1219 2228 1467 2375 
Q 1716 2522 1828 2728 
Q 1941 2934 1941 3181 
Q 1941 3503 1739 3701 
Q 1538 3900 1238 3900 
Q 753 3900 428 3381 
L 325 3431 
z
" id="TimesNewRomanPSMT-33" transform="scale(0.015625)"/>
       </defs>
       <use xlink:href="#TimesNewRomanPSMT-33"/>
       <use x="50" xlink:href="#TimesNewRomanPSMT-30"/>
      </g>
     </g>
    </g>
    <g id="ytick_5">
     <g id="line2d_21">
      <path clip-path="url(#p9769518483)" d="M 110.36 336.336923 
L 837.556364 336.336923 
" style="fill:none;stroke:#b0b0b0;stroke-dasharray:2.96,1.28;stroke-dashoffset:0;stroke-opacity:0.5;stroke-width:0.8;"/>
     </g>
     <g id="line2d_22">
      <g>
       <use style="stroke:#000000;stroke-width:0.8;" x="110.36" xlink:href="#m4be38c5de6" y="336.336923"/>
      </g>
     </g>
     <g id="text_12">
      <!-- 40 -->
      <g transform="translate(57.36 352.307548)scale(0.46 -0.46)">
       <use xlink:href="#TimesNewRomanPSMT-34"/>
       <use x="50" xlink:href="#TimesNewRomanPSMT-30"/>
      </g>
     </g>
    </g>
    <g id="ytick_6">
     <g id="line2d_23">
      <path clip-path="url(#p9769518483)" d="M 110.36 267.111153 
L 837.556364 267.111153 
" style="fill:none;stroke:#b0b0b0;stroke-dasharray:2.96,1.28;stroke-dashoffset:0;stroke-opacity:0.5;stroke-width:0.8;"/>
     </g>
     <g id="line2d_24">
      <g>
       <use style="stroke:#000000;stroke-width:0.8;" x="110.36" xlink:href="#m4be38c5de6" y="267.111153"/>
      </g>
     </g>
     <g id="text_13">
      <!-- 50 -->
      <g transform="translate(57.36 283.081778)scale(0.46 -0.46)">
       <defs>
        <path d="M 2778 4238 
L 2534 3706 
L 1259 3706 
L 981 3138 
Q 1809 3016 2294 2522 
Q 2709 2097 2709 1522 
Q 2709 1188 2573 903 
Q 2438 619 2231 419 
Q 2025 219 1772 97 
Q 1413 -75 1034 -75 
Q 653 -75 479 54 
Q 306 184 306 341 
Q 306 428 378 495 
Q 450 563 559 563 
Q 641 563 702 538 
Q 763 513 909 409 
Q 1144 247 1384 247 
Q 1750 247 2026 523 
Q 2303 800 2303 1197 
Q 2303 1581 2056 1914 
Q 1809 2247 1375 2428 
Q 1034 2569 447 2591 
L 1259 4238 
L 2778 4238 
z
" id="TimesNewRomanPSMT-35" transform="scale(0.015625)"/>
       </defs>
       <use xlink:href="#TimesNewRomanPSMT-35"/>
       <use x="50" xlink:href="#TimesNewRomanPSMT-30"/>
      </g>
     </g>
    </g>
    <g id="ytick_7">
     <g id="line2d_25">
      <path clip-path="url(#p9769518483)" d="M 110.36 197.885384 
L 837.556364 197.885384 
" style="fill:none;stroke:#b0b0b0;stroke-dasharray:2.96,1.28;stroke-dashoffset:0;stroke-opacity:0.5;stroke-width:0.8;"/>
     </g>
     <g id="line2d_26">
      <g>
       <use style="stroke:#000000;stroke-width:0.8;" x="110.36" xlink:href="#m4be38c5de6" y="197.885384"/>
      </g>
     </g>
     <g id="text_14">
      <!-- 60 -->
      <g transform="translate(57.36 213.856009)scale(0.46 -0.46)">
       <use xlink:href="#TimesNewRomanPSMT-36"/>
       <use x="50" xlink:href="#TimesNewRomanPSMT-30"/>
      </g>
     </g>
    </g>
    <g id="ytick_8">
     <g id="line2d_27">
      <path clip-path="url(#p9769518483)" d="M 110.36 128.659615 
L 837.556364 128.659615 
" style="fill:none;stroke:#b0b0b0;stroke-dasharray:2.96,1.28;stroke-dashoffset:0;stroke-opacity:0.5;stroke-width:0.8;"/>
     </g>
     <g id="line2d_28">
      <g>
       <use style="stroke:#000000;stroke-width:0.8;" x="110.36" xlink:href="#m4be38c5de6" y="128.659615"/>
      </g>
     </g>
     <g id="text_15">
      <!-- 70 -->
      <g transform="translate(57.36 144.63024)scale(0.46 -0.46)">
       <defs>
        <path d="M 644 4238 
L 2916 4238 
L 2916 4119 
L 1503 -88 
L 1153 -88 
L 2419 3728 
L 1253 3728 
Q 900 3728 750 3644 
Q 488 3500 328 3200 
L 238 3234 
L 644 4238 
z
" id="TimesNewRomanPSMT-37" transform="scale(0.015625)"/>
       </defs>
       <use xlink:href="#TimesNewRomanPSMT-37"/>
       <use x="50" xlink:href="#TimesNewRomanPSMT-30"/>
      </g>
     </g>
    </g>
    <g id="ytick_9">
     <g id="line2d_29">
      <path clip-path="url(#p9769518483)" d="M 110.36 59.433845 
L 837.556364 59.433845 
" style="fill:none;stroke:#b0b0b0;stroke-dasharray:2.96,1.28;stroke-dashoffset:0;stroke-opacity:0.5;stroke-width:0.8;"/>
     </g>
     <g id="line2d_30">
      <g>
       <use style="stroke:#000000;stroke-width:0.8;" x="110.36" xlink:href="#m4be38c5de6" y="59.433845"/>
      </g>
     </g>
     <g id="text_16">
      <!-- 80 -->
      <g transform="translate(57.36 75.40447)scale(0.46 -0.46)">
       <use xlink:href="#TimesNewRomanPSMT-38"/>
       <use x="50" xlink:href="#TimesNewRomanPSMT-30"/>
      </g>
     </g>
    </g>
    <g id="text_17">
     <!-- returns -->
     <g transform="translate(43.520313 375.888125)rotate(-90)scale(0.46 -0.46)">
      <defs>
       <path d="M 1038 2947 
L 1038 2303 
Q 1397 2947 1775 2947 
Q 1947 2947 2059 2842 
Q 2172 2738 2172 2600 
Q 2172 2478 2090 2393 
Q 2009 2309 1897 2309 
Q 1788 2309 1652 2417 
Q 1516 2525 1450 2525 
Q 1394 2525 1328 2463 
Q 1188 2334 1038 2041 
L 1038 669 
Q 1038 431 1097 309 
Q 1138 225 1241 169 
Q 1344 113 1538 113 
L 1538 0 
L 72 0 
L 72 113 
Q 291 113 397 181 
Q 475 231 506 341 
Q 522 394 522 644 
L 522 1753 
Q 522 2253 501 2348 
Q 481 2444 426 2487 
Q 372 2531 291 2531 
Q 194 2531 72 2484 
L 41 2597 
L 906 2947 
L 1038 2947 
z
" id="TimesNewRomanPSMT-72" transform="scale(0.015625)"/>
       <path d="M 1031 3803 
L 1031 2863 
L 1700 2863 
L 1700 2644 
L 1031 2644 
L 1031 788 
Q 1031 509 1111 412 
Q 1191 316 1316 316 
Q 1419 316 1516 380 
Q 1613 444 1666 569 
L 1788 569 
Q 1678 263 1478 108 
Q 1278 -47 1066 -47 
Q 922 -47 784 33 
Q 647 113 581 261 
Q 516 409 516 719 
L 516 2644 
L 63 2644 
L 63 2747 
Q 234 2816 414 2980 
Q 594 3144 734 3369 
Q 806 3488 934 3803 
L 1031 3803 
z
" id="TimesNewRomanPSMT-74" transform="scale(0.015625)"/>
       <path d="M 2709 2863 
L 2709 1128 
Q 2709 631 2732 520 
Q 2756 409 2807 365 
Q 2859 322 2928 322 
Q 3025 322 3147 375 
L 3191 266 
L 2334 -88 
L 2194 -88 
L 2194 519 
Q 1825 119 1631 15 
Q 1438 -88 1222 -88 
Q 981 -88 804 51 
Q 628 191 559 409 
Q 491 628 491 1028 
L 491 2306 
Q 491 2509 447 2587 
Q 403 2666 317 2708 
Q 231 2750 6 2747 
L 6 2863 
L 1009 2863 
L 1009 947 
Q 1009 547 1148 422 
Q 1288 297 1484 297 
Q 1619 297 1789 381 
Q 1959 466 2194 703 
L 2194 2325 
Q 2194 2569 2105 2655 
Q 2016 2741 1734 2747 
L 1734 2863 
L 2709 2863 
z
" id="TimesNewRomanPSMT-75" transform="scale(0.015625)"/>
       <path d="M 1034 2341 
Q 1538 2947 1994 2947 
Q 2228 2947 2397 2830 
Q 2566 2713 2666 2444 
Q 2734 2256 2734 1869 
L 2734 647 
Q 2734 375 2778 278 
Q 2813 200 2889 156 
Q 2966 113 3172 113 
L 3172 0 
L 1756 0 
L 1756 113 
L 1816 113 
Q 2016 113 2095 173 
Q 2175 234 2206 353 
Q 2219 400 2219 647 
L 2219 1819 
Q 2219 2209 2117 2386 
Q 2016 2563 1775 2563 
Q 1403 2563 1034 2156 
L 1034 647 
Q 1034 356 1069 288 
Q 1113 197 1189 155 
Q 1266 113 1500 113 
L 1500 0 
L 84 0 
L 84 113 
L 147 113 
Q 366 113 442 223 
Q 519 334 519 647 
L 519 1709 
Q 519 2225 495 2337 
Q 472 2450 423 2490 
Q 375 2531 294 2531 
Q 206 2531 84 2484 
L 38 2597 
L 900 2947 
L 1034 2947 
L 1034 2341 
z
" id="TimesNewRomanPSMT-6e" transform="scale(0.015625)"/>
      </defs>
      <use xlink:href="#TimesNewRomanPSMT-72"/>
      <use x="33.300781" xlink:href="#TimesNewRomanPSMT-65"/>
      <use x="77.685547" xlink:href="#TimesNewRomanPSMT-74"/>
      <use x="105.46875" xlink:href="#TimesNewRomanPSMT-75"/>
      <use x="155.46875" xlink:href="#TimesNewRomanPSMT-72"/>
      <use x="188.769531" xlink:href="#TimesNewRomanPSMT-6e"/>
      <use x="238.769531" xlink:href="#TimesNewRomanPSMT-73"/>
     </g>
    </g>
   </g>
   <g id="line2d_31">
    <path clip-path="url(#p9769518483)" d="M 143.41438 384.377367 
L 145.397643 353.195479 
L 146.719818 335.201314 
L 148.041993 319.30481 
L 149.364169 305.388241 
L 150.686344 293.33388 
L 152.008519 283.024001 
L 153.330694 274.340878 
L 154.652869 267.166784 
L 155.975045 261.383993 
L 157.29722 256.874779 
L 158.619395 253.521414 
L 159.280483 252.241386 
L 159.94157 251.206174 
L 160.602658 250.40106 
L 161.263745 249.81133 
L 161.924833 249.422268 
L 162.585921 249.219157 
L 163.247008 249.187283 
L 163.908096 249.311929 
L 164.569183 249.57838 
L 165.891359 250.477831 
L 167.213534 251.767911 
L 169.196797 254.177933 
L 169.857884 255.049051 
L 170.518972 258.498749 
L 171.18006 260.201331 
L 171.841147 259.233009 
L 172.502235 263.733438 
L 173.163322 264.265505 
L 173.82441 262.169814 
L 174.485498 254.62254 
L 175.146585 251.687726 
L 175.807673 243.458509 
L 176.46876 243.454751 
L 177.129848 248.037254 
L 177.790936 247.097164 
L 178.452023 243.563946 
L 179.113111 242.665209 
L 179.774198 238.268768 
L 180.435286 235.794089 
L 181.096374 234.248075 
L 181.757461 233.883297 
L 182.418549 237.601269 
L 184.401812 229.684811 
L 185.062899 230.482181 
L 185.723987 230.024607 
L 186.385074 228.11425 
L 187.046162 231.32044 
L 187.70725 235.431533 
L 188.368337 234.409988 
L 189.029425 230.135768 
L 189.690512 231.949364 
L 190.3516 230.336361 
L 191.012688 227.90399 
L 191.673775 224.363016 
L 192.334863 215.02368 
L 192.99595 210.485015 
L 194.318126 195.654554 
L 194.979213 194.728034 
L 195.640301 191.80173 
L 196.301388 189.842117 
L 196.962476 192.290598 
L 197.623564 184.724857 
L 198.284651 182.17295 
L 198.945739 184.618395 
L 200.267914 191.131488 
L 201.590089 187.437105 
L 202.251177 178.380824 
L 202.912264 179.671695 
L 203.573352 179.291148 
L 204.23444 178.453712 
L 204.895527 183.659048 
L 205.556615 179.271115 
L 206.217702 182.627069 
L 206.87879 187.699091 
L 207.539878 189.484942 
L 208.200965 189.431085 
L 208.862053 191.528929 
L 209.52314 186.389318 
L 210.184228 182.484883 
L 210.845316 186.25182 
L 211.506403 183.124008 
L 212.167491 175.580434 
L 212.828579 177.597237 
L 213.489666 175.360045 
L 214.150754 173.872192 
L 214.811841 172.008407 
L 215.472929 171.4355 
L 216.134017 167.020835 
L 216.795104 166.643243 
L 218.117279 173.806723 
L 218.778367 170.86317 
L 219.439455 168.454478 
L 220.100542 163.767337 
L 220.76163 163.067558 
L 221.422717 164.105091 
L 222.083805 155.130004 
L 222.744893 153.741724 
L 223.40598 145.048422 
L 224.067068 145.372837 
L 224.728155 144.46024 
L 225.389243 146.740438 
L 226.050331 141.196775 
L 226.711418 134.557915 
L 227.372506 132.900539 
L 228.033593 135.807354 
L 228.694681 136.628027 
L 229.355769 141.822206 
L 230.016856 135.509411 
L 231.339031 129.849797 
L 232.000119 125.44421 
L 232.661207 119.7078 
L 233.983382 114.325336 
L 234.644469 117.24954 
L 235.305557 117.16804 
L 235.966645 117.82195 
L 236.627732 112.248862 
L 237.28882 111.540886 
L 237.949907 109.434646 
L 238.610995 114.54735 
L 239.272083 111.991443 
L 239.93317 109.998358 
L 240.594258 110.493654 
L 241.255345 101.467756 
L 241.916433 100.78293 
L 242.577521 98.959528 
L 243.238608 94.540897 
L 243.899696 98.644931 
L 245.221871 100.629496 
L 245.882959 103.441749 
L 246.544046 101.643253 
L 247.205134 101.98437 
L 247.866221 105.760004 
L 248.527309 106.956558 
L 249.188397 110.420321 
L 249.849484 115.258328 
L 250.510572 113.259266 
L 251.17166 120.425378 
L 251.832747 121.376514 
L 252.493835 118.391032 
L 253.154922 117.368011 
L 253.81601 117.73175 
L 254.477098 113.9608 
L 255.799273 120.87127 
L 256.46036 122.306433 
L 257.121448 126.319713 
L 257.782536 125.809292 
L 258.443623 127.306371 
L 259.104711 132.012958 
L 259.765798 132.369126 
L 260.426886 132.533269 
L 261.087974 123.739619 
L 261.749061 122.898235 
L 262.410149 115.341915 
L 263.071236 117.443768 
L 263.732324 120.721836 
L 264.393412 115.613036 
L 265.054499 117.912043 
L 265.715587 116.979208 
L 266.376674 114.405826 
L 267.69885 121.617123 
L 268.359937 120.799844 
L 269.021025 119.572811 
L 269.682112 125.181769 
L 270.3432 124.029338 
L 271.004288 114.095435 
L 271.665375 107.430459 
L 272.326463 107.252579 
L 272.98755 105.378918 
L 273.648638 105.276233 
L 274.309726 104.075574 
L 274.970813 94.134609 
L 275.631901 97.563365 
L 276.292988 98.68883 
L 276.954076 97.964643 
L 278.276251 86.467231 
L 278.937339 78.808062 
L 279.598426 74.481589 
L 280.259514 72.548095 
L 280.920602 71.894148 
L 281.581689 69.311591 
L 282.242777 71.7636 
L 282.903864 64.880465 
L 283.564952 67.371763 
L 284.22604 59.214781 
L 284.887127 56.924215 
L 285.548215 59.634258 
L 286.209302 63.059711 
L 287.531478 73.808966 
L 288.192565 69.462318 
L 288.853653 67.154891 
L 289.51474 63.597913 
L 290.175828 68.125519 
L 290.836916 67.384994 
L 292.159091 69.630131 
L 292.820179 76.262155 
L 293.481266 74.5443 
L 294.142354 75.293738 
L 294.803441 82.130454 
L 295.464529 87.661256 
L 296.125617 94.631259 
L 296.786704 96.353788 
L 297.447792 100.046168 
L 298.108879 99.126833 
L 298.769967 96.249767 
L 299.431055 100.783726 
L 300.092142 101.035128 
L 301.414317 103.765975 
L 302.075405 101.57147 
L 302.736493 110.250318 
L 303.39758 114.485543 
L 304.058668 113.043503 
L 304.719755 116.278116 
L 305.380843 112.452483 
L 306.041931 118.270022 
L 306.703018 122.005505 
L 307.364106 118.309433 
L 308.025193 128.150543 
L 308.686281 122.808513 
L 309.347369 121.4132 
L 310.008456 122.267154 
L 310.669544 124.771849 
L 311.330631 125.911078 
L 312.652807 116.499024 
L 313.313894 112.257595 
L 313.974982 113.799474 
L 314.636069 116.028401 
L 315.297157 118.810136 
L 315.958245 126.696134 
L 316.619332 131.568741 
L 317.28042 127.909117 
L 317.941507 126.507038 
L 318.602595 123.408748 
L 319.263683 127.365456 
L 319.92477 133.672959 
L 320.585858 130.474665 
L 321.246945 131.284032 
L 321.908033 134.3821 
L 322.569121 133.458621 
L 323.230208 128.828332 
L 323.891296 122.538847 
L 324.552383 125.946937 
L 325.213471 125.574467 
L 325.874559 121.355535 
L 326.535646 116.215801 
L 327.857821 111.420395 
L 328.518909 117.014863 
L 329.179997 114.374609 
L 329.841084 107.911176 
L 330.502172 112.307932 
L 331.16326 107.363193 
L 331.824347 106.022234 
L 332.485435 104.411632 
L 333.80761 116.977042 
L 334.468698 120.71232 
L 335.129785 123.401214 
L 335.790873 121.516015 
L 336.45196 124.463347 
L 337.113048 118.637699 
L 337.774136 117.682719 
L 338.435223 114.026846 
L 339.096311 112.194306 
L 339.757398 113.876095 
L 341.079574 104.205925 
L 341.740661 104.832207 
L 342.401749 104.737799 
L 343.062836 106.074045 
L 343.723924 101.061893 
L 344.385012 105.970924 
L 345.046099 113.61881 
L 346.368274 100.270873 
L 347.029362 103.257639 
L 347.69045 104.323164 
L 348.351537 100.831513 
L 349.012625 92.104195 
L 349.673712 95.477665 
L 350.3348 93.146653 
L 350.995888 84.340142 
L 351.656975 79.110142 
L 352.318063 83.503159 
L 352.97915 78.722317 
L 353.640238 81.454773 
L 354.301326 82.743795 
L 354.962413 88.208571 
L 355.623501 91.988336 
L 356.284588 91.205115 
L 356.945676 86.679002 
L 357.606764 88.811021 
L 358.267851 83.631985 
L 358.928939 89.603493 
L 360.251114 92.905228 
L 360.912202 96.923304 
L 361.573289 91.719696 
L 362.234377 93.8017 
L 362.895464 97.900501 
L 363.556552 94.900429 
L 364.21764 93.309034 
L 364.878727 93.821455 
L 365.539815 95.29083 
L 366.200902 103.20013 
L 366.86199 113.856252 
L 367.523078 109.807102 
L 368.845253 120.766911 
L 369.50634 114.62139 
L 370.167428 110.242845 
L 370.828516 114.747615 
L 371.489603 115.342938 
L 372.150691 116.765393 
L 372.811779 119.56678 
L 373.472866 121.808017 
L 374.133954 126.186446 
L 374.795041 126.155359 
L 375.456129 127.701803 
L 376.117217 122.547837 
L 376.778304 124.119721 
L 377.439392 125.978902 
L 378.100479 132.81007 
L 378.761567 141.3462 
L 379.422655 145.966535 
L 380.083742 152.327596 
L 381.405917 147.995557 
L 382.067005 149.742458 
L 382.728093 147.713498 
L 383.38918 147.658658 
L 384.050268 150.362334 
L 384.711355 151.448572 
L 385.372443 154.756286 
L 386.033531 159.95108 
L 386.694618 158.662832 
L 387.355706 159.444621 
L 388.016793 153.330314 
L 388.677881 155.442475 
L 389.338969 147.004206 
L 390.000056 147.437811 
L 390.661144 149.96401 
L 391.322231 151.752295 
L 391.983319 149.213876 
L 392.644407 148.240794 
L 393.305494 140.636088 
L 393.966582 139.277723 
L 394.627669 143.588074 
L 395.288757 144.199492 
L 395.949845 141.847432 
L 396.610932 137.720355 
L 397.27202 140.136341 
L 398.594195 139.975702 
L 399.255283 146.321858 
L 399.91637 146.869493 
L 400.577458 142.119562 
L 401.238545 138.399603 
L 401.899633 142.546326 
L 402.560721 149.257449 
L 403.221808 147.273105 
L 403.882896 145.645369 
L 404.543983 149.771054 
L 405.205071 152.011176 
L 405.866159 152.893877 
L 406.527246 154.560763 
L 407.188334 148.805022 
L 407.849421 152.856475 
L 408.510509 148.781505 
L 409.171597 146.327643 
L 410.493772 151.125388 
L 411.15486 154.880718 
L 411.815947 159.702519 
L 413.138122 155.427572 
L 414.460298 141.660732 
L 415.121385 138.015149 
L 415.782473 137.72511 
L 416.44356 136.727665 
L 417.104648 139.185352 
L 417.765736 134.929118 
L 418.426823 136.4678 
L 419.087911 137.427209 
L 419.748998 133.739264 
L 420.410086 125.11434 
L 421.071174 124.955994 
L 421.732261 122.201848 
L 422.393349 116.604819 
L 423.054436 120.7889 
L 423.715524 121.39767 
L 424.376612 120.377586 
L 425.037699 120.930941 
L 425.698787 120.982479 
L 426.359874 123.494448 
L 427.020962 119.47465 
L 427.68205 120.645349 
L 428.343137 123.082595 
L 429.004225 118.729028 
L 429.665312 124.272505 
L 430.3264 123.393269 
L 430.987488 124.405625 
L 431.648575 121.398596 
L 432.309663 114.675379 
L 432.97075 111.33477 
L 433.631838 108.848656 
L 434.292926 110.246918 
L 434.954013 108.887335 
L 435.615101 105.990593 
L 436.276188 105.610408 
L 436.937276 109.616515 
L 437.598364 104.613058 
L 438.259451 109.161433 
L 438.920539 108.43069 
L 439.581626 110.150976 
L 440.242714 108.151584 
L 440.903802 105.072105 
L 441.564889 109.868609 
L 442.225977 101.827968 
L 442.887064 106.195076 
L 443.548152 98.200632 
L 444.20924 95.921765 
L 444.870327 95.721541 
L 445.531415 99.469501 
L 446.192502 97.453715 
L 447.514678 107.706633 
L 448.175765 108.27386 
L 448.836853 113.40495 
L 449.49794 115.411219 
L 450.159028 118.027809 
L 450.820116 125.38158 
L 451.481203 125.548305 
L 452.142291 125.476026 
L 452.803379 119.78126 
L 453.464466 118.611826 
L 454.125554 124.162597 
L 454.786641 124.639336 
L 455.447729 123.377769 
L 456.108817 121.622266 
L 456.769904 115.292363 
L 457.430992 120.775852 
L 458.092079 117.181672 
L 458.753167 119.472243 
L 459.414255 114.42781 
L 460.075342 112.90843 
L 460.73643 116.9862 
L 461.397517 117.850765 
L 462.719693 124.750985 
L 463.38078 118.956259 
L 464.041868 118.654379 
L 465.364043 107.95189 
L 466.025131 105.361933 
L 466.686218 101.397834 
L 467.347306 102.677535 
L 468.008393 103.176979 
L 468.669481 103.852561 
L 469.330569 100.800893 
L 470.652744 91.647811 
L 471.974919 86.661725 
L 472.636007 84.975022 
L 473.297094 84.402167 
L 473.958182 82.751299 
L 474.619269 80.503548 
L 475.280357 77.096621 
L 475.941445 77.112577 
L 476.602532 74.686715 
L 477.26362 75.916391 
L 477.924707 73.288401 
L 478.585795 72.105896 
L 479.246883 73.563329 
L 479.90797 72.985608 
L 480.569058 70.688338 
L 481.230145 69.937991 
L 481.891233 66.052518 
L 482.552321 65.200905 
L 483.213408 64.869353 
L 483.874496 64.878749 
L 484.535583 62.198689 
L 485.857759 59.240987 
L 487.841021 51.841658 
L 488.502109 53.833341 
L 489.163197 51.12364 
L 489.824284 51.254452 
L 490.485372 49.379748 
L 491.14646 48.222831 
L 491.807547 46.402595 
L 492.468635 47.88898 
L 493.129722 43.815348 
L 493.79081 42.532879 
L 494.451898 40.563177 
L 495.112985 37.721659 
L 495.774073 39.530335 
L 496.43516 38.701803 
L 497.096248 40.501083 
L 497.757336 41.549297 
L 498.418423 43.782567 
L 499.740598 50.019256 
L 500.401686 49.793358 
L 501.062774 50.731204 
L 501.723861 49.957626 
L 502.384949 45.880299 
L 503.046036 48.344478 
L 503.707124 47.805794 
L 505.029299 44.934822 
L 505.690387 44.564729 
L 506.351474 46.271098 
L 507.012562 47.652908 
L 507.67365 45.771248 
L 508.334737 46.171418 
L 508.995825 46.772522 
L 509.656912 45.568492 
L 510.318 48.459183 
L 511.640175 47.292903 
L 512.301263 45.316163 
L 512.96235 46.539808 
L 513.623438 46.30317 
L 514.284526 47.545267 
L 514.945613 45.158657 
L 515.606701 44.40825 
L 516.267788 44.693169 
L 516.928876 43.312507 
L 517.589964 42.24268 
L 518.251051 39.872943 
L 518.912139 40.276942 
L 519.573226 40.448201 
L 520.234314 39.362785 
L 520.895402 34.965081 
L 521.556489 34.431455 
L 522.217577 33.118838 
L 522.878664 34.668826 
L 523.539752 36.836546 
L 524.20084 37.120423 
L 524.861927 37.859387 
L 525.523015 37.51545 
L 526.184102 36.172522 
L 527.506278 37.309311 
L 528.167365 38.666359 
L 528.828453 40.315921 
L 529.48954 37.40986 
L 530.150628 37.801499 
L 530.811716 37.623613 
L 531.472803 34.932267 
L 532.133891 35.590919 
L 532.794979 35.235226 
L 533.456066 32.062403 
L 534.117154 34.659928 
L 534.778241 35.405291 
L 535.439329 35.077952 
L 536.100417 34.152782 
L 536.761504 32.594147 
L 537.422592 33.996715 
L 538.083679 34.203417 
L 538.744767 33.723571 
L 539.405855 36.63568 
L 540.066942 37.750737 
L 540.72803 39.36095 
L 541.389117 37.8212 
L 542.050205 38.148469 
L 542.711293 39.632438 
L 543.37238 39.549747 
L 544.033468 38.703512 
L 544.694555 39.43713 
L 545.355643 37.322248 
L 546.016731 34.500552 
L 546.677818 38.648216 
L 547.338906 38.512374 
L 547.999993 38.792911 
L 548.661081 38.150407 
L 549.322169 37.884349 
L 550.644344 44.396805 
L 551.305431 46.919735 
L 551.966519 47.70542 
L 552.627607 46.501091 
L 553.288694 45.595252 
L 553.949782 46.741603 
L 554.610869 44.625528 
L 555.271957 45.795323 
L 555.933045 46.0265 
L 556.594132 46.699847 
L 557.25522 50.914986 
L 558.577395 50.364775 
L 559.238483 49.301094 
L 560.560658 53.446057 
L 561.221745 55.145399 
L 561.882833 58.446842 
L 562.543921 57.282178 
L 563.205008 57.348665 
L 564.527183 50.075675 
L 565.188271 51.915594 
L 565.849359 52.486435 
L 566.510446 51.455204 
L 567.171534 51.579727 
L 567.832621 49.210494 
L 568.493709 51.296047 
L 569.154797 52.103097 
L 569.815884 51.645394 
L 570.476972 54.176391 
L 571.13806 54.41791 
L 571.799147 55.584659 
L 572.460235 53.086382 
L 573.121322 54.013282 
L 573.78241 55.287689 
L 574.443498 58.284798 
L 575.104585 56.846902 
L 575.765673 58.49413 
L 576.42676 57.140291 
L 578.410023 62.052997 
L 579.071111 63.246866 
L 579.732198 61.807663 
L 580.393286 61.357706 
L 581.715461 63.810107 
L 582.376549 64.257484 
L 583.037636 65.987763 
L 583.698724 65.031181 
L 584.359812 63.233559 
L 585.020899 64.131551 
L 586.343074 61.229052 
L 587.004162 60.783879 
L 587.66525 58.260105 
L 588.326337 55.151475 
L 589.648512 57.914626 
L 590.3096 58.267177 
L 590.970688 58.169324 
L 591.631775 59.377038 
L 592.292863 57.232986 
L 593.615038 54.622903 
L 594.276126 50.873999 
L 594.937213 53.485032 
L 595.598301 51.637349 
L 596.259388 48.292119 
L 596.920476 44.340977 
L 597.581564 42.825779 
L 598.242651 40.97836 
L 598.903739 43.793068 
L 599.564826 44.260892 
L 600.225914 41.162956 
L 600.887002 43.702911 
L 601.548089 41.928085 
L 602.209177 44.164003 
L 602.870264 43.665326 
L 603.531352 39.862119 
L 604.19244 40.261049 
L 604.853527 38.464317 
L 605.514615 40.070243 
L 606.175702 39.494416 
L 606.83679 39.219803 
L 608.158965 42.747949 
L 608.820053 40.862483 
L 609.48114 41.505748 
L 610.142228 41.953762 
L 610.803316 39.266822 
L 611.464403 38.047541 
L 612.125491 38.294212 
L 612.786579 36.288063 
L 613.447666 34.900484 
L 614.108754 32.226462 
L 615.430929 30.339082 
L 616.092017 30.471071 
L 616.753104 28.589398 
L 617.414192 31.18991 
L 618.075279 31.413197 
L 618.736367 30.9254 
L 619.397455 29.681729 
L 620.058542 32.764254 
L 620.71963 37.110989 
L 621.380717 37.919563 
L 622.041805 41.568767 
L 622.702893 41.436301 
L 624.025068 41.42169 
L 625.347243 46.036101 
L 626.008331 47.65908 
L 626.669418 50.571087 
L 627.330506 52.782999 
L 627.991593 55.916955 
L 628.652681 60.69192 
L 629.313769 63.45975 
L 629.974856 64.630706 
L 630.635944 64.136278 
L 631.297031 62.517155 
L 631.958119 63.193351 
L 632.619207 63.352741 
L 633.280294 62.99768 
L 633.941382 61.8341 
L 634.602469 63.201878 
L 635.263557 60.858399 
L 635.924645 59.124809 
L 637.24682 57.094422 
L 638.568995 56.766589 
L 639.230083 60.190399 
L 639.89117 59.891261 
L 640.552258 58.935692 
L 641.213345 58.233352 
L 642.535521 56.547506 
L 643.196608 58.471963 
L 643.857696 56.258075 
L 644.518783 52.431677 
L 645.179871 53.329721 
L 645.840959 51.765771 
L 646.502046 51.918207 
L 647.163134 52.513579 
L 647.824221 53.974992 
L 648.485309 51.245857 
L 649.146397 49.363916 
L 649.807484 49.568682 
L 650.468572 52.001516 
L 651.12966 53.688957 
L 651.790747 54.493855 
L 652.451835 51.871271 
L 653.112922 50.491615 
L 653.77401 51.163833 
L 654.435098 50.09303 
L 655.757273 52.020042 
L 656.41836 52.376423 
L 657.079448 54.761348 
L 657.740536 53.822374 
L 658.401623 54.440924 
L 659.062711 52.469211 
L 659.723798 52.602843 
L 661.045974 47.465113 
L 661.707061 46.03614 
L 662.368149 45.232867 
L 663.029236 45.448325 
L 663.690324 40.997808 
L 664.351412 38.437804 
L 665.012499 36.393016 
L 665.673587 36.965988 
L 666.334674 37.26909 
L 666.995762 32.964002 
L 667.65685 34.867529 
L 668.317937 35.104458 
L 669.640112 31.761139 
L 670.3012 31.233909 
L 671.623375 29.55391 
L 672.284463 31.283328 
L 672.94555 34.195958 
L 673.606638 32.134309 
L 674.267726 29.593142 
L 674.928813 31.587837 
L 675.589901 30.418872 
L 676.250988 33.215082 
L 676.912076 35.516452 
L 677.573164 35.352269 
L 678.234251 32.654329 
L 678.895339 30.723188 
L 679.556426 32.883136 
L 680.217514 33.94293 
L 680.878602 34.278785 
L 681.539689 33.866944 
L 682.200777 30.978625 
L 682.861864 28.762648 
L 683.522952 31.608088 
L 684.18404 31.085141 
L 685.506215 31.635074 
L 686.167302 31.381724 
L 686.82839 33.424975 
L 687.489478 33.498743 
L 688.150565 31.418692 
L 688.811653 34.322475 
L 689.47274 34.955742 
L 690.133828 34.186605 
L 690.794916 34.765634 
L 692.117091 32.355559 
L 692.778179 31.396278 
L 693.439266 29.566175 
L 694.100354 30.626846 
L 694.761441 32.720871 
L 695.422529 36.796409 
L 696.083617 37.424722 
L 696.744704 37.506982 
L 697.405792 37.718898 
L 698.066879 38.853923 
L 698.727967 40.250463 
L 699.389055 43.919311 
L 700.050142 42.116761 
L 700.71123 43.361565 
L 701.372317 43.235075 
L 702.033405 44.627198 
L 702.694493 44.744986 
L 704.016668 49.073208 
L 704.677755 48.218814 
L 705.338843 48.505376 
L 705.999931 47.568152 
L 706.661018 51.394457 
L 707.322106 49.995427 
L 707.983193 50.047938 
L 708.644281 50.272246 
L 709.305369 50.957099 
L 709.966456 54.408554 
L 710.627544 55.091379 
L 711.288631 53.41294 
L 711.949719 52.90953 
L 712.610807 51.563035 
L 713.271894 52.386055 
L 713.932982 55.049314 
L 714.594069 55.209513 
L 715.255157 53.333806 
L 715.916245 49.695271 
L 716.577332 47.656675 
L 717.23842 45.991548 
L 717.899507 45.988494 
L 718.560595 46.433917 
L 719.221683 43.889181 
L 719.88277 42.652251 
L 720.543858 44.140721 
L 721.204945 41.500376 
L 721.866033 42.157722 
L 722.527121 44.587029 
L 724.510383 41.879882 
L 725.171471 45.032867 
L 725.832559 44.001284 
L 726.493646 44.795663 
L 727.154734 44.871709 
L 727.815821 44.285029 
L 728.476909 45.187128 
L 729.137997 44.358545 
L 729.799084 44.557189 
L 730.460172 44.199297 
L 731.12126 44.538848 
L 731.782347 45.213667 
L 732.443435 48.615607 
L 733.76561 49.93578 
L 734.426698 48.287739 
L 735.748873 50.872803 
L 736.40996 51.158935 
L 737.732136 50.508353 
L 738.393223 50.082801 
L 739.054311 48.189358 
L 739.715398 45.619142 
L 741.037574 49.095115 
L 741.698661 48.923287 
L 742.359749 48.181364 
L 743.020836 49.355882 
L 743.681924 51.239693 
L 744.343012 48.278113 
L 745.004099 47.368792 
L 745.665187 47.989614 
L 746.326274 45.128303 
L 746.987362 47.641222 
L 747.64845 48.747683 
L 748.309537 46.180128 
L 748.970625 44.088588 
L 750.953888 44.860001 
L 751.614975 46.447592 
L 752.276063 43.498714 
L 752.93715 41.266182 
L 753.598238 44.162125 
L 754.259326 42.910072 
L 754.920413 42.633297 
L 755.581501 41.010894 
L 756.242588 41.36723 
L 756.903676 39.110256 
L 757.564764 35.555031 
L 758.886939 38.301299 
L 759.548026 40.340535 
L 760.209114 38.497573 
L 760.870202 40.189078 
L 761.531289 39.973317 
L 762.192377 41.555819 
L 762.853464 40.360966 
L 763.514552 38.07699 
L 764.17564 37.223456 
L 764.836727 37.969808 
L 765.497815 36.065918 
L 766.158902 37.060609 
L 766.81999 36.941347 
L 767.481078 34.365014 
L 768.142165 33.205389 
L 768.803253 30.873541 
L 770.125428 30.488709 
L 771.447603 29.083353 
L 772.108691 31.08854 
L 772.769779 31.053893 
L 773.430866 31.288859 
L 774.091954 32.8567 
L 774.753041 33.958217 
L 775.414129 33.79567 
L 776.075217 30.829391 
L 776.736304 31.542137 
L 777.397392 33.127023 
L 786.652618 39.216792 
L 788.635881 40.130462 
L 790.619144 40.745818 
L 791.941319 40.954722 
L 793.263494 40.977636 
L 794.585669 40.793199 
L 795.907845 40.380049 
L 797.23002 39.716823 
L 798.552195 38.782159 
L 799.87437 37.554696 
L 801.196545 36.013071 
L 802.518721 34.135922 
L 803.840896 31.901887 
L 803.840896 31.901887 
" style="fill:none;stroke:#7e2f8e;stroke-linecap:square;stroke-width:3;"/>
   </g>
   <g id="line2d_32">
    <path clip-path="url(#p9769518483)" d="M 143.41438 179.921864 
L 144.075468 178.571429 
L 144.736555 176.524223 
L 145.397643 173.856651 
L 146.719818 166.966037 
L 148.041993 158.510831 
L 150.686344 139.351633 
L 152.669607 125.421329 
L 153.991782 117.48964 
L 154.652869 114.159568 
L 155.313957 121.450252 
L 155.975045 120.688527 
L 156.636132 129.082358 
L 157.29722 147.547431 
L 157.958307 152.972709 
L 158.619395 141.802918 
L 159.280483 145.083632 
L 159.94157 132.984943 
L 160.602658 112.512905 
L 161.263745 98.702899 
L 161.924833 116.304654 
L 162.585921 117.142173 
L 163.247008 118.481596 
L 163.908096 109.515657 
L 164.569183 110.39352 
L 165.230271 103.345865 
L 165.891359 80.526707 
L 166.552446 90.011566 
L 167.213534 87.037628 
L 167.874621 95.139641 
L 168.535709 79.611747 
L 169.196797 78.549406 
L 169.857884 80.132789 
L 170.518972 93.034174 
L 171.18006 93.806262 
L 171.841147 99.598686 
L 172.502235 102.055537 
L 173.163322 100.761772 
L 173.82441 100.372334 
L 174.485498 97.800739 
L 175.146585 87.902377 
L 175.807673 90.985214 
L 176.46876 86.522712 
L 177.129848 76.398564 
L 177.790936 98.5818 
L 180.435286 123.083831 
L 181.757461 132.42498 
L 182.418549 137.841174 
L 183.079636 138.997738 
L 183.740724 137.133806 
L 184.401812 139.234652 
L 185.062899 137.311172 
L 186.385074 131.123408 
L 187.046162 135.086475 
L 188.368337 126.818693 
L 189.029425 146.476469 
L 189.690512 142.407834 
L 190.3516 137.094724 
L 191.012688 133.805324 
L 191.673775 145.193338 
L 192.334863 153.131267 
L 193.657038 156.291782 
L 194.318126 159.104758 
L 195.640301 148.002952 
L 196.301388 147.767917 
L 196.962476 143.859424 
L 197.623564 141.622016 
L 198.284651 146.533819 
L 198.945739 139.895956 
L 199.606826 141.281226 
L 200.267914 146.132224 
L 200.929002 144.655385 
L 201.590089 147.188128 
L 202.251177 143.086833 
L 202.912264 140.755585 
L 204.23444 135.042077 
L 204.895527 119.570344 
L 205.556615 123.794272 
L 206.217702 127.244201 
L 206.87879 134.698403 
L 207.539878 132.579095 
L 208.200965 132.741681 
L 210.184228 141.32839 
L 210.845316 142.925157 
L 211.506403 142.37484 
L 212.167491 143.767122 
L 212.828579 143.643716 
L 213.489666 152.34897 
L 214.150754 152.783246 
L 214.811841 158.324818 
L 215.472929 157.983608 
L 216.134017 158.888155 
L 216.795104 157.231587 
L 217.456192 154.110675 
L 218.778367 151.447695 
L 219.439455 148.968216 
L 220.100542 142.289718 
L 220.76163 139.996476 
L 221.422717 133.606254 
L 223.40598 104.261523 
L 224.067068 98.657096 
L 224.728155 91.881849 
L 225.389243 89.898139 
L 226.711418 81.00786 
L 227.372506 79.26924 
L 228.033593 94.990921 
L 228.694681 91.688971 
L 229.355769 96.071692 
L 230.016856 96.112358 
L 231.339031 110.206308 
L 232.000119 113.7769 
L 232.661207 116.69542 
L 233.322294 117.507853 
L 233.983382 117.773033 
L 234.644469 120.918803 
L 235.305557 120.697507 
L 235.966645 120.606669 
L 236.627732 119.371344 
L 237.28882 112.852936 
L 237.949907 112.058212 
L 238.610995 110.572491 
L 239.272083 108.525778 
L 240.594258 102.93071 
L 241.255345 102.577423 
L 241.916433 99.404356 
L 243.238608 88.68179 
L 243.899696 84.827718 
L 244.560783 74.315979 
L 245.221871 76.596866 
L 245.882959 75.857745 
L 246.544046 76.694173 
L 247.866221 82.915954 
L 248.527309 85.438585 
L 249.849484 95.927152 
L 250.510572 97.688781 
L 251.17166 100.560581 
L 251.832747 106.286746 
L 252.493835 105.849821 
L 253.154922 109.168122 
L 253.81601 111.858188 
L 254.477098 113.92002 
L 255.138185 115.353616 
L 255.799273 111.248867 
L 256.46036 113.067671 
L 257.121448 114.086205 
L 257.782536 114.290756 
L 258.443623 111.284243 
L 259.104711 111.055886 
L 259.765798 107.558797 
L 260.426886 112.951656 
L 261.087974 110.630981 
L 261.749061 110.652952 
L 263.071236 108.149985 
L 263.732324 107.453495 
L 264.393412 104.983491 
L 265.054499 97.297239 
L 265.715587 94.506062 
L 266.376674 94.99853 
L 267.037762 89.047783 
L 267.69885 93.883681 
L 268.359937 94.263589 
L 269.021025 96.399314 
L 269.682112 103.723164 
L 270.3432 104.257253 
L 271.004288 107.083175 
L 271.665375 104.986566 
L 272.326463 103.364018 
L 272.98755 100.582864 
L 273.648638 103.810408 
L 274.309726 104.199945 
L 274.970813 103.785092 
L 275.631901 104.915551 
L 276.292988 103.36398 
L 276.954076 102.864065 
L 277.615164 104.2194 
L 278.276251 104.433667 
L 278.937339 110.06868 
L 279.598426 108.246524 
L 280.259514 107.440748 
L 280.920602 104.373072 
L 281.581689 105.723474 
L 282.242777 103.588369 
L 282.903864 92.626715 
L 283.564952 93.421212 
L 284.22604 95.431398 
L 284.887127 91.256088 
L 285.548215 91.274937 
L 286.209302 89.862181 
L 286.87039 85.473641 
L 287.531478 81.855047 
L 288.192565 86.0096 
L 288.853653 88.416343 
L 289.51474 87.561508 
L 290.175828 91.148887 
L 290.836916 89.863646 
L 291.498003 89.88639 
L 292.159091 89.296038 
L 292.820179 88.236187 
L 294.142354 84.43639 
L 294.803441 84.869855 
L 295.464529 84.552278 
L 296.125617 86.667495 
L 296.786704 85.76412 
L 298.108879 82.769397 
L 298.769967 84.603353 
L 299.431055 85.972849 
L 300.092142 86.545885 
L 300.75323 81.976689 
L 301.414317 79.76943 
L 302.075405 76.740298 
L 302.736493 75.27393 
L 303.39758 71.634737 
L 304.058668 66.810355 
L 304.719755 63.082621 
L 305.380843 58.59177 
L 306.041931 67.169445 
L 307.364106 63.99494 
L 308.025193 66.389644 
L 308.686281 63.686582 
L 309.347369 60.396066 
L 310.669544 68.551082 
L 311.330631 70.226073 
L 311.991719 71.579713 
L 312.652807 72.612002 
L 313.313894 73.322939 
L 313.974982 74.559636 
L 314.636069 74.695397 
L 315.297157 76.355677 
L 315.958245 77.576366 
L 316.619332 79.256825 
L 317.28042 80.458743 
L 317.941507 76.447864 
L 318.602595 76.024647 
L 319.263683 74.257733 
L 319.92477 76.314263 
L 320.585858 76.798684 
L 321.246945 80.557193 
L 321.908033 86.030892 
L 322.569121 87.400568 
L 323.230208 90.36354 
L 323.891296 88.04529 
L 324.552383 87.520365 
L 325.874559 85.444571 
L 326.535646 79.923766 
L 327.196734 84.891131 
L 327.857821 84.96027 
L 328.518909 78.181422 
L 329.179997 76.470789 
L 329.841084 77.78047 
L 330.502172 80.799989 
L 331.16326 81.175866 
L 331.824347 83.276925 
L 332.485435 80.727542 
L 333.146522 75.115154 
L 333.80761 73.988994 
L 335.129785 64.462374 
L 336.45196 57.067079 
L 337.113048 60.613869 
L 337.774136 61.317401 
L 338.435223 58.251208 
L 339.096311 57.334642 
L 339.757398 59.003908 
L 340.418486 56.724925 
L 341.079574 63.471607 
L 342.401749 78.813808 
L 343.723924 81.590237 
L 344.385012 80.398993 
L 345.046099 80.626354 
L 345.707187 82.260351 
L 346.368274 74.412247 
L 347.029362 73.170503 
L 347.69045 74.702387 
L 348.351537 71.629343 
L 349.012625 69.397748 
L 349.673712 78.936434 
L 350.3348 79.279882 
L 350.995888 73.950957 
L 351.656975 80.757007 
L 352.318063 84.937737 
L 352.97915 80.149196 
L 353.640238 73.070024 
L 354.301326 62.905244 
L 354.962413 56.108889 
L 355.623501 53.434266 
L 356.284588 54.355223 
L 356.945676 45.095626 
L 357.606764 41.207287 
L 358.928939 35.042181 
L 359.590026 38.362946 
L 360.251114 39.708103 
L 360.912202 43.65237 
L 361.573289 49.463923 
L 362.234377 46.834073 
L 362.895464 50.191819 
L 363.556552 52.071849 
L 364.21764 50.097357 
L 364.878727 43.553301 
L 365.539815 44.340669 
L 366.200902 42.172302 
L 366.86199 45.630368 
L 367.523078 53.863922 
L 368.184165 57.20435 
L 368.845253 55.234451 
L 369.50634 59.365792 
L 370.167428 61.413659 
L 370.828516 61.319907 
L 371.489603 68.737458 
L 372.150691 74.454178 
L 372.811779 74.279764 
L 373.472866 71.96655 
L 374.133954 74.837184 
L 374.795041 72.765288 
L 375.456129 66.775115 
L 376.117217 62.834461 
L 376.778304 56.805186 
L 377.439392 59.309365 
L 378.100479 58.717518 
L 378.761567 59.298742 
L 379.422655 55.667471 
L 380.083742 57.33939 
L 380.74483 58.629716 
L 381.405917 60.90437 
L 382.067005 64.431703 
L 382.728093 65.42276 
L 384.050268 57.358295 
L 384.711355 50.444066 
L 385.372443 54.26658 
L 386.033531 46.163354 
L 386.694618 46.081594 
L 387.355706 47.692895 
L 388.016793 51.337899 
L 388.677881 46.853914 
L 389.338969 44.548894 
L 390.000056 48.959621 
L 390.661144 49.174946 
L 391.322231 46.60098 
L 391.983319 47.218931 
L 392.644407 45.400999 
L 393.305494 49.807255 
L 393.966582 48.905122 
L 394.627669 46.248813 
L 395.288757 48.124572 
L 395.949845 47.809129 
L 396.610932 45.481383 
L 397.27202 45.799907 
L 397.933107 43.48239 
L 398.594195 42.510991 
L 399.255283 44.404474 
L 400.577458 51.05972 
L 401.238545 53.094455 
L 403.221808 60.20914 
L 403.882896 61.379327 
L 404.543983 61.70909 
L 405.205071 61.86775 
L 405.866159 60.837648 
L 406.527246 61.936413 
L 407.188334 59.976186 
L 407.849421 60.600137 
L 408.510509 56.099519 
L 409.171597 58.085534 
L 409.832684 56.177533 
L 410.493772 50.386087 
L 411.15486 47.901152 
L 411.815947 48.142908 
L 412.477035 54.192105 
L 413.138122 48.813771 
L 413.79921 47.24845 
L 414.460298 47.798777 
L 415.121385 46.447597 
L 416.44356 41.113497 
L 417.104648 41.992506 
L 417.765736 44.81215 
L 418.426823 44.404622 
L 419.087911 43.244581 
L 419.748998 43.956198 
L 420.410086 42.100663 
L 421.071174 40.947131 
L 421.732261 37.370027 
L 422.393349 39.441305 
L 423.054436 44.246388 
L 424.376612 49.348932 
L 425.037699 50.245455 
L 425.698787 48.09931 
L 426.359874 48.5745 
L 427.020962 45.389955 
L 428.343137 42.784643 
L 429.004225 42.994117 
L 429.665312 43.522126 
L 430.3264 41.703069 
L 430.987488 41.660391 
L 431.648575 44.065557 
L 432.309663 43.584219 
L 432.97075 42.173063 
L 433.631838 41.896922 
L 434.292926 40.34221 
L 434.954013 37.036704 
L 435.615101 35.559386 
L 436.276188 40.284238 
L 437.598364 42.792178 
L 438.259451 43.514008 
L 438.920539 46.941886 
L 439.581626 49.541844 
L 440.242714 49.497677 
L 440.242714 49.497677 
" style="fill:none;stroke:#a2142f;stroke-linecap:square;stroke-width:3;"/>
   </g>
   <g id="line2d_33">
    <path clip-path="url(#p9769518483)" d="M 440.903802 47.665465 
L 803.840896 47.665465 
L 803.840896 47.665465 
" style="fill:none;stroke:#a2142f;stroke-dasharray:14.8,6.4;stroke-dashoffset:0;stroke-width:4;"/>
   </g>
   <g id="line2d_34">
    <path clip-path="url(#p9769518483)" d="M 143.41438 179.886684 
L 804.501983 179.886684 
L 804.501983 179.886684 
" style="fill:none;stroke:#d95319;stroke-dasharray:14.8,6.4;stroke-dashoffset:0;stroke-width:4;"/>
   </g>
   <g id="patch_3">
    <path d="M 110.36 613.24 
L 110.36 10.8 
" style="fill:none;stroke:#000000;stroke-linecap:square;stroke-linejoin:miter;stroke-width:0.8;"/>
   </g>
   <g id="patch_4">
    <path d="M 837.556364 613.24 
L 837.556364 10.8 
" style="fill:none;stroke:#000000;stroke-linecap:square;stroke-linejoin:miter;stroke-width:0.8;"/>
   </g>
   <g id="patch_5">
    <path d="M 110.36 613.24 
L 837.556364 613.24 
" style="fill:none;stroke:#000000;stroke-linecap:square;stroke-linejoin:miter;stroke-width:0.8;"/>
   </g>
   <g id="patch_6">
    <path d="M 110.36 10.8 
L 837.556364 10.8 
" style="fill:none;stroke:#000000;stroke-linecap:square;stroke-linejoin:miter;stroke-width:0.8;"/>
   </g>
   <g id="legend_1">
    <g id="line2d_35">
     <path d="M 494.899489 415.820937 
L 586.899489 415.820937 
" style="fill:none;stroke:#7e2f8e;stroke-linecap:square;stroke-width:3;"/>
    </g>
    <g id="line2d_36"/>
    <g id="text_18">
     <!-- RDSE -->
     <g transform="translate(623.699489 431.920937)scale(0.46 -0.46)">
      <defs>
       <path d="M 4325 0 
L 3194 0 
L 1759 1981 
Q 1600 1975 1500 1975 
Q 1459 1975 1412 1976 
Q 1366 1978 1316 1981 
L 1316 750 
Q 1316 350 1403 253 
Q 1522 116 1759 116 
L 1925 116 
L 1925 0 
L 109 0 
L 109 116 
L 269 116 
Q 538 116 653 291 
Q 719 388 719 750 
L 719 3488 
Q 719 3888 631 3984 
Q 509 4122 269 4122 
L 109 4122 
L 109 4238 
L 1653 4238 
Q 2328 4238 2648 4139 
Q 2969 4041 3192 3777 
Q 3416 3513 3416 3147 
Q 3416 2756 3161 2468 
Q 2906 2181 2372 2063 
L 3247 847 
Q 3547 428 3762 290 
Q 3978 153 4325 116 
L 4325 0 
z
M 1316 2178 
Q 1375 2178 1419 2176 
Q 1463 2175 1491 2175 
Q 2097 2175 2405 2437 
Q 2713 2700 2713 3106 
Q 2713 3503 2464 3751 
Q 2216 4000 1806 4000 
Q 1625 4000 1316 3941 
L 1316 2178 
z
" id="TimesNewRomanPSMT-52" transform="scale(0.015625)"/>
       <path d="M 109 0 
L 109 116 
L 269 116 
Q 538 116 650 288 
Q 719 391 719 750 
L 719 3488 
Q 719 3884 631 3984 
Q 509 4122 269 4122 
L 109 4122 
L 109 4238 
L 1834 4238 
Q 2784 4238 3279 4022 
Q 3775 3806 4076 3303 
Q 4378 2800 4378 2141 
Q 4378 1256 3841 663 
Q 3238 0 2003 0 
L 109 0 
z
M 1319 306 
Q 1716 219 1984 219 
Q 2709 219 3187 728 
Q 3666 1238 3666 2109 
Q 3666 2988 3187 3494 
Q 2709 4000 1959 4000 
Q 1678 4000 1319 3909 
L 1319 306 
z
" id="TimesNewRomanPSMT-44" transform="scale(0.015625)"/>
       <path d="M 2934 4334 
L 2934 2869 
L 2819 2869 
Q 2763 3291 2617 3541 
Q 2472 3791 2203 3937 
Q 1934 4084 1647 4084 
Q 1322 4084 1109 3886 
Q 897 3688 897 3434 
Q 897 3241 1031 3081 
Q 1225 2847 1953 2456 
Q 2547 2138 2764 1967 
Q 2981 1797 3098 1565 
Q 3216 1334 3216 1081 
Q 3216 600 2842 251 
Q 2469 -97 1881 -97 
Q 1697 -97 1534 -69 
Q 1438 -53 1133 45 
Q 828 144 747 144 
Q 669 144 623 97 
Q 578 50 556 -97 
L 441 -97 
L 441 1356 
L 556 1356 
Q 638 900 775 673 
Q 913 447 1195 297 
Q 1478 147 1816 147 
Q 2206 147 2432 353 
Q 2659 559 2659 841 
Q 2659 997 2573 1156 
Q 2488 1316 2306 1453 
Q 2184 1547 1640 1851 
Q 1097 2156 867 2337 
Q 638 2519 519 2737 
Q 400 2956 400 3219 
Q 400 3675 750 4004 
Q 1100 4334 1641 4334 
Q 1978 4334 2356 4169 
Q 2531 4091 2603 4091 
Q 2684 4091 2736 4139 
Q 2788 4188 2819 4334 
L 2934 4334 
z
" id="TimesNewRomanPSMT-53" transform="scale(0.015625)"/>
       <path d="M 1338 4006 
L 1338 2331 
L 2269 2331 
Q 2631 2331 2753 2441 
Q 2916 2584 2934 2947 
L 3050 2947 
L 3050 1472 
L 2934 1472 
Q 2891 1781 2847 1869 
Q 2791 1978 2662 2040 
Q 2534 2103 2269 2103 
L 1338 2103 
L 1338 706 
Q 1338 425 1363 364 
Q 1388 303 1450 267 
Q 1513 231 1688 231 
L 2406 231 
Q 2766 231 2928 281 
Q 3091 331 3241 478 
Q 3434 672 3638 1063 
L 3763 1063 
L 3397 0 
L 131 0 
L 131 116 
L 281 116 
Q 431 116 566 188 
Q 666 238 702 338 
Q 738 438 738 747 
L 738 3500 
Q 738 3903 656 3997 
Q 544 4122 281 4122 
L 131 4122 
L 131 4238 
L 3397 4238 
L 3444 3309 
L 3322 3309 
Q 3256 3644 3176 3769 
Q 3097 3894 2941 3959 
Q 2816 4006 2500 4006 
L 1338 4006 
z
" id="TimesNewRomanPSMT-45" transform="scale(0.015625)"/>
      </defs>
      <use xlink:href="#TimesNewRomanPSMT-52"/>
      <use x="66.699219" xlink:href="#TimesNewRomanPSMT-44"/>
      <use x="138.916016" xlink:href="#TimesNewRomanPSMT-53"/>
      <use x="194.53125" xlink:href="#TimesNewRomanPSMT-45"/>
     </g>
    </g>
    <g id="line2d_37">
     <path d="M 494.899489 480.860625 
L 586.899489 480.860625 
" style="fill:none;stroke:#a2142f;stroke-linecap:square;stroke-width:3;"/>
    </g>
    <g id="line2d_38"/>
    <g id="text_19">
     <!-- few-shot  -->
     <g transform="translate(623.699489 496.960625)scale(0.46 -0.46)">
      <defs>
       <path d="M 1319 2638 
L 1319 756 
Q 1319 356 1406 250 
Q 1522 113 1716 113 
L 1975 113 
L 1975 0 
L 266 0 
L 266 113 
L 394 113 
Q 519 113 622 175 
Q 725 238 764 344 
Q 803 450 803 756 
L 803 2638 
L 247 2638 
L 247 2863 
L 803 2863 
L 803 3050 
Q 803 3478 940 3775 
Q 1078 4072 1361 4255 
Q 1644 4438 1997 4438 
Q 2325 4438 2600 4225 
Q 2781 4084 2781 3909 
Q 2781 3816 2700 3733 
Q 2619 3650 2525 3650 
Q 2453 3650 2373 3701 
Q 2294 3753 2178 3923 
Q 2063 4094 1966 4153 
Q 1869 4213 1750 4213 
Q 1606 4213 1506 4136 
Q 1406 4059 1362 3898 
Q 1319 3738 1319 3069 
L 1319 2863 
L 2056 2863 
L 2056 2638 
L 1319 2638 
z
" id="TimesNewRomanPSMT-66" transform="scale(0.015625)"/>
       <path d="M 41 2863 
L 1241 2863 
L 1241 2747 
Q 1075 2734 1023 2687 
Q 972 2641 972 2553 
Q 972 2456 1025 2319 
L 1638 672 
L 2253 2013 
L 2091 2434 
Q 2016 2622 1894 2694 
Q 1825 2738 1638 2747 
L 1638 2863 
L 3000 2863 
L 3000 2747 
Q 2775 2738 2681 2666 
Q 2619 2616 2619 2506 
Q 2619 2444 2644 2378 
L 3294 734 
L 3897 2319 
Q 3959 2488 3959 2588 
Q 3959 2647 3898 2694 
Q 3838 2741 3659 2747 
L 3659 2863 
L 4563 2863 
L 4563 2747 
Q 4291 2706 4163 2378 
L 3206 -88 
L 3078 -88 
L 2363 1741 
L 1528 -88 
L 1413 -88 
L 494 2319 
Q 403 2547 315 2626 
Q 228 2706 41 2747 
L 41 2863 
z
" id="TimesNewRomanPSMT-77" transform="scale(0.015625)"/>
       <path d="M 259 1672 
L 1875 1672 
L 1875 1200 
L 259 1200 
L 259 1672 
z
" id="TimesNewRomanPSMT-2d" transform="scale(0.015625)"/>
       <path d="M 1041 4444 
L 1041 2350 
Q 1388 2731 1591 2839 
Q 1794 2947 1997 2947 
Q 2241 2947 2416 2812 
Q 2591 2678 2675 2391 
Q 2734 2191 2734 1659 
L 2734 647 
Q 2734 375 2778 275 
Q 2809 200 2884 156 
Q 2959 113 3159 113 
L 3159 0 
L 1753 0 
L 1753 113 
L 1819 113 
Q 2019 113 2097 173 
Q 2175 234 2206 353 
Q 2216 403 2216 647 
L 2216 1659 
Q 2216 2128 2167 2275 
Q 2119 2422 2012 2495 
Q 1906 2569 1756 2569 
Q 1603 2569 1437 2487 
Q 1272 2406 1041 2159 
L 1041 647 
Q 1041 353 1073 281 
Q 1106 209 1195 161 
Q 1284 113 1503 113 
L 1503 0 
L 84 0 
L 84 113 
Q 275 113 384 172 
Q 447 203 484 290 
Q 522 378 522 647 
L 522 3238 
Q 522 3728 498 3840 
Q 475 3953 426 3993 
Q 378 4034 297 4034 
Q 231 4034 84 3984 
L 41 4094 
L 897 4444 
L 1041 4444 
z
" id="TimesNewRomanPSMT-68" transform="scale(0.015625)"/>
       <path id="TimesNewRomanPSMT-20" transform="scale(0.015625)"/>
      </defs>
      <use xlink:href="#TimesNewRomanPSMT-66"/>
      <use x="33.300781" xlink:href="#TimesNewRomanPSMT-65"/>
      <use x="77.685547" xlink:href="#TimesNewRomanPSMT-77"/>
      <use x="149.902344" xlink:href="#TimesNewRomanPSMT-2d"/>
      <use x="183.203125" xlink:href="#TimesNewRomanPSMT-73"/>
      <use x="222.119141" xlink:href="#TimesNewRomanPSMT-68"/>
      <use x="272.119141" xlink:href="#TimesNewRomanPSMT-6f"/>
      <use x="322.119141" xlink:href="#TimesNewRomanPSMT-74"/>
      <use x="349.902344" xlink:href="#TimesNewRomanPSMT-20"/>
     </g>
    </g>
    <g id="line2d_39">
     <path d="M 494.899489 545.900312 
L 586.899489 545.900312 
" style="fill:none;stroke:#d95319;stroke-dasharray:14.8,6.4;stroke-dashoffset:0;stroke-width:4;"/>
    </g>
    <g id="line2d_40"/>
    <g id="text_20">
     <!-- zero-shot -->
     <g transform="translate(623.699489 562.000312)scale(0.46 -0.46)">
      <defs>
       <path d="M 2688 878 
L 2653 0 
L 128 0 
L 128 113 
L 2028 2644 
L 1091 2644 
Q 788 2644 694 2605 
Q 600 2566 541 2456 
Q 456 2300 444 2069 
L 319 2069 
L 338 2863 
L 2738 2863 
L 2738 2747 
L 819 209 
L 1863 209 
Q 2191 209 2308 264 
Q 2425 319 2497 456 
Q 2547 556 2581 878 
L 2688 878 
z
" id="TimesNewRomanPSMT-7a" transform="scale(0.015625)"/>
      </defs>
      <use xlink:href="#TimesNewRomanPSMT-7a"/>
      <use x="44.384766" xlink:href="#TimesNewRomanPSMT-65"/>
      <use x="88.769531" xlink:href="#TimesNewRomanPSMT-72"/>
      <use x="122.070312" xlink:href="#TimesNewRomanPSMT-6f"/>
      <use x="172.070312" xlink:href="#TimesNewRomanPSMT-2d"/>
      <use x="205.371094" xlink:href="#TimesNewRomanPSMT-73"/>
      <use x="244.287109" xlink:href="#TimesNewRomanPSMT-68"/>
      <use x="294.287109" xlink:href="#TimesNewRomanPSMT-6f"/>
      <use x="344.287109" xlink:href="#TimesNewRomanPSMT-74"/>
     </g>
    </g>
   </g>
  </g>
 </g>
 <defs>
  <clipPath id="p9769518483">
   <rect height="602.44" width="727.196364" x="110.36" y="10.8"/>
  </clipPath>
 </defs>
</svg>
