<?xml version="1.0" encoding="utf-8" standalone="no"?>
<!DOCTYPE svg PUBLIC "-//W3C//DTD SVG 1.1//EN"
  "http://www.w3.org/Graphics/SVG/1.1/DTD/svg11.dtd">
<svg height="720pt" version="1.1" viewBox="0 0 864 720" width="864pt" xmlns="http://www.w3.org/2000/svg" xmlns:xlink="http://www.w3.org/1999/xlink">
 <metadata>
  <rdf:RDF xmlns:cc="http://creativecommons.org/ns#" xmlns:dc="http://purl.org/dc/elements/1.1/" xmlns:rdf="http://www.w3.org/1999/02/22-rdf-syntax-ns#">
   <cc:Work>
    <dc:type rdf:resource="http://purl.org/dc/dcmitype/StillImage"/>
    <dc:date>2025-02-27T15:19:48.670034</dc:date>
    <dc:format>image/svg+xml</dc:format>
    <dc:creator>
     <cc:Agent>
      <dc:title>Matplotlib v3.4.3, https://matplotlib.org/</dc:title>
     </cc:Agent>
    </dc:creator>
   </cc:Work>
  </rdf:RDF>
 </metadata>
 <defs>
  <style type="text/css">*{stroke-linecap:butt;stroke-linejoin:round;}</style>
 </defs>
 <g id="figure_1">
  <g id="patch_1">
   <path d="M 0 720 
L 864 720 
L 864 0 
L 0 0 
z
" style="fill:#ffffff;"/>
  </g>
  <g id="axes_1">
   <g id="patch_2">
    <path d="M 133.4 613.24 
L 837.556364 613.24 
L 837.556364 10.8 
L 133.4 10.8 
z
" style="fill:#ffffff;"/>
   </g>
   <g id="matplotlib.axis_1">
    <g id="xtick_1">
     <g id="line2d_1">
      <path clip-path="url(#p3f3601d16c)" d="M 165.407107 613.24 
L 165.407107 10.8 
" style="fill:none;stroke:#b0b0b0;stroke-dasharray:2.96,1.28;stroke-dashoffset:0;stroke-opacity:0.5;stroke-width:0.8;"/>
     </g>
     <g id="line2d_2">
      <defs>
       <path d="M 0 0 
L 0 3.5 
" id="m13db3454d3" style="stroke:#000000;stroke-width:0.8;"/>
      </defs>
      <g>
       <use style="stroke:#000000;stroke-width:0.8;" x="165.407107" xlink:href="#m13db3454d3" y="613.24"/>
      </g>
     </g>
     <g id="text_1">
      <!-- 0 -->
      <g transform="translate(153.907107 652.18125)scale(0.46 -0.46)">
       <defs>
        <path d="M 231 2094 
Q 231 2819 450 3342 
Q 669 3866 1031 4122 
Q 1313 4325 1613 4325 
Q 2100 4325 2488 3828 
Q 2972 3213 2972 2159 
Q 2972 1422 2759 906 
Q 2547 391 2217 158 
Q 1888 -75 1581 -75 
Q 975 -75 572 641 
Q 231 1244 231 2094 
z
M 844 2016 
Q 844 1141 1059 588 
Q 1238 122 1591 122 
Q 1759 122 1940 273 
Q 2122 425 2216 781 
Q 2359 1319 2359 2297 
Q 2359 3022 2209 3506 
Q 2097 3866 1919 4016 
Q 1791 4119 1609 4119 
Q 1397 4119 1231 3928 
Q 1006 3669 925 3112 
Q 844 2556 844 2016 
z
" id="TimesNewRomanPSMT-30" transform="scale(0.015625)"/>
       </defs>
       <use xlink:href="#TimesNewRomanPSMT-30"/>
      </g>
     </g>
    </g>
    <g id="xtick_2">
     <g id="line2d_3">
      <path clip-path="url(#p3f3601d16c)" d="M 293.435537 613.24 
L 293.435537 10.8 
" style="fill:none;stroke:#b0b0b0;stroke-dasharray:2.96,1.28;stroke-dashoffset:0;stroke-opacity:0.5;stroke-width:0.8;"/>
     </g>
     <g id="line2d_4">
      <g>
       <use style="stroke:#000000;stroke-width:0.8;" x="293.435537" xlink:href="#m13db3454d3" y="613.24"/>
      </g>
     </g>
     <g id="text_2">
      <!-- 200 -->
      <g transform="translate(258.935537 652.18125)scale(0.46 -0.46)">
       <defs>
        <path d="M 2934 816 
L 2638 0 
L 138 0 
L 138 116 
Q 1241 1122 1691 1759 
Q 2141 2397 2141 2925 
Q 2141 3328 1894 3587 
Q 1647 3847 1303 3847 
Q 991 3847 742 3664 
Q 494 3481 375 3128 
L 259 3128 
Q 338 3706 661 4015 
Q 984 4325 1469 4325 
Q 1984 4325 2329 3994 
Q 2675 3663 2675 3213 
Q 2675 2891 2525 2569 
Q 2294 2063 1775 1497 
Q 997 647 803 472 
L 1909 472 
Q 2247 472 2383 497 
Q 2519 522 2628 598 
Q 2738 675 2819 816 
L 2934 816 
z
" id="TimesNewRomanPSMT-32" transform="scale(0.015625)"/>
       </defs>
       <use xlink:href="#TimesNewRomanPSMT-32"/>
       <use x="50" xlink:href="#TimesNewRomanPSMT-30"/>
       <use x="100" xlink:href="#TimesNewRomanPSMT-30"/>
      </g>
     </g>
    </g>
    <g id="xtick_3">
     <g id="line2d_5">
      <path clip-path="url(#p3f3601d16c)" d="M 421.463967 613.24 
L 421.463967 10.8 
" style="fill:none;stroke:#b0b0b0;stroke-dasharray:2.96,1.28;stroke-dashoffset:0;stroke-opacity:0.5;stroke-width:0.8;"/>
     </g>
     <g id="line2d_6">
      <g>
       <use style="stroke:#000000;stroke-width:0.8;" x="421.463967" xlink:href="#m13db3454d3" y="613.24"/>
      </g>
     </g>
     <g id="text_3">
      <!-- 400 -->
      <g transform="translate(386.963967 652.18125)scale(0.46 -0.46)">
       <defs>
        <path d="M 2978 1563 
L 2978 1119 
L 2409 1119 
L 2409 0 
L 1894 0 
L 1894 1119 
L 100 1119 
L 100 1519 
L 2066 4325 
L 2409 4325 
L 2409 1563 
L 2978 1563 
z
M 1894 1563 
L 1894 3666 
L 406 1563 
L 1894 1563 
z
" id="TimesNewRomanPSMT-34" transform="scale(0.015625)"/>
       </defs>
       <use xlink:href="#TimesNewRomanPSMT-34"/>
       <use x="50" xlink:href="#TimesNewRomanPSMT-30"/>
       <use x="100" xlink:href="#TimesNewRomanPSMT-30"/>
      </g>
     </g>
    </g>
    <g id="xtick_4">
     <g id="line2d_7">
      <path clip-path="url(#p3f3601d16c)" d="M 549.492397 613.24 
L 549.492397 10.8 
" style="fill:none;stroke:#b0b0b0;stroke-dasharray:2.96,1.28;stroke-dashoffset:0;stroke-opacity:0.5;stroke-width:0.8;"/>
     </g>
     <g id="line2d_8">
      <g>
       <use style="stroke:#000000;stroke-width:0.8;" x="549.492397" xlink:href="#m13db3454d3" y="613.24"/>
      </g>
     </g>
     <g id="text_4">
      <!-- 600 -->
      <g transform="translate(514.992397 652.18125)scale(0.46 -0.46)">
       <defs>
        <path d="M 2869 4325 
L 2869 4209 
Q 2456 4169 2195 4045 
Q 1934 3922 1679 3669 
Q 1425 3416 1258 3105 
Q 1091 2794 978 2366 
Q 1428 2675 1881 2675 
Q 2316 2675 2634 2325 
Q 2953 1975 2953 1425 
Q 2953 894 2631 456 
Q 2244 -75 1606 -75 
Q 1172 -75 869 213 
Q 275 772 275 1663 
Q 275 2231 503 2743 
Q 731 3256 1154 3653 
Q 1578 4050 1965 4187 
Q 2353 4325 2688 4325 
L 2869 4325 
z
M 925 2138 
Q 869 1716 869 1456 
Q 869 1156 980 804 
Q 1091 453 1309 247 
Q 1469 100 1697 100 
Q 1969 100 2183 356 
Q 2397 613 2397 1088 
Q 2397 1622 2184 2012 
Q 1972 2403 1581 2403 
Q 1463 2403 1327 2353 
Q 1191 2303 925 2138 
z
" id="TimesNewRomanPSMT-36" transform="scale(0.015625)"/>
       </defs>
       <use xlink:href="#TimesNewRomanPSMT-36"/>
       <use x="50" xlink:href="#TimesNewRomanPSMT-30"/>
       <use x="100" xlink:href="#TimesNewRomanPSMT-30"/>
      </g>
     </g>
    </g>
    <g id="xtick_5">
     <g id="line2d_9">
      <path clip-path="url(#p3f3601d16c)" d="M 677.520826 613.24 
L 677.520826 10.8 
" style="fill:none;stroke:#b0b0b0;stroke-dasharray:2.96,1.28;stroke-dashoffset:0;stroke-opacity:0.5;stroke-width:0.8;"/>
     </g>
     <g id="line2d_10">
      <g>
       <use style="stroke:#000000;stroke-width:0.8;" x="677.520826" xlink:href="#m13db3454d3" y="613.24"/>
      </g>
     </g>
     <g id="text_5">
      <!-- 800 -->
      <g transform="translate(643.020826 652.18125)scale(0.46 -0.46)">
       <defs>
        <path d="M 1228 2134 
Q 725 2547 579 2797 
Q 434 3047 434 3316 
Q 434 3728 753 4026 
Q 1072 4325 1600 4325 
Q 2113 4325 2425 4047 
Q 2738 3769 2738 3413 
Q 2738 3175 2569 2928 
Q 2400 2681 1866 2347 
Q 2416 1922 2594 1678 
Q 2831 1359 2831 1006 
Q 2831 559 2490 242 
Q 2150 -75 1597 -75 
Q 994 -75 656 303 
Q 388 606 388 966 
Q 388 1247 577 1523 
Q 766 1800 1228 2134 
z
M 1719 2469 
Q 2094 2806 2194 3001 
Q 2294 3197 2294 3444 
Q 2294 3772 2109 3958 
Q 1925 4144 1606 4144 
Q 1288 4144 1088 3959 
Q 888 3775 888 3528 
Q 888 3366 970 3203 
Q 1053 3041 1206 2894 
L 1719 2469 
z
M 1375 2016 
Q 1116 1797 991 1539 
Q 866 1281 866 981 
Q 866 578 1086 336 
Q 1306 94 1647 94 
Q 1984 94 2187 284 
Q 2391 475 2391 747 
Q 2391 972 2272 1150 
Q 2050 1481 1375 2016 
z
" id="TimesNewRomanPSMT-38" transform="scale(0.015625)"/>
       </defs>
       <use xlink:href="#TimesNewRomanPSMT-38"/>
       <use x="50" xlink:href="#TimesNewRomanPSMT-30"/>
       <use x="100" xlink:href="#TimesNewRomanPSMT-30"/>
      </g>
     </g>
    </g>
    <g id="xtick_6">
     <g id="line2d_11">
      <path clip-path="url(#p3f3601d16c)" d="M 805.549256 613.24 
L 805.549256 10.8 
" style="fill:none;stroke:#b0b0b0;stroke-dasharray:2.96,1.28;stroke-dashoffset:0;stroke-opacity:0.5;stroke-width:0.8;"/>
     </g>
     <g id="line2d_12">
      <g>
       <use style="stroke:#000000;stroke-width:0.8;" x="805.549256" xlink:href="#m13db3454d3" y="613.24"/>
      </g>
     </g>
     <g id="text_6">
      <!-- 1000 -->
      <g transform="translate(759.549256 652.18125)scale(0.46 -0.46)">
       <defs>
        <path d="M 750 3822 
L 1781 4325 
L 1884 4325 
L 1884 747 
Q 1884 391 1914 303 
Q 1944 216 2037 169 
Q 2131 122 2419 116 
L 2419 0 
L 825 0 
L 825 116 
Q 1125 122 1212 167 
Q 1300 213 1334 289 
Q 1369 366 1369 747 
L 1369 3034 
Q 1369 3497 1338 3628 
Q 1316 3728 1258 3775 
Q 1200 3822 1119 3822 
Q 1003 3822 797 3725 
L 750 3822 
z
" id="TimesNewRomanPSMT-31" transform="scale(0.015625)"/>
       </defs>
       <use xlink:href="#TimesNewRomanPSMT-31"/>
       <use x="50" xlink:href="#TimesNewRomanPSMT-30"/>
       <use x="100" xlink:href="#TimesNewRomanPSMT-30"/>
       <use x="150" xlink:href="#TimesNewRomanPSMT-30"/>
      </g>
     </g>
    </g>
    <g id="text_7">
     <!-- episode -->
     <g transform="translate(415.216776 697.962187)scale(0.46 -0.46)">
      <defs>
       <path d="M 681 1784 
Q 678 1147 991 784 
Q 1303 422 1725 422 
Q 2006 422 2214 576 
Q 2422 731 2563 1106 
L 2659 1044 
Q 2594 616 2278 264 
Q 1963 -88 1488 -88 
Q 972 -88 605 314 
Q 238 716 238 1394 
Q 238 2128 614 2539 
Q 991 2950 1559 2950 
Q 2041 2950 2350 2633 
Q 2659 2316 2659 1784 
L 681 1784 
z
M 681 1966 
L 2006 1966 
Q 1991 2241 1941 2353 
Q 1863 2528 1708 2628 
Q 1553 2728 1384 2728 
Q 1125 2728 920 2526 
Q 716 2325 681 1966 
z
" id="TimesNewRomanPSMT-65" transform="scale(0.015625)"/>
       <path d="M -6 2578 
L 875 2934 
L 994 2934 
L 994 2266 
Q 1216 2644 1439 2795 
Q 1663 2947 1909 2947 
Q 2341 2947 2628 2609 
Q 2981 2197 2981 1534 
Q 2981 794 2556 309 
Q 2206 -88 1675 -88 
Q 1444 -88 1275 -22 
Q 1150 25 994 166 
L 994 -706 
Q 994 -1000 1030 -1079 
Q 1066 -1159 1155 -1206 
Q 1244 -1253 1478 -1253 
L 1478 -1369 
L -22 -1369 
L -22 -1253 
L 56 -1253 
Q 228 -1256 350 -1188 
Q 409 -1153 442 -1076 
Q 475 -1000 475 -688 
L 475 2019 
Q 475 2297 450 2372 
Q 425 2447 370 2484 
Q 316 2522 222 2522 
Q 147 2522 31 2478 
L -6 2578 
z
M 994 2081 
L 994 1013 
Q 994 666 1022 556 
Q 1066 375 1236 237 
Q 1406 100 1666 100 
Q 1978 100 2172 344 
Q 2425 663 2425 1241 
Q 2425 1897 2138 2250 
Q 1938 2494 1663 2494 
Q 1513 2494 1366 2419 
Q 1253 2363 994 2081 
z
" id="TimesNewRomanPSMT-70" transform="scale(0.015625)"/>
       <path d="M 928 4444 
Q 1059 4444 1151 4351 
Q 1244 4259 1244 4128 
Q 1244 3997 1151 3903 
Q 1059 3809 928 3809 
Q 797 3809 703 3903 
Q 609 3997 609 4128 
Q 609 4259 701 4351 
Q 794 4444 928 4444 
z
M 1188 2947 
L 1188 647 
Q 1188 378 1227 289 
Q 1266 200 1342 156 
Q 1419 113 1622 113 
L 1622 0 
L 231 0 
L 231 113 
Q 441 113 512 153 
Q 584 194 626 287 
Q 669 381 669 647 
L 669 1750 
Q 669 2216 641 2353 
Q 619 2453 572 2492 
Q 525 2531 444 2531 
Q 356 2531 231 2484 
L 188 2597 
L 1050 2947 
L 1188 2947 
z
" id="TimesNewRomanPSMT-69" transform="scale(0.015625)"/>
       <path d="M 2050 2947 
L 2050 1972 
L 1947 1972 
Q 1828 2431 1642 2597 
Q 1456 2763 1169 2763 
Q 950 2763 815 2647 
Q 681 2531 681 2391 
Q 681 2216 781 2091 
Q 878 1963 1175 1819 
L 1631 1597 
Q 2266 1288 2266 781 
Q 2266 391 1970 151 
Q 1675 -88 1309 -88 
Q 1047 -88 709 6 
Q 606 38 541 38 
Q 469 38 428 -44 
L 325 -44 
L 325 978 
L 428 978 
Q 516 541 762 319 
Q 1009 97 1316 97 
Q 1531 97 1667 223 
Q 1803 350 1803 528 
Q 1803 744 1651 891 
Q 1500 1038 1047 1263 
Q 594 1488 453 1669 
Q 313 1847 313 2119 
Q 313 2472 555 2709 
Q 797 2947 1181 2947 
Q 1350 2947 1591 2875 
Q 1750 2828 1803 2828 
Q 1853 2828 1881 2850 
Q 1909 2872 1947 2947 
L 2050 2947 
z
" id="TimesNewRomanPSMT-73" transform="scale(0.015625)"/>
       <path d="M 1600 2947 
Q 2250 2947 2644 2453 
Q 2978 2031 2978 1484 
Q 2978 1100 2793 706 
Q 2609 313 2286 112 
Q 1963 -88 1566 -88 
Q 919 -88 538 428 
Q 216 863 216 1403 
Q 216 1797 411 2186 
Q 606 2575 925 2761 
Q 1244 2947 1600 2947 
z
M 1503 2744 
Q 1338 2744 1170 2645 
Q 1003 2547 900 2300 
Q 797 2053 797 1666 
Q 797 1041 1045 587 
Q 1294 134 1700 134 
Q 2003 134 2200 384 
Q 2397 634 2397 1244 
Q 2397 2006 2069 2444 
Q 1847 2744 1503 2744 
z
" id="TimesNewRomanPSMT-6f" transform="scale(0.015625)"/>
       <path d="M 2222 322 
Q 2013 103 1813 7 
Q 1613 -88 1381 -88 
Q 913 -88 563 304 
Q 213 697 213 1313 
Q 213 1928 600 2439 
Q 988 2950 1597 2950 
Q 1975 2950 2222 2709 
L 2222 3238 
Q 2222 3728 2198 3840 
Q 2175 3953 2125 3993 
Q 2075 4034 2000 4034 
Q 1919 4034 1784 3984 
L 1744 4094 
L 2597 4444 
L 2738 4444 
L 2738 1134 
Q 2738 631 2761 520 
Q 2784 409 2836 365 
Q 2888 322 2956 322 
Q 3041 322 3181 375 
L 3216 266 
L 2366 -88 
L 2222 -88 
L 2222 322 
z
M 2222 541 
L 2222 2016 
Q 2203 2228 2109 2403 
Q 2016 2578 1861 2667 
Q 1706 2756 1559 2756 
Q 1284 2756 1069 2509 
Q 784 2184 784 1559 
Q 784 928 1059 592 
Q 1334 256 1672 256 
Q 1956 256 2222 541 
z
" id="TimesNewRomanPSMT-64" transform="scale(0.015625)"/>
      </defs>
      <use xlink:href="#TimesNewRomanPSMT-65"/>
      <use x="44.384766" xlink:href="#TimesNewRomanPSMT-70"/>
      <use x="94.384766" xlink:href="#TimesNewRomanPSMT-69"/>
      <use x="122.167969" xlink:href="#TimesNewRomanPSMT-73"/>
      <use x="161.083984" xlink:href="#TimesNewRomanPSMT-6f"/>
      <use x="211.083984" xlink:href="#TimesNewRomanPSMT-64"/>
      <use x="261.083984" xlink:href="#TimesNewRomanPSMT-65"/>
     </g>
    </g>
   </g>
   <g id="matplotlib.axis_2">
    <g id="ytick_1">
     <g id="line2d_13">
      <path clip-path="url(#p3f3601d16c)" d="M 133.4 613.24 
L 837.556364 613.24 
" style="fill:none;stroke:#b0b0b0;stroke-dasharray:2.96,1.28;stroke-dashoffset:0;stroke-opacity:0.5;stroke-width:0.8;"/>
     </g>
     <g id="line2d_14">
      <defs>
       <path d="M 0 0 
L -3.5 0 
" id="md30321a242" style="stroke:#000000;stroke-width:0.8;"/>
      </defs>
      <g>
       <use style="stroke:#000000;stroke-width:0.8;" x="133.4" xlink:href="#md30321a242" y="613.24"/>
      </g>
     </g>
     <g id="text_8">
      <!-- 0 -->
      <g transform="translate(103.4 629.210625)scale(0.46 -0.46)">
       <use xlink:href="#TimesNewRomanPSMT-30"/>
      </g>
     </g>
    </g>
    <g id="ytick_2">
     <g id="line2d_15">
      <path clip-path="url(#p3f3601d16c)" d="M 133.4 516.538312 
L 837.556364 516.538312 
" style="fill:none;stroke:#b0b0b0;stroke-dasharray:2.96,1.28;stroke-dashoffset:0;stroke-opacity:0.5;stroke-width:0.8;"/>
     </g>
     <g id="line2d_16">
      <g>
       <use style="stroke:#000000;stroke-width:0.8;" x="133.4" xlink:href="#md30321a242" y="516.538312"/>
      </g>
     </g>
     <g id="text_9">
      <!-- 20 -->
      <g transform="translate(80.4 532.508937)scale(0.46 -0.46)">
       <use xlink:href="#TimesNewRomanPSMT-32"/>
       <use x="50" xlink:href="#TimesNewRomanPSMT-30"/>
      </g>
     </g>
    </g>
    <g id="ytick_3">
     <g id="line2d_17">
      <path clip-path="url(#p3f3601d16c)" d="M 133.4 419.836623 
L 837.556364 419.836623 
" style="fill:none;stroke:#b0b0b0;stroke-dasharray:2.96,1.28;stroke-dashoffset:0;stroke-opacity:0.5;stroke-width:0.8;"/>
     </g>
     <g id="line2d_18">
      <g>
       <use style="stroke:#000000;stroke-width:0.8;" x="133.4" xlink:href="#md30321a242" y="419.836623"/>
      </g>
     </g>
     <g id="text_10">
      <!-- 40 -->
      <g transform="translate(80.4 435.807248)scale(0.46 -0.46)">
       <use xlink:href="#TimesNewRomanPSMT-34"/>
       <use x="50" xlink:href="#TimesNewRomanPSMT-30"/>
      </g>
     </g>
    </g>
    <g id="ytick_4">
     <g id="line2d_19">
      <path clip-path="url(#p3f3601d16c)" d="M 133.4 323.134935 
L 837.556364 323.134935 
" style="fill:none;stroke:#b0b0b0;stroke-dasharray:2.96,1.28;stroke-dashoffset:0;stroke-opacity:0.5;stroke-width:0.8;"/>
     </g>
     <g id="line2d_20">
      <g>
       <use style="stroke:#000000;stroke-width:0.8;" x="133.4" xlink:href="#md30321a242" y="323.134935"/>
      </g>
     </g>
     <g id="text_11">
      <!-- 60 -->
      <g transform="translate(80.4 339.10556)scale(0.46 -0.46)">
       <use xlink:href="#TimesNewRomanPSMT-36"/>
       <use x="50" xlink:href="#TimesNewRomanPSMT-30"/>
      </g>
     </g>
    </g>
    <g id="ytick_5">
     <g id="line2d_21">
      <path clip-path="url(#p3f3601d16c)" d="M 133.4 226.433246 
L 837.556364 226.433246 
" style="fill:none;stroke:#b0b0b0;stroke-dasharray:2.96,1.28;stroke-dashoffset:0;stroke-opacity:0.5;stroke-width:0.8;"/>
     </g>
     <g id="line2d_22">
      <g>
       <use style="stroke:#000000;stroke-width:0.8;" x="133.4" xlink:href="#md30321a242" y="226.433246"/>
      </g>
     </g>
     <g id="text_12">
      <!-- 80 -->
      <g transform="translate(80.4 242.403871)scale(0.46 -0.46)">
       <use xlink:href="#TimesNewRomanPSMT-38"/>
       <use x="50" xlink:href="#TimesNewRomanPSMT-30"/>
      </g>
     </g>
    </g>
    <g id="ytick_6">
     <g id="line2d_23">
      <path clip-path="url(#p3f3601d16c)" d="M 133.4 129.731558 
L 837.556364 129.731558 
" style="fill:none;stroke:#b0b0b0;stroke-dasharray:2.96,1.28;stroke-dashoffset:0;stroke-opacity:0.5;stroke-width:0.8;"/>
     </g>
     <g id="line2d_24">
      <g>
       <use style="stroke:#000000;stroke-width:0.8;" x="133.4" xlink:href="#md30321a242" y="129.731558"/>
      </g>
     </g>
     <g id="text_13">
      <!-- 100 -->
      <g transform="translate(57.4 145.702183)scale(0.46 -0.46)">
       <use xlink:href="#TimesNewRomanPSMT-31"/>
       <use x="50" xlink:href="#TimesNewRomanPSMT-30"/>
       <use x="100" xlink:href="#TimesNewRomanPSMT-30"/>
      </g>
     </g>
    </g>
    <g id="ytick_7">
     <g id="line2d_25">
      <path clip-path="url(#p3f3601d16c)" d="M 133.4 33.02987 
L 837.556364 33.02987 
" style="fill:none;stroke:#b0b0b0;stroke-dasharray:2.96,1.28;stroke-dashoffset:0;stroke-opacity:0.5;stroke-width:0.8;"/>
     </g>
     <g id="line2d_26">
      <g>
       <use style="stroke:#000000;stroke-width:0.8;" x="133.4" xlink:href="#md30321a242" y="33.02987"/>
      </g>
     </g>
     <g id="text_14">
      <!-- 120 -->
      <g transform="translate(57.4 49.000495)scale(0.46 -0.46)">
       <use xlink:href="#TimesNewRomanPSMT-31"/>
       <use x="50" xlink:href="#TimesNewRomanPSMT-32"/>
       <use x="100" xlink:href="#TimesNewRomanPSMT-30"/>
      </g>
     </g>
    </g>
    <g id="text_15">
     <!-- returns -->
     <g transform="translate(43.560313 375.888125)rotate(-90)scale(0.46 -0.46)">
      <defs>
       <path d="M 1038 2947 
L 1038 2303 
Q 1397 2947 1775 2947 
Q 1947 2947 2059 2842 
Q 2172 2738 2172 2600 
Q 2172 2478 2090 2393 
Q 2009 2309 1897 2309 
Q 1788 2309 1652 2417 
Q 1516 2525 1450 2525 
Q 1394 2525 1328 2463 
Q 1188 2334 1038 2041 
L 1038 669 
Q 1038 431 1097 309 
Q 1138 225 1241 169 
Q 1344 113 1538 113 
L 1538 0 
L 72 0 
L 72 113 
Q 291 113 397 181 
Q 475 231 506 341 
Q 522 394 522 644 
L 522 1753 
Q 522 2253 501 2348 
Q 481 2444 426 2487 
Q 372 2531 291 2531 
Q 194 2531 72 2484 
L 41 2597 
L 906 2947 
L 1038 2947 
z
" id="TimesNewRomanPSMT-72" transform="scale(0.015625)"/>
       <path d="M 1031 3803 
L 1031 2863 
L 1700 2863 
L 1700 2644 
L 1031 2644 
L 1031 788 
Q 1031 509 1111 412 
Q 1191 316 1316 316 
Q 1419 316 1516 380 
Q 1613 444 1666 569 
L 1788 569 
Q 1678 263 1478 108 
Q 1278 -47 1066 -47 
Q 922 -47 784 33 
Q 647 113 581 261 
Q 516 409 516 719 
L 516 2644 
L 63 2644 
L 63 2747 
Q 234 2816 414 2980 
Q 594 3144 734 3369 
Q 806 3488 934 3803 
L 1031 3803 
z
" id="TimesNewRomanPSMT-74" transform="scale(0.015625)"/>
       <path d="M 2709 2863 
L 2709 1128 
Q 2709 631 2732 520 
Q 2756 409 2807 365 
Q 2859 322 2928 322 
Q 3025 322 3147 375 
L 3191 266 
L 2334 -88 
L 2194 -88 
L 2194 519 
Q 1825 119 1631 15 
Q 1438 -88 1222 -88 
Q 981 -88 804 51 
Q 628 191 559 409 
Q 491 628 491 1028 
L 491 2306 
Q 491 2509 447 2587 
Q 403 2666 317 2708 
Q 231 2750 6 2747 
L 6 2863 
L 1009 2863 
L 1009 947 
Q 1009 547 1148 422 
Q 1288 297 1484 297 
Q 1619 297 1789 381 
Q 1959 466 2194 703 
L 2194 2325 
Q 2194 2569 2105 2655 
Q 2016 2741 1734 2747 
L 1734 2863 
L 2709 2863 
z
" id="TimesNewRomanPSMT-75" transform="scale(0.015625)"/>
       <path d="M 1034 2341 
Q 1538 2947 1994 2947 
Q 2228 2947 2397 2830 
Q 2566 2713 2666 2444 
Q 2734 2256 2734 1869 
L 2734 647 
Q 2734 375 2778 278 
Q 2813 200 2889 156 
Q 2966 113 3172 113 
L 3172 0 
L 1756 0 
L 1756 113 
L 1816 113 
Q 2016 113 2095 173 
Q 2175 234 2206 353 
Q 2219 400 2219 647 
L 2219 1819 
Q 2219 2209 2117 2386 
Q 2016 2563 1775 2563 
Q 1403 2563 1034 2156 
L 1034 647 
Q 1034 356 1069 288 
Q 1113 197 1189 155 
Q 1266 113 1500 113 
L 1500 0 
L 84 0 
L 84 113 
L 147 113 
Q 366 113 442 223 
Q 519 334 519 647 
L 519 1709 
Q 519 2225 495 2337 
Q 472 2450 423 2490 
Q 375 2531 294 2531 
Q 206 2531 84 2484 
L 38 2597 
L 900 2947 
L 1034 2947 
L 1034 2341 
z
" id="TimesNewRomanPSMT-6e" transform="scale(0.015625)"/>
      </defs>
      <use xlink:href="#TimesNewRomanPSMT-72"/>
      <use x="33.300781" xlink:href="#TimesNewRomanPSMT-65"/>
      <use x="77.685547" xlink:href="#TimesNewRomanPSMT-74"/>
      <use x="105.46875" xlink:href="#TimesNewRomanPSMT-75"/>
      <use x="155.46875" xlink:href="#TimesNewRomanPSMT-72"/>
      <use x="188.769531" xlink:href="#TimesNewRomanPSMT-6e"/>
      <use x="238.769531" xlink:href="#TimesNewRomanPSMT-73"/>
     </g>
    </g>
   </g>
   <g id="line2d_27">
    <path clip-path="url(#p3f3601d16c)" d="M 165.407107 310.363858 
L 167.327534 293.38896 
L 169.24796 278.025692 
L 171.168387 264.201905 
L 173.088813 251.845448 
L 175.00924 240.884171 
L 176.929666 231.245922 
L 178.850093 222.858552 
L 180.770519 215.649911 
L 182.690945 209.547846 
L 183.97123 206.058939 
L 185.251514 203.008398 
L 186.531798 200.374848 
L 187.812083 198.136909 
L 189.092367 196.273203 
L 190.372651 194.762353 
L 191.652936 193.582982 
L 192.93322 192.713709 
L 194.213504 192.133159 
L 195.493788 191.819953 
L 196.774073 191.752713 
L 198.054357 191.910061 
L 199.334641 192.27062 
L 200.614926 192.81301 
L 201.255068 192.745064 
L 201.89521 192.299544 
L 202.535352 192.834304 
L 203.175494 193.037642 
L 203.815636 193.841982 
L 204.455779 196.183747 
L 205.095921 194.276951 
L 205.736063 194.417699 
L 206.376205 192.898671 
L 207.016347 189.86811 
L 207.656489 187.601925 
L 208.296631 185.897305 
L 208.936774 189.423356 
L 210.217058 185.885906 
L 211.497342 191.276894 
L 212.137484 191.55784 
L 212.777626 194.146974 
L 213.417769 197.753607 
L 214.057911 202.64574 
L 214.698053 203.53035 
L 215.338195 206.956831 
L 215.978337 203.907116 
L 216.618479 205.440021 
L 217.258621 207.826515 
L 217.898764 207.75693 
L 218.538906 208.368459 
L 219.179048 207.302294 
L 220.459332 202.348639 
L 221.099474 202.823533 
L 221.739617 203.953688 
L 222.379759 204.688282 
L 223.019901 204.563821 
L 223.660043 201.204535 
L 224.300185 201.089961 
L 224.940327 199.706125 
L 225.580469 199.63789 
L 226.220612 200.077333 
L 226.860754 195.954284 
L 227.500896 196.043938 
L 228.141038 197.212848 
L 228.78118 194.366616 
L 229.421322 196.416581 
L 230.061464 197.169612 
L 230.701607 195.895584 
L 231.341749 195.80284 
L 231.981891 194.842453 
L 232.622033 195.15351 
L 233.262175 197.29066 
L 233.902317 200.650513 
L 234.54246 200.764793 
L 235.182602 201.499306 
L 235.822744 205.338017 
L 237.103028 207.316449 
L 237.74317 213.976277 
L 238.383312 216.996744 
L 239.023455 215.794057 
L 239.663597 219.233651 
L 240.303739 221.491713 
L 240.943881 226.508149 
L 241.584023 222.686412 
L 242.224165 221.464391 
L 242.864307 218.289378 
L 243.50445 218.635733 
L 244.784734 219.98277 
L 246.065018 216.131337 
L 246.70516 214.21354 
L 247.345302 212.654603 
L 247.985445 214.089792 
L 248.625587 212.839715 
L 249.265729 209.908494 
L 250.546013 206.097946 
L 251.186155 205.316464 
L 251.826298 200.049484 
L 252.46644 200.896063 
L 253.106582 199.917687 
L 253.746724 197.639101 
L 254.386866 197.871355 
L 255.027008 193.240673 
L 255.66715 194.686441 
L 256.307293 192.390635 
L 256.947435 191.373171 
L 257.587577 191.633554 
L 258.227719 188.011147 
L 259.508003 186.010982 
L 260.148145 187.914365 
L 260.788288 187.591148 
L 261.42843 188.545966 
L 262.068572 185.093975 
L 262.708714 184.919406 
L 263.348856 188.20704 
L 263.988998 188.503663 
L 264.62914 184.08373 
L 265.269283 180.889068 
L 265.909425 181.290107 
L 266.549567 180.985003 
L 267.189709 177.126926 
L 267.829851 176.163086 
L 268.469993 174.084841 
L 269.110136 173.018685 
L 269.750278 173.103668 
L 270.39042 169.600769 
L 271.030562 167.658114 
L 271.670704 168.863377 
L 272.310846 168.003596 
L 272.950988 166.661588 
L 273.591131 164.442033 
L 274.231273 163.341737 
L 275.511557 157.174277 
L 276.151699 156.305607 
L 276.791841 154.146857 
L 277.431983 153.218279 
L 278.072126 154.477085 
L 278.712268 152.880813 
L 279.35241 154.690537 
L 279.992552 150.916692 
L 280.632694 154.485352 
L 281.272836 155.128572 
L 282.553121 153.490476 
L 283.193263 154.801058 
L 283.833405 154.820831 
L 284.473547 152.291807 
L 285.113689 150.652955 
L 285.753831 150.225892 
L 286.393974 147.068215 
L 287.034116 145.6743 
L 287.674258 143.282836 
L 288.3144 140.005892 
L 288.954542 138.251468 
L 289.594684 137.400632 
L 290.234826 140.05537 
L 290.874969 140.842296 
L 291.515111 140.31634 
L 292.795395 135.293142 
L 293.435537 136.445882 
L 294.715821 141.171825 
L 295.355964 140.151403 
L 296.636248 143.759587 
L 297.27639 143.039281 
L 297.916532 146.606473 
L 298.556674 146.385858 
L 299.196817 146.914211 
L 299.836959 145.562573 
L 300.477101 144.717599 
L 301.117243 145.485605 
L 301.757385 145.136415 
L 302.397527 145.754925 
L 303.037669 148.194372 
L 303.677812 149.380118 
L 304.317954 147.308547 
L 304.958096 148.50055 
L 305.598238 147.764686 
L 306.23838 149.906587 
L 306.878522 144.263821 
L 308.158807 143.955824 
L 308.798949 142.405798 
L 309.439091 137.493046 
L 310.079233 138.463089 
L 310.719375 132.773276 
L 311.359517 131.690683 
L 311.99966 128.909451 
L 312.639802 128.329803 
L 313.279944 126.232528 
L 313.920086 128.771081 
L 314.560228 123.815264 
L 315.20037 121.040406 
L 315.840512 121.265168 
L 316.480655 121.147216 
L 317.120797 123.351554 
L 317.760939 119.183342 
L 318.401081 119.622175 
L 319.681365 111.949581 
L 320.321507 110.386843 
L 320.96165 110.249743 
L 321.601792 111.506463 
L 322.241934 108.467073 
L 322.882076 110.305749 
L 323.522218 109.639484 
L 324.802502 114.195454 
L 325.442645 111.52099 
L 326.082787 112.997502 
L 326.722929 113.397651 
L 327.363071 112.722461 
L 328.003213 113.009171 
L 328.643355 110.263748 
L 329.283498 109.092628 
L 329.92364 107.215491 
L 330.563782 104.874372 
L 331.203924 101.945199 
L 331.844066 103.655689 
L 332.484208 104.093886 
L 333.12435 105.199627 
L 333.764493 103.790958 
L 334.404635 100.379994 
L 335.044777 99.333717 
L 335.684919 102.204559 
L 336.325061 103.610081 
L 336.965203 101.828308 
L 337.605345 102.243546 
L 338.245488 104.408982 
L 338.88563 108.01852 
L 339.525772 107.299373 
L 340.165914 103.360994 
L 340.806056 102.78635 
L 341.446198 105.526901 
L 342.08634 105.694589 
L 342.726483 103.750505 
L 343.366625 105.158782 
L 344.006767 105.554213 
L 344.646909 104.401544 
L 345.287051 101.649552 
L 345.927193 101.260955 
L 346.567336 99.598774 
L 347.207478 100.343056 
L 347.84762 101.521444 
L 348.487762 101.696688 
L 349.127904 102.94027 
L 349.768046 105.012548 
L 350.408188 102.723646 
L 351.048331 104.11901 
L 351.688473 103.688587 
L 352.328615 103.396019 
L 352.968757 103.757397 
L 353.608899 103.040756 
L 354.249041 103.00948 
L 354.889183 98.862203 
L 355.529326 97.372678 
L 356.169468 92.509914 
L 356.80961 89.566216 
L 357.449752 88.567116 
L 358.730036 88.683562 
L 359.370179 86.694161 
L 360.010321 89.356517 
L 360.650463 86.557175 
L 361.290605 84.524202 
L 361.930747 85.01354 
L 362.570889 85.232066 
L 363.211031 85.638671 
L 363.851174 86.42372 
L 364.491316 86.684597 
L 365.131458 82.81727 
L 365.7716 83.993662 
L 366.411742 85.523344 
L 367.051884 86.62499 
L 367.692026 83.679602 
L 368.332169 83.045314 
L 368.972311 79.988173 
L 369.612453 82.334633 
L 370.252595 79.079033 
L 372.173021 74.281367 
L 373.453306 68.14688 
L 374.093448 66.862969 
L 374.73359 63.636063 
L 375.373732 65.219788 
L 376.013874 60.853389 
L 376.654017 61.027333 
L 377.294159 57.790808 
L 377.934301 61.3171 
L 378.574443 61.93043 
L 379.214585 60.352231 
L 379.854727 57.084663 
L 380.494869 59.982195 
L 381.135012 59.469695 
L 381.775154 61.164798 
L 383.055438 56.17764 
L 383.69558 56.545983 
L 384.335722 59.224666 
L 384.975864 57.753805 
L 385.616007 60.700487 
L 386.256149 60.733048 
L 386.896291 60.439417 
L 387.536433 58.752109 
L 388.176575 58.604253 
L 388.816717 61.77704 
L 389.45686 60.94166 
L 390.097002 62.187422 
L 390.737144 66.07362 
L 391.377286 67.65168 
L 392.017428 68.398275 
L 392.65757 70.136615 
L 393.297712 70.332896 
L 393.937855 70.251093 
L 394.577997 70.474764 
L 395.218139 69.241612 
L 395.858281 67.711504 
L 396.498423 68.279826 
L 397.138565 67.8782 
L 397.778707 67.767957 
L 398.41885 68.256029 
L 399.058992 68.491774 
L 399.699134 71.214386 
L 400.339276 69.49235 
L 400.979418 69.878692 
L 401.61956 69.897879 
L 402.259702 71.333651 
L 404.180129 66.349762 
L 404.820271 69.215975 
L 405.460413 70.758459 
L 406.100555 70.840747 
L 406.740698 71.687339 
L 407.38084 70.748785 
L 408.020982 71.31517 
L 408.661124 69.948183 
L 409.301266 70.267131 
L 409.941408 69.723422 
L 411.221693 73.328899 
L 411.861835 72.763495 
L 412.501977 72.601037 
L 413.142119 74.41903 
L 413.782261 74.098638 
L 414.422403 72.277619 
L 415.062545 71.642357 
L 415.702688 74.281321 
L 416.34283 74.943361 
L 416.982972 74.564254 
L 417.623114 75.308429 
L 418.263256 76.382655 
L 418.903398 74.878948 
L 419.54354 74.10897 
L 420.183683 71.79078 
L 420.823825 74.166909 
L 421.463967 77.804862 
L 422.104109 77.98103 
L 422.744251 79.192296 
L 423.384393 81.130157 
L 424.024536 80.950807 
L 424.664678 81.103555 
L 425.30482 79.303951 
L 425.944962 80.516299 
L 426.585104 80.869332 
L 427.225246 80.751451 
L 427.865388 81.034413 
L 428.505531 82.337172 
L 429.145673 83.2955 
L 429.785815 82.877558 
L 430.425957 84.268815 
L 431.066099 84.481766 
L 431.706241 85.747809 
L 432.346383 85.035285 
L 432.986526 84.509778 
L 433.626668 85.407191 
L 434.26681 84.471635 
L 434.906952 86.670407 
L 435.547094 85.197693 
L 436.187236 86.00791 
L 436.827379 84.983778 
L 437.467521 83.480228 
L 438.107663 82.420145 
L 439.387947 78.363318 
L 440.028089 77.290805 
L 440.668231 73.352392 
L 441.308374 73.064262 
L 441.948516 73.962084 
L 442.588658 75.375818 
L 443.2288 72.796984 
L 445.149226 79.488696 
L 445.789369 82.253504 
L 446.429511 81.21369 
L 447.069653 82.094712 
L 447.709795 79.677713 
L 448.349937 81.93349 
L 448.990079 78.523523 
L 449.630221 76.648178 
L 450.270364 75.226664 
L 450.910506 75.165447 
L 451.550648 74.262034 
L 452.19079 73.686597 
L 452.830932 74.153482 
L 453.471074 74.918842 
L 454.111217 76.011913 
L 454.751359 75.511975 
L 455.391501 74.579945 
L 456.031643 72.772939 
L 456.671785 71.308089 
L 457.311927 72.475545 
L 457.952069 72.566215 
L 458.592212 70.882084 
L 459.872496 66.840229 
L 460.512638 68.117987 
L 461.15278 67.799148 
L 461.792922 66.369125 
L 462.433064 66.022697 
L 463.073207 67.228305 
L 463.713349 64.925381 
L 464.353491 65.387174 
L 464.993633 64.777009 
L 465.633775 64.52794 
L 466.91406 65.026694 
L 467.554202 64.03781 
L 468.194344 64.044858 
L 469.474628 59.661825 
L 470.11477 59.188988 
L 470.754912 56.257688 
L 471.395055 57.697784 
L 472.035197 56.67164 
L 472.675339 57.851054 
L 473.315481 56.79218 
L 473.955623 57.490236 
L 474.595765 57.300914 
L 475.235907 57.350403 
L 476.516192 54.426797 
L 477.156334 55.211094 
L 477.796476 53.201719 
L 478.436618 51.906968 
L 479.07676 53.092694 
L 479.716902 53.532549 
L 480.997187 51.672628 
L 481.637329 48.838693 
L 482.277471 50.358061 
L 482.917613 51.477943 
L 483.557755 50.334066 
L 484.197898 48.900935 
L 484.83804 49.580646 
L 485.478182 51.087642 
L 486.118324 50.837587 
L 486.758466 50.212596 
L 487.398608 51.569243 
L 488.03875 53.880847 
L 488.678893 55.223895 
L 489.319035 55.706283 
L 489.959177 57.076965 
L 490.599319 58.957151 
L 491.239461 60.456744 
L 491.879603 59.525964 
L 492.519745 59.202059 
L 493.159888 59.583231 
L 493.80003 59.251497 
L 494.440172 57.95412 
L 495.080314 57.549837 
L 495.720456 56.503871 
L 496.360598 56.841723 
L 497.00074 56.792614 
L 497.640883 57.150325 
L 498.281025 58.147462 
L 498.921167 59.78533 
L 499.561309 58.636748 
L 500.201451 58.166715 
L 500.841593 58.132923 
L 501.481736 58.470222 
L 502.121878 58.39549 
L 502.76202 57.420566 
L 503.402162 58.059555 
L 504.042304 59.419836 
L 504.682446 57.534697 
L 505.322588 58.301102 
L 505.962731 57.439709 
L 506.602873 57.181407 
L 507.243015 57.4748 
L 508.523299 55.318075 
L 509.163441 54.676534 
L 509.803583 56.161886 
L 510.443726 55.197886 
L 511.083868 56.773036 
L 511.72401 57.393991 
L 512.364152 59.358038 
L 513.004294 59.563684 
L 513.644436 58.136464 
L 514.284579 61.082745 
L 514.924721 59.896792 
L 515.564863 60.128558 
L 516.205005 58.895345 
L 516.845147 56.830646 
L 517.485289 55.488924 
L 518.125431 55.54862 
L 518.765574 56.357991 
L 519.405716 55.274557 
L 520.045858 57.238845 
L 520.686 56.948214 
L 521.326142 57.379217 
L 521.966284 58.308169 
L 522.606426 58.175902 
L 523.246569 58.645388 
L 523.886711 58.567789 
L 524.526853 57.901438 
L 525.166995 56.509083 
L 525.807137 56.655289 
L 526.447279 55.721423 
L 527.087421 55.555151 
L 527.727564 55.066606 
L 528.367706 55.324012 
L 529.007848 53.886285 
L 529.64799 55.224358 
L 530.288132 55.279102 
L 530.928274 56.907656 
L 531.568417 56.199634 
L 532.208559 57.103002 
L 532.848701 57.250229 
L 533.488843 56.33375 
L 534.128985 54.854433 
L 534.769127 56.076666 
L 536.049412 55.327571 
L 536.689554 55.333885 
L 537.329696 55.552446 
L 537.969838 56.161774 
L 538.60998 56.287857 
L 539.250122 56.127227 
L 539.890264 56.135948 
L 540.530407 57.868724 
L 541.170549 57.462357 
L 541.810691 57.621694 
L 542.450833 57.272245 
L 543.090975 56.722583 
L 543.731117 54.904173 
L 544.37126 54.936541 
L 545.011402 54.510528 
L 545.651544 55.28925 
L 546.291686 55.255785 
L 546.931828 53.705793 
L 547.57197 54.159153 
L 548.212112 55.026182 
L 549.492397 54.264267 
L 550.132539 52.503013 
L 550.772681 51.814374 
L 551.412823 52.193449 
L 552.052965 52.250338 
L 552.693107 52.733366 
L 553.33325 51.945767 
L 553.973392 52.238333 
L 554.613534 51.816341 
L 555.253676 52.63064 
L 555.893818 53.984311 
L 556.53396 53.604969 
L 557.174102 54.898371 
L 557.814245 54.472451 
L 558.454387 55.529841 
L 559.094529 56.051758 
L 559.734671 56.014647 
L 560.374813 55.434082 
L 561.014955 55.184194 
L 561.655098 54.648995 
L 562.935382 54.42679 
L 563.575524 54.890715 
L 564.215666 54.000119 
L 564.855808 52.424328 
L 565.49595 53.220043 
L 566.136093 52.314135 
L 566.776235 52.689388 
L 567.416377 51.401872 
L 568.056519 49.696074 
L 568.696661 49.069335 
L 569.336803 50.535629 
L 569.976945 50.374596 
L 570.617088 50.570612 
L 571.897372 50.017048 
L 573.177656 48.711452 
L 573.817798 50.278931 
L 574.45794 50.681062 
L 575.098083 49.037614 
L 575.738225 50.879972 
L 576.378367 49.681203 
L 577.018509 49.185085 
L 577.658651 49.062793 
L 578.938936 49.742002 
L 579.579078 51.384116 
L 580.21922 50.483633 
L 580.859362 49.26049 
L 581.499504 51.34583 
L 582.139646 50.499955 
L 582.779788 52.470906 
L 583.419931 51.281731 
L 584.060073 52.719931 
L 585.340357 53.697125 
L 585.980499 55.313663 
L 586.620641 54.95991 
L 587.260783 55.132467 
L 587.900926 55.721933 
L 588.541068 55.620518 
L 589.18121 56.563052 
L 589.821352 56.717958 
L 590.461494 57.393536 
L 591.101636 56.639645 
L 591.741779 57.12061 
L 592.381921 56.684707 
L 593.022063 56.999021 
L 593.662205 55.709943 
L 594.302347 56.140848 
L 594.942489 56.0913 
L 595.582631 56.588618 
L 596.222774 58.070028 
L 596.862916 57.543547 
L 598.783342 59.540272 
L 599.423484 59.992232 
L 600.063626 61.356927 
L 600.703769 61.614316 
L 601.343911 61.627811 
L 601.984053 61.082798 
L 602.624195 61.338295 
L 603.264337 62.008739 
L 603.904479 61.327795 
L 604.544621 62.405793 
L 605.184764 64.660087 
L 605.824906 64.031563 
L 606.465048 65.347082 
L 608.385474 66.569737 
L 609.025617 66.063269 
L 609.665759 65.347843 
L 610.305901 64.463136 
L 610.946043 64.97928 
L 611.586185 65.098421 
L 612.226327 64.510519 
L 612.866469 64.902185 
L 613.506612 64.125122 
L 614.146754 63.669329 
L 614.786896 64.892386 
L 615.427038 64.29127 
L 616.06718 63.502627 
L 616.707322 63.665031 
L 617.347464 63.451915 
L 617.987607 64.254505 
L 618.627749 63.451058 
L 619.267891 62.419494 
L 619.908033 61.663491 
L 620.548175 62.597204 
L 621.188317 62.711547 
L 621.82846 62.323173 
L 622.468602 61.545217 
L 623.108744 61.082059 
L 623.748886 60.220494 
L 624.389028 60.949406 
L 625.02917 61.151481 
L 625.669312 62.536697 
L 626.309455 61.285878 
L 626.949597 60.787916 
L 627.589739 60.732646 
L 628.229881 60.288314 
L 628.870023 60.380541 
L 629.510165 59.862075 
L 630.79045 57.863385 
L 631.430592 57.265614 
L 632.070734 57.505684 
L 632.710876 56.456905 
L 633.351018 56.949068 
L 633.99116 56.096417 
L 634.631302 55.957237 
L 635.271445 57.075827 
L 636.551729 56.267929 
L 637.191871 56.756992 
L 637.832013 56.033748 
L 638.472155 56.159517 
L 639.112298 56.903434 
L 639.75244 58.046292 
L 640.392582 56.777734 
L 642.313008 55.240911 
L 642.95315 55.024697 
L 643.593293 56.615442 
L 644.233435 56.922218 
L 644.873577 55.770157 
L 645.513719 56.535316 
L 646.153861 57.036343 
L 646.794003 55.66647 
L 647.434145 55.586494 
L 648.074288 54.617226 
L 649.354572 56.723289 
L 649.994714 57.164672 
L 650.634856 55.548598 
L 651.274998 55.246931 
L 651.91514 55.292932 
L 652.555283 55.215928 
L 653.195425 56.035922 
L 653.835567 55.783831 
L 654.475709 56.525675 
L 655.115851 56.654119 
L 655.755993 57.514582 
L 656.396136 57.429418 
L 657.036278 56.927116 
L 657.67642 57.562089 
L 658.316562 56.433475 
L 658.956704 56.259365 
L 659.596846 57.675699 
L 660.236988 57.036181 
L 660.877131 57.217971 
L 661.517273 56.414436 
L 662.157415 55.791902 
L 662.797557 56.958072 
L 663.437699 56.898827 
L 664.077841 55.485034 
L 664.717983 56.473356 
L 665.358126 56.688688 
L 665.998268 58.019153 
L 667.278552 56.622566 
L 667.918694 57.417861 
L 668.558836 56.336739 
L 669.198979 56.136953 
L 669.839121 56.759088 
L 670.479263 55.457668 
L 671.119405 54.763601 
L 671.759547 53.5917 
L 672.399689 54.253847 
L 673.679974 56.809353 
L 674.320116 55.884188 
L 674.960258 57.16556 
L 675.6004 57.63429 
L 676.240542 57.698708 
L 676.880684 58.852928 
L 677.520826 57.911375 
L 678.801111 57.915403 
L 680.721537 56.232929 
L 681.361679 56.276453 
L 682.001821 55.891953 
L 682.641964 54.180852 
L 683.282106 53.33517 
L 683.922248 53.191357 
L 684.56239 52.75221 
L 685.202532 52.865701 
L 685.842674 52.189678 
L 686.482817 51.147208 
L 687.122959 51.183383 
L 687.763101 49.414893 
L 688.403243 50.320247 
L 689.043385 50.682896 
L 689.683527 50.352901 
L 690.323669 50.837101 
L 690.963812 52.364676 
L 692.244096 52.500835 
L 692.884238 52.924001 
L 693.52438 54.299159 
L 694.164522 54.391941 
L 694.804664 55.654531 
L 696.084949 56.943161 
L 696.725091 57.221597 
L 698.005375 58.134762 
L 698.645517 58.492838 
L 699.28566 59.172199 
L 699.925802 59.219073 
L 700.565944 58.382921 
L 701.206086 57.83248 
L 701.846228 57.828769 
L 702.48637 58.010939 
L 703.126512 57.003993 
L 703.766655 57.057225 
L 704.406797 56.239435 
L 705.046939 56.107684 
L 706.327223 55.623285 
L 706.967365 55.41244 
L 707.607507 54.545761 
L 708.24765 54.220915 
L 708.887792 53.709639 
L 709.527934 54.437923 
L 710.168076 54.505671 
L 710.808218 52.675439 
L 711.44836 51.341904 
L 712.088502 52.090673 
L 712.728645 51.749037 
L 713.368787 52.594814 
L 714.008929 52.452732 
L 714.649071 50.33914 
L 715.289213 49.723012 
L 715.929355 48.543668 
L 716.569498 48.066447 
L 717.20964 48.460263 
L 717.849782 49.082277 
L 718.489924 48.512411 
L 719.130066 49.076411 
L 719.770208 48.302635 
L 720.41035 47.272706 
L 721.050493 47.396535 
L 721.690635 47.749918 
L 722.970919 50.143326 
L 723.611061 48.766058 
L 724.251203 48.429836 
L 724.891345 48.850351 
L 725.531488 48.934277 
L 726.17163 48.306948 
L 726.811772 48.732485 
L 727.451914 48.667977 
L 728.092056 48.987244 
L 728.732198 47.765183 
L 729.37234 48.76909 
L 730.012483 49.347595 
L 730.652625 48.969298 
L 731.292767 48.182158 
L 731.932909 48.158337 
L 732.573051 47.048221 
L 733.213193 48.500091 
L 733.853336 46.930535 
L 734.493478 45.725584 
L 735.13362 45.544192 
L 735.773762 45.518936 
L 736.413904 45.230381 
L 737.054046 44.744139 
L 737.694188 45.270603 
L 738.334331 45.431036 
L 738.974473 44.654789 
L 739.614615 44.252503 
L 740.254757 45.084056 
L 740.894899 45.643344 
L 741.535041 45.984971 
L 743.455468 49.583704 
L 744.09561 48.484457 
L 744.735752 48.420433 
L 745.375894 48.161572 
L 746.016036 48.24471 
L 747.296321 46.696192 
L 747.936463 45.97754 
L 748.576605 46.280926 
L 749.856889 44.036752 
L 750.497031 43.166393 
L 751.137174 44.069551 
L 751.777316 44.742292 
L 752.417458 44.859087 
L 753.0576 45.966952 
L 753.697742 46.812512 
L 754.337884 47.894882 
L 754.978026 47.864917 
L 755.618169 48.881544 
L 756.258311 49.482999 
L 756.898453 49.726905 
L 757.538595 51.293768 
L 758.178737 51.695935 
L 758.818879 53.68055 
L 759.459021 53.252348 
L 760.099164 53.315804 
L 760.739306 53.995581 
L 762.659732 52.866389 
L 763.299874 54.202845 
L 763.940017 54.94852 
L 764.580159 54.890008 
L 765.220301 56.012882 
L 765.860443 55.70241 
L 767.140727 54.039379 
L 767.780869 54.225835 
L 768.421012 55.012151 
L 769.061154 55.373737 
L 769.701296 54.487487 
L 774.182291 55.414834 
L 778.023144 56.459615 
L 781.223855 57.56115 
L 784.424565 58.91675 
L 786.985134 60.211985 
L 789.545702 61.717528 
L 792.106271 63.45458 
L 794.66684 65.444343 
L 797.227408 67.70802 
L 799.787977 70.266814 
L 802.348545 73.141926 
L 804.909114 76.354559 
L 804.909114 76.354559 
" style="fill:none;stroke:#7e2f8e;stroke-linecap:square;stroke-width:3;"/>
   </g>
   <g id="line2d_28">
    <path clip-path="url(#p3f3601d16c)" d="M 165.407107 156.770551 
L 167.327534 145.102282 
L 169.24796 134.544081 
L 171.168387 125.042267 
L 173.088813 116.543156 
L 175.00924 108.993065 
L 176.929666 102.338313 
L 178.850093 96.525216 
L 180.770519 91.500091 
L 182.690945 87.209256 
L 184.611372 83.599028 
L 186.531798 80.615724 
L 188.452225 78.205661 
L 189.732509 76.890911 
L 191.012793 75.791169 
L 192.293078 74.890531 
L 193.573362 74.173089 
L 195.493788 73.405627 
L 197.414215 72.960887 
L 198.054357 71.481211 
L 198.694499 65.522694 
L 199.334641 68.668759 
L 199.974783 70.320086 
L 200.614926 70.935521 
L 201.255068 73.167564 
L 201.89521 74.382616 
L 202.535352 75.325557 
L 203.175494 73.855919 
L 204.455779 78.586964 
L 205.095921 77.436412 
L 205.736063 83.324965 
L 206.376205 84.473461 
L 207.016347 79.473778 
L 207.656489 80.14988 
L 208.296631 82.046743 
L 208.936774 81.88019 
L 209.576916 82.702729 
L 210.217058 78.657115 
L 210.8572 76.433333 
L 211.497342 74.676204 
L 212.137484 75.847599 
L 212.777626 73.567598 
L 213.417769 70.554512 
L 214.057911 68.568856 
L 214.698053 66.178597 
L 215.978337 62.647867 
L 216.618479 62.108057 
L 217.258621 61.006762 
L 217.898764 59.072932 
L 218.538906 59.600692 
L 219.81919 61.546385 
L 220.459332 63.821473 
L 221.099474 61.947471 
L 221.739617 63.602636 
L 222.379759 63.958369 
L 223.019901 63.033027 
L 223.660043 60.977234 
L 224.300185 60.034764 
L 224.940327 63.874472 
L 225.580469 64.260715 
L 226.220612 62.037282 
L 226.860754 60.424869 
L 227.500896 60.595832 
L 228.141038 58.324311 
L 228.78118 59.666025 
L 229.421322 64.452526 
L 230.061464 62.352648 
L 230.701607 64.386586 
L 231.341749 65.757904 
L 231.981891 63.777817 
L 232.622033 66.318199 
L 233.262175 63.270244 
L 233.902317 64.076561 
L 234.54246 63.766019 
L 235.182602 67.204968 
L 235.822744 67.514342 
L 236.462886 66.89861 
L 237.103028 72.39422 
L 237.74317 70.96629 
L 238.383312 71.846366 
L 239.023455 69.807908 
L 239.663597 69.459541 
L 240.303739 68.014678 
L 240.943881 69.978738 
L 241.584023 70.28182 
L 242.224165 66.90131 
L 243.50445 69.287361 
L 244.144592 70.823685 
L 245.424876 71.209863 
L 246.065018 68.036413 
L 246.70516 68.022781 
L 247.345302 67.244515 
L 247.985445 68.962196 
L 248.625587 71.311811 
L 249.265729 71.279579 
L 249.905871 69.730814 
L 250.546013 71.289844 
L 251.186155 67.816943 
L 251.826298 68.300889 
L 252.46644 69.548516 
L 253.106582 66.410431 
L 253.746724 60.62889 
L 254.386866 64.457435 
L 255.027008 64.590334 
L 255.66715 65.149148 
L 256.307293 59.368303 
L 256.947435 58.441757 
L 257.587577 54.306556 
L 258.227719 55.770125 
L 258.867861 55.465575 
L 260.148145 61.25785 
L 260.788288 66.175514 
L 261.42843 65.664434 
L 262.068572 64.411683 
L 262.708714 67.612702 
L 263.348856 67.563264 
L 263.988998 64.746503 
L 264.62914 65.669599 
L 265.909425 59.801096 
L 266.549567 55.735984 
L 267.189709 53.806427 
L 267.829851 54.377681 
L 269.110136 46.203398 
L 269.750278 43.693137 
L 270.39042 37.727922 
L 271.030562 37.676397 
L 271.670704 38.482417 
L 272.310846 34.989838 
L 272.950988 34.062262 
L 273.591131 37.862924 
L 274.231273 36.278871 
L 274.871415 35.667173 
L 275.511557 33.821975 
L 276.151699 32.995084 
L 276.791841 31.736988 
L 277.431983 34.426222 
L 278.072126 30.938744 
L 278.712268 29.563951 
L 279.35241 30.32658 
L 279.992552 30.285186 
L 280.632694 32.05191 
L 281.272836 32.983797 
L 281.912979 37.42818 
L 282.553121 39.026569 
L 283.193263 39.805445 
L 283.833405 41.299574 
L 284.473547 42.071491 
L 285.113689 43.299201 
L 285.753831 44.951917 
L 286.393974 45.851215 
L 287.034116 44.830845 
L 287.674258 41.676342 
L 288.3144 44.048297 
L 288.954542 44.526271 
L 289.594684 40.91213 
L 290.234826 40.442328 
L 290.874969 45.055471 
L 291.515111 47.283789 
L 292.155253 48.430745 
L 292.795395 51.739043 
L 293.435537 52.833915 
L 294.075679 49.815198 
L 294.715821 55.641112 
L 295.355964 55.093596 
L 295.996106 55.845414 
L 296.636248 55.770494 
L 297.27639 55.573569 
L 297.916532 58.263745 
L 298.556674 59.175691 
L 299.196817 58.765025 
L 299.836959 56.717009 
L 300.477101 56.123366 
L 301.117243 60.015773 
L 301.757385 56.106839 
L 302.397527 56.234347 
L 303.037669 54.08217 
L 303.677812 55.552911 
L 304.958096 60.414538 
L 305.598238 62.505861 
L 306.23838 63.978668 
L 306.878522 64.933527 
L 307.518664 63.41146 
L 308.158807 63.475636 
L 308.798949 61.538855 
L 309.439091 60.78786 
L 310.079233 60.937585 
L 310.719375 62.571002 
L 311.359517 62.414679 
L 311.99966 63.74068 
L 312.639802 64.052222 
L 313.279944 61.559808 
L 313.920086 61.455757 
L 314.560228 65.249012 
L 315.20037 62.037979 
L 315.840512 65.361557 
L 316.480655 64.701343 
L 317.120797 65.606968 
L 317.760939 65.330102 
L 318.401081 66.827352 
L 319.041223 61.710347 
L 319.681365 62.920139 
L 320.321507 62.157687 
L 320.96165 64.622624 
L 321.601792 64.236807 
L 322.241934 70.105254 
L 322.882076 70.336737 
L 323.522218 68.905348 
L 324.16236 64.981599 
L 324.802502 64.764063 
L 325.442645 59.013462 
L 326.082787 56.718988 
L 326.722929 53.326251 
L 327.363071 49.143174 
L 328.003213 48.799062 
L 328.643355 47.493228 
L 329.283498 42.741549 
L 329.92364 43.592976 
L 330.563782 45.038132 
L 331.203924 47.858908 
L 331.844066 46.778063 
L 332.484208 44.694323 
L 333.12435 44.993344 
L 333.764493 46.744647 
L 334.404635 45.446141 
L 335.044777 45.835275 
L 335.684919 44.226037 
L 336.325061 41.740293 
L 336.965203 43.300751 
L 337.605345 43.032454 
L 338.245488 37.900842 
L 338.88563 35.76816 
L 339.525772 35.467826 
L 340.165914 35.812352 
L 340.806056 34.734025 
L 341.446198 34.384463 
L 342.08634 31.589967 
L 342.726483 36.403094 
L 343.366625 36.294292 
L 344.006767 35.028836 
L 344.646909 35.177866 
L 345.287051 35.838031 
L 345.927193 34.098627 
L 346.567336 34.069888 
L 347.207478 34.562111 
L 347.84762 35.67897 
L 349.127904 32.478547 
L 349.768046 28.580597 
L 351.048331 25.064946 
L 351.688473 26.176552 
L 352.328615 28.966947 
L 352.968757 29.466831 
L 353.608899 32.158886 
L 354.249041 32.754528 
L 354.889183 34.641763 
L 355.529326 35.010605 
L 356.169468 38.805717 
L 356.80961 38.58711 
L 357.449752 39.272454 
L 358.089894 37.637393 
L 358.730036 37.810483 
L 359.370179 33.413492 
L 360.010321 31.924014 
L 360.650463 31.943091 
L 361.290605 34.755554 
L 361.930747 34.351832 
L 362.570889 34.192046 
L 363.211031 34.622849 
L 363.851174 36.355219 
L 364.491316 40.369237 
L 365.131458 42.128109 
L 365.7716 41.81713 
L 366.411742 43.573003 
L 367.051884 46.943866 
L 367.692026 49.339462 
L 368.332169 50.856849 
L 368.972311 51.275301 
L 369.612453 51.850893 
L 370.252595 49.021271 
L 370.892737 47.459401 
L 371.532879 49.521518 
L 372.173021 50.8723 
L 372.813164 51.45551 
L 373.453306 52.789554 
L 376.013874 56.657885 
L 376.654017 58.256991 
L 377.294159 58.905905 
L 377.934301 59.882318 
L 378.574443 60.435168 
L 379.214585 57.564208 
L 379.854727 59.728103 
L 380.494869 59.108928 
L 381.135012 60.689916 
L 381.775154 58.454911 
L 383.055438 61.129531 
L 383.69558 65.115177 
L 384.335722 66.499523 
L 384.975864 68.598884 
L 385.616007 70.272189 
L 386.256149 71.425652 
L 386.896291 67.244217 
L 387.536433 66.186458 
L 388.176575 65.800483 
L 388.816717 66.370444 
L 389.45686 64.585376 
L 390.097002 63.641392 
L 390.737144 64.643622 
L 391.377286 67.848342 
L 392.65757 66.241974 
L 393.297712 66.592188 
L 393.937855 67.33442 
L 394.577997 67.086588 
L 395.218139 64.61186 
L 395.858281 60.819021 
L 396.498423 60.807295 
L 397.138565 60.6591 
L 397.778707 58.145761 
L 398.41885 56.640174 
L 399.058992 59.374398 
L 399.699134 60.843443 
L 400.339276 58.965166 
L 400.979418 61.633689 
L 401.61956 61.34468 
L 402.259702 59.693725 
L 402.899845 58.41363 
L 403.539987 61.686384 
L 404.180129 61.683728 
L 404.820271 61.14968 
L 405.460413 62.027018 
L 406.100555 64.447709 
L 406.740698 63.878634 
L 407.38084 61.807798 
L 408.661124 65.703594 
L 409.941408 63.924006 
L 410.58155 65.693231 
L 411.221693 62.833989 
L 412.501977 59.569219 
L 413.142119 59.820383 
L 413.782261 60.256496 
L 414.422403 59.768231 
L 415.062545 63.01484 
L 415.702688 64.373471 
L 416.34283 62.651565 
L 417.623114 60.942828 
L 418.263256 61.278074 
L 418.903398 60.700201 
L 419.54354 61.299557 
L 420.183683 60.287287 
L 420.823825 56.950899 
L 420.823825 56.950899 
" style="fill:none;stroke:#a2142f;stroke-linecap:square;stroke-width:3;"/>
   </g>
   <g id="line2d_29">
    <path clip-path="url(#p3f3601d16c)" d="M 421.463967 55.754766 
L 804.909114 55.754766 
L 804.909114 55.754766 
" style="fill:none;stroke:#a2142f;stroke-dasharray:14.8,6.4;stroke-dashoffset:0;stroke-width:4;"/>
   </g>
   <g id="line2d_30">
    <path clip-path="url(#p3f3601d16c)" d="M 165.407107 156.808031 
L 805.549256 156.808031 
L 805.549256 156.808031 
" style="fill:none;stroke:#d95319;stroke-dasharray:14.8,6.4;stroke-dashoffset:0;stroke-width:4;"/>
   </g>
   <g id="patch_3">
    <path d="M 133.4 613.24 
L 133.4 10.8 
" style="fill:none;stroke:#000000;stroke-linecap:square;stroke-linejoin:miter;stroke-width:0.8;"/>
   </g>
   <g id="patch_4">
    <path d="M 837.556364 613.24 
L 837.556364 10.8 
" style="fill:none;stroke:#000000;stroke-linecap:square;stroke-linejoin:miter;stroke-width:0.8;"/>
   </g>
   <g id="patch_5">
    <path d="M 133.4 613.24 
L 837.556364 613.24 
" style="fill:none;stroke:#000000;stroke-linecap:square;stroke-linejoin:miter;stroke-width:0.8;"/>
   </g>
   <g id="patch_6">
    <path d="M 133.4 10.8 
L 837.556364 10.8 
" style="fill:none;stroke:#000000;stroke-linecap:square;stroke-linejoin:miter;stroke-width:0.8;"/>
   </g>
   <g id="legend_1">
    <g id="line2d_31">
     <path d="M 174.8 415.820937 
L 266.8 415.820937 
" style="fill:none;stroke:#7e2f8e;stroke-linecap:square;stroke-width:3;"/>
    </g>
    <g id="line2d_32"/>
    <g id="text_16">
     <!-- RDSE -->
     <g transform="translate(303.6 431.920937)scale(0.46 -0.46)">
      <defs>
       <path d="M 4325 0 
L 3194 0 
L 1759 1981 
Q 1600 1975 1500 1975 
Q 1459 1975 1412 1976 
Q 1366 1978 1316 1981 
L 1316 750 
Q 1316 350 1403 253 
Q 1522 116 1759 116 
L 1925 116 
L 1925 0 
L 109 0 
L 109 116 
L 269 116 
Q 538 116 653 291 
Q 719 388 719 750 
L 719 3488 
Q 719 3888 631 3984 
Q 509 4122 269 4122 
L 109 4122 
L 109 4238 
L 1653 4238 
Q 2328 4238 2648 4139 
Q 2969 4041 3192 3777 
Q 3416 3513 3416 3147 
Q 3416 2756 3161 2468 
Q 2906 2181 2372 2063 
L 3247 847 
Q 3547 428 3762 290 
Q 3978 153 4325 116 
L 4325 0 
z
M 1316 2178 
Q 1375 2178 1419 2176 
Q 1463 2175 1491 2175 
Q 2097 2175 2405 2437 
Q 2713 2700 2713 3106 
Q 2713 3503 2464 3751 
Q 2216 4000 1806 4000 
Q 1625 4000 1316 3941 
L 1316 2178 
z
" id="TimesNewRomanPSMT-52" transform="scale(0.015625)"/>
       <path d="M 109 0 
L 109 116 
L 269 116 
Q 538 116 650 288 
Q 719 391 719 750 
L 719 3488 
Q 719 3884 631 3984 
Q 509 4122 269 4122 
L 109 4122 
L 109 4238 
L 1834 4238 
Q 2784 4238 3279 4022 
Q 3775 3806 4076 3303 
Q 4378 2800 4378 2141 
Q 4378 1256 3841 663 
Q 3238 0 2003 0 
L 109 0 
z
M 1319 306 
Q 1716 219 1984 219 
Q 2709 219 3187 728 
Q 3666 1238 3666 2109 
Q 3666 2988 3187 3494 
Q 2709 4000 1959 4000 
Q 1678 4000 1319 3909 
L 1319 306 
z
" id="TimesNewRomanPSMT-44" transform="scale(0.015625)"/>
       <path d="M 2934 4334 
L 2934 2869 
L 2819 2869 
Q 2763 3291 2617 3541 
Q 2472 3791 2203 3937 
Q 1934 4084 1647 4084 
Q 1322 4084 1109 3886 
Q 897 3688 897 3434 
Q 897 3241 1031 3081 
Q 1225 2847 1953 2456 
Q 2547 2138 2764 1967 
Q 2981 1797 3098 1565 
Q 3216 1334 3216 1081 
Q 3216 600 2842 251 
Q 2469 -97 1881 -97 
Q 1697 -97 1534 -69 
Q 1438 -53 1133 45 
Q 828 144 747 144 
Q 669 144 623 97 
Q 578 50 556 -97 
L 441 -97 
L 441 1356 
L 556 1356 
Q 638 900 775 673 
Q 913 447 1195 297 
Q 1478 147 1816 147 
Q 2206 147 2432 353 
Q 2659 559 2659 841 
Q 2659 997 2573 1156 
Q 2488 1316 2306 1453 
Q 2184 1547 1640 1851 
Q 1097 2156 867 2337 
Q 638 2519 519 2737 
Q 400 2956 400 3219 
Q 400 3675 750 4004 
Q 1100 4334 1641 4334 
Q 1978 4334 2356 4169 
Q 2531 4091 2603 4091 
Q 2684 4091 2736 4139 
Q 2788 4188 2819 4334 
L 2934 4334 
z
" id="TimesNewRomanPSMT-53" transform="scale(0.015625)"/>
       <path d="M 1338 4006 
L 1338 2331 
L 2269 2331 
Q 2631 2331 2753 2441 
Q 2916 2584 2934 2947 
L 3050 2947 
L 3050 1472 
L 2934 1472 
Q 2891 1781 2847 1869 
Q 2791 1978 2662 2040 
Q 2534 2103 2269 2103 
L 1338 2103 
L 1338 706 
Q 1338 425 1363 364 
Q 1388 303 1450 267 
Q 1513 231 1688 231 
L 2406 231 
Q 2766 231 2928 281 
Q 3091 331 3241 478 
Q 3434 672 3638 1063 
L 3763 1063 
L 3397 0 
L 131 0 
L 131 116 
L 281 116 
Q 431 116 566 188 
Q 666 238 702 338 
Q 738 438 738 747 
L 738 3500 
Q 738 3903 656 3997 
Q 544 4122 281 4122 
L 131 4122 
L 131 4238 
L 3397 4238 
L 3444 3309 
L 3322 3309 
Q 3256 3644 3176 3769 
Q 3097 3894 2941 3959 
Q 2816 4006 2500 4006 
L 1338 4006 
z
" id="TimesNewRomanPSMT-45" transform="scale(0.015625)"/>
      </defs>
      <use xlink:href="#TimesNewRomanPSMT-52"/>
      <use x="66.699219" xlink:href="#TimesNewRomanPSMT-44"/>
      <use x="138.916016" xlink:href="#TimesNewRomanPSMT-53"/>
      <use x="194.53125" xlink:href="#TimesNewRomanPSMT-45"/>
     </g>
    </g>
    <g id="line2d_33">
     <path d="M 174.8 480.860625 
L 266.8 480.860625 
" style="fill:none;stroke:#a2142f;stroke-linecap:square;stroke-width:3;"/>
    </g>
    <g id="line2d_34"/>
    <g id="text_17">
     <!-- few-shot  -->
     <g transform="translate(303.6 496.960625)scale(0.46 -0.46)">
      <defs>
       <path d="M 1319 2638 
L 1319 756 
Q 1319 356 1406 250 
Q 1522 113 1716 113 
L 1975 113 
L 1975 0 
L 266 0 
L 266 113 
L 394 113 
Q 519 113 622 175 
Q 725 238 764 344 
Q 803 450 803 756 
L 803 2638 
L 247 2638 
L 247 2863 
L 803 2863 
L 803 3050 
Q 803 3478 940 3775 
Q 1078 4072 1361 4255 
Q 1644 4438 1997 4438 
Q 2325 4438 2600 4225 
Q 2781 4084 2781 3909 
Q 2781 3816 2700 3733 
Q 2619 3650 2525 3650 
Q 2453 3650 2373 3701 
Q 2294 3753 2178 3923 
Q 2063 4094 1966 4153 
Q 1869 4213 1750 4213 
Q 1606 4213 1506 4136 
Q 1406 4059 1362 3898 
Q 1319 3738 1319 3069 
L 1319 2863 
L 2056 2863 
L 2056 2638 
L 1319 2638 
z
" id="TimesNewRomanPSMT-66" transform="scale(0.015625)"/>
       <path d="M 41 2863 
L 1241 2863 
L 1241 2747 
Q 1075 2734 1023 2687 
Q 972 2641 972 2553 
Q 972 2456 1025 2319 
L 1638 672 
L 2253 2013 
L 2091 2434 
Q 2016 2622 1894 2694 
Q 1825 2738 1638 2747 
L 1638 2863 
L 3000 2863 
L 3000 2747 
Q 2775 2738 2681 2666 
Q 2619 2616 2619 2506 
Q 2619 2444 2644 2378 
L 3294 734 
L 3897 2319 
Q 3959 2488 3959 2588 
Q 3959 2647 3898 2694 
Q 3838 2741 3659 2747 
L 3659 2863 
L 4563 2863 
L 4563 2747 
Q 4291 2706 4163 2378 
L 3206 -88 
L 3078 -88 
L 2363 1741 
L 1528 -88 
L 1413 -88 
L 494 2319 
Q 403 2547 315 2626 
Q 228 2706 41 2747 
L 41 2863 
z
" id="TimesNewRomanPSMT-77" transform="scale(0.015625)"/>
       <path d="M 259 1672 
L 1875 1672 
L 1875 1200 
L 259 1200 
L 259 1672 
z
" id="TimesNewRomanPSMT-2d" transform="scale(0.015625)"/>
       <path d="M 1041 4444 
L 1041 2350 
Q 1388 2731 1591 2839 
Q 1794 2947 1997 2947 
Q 2241 2947 2416 2812 
Q 2591 2678 2675 2391 
Q 2734 2191 2734 1659 
L 2734 647 
Q 2734 375 2778 275 
Q 2809 200 2884 156 
Q 2959 113 3159 113 
L 3159 0 
L 1753 0 
L 1753 113 
L 1819 113 
Q 2019 113 2097 173 
Q 2175 234 2206 353 
Q 2216 403 2216 647 
L 2216 1659 
Q 2216 2128 2167 2275 
Q 2119 2422 2012 2495 
Q 1906 2569 1756 2569 
Q 1603 2569 1437 2487 
Q 1272 2406 1041 2159 
L 1041 647 
Q 1041 353 1073 281 
Q 1106 209 1195 161 
Q 1284 113 1503 113 
L 1503 0 
L 84 0 
L 84 113 
Q 275 113 384 172 
Q 447 203 484 290 
Q 522 378 522 647 
L 522 3238 
Q 522 3728 498 3840 
Q 475 3953 426 3993 
Q 378 4034 297 4034 
Q 231 4034 84 3984 
L 41 4094 
L 897 4444 
L 1041 4444 
z
" id="TimesNewRomanPSMT-68" transform="scale(0.015625)"/>
       <path id="TimesNewRomanPSMT-20" transform="scale(0.015625)"/>
      </defs>
      <use xlink:href="#TimesNewRomanPSMT-66"/>
      <use x="33.300781" xlink:href="#TimesNewRomanPSMT-65"/>
      <use x="77.685547" xlink:href="#TimesNewRomanPSMT-77"/>
      <use x="149.902344" xlink:href="#TimesNewRomanPSMT-2d"/>
      <use x="183.203125" xlink:href="#TimesNewRomanPSMT-73"/>
      <use x="222.119141" xlink:href="#TimesNewRomanPSMT-68"/>
      <use x="272.119141" xlink:href="#TimesNewRomanPSMT-6f"/>
      <use x="322.119141" xlink:href="#TimesNewRomanPSMT-74"/>
      <use x="349.902344" xlink:href="#TimesNewRomanPSMT-20"/>
     </g>
    </g>
    <g id="line2d_35">
     <path d="M 174.8 545.900312 
L 266.8 545.900312 
" style="fill:none;stroke:#d95319;stroke-dasharray:14.8,6.4;stroke-dashoffset:0;stroke-width:4;"/>
    </g>
    <g id="line2d_36"/>
    <g id="text_18">
     <!-- zero-shot -->
     <g transform="translate(303.6 562.000312)scale(0.46 -0.46)">
      <defs>
       <path d="M 2688 878 
L 2653 0 
L 128 0 
L 128 113 
L 2028 2644 
L 1091 2644 
Q 788 2644 694 2605 
Q 600 2566 541 2456 
Q 456 2300 444 2069 
L 319 2069 
L 338 2863 
L 2738 2863 
L 2738 2747 
L 819 209 
L 1863 209 
Q 2191 209 2308 264 
Q 2425 319 2497 456 
Q 2547 556 2581 878 
L 2688 878 
z
" id="TimesNewRomanPSMT-7a" transform="scale(0.015625)"/>
      </defs>
      <use xlink:href="#TimesNewRomanPSMT-7a"/>
      <use x="44.384766" xlink:href="#TimesNewRomanPSMT-65"/>
      <use x="88.769531" xlink:href="#TimesNewRomanPSMT-72"/>
      <use x="122.070312" xlink:href="#TimesNewRomanPSMT-6f"/>
      <use x="172.070312" xlink:href="#TimesNewRomanPSMT-2d"/>
      <use x="205.371094" xlink:href="#TimesNewRomanPSMT-73"/>
      <use x="244.287109" xlink:href="#TimesNewRomanPSMT-68"/>
      <use x="294.287109" xlink:href="#TimesNewRomanPSMT-6f"/>
      <use x="344.287109" xlink:href="#TimesNewRomanPSMT-74"/>
     </g>
    </g>
   </g>
  </g>
 </g>
 <defs>
  <clipPath id="p3f3601d16c">
   <rect height="602.44" width="704.156364" x="133.4" y="10.8"/>
  </clipPath>
 </defs>
</svg>
