<?xml version="1.0" encoding="utf-8" standalone="no"?>
<!DOCTYPE svg PUBLIC "-//W3C//DTD SVG 1.1//EN"
  "http://www.w3.org/Graphics/SVG/1.1/DTD/svg11.dtd">
<svg height="720pt" version="1.1" viewBox="0 0 864 720" width="864pt" xmlns="http://www.w3.org/2000/svg" xmlns:xlink="http://www.w3.org/1999/xlink">
 <metadata>
  <rdf:RDF xmlns:cc="http://creativecommons.org/ns#" xmlns:dc="http://purl.org/dc/elements/1.1/" xmlns:rdf="http://www.w3.org/1999/02/22-rdf-syntax-ns#">
   <cc:Work>
    <dc:type rdf:resource="http://purl.org/dc/dcmitype/StillImage"/>
    <dc:date>2025-03-02T10:52:44.531048</dc:date>
    <dc:format>image/svg+xml</dc:format>
    <dc:creator>
     <cc:Agent>
      <dc:title>Matplotlib v3.4.3, https://matplotlib.org/</dc:title>
     </cc:Agent>
    </dc:creator>
   </cc:Work>
  </rdf:RDF>
 </metadata>
 <defs>
  <style type="text/css">*{stroke-linecap:butt;stroke-linejoin:round;}</style>
 </defs>
 <g id="figure_1">
  <g id="patch_1">
   <path d="M 0 720 
L 864 720 
L 864 0 
L 0 0 
z
" style="fill:#ffffff;"/>
  </g>
  <g id="axes_1">
   <g id="patch_2">
    <path d="M 133.4 613.24 
L 836.947027 613.24 
L 836.947027 10.8 
L 133.4 10.8 
z
" style="fill:#ffffff;"/>
   </g>
   <g id="matplotlib.axis_1">
    <g id="xtick_1">
     <g id="line2d_1">
      <path clip-path="url(#p34bb7a35d8)" d="M 165.37941 613.24 
L 165.37941 10.8 
" style="fill:none;stroke:#b0b0b0;stroke-dasharray:2.96,1.28;stroke-dashoffset:0;stroke-opacity:0.5;stroke-width:0.8;"/>
     </g>
     <g id="line2d_2">
      <defs>
       <path d="M 0 0 
L 0 3.5 
" id="m2020b8e6f6" style="stroke:#000000;stroke-width:0.8;"/>
      </defs>
      <g>
       <use style="stroke:#000000;stroke-width:0.8;" x="165.37941" xlink:href="#m2020b8e6f6" y="613.24"/>
      </g>
     </g>
     <g id="text_1">
      <!-- 0 -->
      <g transform="translate(153.87941 652.18125)scale(0.46 -0.46)">
       <defs>
        <path d="M 231 2094 
Q 231 2819 450 3342 
Q 669 3866 1031 4122 
Q 1313 4325 1613 4325 
Q 2100 4325 2488 3828 
Q 2972 3213 2972 2159 
Q 2972 1422 2759 906 
Q 2547 391 2217 158 
Q 1888 -75 1581 -75 
Q 975 -75 572 641 
Q 231 1244 231 2094 
z
M 844 2016 
Q 844 1141 1059 588 
Q 1238 122 1591 122 
Q 1759 122 1940 273 
Q 2122 425 2216 781 
Q 2359 1319 2359 2297 
Q 2359 3022 2209 3506 
Q 2097 3866 1919 4016 
Q 1791 4119 1609 4119 
Q 1397 4119 1231 3928 
Q 1006 3669 925 3112 
Q 844 2556 844 2016 
z
" id="TimesNewRomanPSMT-30" transform="scale(0.015625)"/>
       </defs>
       <use xlink:href="#TimesNewRomanPSMT-30"/>
      </g>
     </g>
    </g>
    <g id="xtick_2">
     <g id="line2d_3">
      <path clip-path="url(#p34bb7a35d8)" d="M 293.425097 613.24 
L 293.425097 10.8 
" style="fill:none;stroke:#b0b0b0;stroke-dasharray:2.96,1.28;stroke-dashoffset:0;stroke-opacity:0.5;stroke-width:0.8;"/>
     </g>
     <g id="line2d_4">
      <g>
       <use style="stroke:#000000;stroke-width:0.8;" x="293.425097" xlink:href="#m2020b8e6f6" y="613.24"/>
      </g>
     </g>
     <g id="text_2">
      <!-- 200 -->
      <g transform="translate(258.925097 652.18125)scale(0.46 -0.46)">
       <defs>
        <path d="M 2934 816 
L 2638 0 
L 138 0 
L 138 116 
Q 1241 1122 1691 1759 
Q 2141 2397 2141 2925 
Q 2141 3328 1894 3587 
Q 1647 3847 1303 3847 
Q 991 3847 742 3664 
Q 494 3481 375 3128 
L 259 3128 
Q 338 3706 661 4015 
Q 984 4325 1469 4325 
Q 1984 4325 2329 3994 
Q 2675 3663 2675 3213 
Q 2675 2891 2525 2569 
Q 2294 2063 1775 1497 
Q 997 647 803 472 
L 1909 472 
Q 2247 472 2383 497 
Q 2519 522 2628 598 
Q 2738 675 2819 816 
L 2934 816 
z
" id="TimesNewRomanPSMT-32" transform="scale(0.015625)"/>
       </defs>
       <use xlink:href="#TimesNewRomanPSMT-32"/>
       <use x="50" xlink:href="#TimesNewRomanPSMT-30"/>
       <use x="100" xlink:href="#TimesNewRomanPSMT-30"/>
      </g>
     </g>
    </g>
    <g id="xtick_3">
     <g id="line2d_5">
      <path clip-path="url(#p34bb7a35d8)" d="M 421.470784 613.24 
L 421.470784 10.8 
" style="fill:none;stroke:#b0b0b0;stroke-dasharray:2.96,1.28;stroke-dashoffset:0;stroke-opacity:0.5;stroke-width:0.8;"/>
     </g>
     <g id="line2d_6">
      <g>
       <use style="stroke:#000000;stroke-width:0.8;" x="421.470784" xlink:href="#m2020b8e6f6" y="613.24"/>
      </g>
     </g>
     <g id="text_3">
      <!-- 400 -->
      <g transform="translate(386.970784 652.18125)scale(0.46 -0.46)">
       <defs>
        <path d="M 2978 1563 
L 2978 1119 
L 2409 1119 
L 2409 0 
L 1894 0 
L 1894 1119 
L 100 1119 
L 100 1519 
L 2066 4325 
L 2409 4325 
L 2409 1563 
L 2978 1563 
z
M 1894 1563 
L 1894 3666 
L 406 1563 
L 1894 1563 
z
" id="TimesNewRomanPSMT-34" transform="scale(0.015625)"/>
       </defs>
       <use xlink:href="#TimesNewRomanPSMT-34"/>
       <use x="50" xlink:href="#TimesNewRomanPSMT-30"/>
       <use x="100" xlink:href="#TimesNewRomanPSMT-30"/>
      </g>
     </g>
    </g>
    <g id="xtick_4">
     <g id="line2d_7">
      <path clip-path="url(#p34bb7a35d8)" d="M 549.516471 613.24 
L 549.516471 10.8 
" style="fill:none;stroke:#b0b0b0;stroke-dasharray:2.96,1.28;stroke-dashoffset:0;stroke-opacity:0.5;stroke-width:0.8;"/>
     </g>
     <g id="line2d_8">
      <g>
       <use style="stroke:#000000;stroke-width:0.8;" x="549.516471" xlink:href="#m2020b8e6f6" y="613.24"/>
      </g>
     </g>
     <g id="text_4">
      <!-- 600 -->
      <g transform="translate(515.016471 652.18125)scale(0.46 -0.46)">
       <defs>
        <path d="M 2869 4325 
L 2869 4209 
Q 2456 4169 2195 4045 
Q 1934 3922 1679 3669 
Q 1425 3416 1258 3105 
Q 1091 2794 978 2366 
Q 1428 2675 1881 2675 
Q 2316 2675 2634 2325 
Q 2953 1975 2953 1425 
Q 2953 894 2631 456 
Q 2244 -75 1606 -75 
Q 1172 -75 869 213 
Q 275 772 275 1663 
Q 275 2231 503 2743 
Q 731 3256 1154 3653 
Q 1578 4050 1965 4187 
Q 2353 4325 2688 4325 
L 2869 4325 
z
M 925 2138 
Q 869 1716 869 1456 
Q 869 1156 980 804 
Q 1091 453 1309 247 
Q 1469 100 1697 100 
Q 1969 100 2183 356 
Q 2397 613 2397 1088 
Q 2397 1622 2184 2012 
Q 1972 2403 1581 2403 
Q 1463 2403 1327 2353 
Q 1191 2303 925 2138 
z
" id="TimesNewRomanPSMT-36" transform="scale(0.015625)"/>
       </defs>
       <use xlink:href="#TimesNewRomanPSMT-36"/>
       <use x="50" xlink:href="#TimesNewRomanPSMT-30"/>
       <use x="100" xlink:href="#TimesNewRomanPSMT-30"/>
      </g>
     </g>
    </g>
    <g id="xtick_5">
     <g id="line2d_9">
      <path clip-path="url(#p34bb7a35d8)" d="M 677.562158 613.24 
L 677.562158 10.8 
" style="fill:none;stroke:#b0b0b0;stroke-dasharray:2.96,1.28;stroke-dashoffset:0;stroke-opacity:0.5;stroke-width:0.8;"/>
     </g>
     <g id="line2d_10">
      <g>
       <use style="stroke:#000000;stroke-width:0.8;" x="677.562158" xlink:href="#m2020b8e6f6" y="613.24"/>
      </g>
     </g>
     <g id="text_5">
      <!-- 800 -->
      <g transform="translate(643.062158 652.18125)scale(0.46 -0.46)">
       <defs>
        <path d="M 1228 2134 
Q 725 2547 579 2797 
Q 434 3047 434 3316 
Q 434 3728 753 4026 
Q 1072 4325 1600 4325 
Q 2113 4325 2425 4047 
Q 2738 3769 2738 3413 
Q 2738 3175 2569 2928 
Q 2400 2681 1866 2347 
Q 2416 1922 2594 1678 
Q 2831 1359 2831 1006 
Q 2831 559 2490 242 
Q 2150 -75 1597 -75 
Q 994 -75 656 303 
Q 388 606 388 966 
Q 388 1247 577 1523 
Q 766 1800 1228 2134 
z
M 1719 2469 
Q 2094 2806 2194 3001 
Q 2294 3197 2294 3444 
Q 2294 3772 2109 3958 
Q 1925 4144 1606 4144 
Q 1288 4144 1088 3959 
Q 888 3775 888 3528 
Q 888 3366 970 3203 
Q 1053 3041 1206 2894 
L 1719 2469 
z
M 1375 2016 
Q 1116 1797 991 1539 
Q 866 1281 866 981 
Q 866 578 1086 336 
Q 1306 94 1647 94 
Q 1984 94 2187 284 
Q 2391 475 2391 747 
Q 2391 972 2272 1150 
Q 2050 1481 1375 2016 
z
" id="TimesNewRomanPSMT-38" transform="scale(0.015625)"/>
       </defs>
       <use xlink:href="#TimesNewRomanPSMT-38"/>
       <use x="50" xlink:href="#TimesNewRomanPSMT-30"/>
       <use x="100" xlink:href="#TimesNewRomanPSMT-30"/>
      </g>
     </g>
    </g>
    <g id="xtick_6">
     <g id="line2d_11">
      <path clip-path="url(#p34bb7a35d8)" d="M 805.607845 613.24 
L 805.607845 10.8 
" style="fill:none;stroke:#b0b0b0;stroke-dasharray:2.96,1.28;stroke-dashoffset:0;stroke-opacity:0.5;stroke-width:0.8;"/>
     </g>
     <g id="line2d_12">
      <g>
       <use style="stroke:#000000;stroke-width:0.8;" x="805.607845" xlink:href="#m2020b8e6f6" y="613.24"/>
      </g>
     </g>
     <g id="text_6">
      <!-- 1000 -->
      <g transform="translate(759.607845 652.18125)scale(0.46 -0.46)">
       <defs>
        <path d="M 750 3822 
L 1781 4325 
L 1884 4325 
L 1884 747 
Q 1884 391 1914 303 
Q 1944 216 2037 169 
Q 2131 122 2419 116 
L 2419 0 
L 825 0 
L 825 116 
Q 1125 122 1212 167 
Q 1300 213 1334 289 
Q 1369 366 1369 747 
L 1369 3034 
Q 1369 3497 1338 3628 
Q 1316 3728 1258 3775 
Q 1200 3822 1119 3822 
Q 1003 3822 797 3725 
L 750 3822 
z
" id="TimesNewRomanPSMT-31" transform="scale(0.015625)"/>
       </defs>
       <use xlink:href="#TimesNewRomanPSMT-31"/>
       <use x="50" xlink:href="#TimesNewRomanPSMT-30"/>
       <use x="100" xlink:href="#TimesNewRomanPSMT-30"/>
       <use x="150" xlink:href="#TimesNewRomanPSMT-30"/>
      </g>
     </g>
    </g>
    <g id="text_7">
     <!-- episode -->
     <g transform="translate(414.912107 697.962187)scale(0.46 -0.46)">
      <defs>
       <path d="M 681 1784 
Q 678 1147 991 784 
Q 1303 422 1725 422 
Q 2006 422 2214 576 
Q 2422 731 2563 1106 
L 2659 1044 
Q 2594 616 2278 264 
Q 1963 -88 1488 -88 
Q 972 -88 605 314 
Q 238 716 238 1394 
Q 238 2128 614 2539 
Q 991 2950 1559 2950 
Q 2041 2950 2350 2633 
Q 2659 2316 2659 1784 
L 681 1784 
z
M 681 1966 
L 2006 1966 
Q 1991 2241 1941 2353 
Q 1863 2528 1708 2628 
Q 1553 2728 1384 2728 
Q 1125 2728 920 2526 
Q 716 2325 681 1966 
z
" id="TimesNewRomanPSMT-65" transform="scale(0.015625)"/>
       <path d="M -6 2578 
L 875 2934 
L 994 2934 
L 994 2266 
Q 1216 2644 1439 2795 
Q 1663 2947 1909 2947 
Q 2341 2947 2628 2609 
Q 2981 2197 2981 1534 
Q 2981 794 2556 309 
Q 2206 -88 1675 -88 
Q 1444 -88 1275 -22 
Q 1150 25 994 166 
L 994 -706 
Q 994 -1000 1030 -1079 
Q 1066 -1159 1155 -1206 
Q 1244 -1253 1478 -1253 
L 1478 -1369 
L -22 -1369 
L -22 -1253 
L 56 -1253 
Q 228 -1256 350 -1188 
Q 409 -1153 442 -1076 
Q 475 -1000 475 -688 
L 475 2019 
Q 475 2297 450 2372 
Q 425 2447 370 2484 
Q 316 2522 222 2522 
Q 147 2522 31 2478 
L -6 2578 
z
M 994 2081 
L 994 1013 
Q 994 666 1022 556 
Q 1066 375 1236 237 
Q 1406 100 1666 100 
Q 1978 100 2172 344 
Q 2425 663 2425 1241 
Q 2425 1897 2138 2250 
Q 1938 2494 1663 2494 
Q 1513 2494 1366 2419 
Q 1253 2363 994 2081 
z
" id="TimesNewRomanPSMT-70" transform="scale(0.015625)"/>
       <path d="M 928 4444 
Q 1059 4444 1151 4351 
Q 1244 4259 1244 4128 
Q 1244 3997 1151 3903 
Q 1059 3809 928 3809 
Q 797 3809 703 3903 
Q 609 3997 609 4128 
Q 609 4259 701 4351 
Q 794 4444 928 4444 
z
M 1188 2947 
L 1188 647 
Q 1188 378 1227 289 
Q 1266 200 1342 156 
Q 1419 113 1622 113 
L 1622 0 
L 231 0 
L 231 113 
Q 441 113 512 153 
Q 584 194 626 287 
Q 669 381 669 647 
L 669 1750 
Q 669 2216 641 2353 
Q 619 2453 572 2492 
Q 525 2531 444 2531 
Q 356 2531 231 2484 
L 188 2597 
L 1050 2947 
L 1188 2947 
z
" id="TimesNewRomanPSMT-69" transform="scale(0.015625)"/>
       <path d="M 2050 2947 
L 2050 1972 
L 1947 1972 
Q 1828 2431 1642 2597 
Q 1456 2763 1169 2763 
Q 950 2763 815 2647 
Q 681 2531 681 2391 
Q 681 2216 781 2091 
Q 878 1963 1175 1819 
L 1631 1597 
Q 2266 1288 2266 781 
Q 2266 391 1970 151 
Q 1675 -88 1309 -88 
Q 1047 -88 709 6 
Q 606 38 541 38 
Q 469 38 428 -44 
L 325 -44 
L 325 978 
L 428 978 
Q 516 541 762 319 
Q 1009 97 1316 97 
Q 1531 97 1667 223 
Q 1803 350 1803 528 
Q 1803 744 1651 891 
Q 1500 1038 1047 1263 
Q 594 1488 453 1669 
Q 313 1847 313 2119 
Q 313 2472 555 2709 
Q 797 2947 1181 2947 
Q 1350 2947 1591 2875 
Q 1750 2828 1803 2828 
Q 1853 2828 1881 2850 
Q 1909 2872 1947 2947 
L 2050 2947 
z
" id="TimesNewRomanPSMT-73" transform="scale(0.015625)"/>
       <path d="M 1600 2947 
Q 2250 2947 2644 2453 
Q 2978 2031 2978 1484 
Q 2978 1100 2793 706 
Q 2609 313 2286 112 
Q 1963 -88 1566 -88 
Q 919 -88 538 428 
Q 216 863 216 1403 
Q 216 1797 411 2186 
Q 606 2575 925 2761 
Q 1244 2947 1600 2947 
z
M 1503 2744 
Q 1338 2744 1170 2645 
Q 1003 2547 900 2300 
Q 797 2053 797 1666 
Q 797 1041 1045 587 
Q 1294 134 1700 134 
Q 2003 134 2200 384 
Q 2397 634 2397 1244 
Q 2397 2006 2069 2444 
Q 1847 2744 1503 2744 
z
" id="TimesNewRomanPSMT-6f" transform="scale(0.015625)"/>
       <path d="M 2222 322 
Q 2013 103 1813 7 
Q 1613 -88 1381 -88 
Q 913 -88 563 304 
Q 213 697 213 1313 
Q 213 1928 600 2439 
Q 988 2950 1597 2950 
Q 1975 2950 2222 2709 
L 2222 3238 
Q 2222 3728 2198 3840 
Q 2175 3953 2125 3993 
Q 2075 4034 2000 4034 
Q 1919 4034 1784 3984 
L 1744 4094 
L 2597 4444 
L 2738 4444 
L 2738 1134 
Q 2738 631 2761 520 
Q 2784 409 2836 365 
Q 2888 322 2956 322 
Q 3041 322 3181 375 
L 3216 266 
L 2366 -88 
L 2222 -88 
L 2222 322 
z
M 2222 541 
L 2222 2016 
Q 2203 2228 2109 2403 
Q 2016 2578 1861 2667 
Q 1706 2756 1559 2756 
Q 1284 2756 1069 2509 
Q 784 2184 784 1559 
Q 784 928 1059 592 
Q 1334 256 1672 256 
Q 1956 256 2222 541 
z
" id="TimesNewRomanPSMT-64" transform="scale(0.015625)"/>
      </defs>
      <use xlink:href="#TimesNewRomanPSMT-65"/>
      <use x="44.384766" xlink:href="#TimesNewRomanPSMT-70"/>
      <use x="94.384766" xlink:href="#TimesNewRomanPSMT-69"/>
      <use x="122.167969" xlink:href="#TimesNewRomanPSMT-73"/>
      <use x="161.083984" xlink:href="#TimesNewRomanPSMT-6f"/>
      <use x="211.083984" xlink:href="#TimesNewRomanPSMT-64"/>
      <use x="261.083984" xlink:href="#TimesNewRomanPSMT-65"/>
     </g>
    </g>
   </g>
   <g id="matplotlib.axis_2">
    <g id="ytick_1">
     <g id="line2d_13">
      <path clip-path="url(#p34bb7a35d8)" d="M 133.4 613.24 
L 836.947027 613.24 
" style="fill:none;stroke:#b0b0b0;stroke-dasharray:2.96,1.28;stroke-dashoffset:0;stroke-opacity:0.5;stroke-width:0.8;"/>
     </g>
     <g id="line2d_14">
      <defs>
       <path d="M 0 0 
L -3.5 0 
" id="mda50c90e80" style="stroke:#000000;stroke-width:0.8;"/>
      </defs>
      <g>
       <use style="stroke:#000000;stroke-width:0.8;" x="133.4" xlink:href="#mda50c90e80" y="613.24"/>
      </g>
     </g>
     <g id="text_8">
      <!-- 0 -->
      <g transform="translate(103.4 629.210625)scale(0.46 -0.46)">
       <use xlink:href="#TimesNewRomanPSMT-30"/>
      </g>
     </g>
    </g>
    <g id="ytick_2">
     <g id="line2d_15">
      <path clip-path="url(#p34bb7a35d8)" d="M 133.4 499.49133 
L 836.947027 499.49133 
" style="fill:none;stroke:#b0b0b0;stroke-dasharray:2.96,1.28;stroke-dashoffset:0;stroke-opacity:0.5;stroke-width:0.8;"/>
     </g>
     <g id="line2d_16">
      <g>
       <use style="stroke:#000000;stroke-width:0.8;" x="133.4" xlink:href="#mda50c90e80" y="499.49133"/>
      </g>
     </g>
     <g id="text_9">
      <!-- 20 -->
      <g transform="translate(80.4 515.461955)scale(0.46 -0.46)">
       <use xlink:href="#TimesNewRomanPSMT-32"/>
       <use x="50" xlink:href="#TimesNewRomanPSMT-30"/>
      </g>
     </g>
    </g>
    <g id="ytick_3">
     <g id="line2d_17">
      <path clip-path="url(#p34bb7a35d8)" d="M 133.4 385.74266 
L 836.947027 385.74266 
" style="fill:none;stroke:#b0b0b0;stroke-dasharray:2.96,1.28;stroke-dashoffset:0;stroke-opacity:0.5;stroke-width:0.8;"/>
     </g>
     <g id="line2d_18">
      <g>
       <use style="stroke:#000000;stroke-width:0.8;" x="133.4" xlink:href="#mda50c90e80" y="385.74266"/>
      </g>
     </g>
     <g id="text_10">
      <!-- 40 -->
      <g transform="translate(80.4 401.713285)scale(0.46 -0.46)">
       <use xlink:href="#TimesNewRomanPSMT-34"/>
       <use x="50" xlink:href="#TimesNewRomanPSMT-30"/>
      </g>
     </g>
    </g>
    <g id="ytick_4">
     <g id="line2d_19">
      <path clip-path="url(#p34bb7a35d8)" d="M 133.4 271.99399 
L 836.947027 271.99399 
" style="fill:none;stroke:#b0b0b0;stroke-dasharray:2.96,1.28;stroke-dashoffset:0;stroke-opacity:0.5;stroke-width:0.8;"/>
     </g>
     <g id="line2d_20">
      <g>
       <use style="stroke:#000000;stroke-width:0.8;" x="133.4" xlink:href="#mda50c90e80" y="271.99399"/>
      </g>
     </g>
     <g id="text_11">
      <!-- 60 -->
      <g transform="translate(80.4 287.964615)scale(0.46 -0.46)">
       <use xlink:href="#TimesNewRomanPSMT-36"/>
       <use x="50" xlink:href="#TimesNewRomanPSMT-30"/>
      </g>
     </g>
    </g>
    <g id="ytick_5">
     <g id="line2d_21">
      <path clip-path="url(#p34bb7a35d8)" d="M 133.4 158.24532 
L 836.947027 158.24532 
" style="fill:none;stroke:#b0b0b0;stroke-dasharray:2.96,1.28;stroke-dashoffset:0;stroke-opacity:0.5;stroke-width:0.8;"/>
     </g>
     <g id="line2d_22">
      <g>
       <use style="stroke:#000000;stroke-width:0.8;" x="133.4" xlink:href="#mda50c90e80" y="158.24532"/>
      </g>
     </g>
     <g id="text_12">
      <!-- 80 -->
      <g transform="translate(80.4 174.215945)scale(0.46 -0.46)">
       <use xlink:href="#TimesNewRomanPSMT-38"/>
       <use x="50" xlink:href="#TimesNewRomanPSMT-30"/>
      </g>
     </g>
    </g>
    <g id="ytick_6">
     <g id="line2d_23">
      <path clip-path="url(#p34bb7a35d8)" d="M 133.4 44.49665 
L 836.947027 44.49665 
" style="fill:none;stroke:#b0b0b0;stroke-dasharray:2.96,1.28;stroke-dashoffset:0;stroke-opacity:0.5;stroke-width:0.8;"/>
     </g>
     <g id="line2d_24">
      <g>
       <use style="stroke:#000000;stroke-width:0.8;" x="133.4" xlink:href="#mda50c90e80" y="44.49665"/>
      </g>
     </g>
     <g id="text_13">
      <!-- 100 -->
      <g transform="translate(57.4 60.467275)scale(0.46 -0.46)">
       <use xlink:href="#TimesNewRomanPSMT-31"/>
       <use x="50" xlink:href="#TimesNewRomanPSMT-30"/>
       <use x="100" xlink:href="#TimesNewRomanPSMT-30"/>
      </g>
     </g>
    </g>
    <g id="text_14">
     <!-- returns -->
     <g transform="translate(43.560313 375.888125)rotate(-90)scale(0.46 -0.46)">
      <defs>
       <path d="M 1038 2947 
L 1038 2303 
Q 1397 2947 1775 2947 
Q 1947 2947 2059 2842 
Q 2172 2738 2172 2600 
Q 2172 2478 2090 2393 
Q 2009 2309 1897 2309 
Q 1788 2309 1652 2417 
Q 1516 2525 1450 2525 
Q 1394 2525 1328 2463 
Q 1188 2334 1038 2041 
L 1038 669 
Q 1038 431 1097 309 
Q 1138 225 1241 169 
Q 1344 113 1538 113 
L 1538 0 
L 72 0 
L 72 113 
Q 291 113 397 181 
Q 475 231 506 341 
Q 522 394 522 644 
L 522 1753 
Q 522 2253 501 2348 
Q 481 2444 426 2487 
Q 372 2531 291 2531 
Q 194 2531 72 2484 
L 41 2597 
L 906 2947 
L 1038 2947 
z
" id="TimesNewRomanPSMT-72" transform="scale(0.015625)"/>
       <path d="M 1031 3803 
L 1031 2863 
L 1700 2863 
L 1700 2644 
L 1031 2644 
L 1031 788 
Q 1031 509 1111 412 
Q 1191 316 1316 316 
Q 1419 316 1516 380 
Q 1613 444 1666 569 
L 1788 569 
Q 1678 263 1478 108 
Q 1278 -47 1066 -47 
Q 922 -47 784 33 
Q 647 113 581 261 
Q 516 409 516 719 
L 516 2644 
L 63 2644 
L 63 2747 
Q 234 2816 414 2980 
Q 594 3144 734 3369 
Q 806 3488 934 3803 
L 1031 3803 
z
" id="TimesNewRomanPSMT-74" transform="scale(0.015625)"/>
       <path d="M 2709 2863 
L 2709 1128 
Q 2709 631 2732 520 
Q 2756 409 2807 365 
Q 2859 322 2928 322 
Q 3025 322 3147 375 
L 3191 266 
L 2334 -88 
L 2194 -88 
L 2194 519 
Q 1825 119 1631 15 
Q 1438 -88 1222 -88 
Q 981 -88 804 51 
Q 628 191 559 409 
Q 491 628 491 1028 
L 491 2306 
Q 491 2509 447 2587 
Q 403 2666 317 2708 
Q 231 2750 6 2747 
L 6 2863 
L 1009 2863 
L 1009 947 
Q 1009 547 1148 422 
Q 1288 297 1484 297 
Q 1619 297 1789 381 
Q 1959 466 2194 703 
L 2194 2325 
Q 2194 2569 2105 2655 
Q 2016 2741 1734 2747 
L 1734 2863 
L 2709 2863 
z
" id="TimesNewRomanPSMT-75" transform="scale(0.015625)"/>
       <path d="M 1034 2341 
Q 1538 2947 1994 2947 
Q 2228 2947 2397 2830 
Q 2566 2713 2666 2444 
Q 2734 2256 2734 1869 
L 2734 647 
Q 2734 375 2778 278 
Q 2813 200 2889 156 
Q 2966 113 3172 113 
L 3172 0 
L 1756 0 
L 1756 113 
L 1816 113 
Q 2016 113 2095 173 
Q 2175 234 2206 353 
Q 2219 400 2219 647 
L 2219 1819 
Q 2219 2209 2117 2386 
Q 2016 2563 1775 2563 
Q 1403 2563 1034 2156 
L 1034 647 
Q 1034 356 1069 288 
Q 1113 197 1189 155 
Q 1266 113 1500 113 
L 1500 0 
L 84 0 
L 84 113 
L 147 113 
Q 366 113 442 223 
Q 519 334 519 647 
L 519 1709 
Q 519 2225 495 2337 
Q 472 2450 423 2490 
Q 375 2531 294 2531 
Q 206 2531 84 2484 
L 38 2597 
L 900 2947 
L 1034 2947 
L 1034 2341 
z
" id="TimesNewRomanPSMT-6e" transform="scale(0.015625)"/>
      </defs>
      <use xlink:href="#TimesNewRomanPSMT-72"/>
      <use x="33.300781" xlink:href="#TimesNewRomanPSMT-65"/>
      <use x="77.685547" xlink:href="#TimesNewRomanPSMT-74"/>
      <use x="105.46875" xlink:href="#TimesNewRomanPSMT-75"/>
      <use x="155.46875" xlink:href="#TimesNewRomanPSMT-72"/>
      <use x="188.769531" xlink:href="#TimesNewRomanPSMT-6e"/>
      <use x="238.769531" xlink:href="#TimesNewRomanPSMT-73"/>
     </g>
    </g>
   </g>
   <g id="line2d_25">
    <path clip-path="url(#p34bb7a35d8)" d="M 165.37941 321.468643 
L 167.940324 315.998292 
L 171.141466 308.660575 
L 176.903522 294.767285 
L 182.02535 282.61979 
L 185.226492 275.574366 
L 185.86672 274.242195 
L 186.506949 274.125844 
L 187.147177 275.98047 
L 187.787406 275.332407 
L 188.427634 273.530305 
L 189.067862 273.019284 
L 189.708091 271.373493 
L 190.348319 271.616912 
L 190.988548 268.148154 
L 191.628776 263.684122 
L 192.269005 262.704377 
L 192.909233 259.272497 
L 193.549461 265.367198 
L 194.18969 265.961552 
L 194.829918 263.790178 
L 195.470147 263.99159 
L 196.110375 267.244546 
L 196.750604 262.271563 
L 197.390832 259.217379 
L 198.671289 259.279875 
L 199.311517 256.680221 
L 199.951746 252.890777 
L 200.591974 251.870728 
L 201.232203 250.171673 
L 201.872431 249.623284 
L 202.51266 247.026765 
L 203.152888 247.746871 
L 203.793116 247.598915 
L 204.433345 245.681131 
L 205.073573 247.544408 
L 205.713802 246.539893 
L 206.35403 245.170042 
L 206.994259 246.847592 
L 207.634487 245.150295 
L 208.274715 244.407166 
L 208.914944 245.1982 
L 209.555172 245.604955 
L 210.195401 246.835638 
L 210.835629 246.295243 
L 211.475858 247.928835 
L 212.116086 244.107839 
L 212.756314 243.781989 
L 213.396543 248.065946 
L 214.036771 250.540107 
L 214.677 252.510913 
L 215.317228 251.586994 
L 215.957457 244.085433 
L 216.597685 243.936989 
L 217.237914 242.547885 
L 217.878142 238.871305 
L 218.51837 238.985382 
L 219.158599 240.278988 
L 219.798827 240.527159 
L 220.439056 243.245242 
L 221.079284 243.252927 
L 221.719513 246.366798 
L 222.359741 247.369228 
L 222.999969 247.594675 
L 224.280426 241.657135 
L 224.920655 240.481163 
L 226.201112 238.723197 
L 226.84134 239.492816 
L 227.481568 240.068026 
L 228.121797 239.746663 
L 228.762025 242.89193 
L 229.402254 242.799441 
L 230.042482 243.596485 
L 231.322939 239.764572 
L 231.963168 239.433083 
L 232.603396 241.660562 
L 233.243624 242.635375 
L 233.883853 246.611612 
L 234.524081 247.10766 
L 235.16431 242.915731 
L 235.804538 248.552621 
L 236.444767 246.556366 
L 237.084995 246.316483 
L 237.725223 241.416535 
L 238.365452 242.150155 
L 239.00568 240.238367 
L 239.645909 235.451538 
L 240.286137 235.340161 
L 240.926366 232.648903 
L 241.566594 236.410105 
L 242.206822 234.389809 
L 242.847051 236.060273 
L 243.487279 232.644702 
L 244.127508 231.508979 
L 245.407965 226.14511 
L 246.048193 226.59377 
L 246.688422 224.520788 
L 247.32865 221.765569 
L 247.968878 221.6143 
L 248.609107 215.864283 
L 249.889564 217.645227 
L 250.529792 215.120399 
L 251.170021 214.6715 
L 251.810249 212.312039 
L 252.450477 211.313119 
L 253.090706 206.548449 
L 253.730934 205.039951 
L 254.371163 203.923031 
L 255.011391 199.393812 
L 255.65162 197.601041 
L 256.291848 191.715965 
L 256.932076 190.838779 
L 257.572305 192.157472 
L 258.212533 195.331289 
L 259.49299 196.359027 
L 260.133219 196.587323 
L 260.773447 194.369716 
L 261.413676 193.716351 
L 262.053904 195.389244 
L 262.694132 194.684896 
L 263.334361 196.641309 
L 263.974589 194.823759 
L 264.614818 195.274548 
L 265.895275 196.631783 
L 266.535503 195.677367 
L 267.175731 196.88187 
L 267.81596 198.990328 
L 268.456188 197.201098 
L 269.096417 199.288714 
L 269.736645 204.556895 
L 271.017102 208.081265 
L 271.657331 214.565131 
L 272.297559 216.057183 
L 272.937787 219.398932 
L 273.578016 222.078435 
L 274.218244 223.258508 
L 274.858473 226.975813 
L 275.498701 226.969383 
L 276.13893 229.273027 
L 276.779158 235.766598 
L 277.419386 232.010965 
L 278.059615 236.758038 
L 278.699843 238.850848 
L 279.340072 238.862029 
L 279.9803 237.975644 
L 280.620529 238.418992 
L 281.260757 243.689909 
L 281.900985 240.972341 
L 282.541214 242.260789 
L 283.181442 237.716783 
L 283.821671 237.956852 
L 284.461899 231.969317 
L 285.102128 230.13064 
L 285.742356 230.763025 
L 286.382585 226.920697 
L 287.022813 225.195898 
L 287.663041 222.074465 
L 288.30327 216.665042 
L 288.943498 215.446644 
L 289.583727 213.834186 
L 290.223955 213.267372 
L 290.864184 211.028622 
L 291.504412 206.348915 
L 292.784869 198.652454 
L 293.425097 198.136549 
L 294.065326 195.311985 
L 295.345783 194.342855 
L 295.986011 194.363234 
L 296.626239 192.834238 
L 297.266468 191.593497 
L 297.906696 190.080142 
L 298.546925 191.251531 
L 299.187153 191.815754 
L 299.827382 186.180382 
L 300.46761 183.569489 
L 301.107839 185.765802 
L 302.388295 180.993155 
L 303.028524 180.76196 
L 303.668752 177.321735 
L 304.308981 179.745243 
L 304.949209 173.181286 
L 305.589438 173.297464 
L 306.229666 176.491684 
L 306.869894 175.557223 
L 307.510123 175.118262 
L 308.79058 180.554524 
L 309.430808 180.305298 
L 310.711265 184.842713 
L 311.351493 181.687844 
L 311.991722 181.563506 
L 312.63195 183.369679 
L 313.272179 176.811369 
L 313.912407 176.776299 
L 314.552636 174.822927 
L 315.192864 179.270281 
L 315.833093 178.383445 
L 316.473321 177.945707 
L 317.113549 177.899338 
L 317.753778 181.678086 
L 318.394006 181.231084 
L 319.034235 184.660709 
L 319.674463 184.582808 
L 320.314692 183.294717 
L 321.595148 176.53586 
L 322.235377 176.547919 
L 322.875605 169.704018 
L 323.515834 168.895038 
L 324.156062 163.915587 
L 324.796291 166.064484 
L 325.436519 160.75292 
L 326.076747 162.135544 
L 326.716976 161.184305 
L 327.357204 156.660068 
L 328.637661 152.657486 
L 329.27789 149.995948 
L 329.918118 150.672653 
L 330.558347 152.931997 
L 331.838803 148.69519 
L 332.479032 144.861029 
L 333.11926 143.262144 
L 333.759489 142.945102 
L 334.399717 141.721069 
L 335.039946 142.276458 
L 336.320402 144.981168 
L 336.960631 146.839158 
L 337.600859 147.89657 
L 338.241088 145.4902 
L 338.881316 148.982611 
L 339.521545 149.791246 
L 340.161773 149.167236 
L 340.802001 148.931844 
L 341.44223 151.722014 
L 342.082458 153.555952 
L 342.722687 151.116248 
L 343.362915 152.719716 
L 344.003144 151.483184 
L 344.643372 149.529519 
L 345.283601 149.378964 
L 345.923829 146.468375 
L 346.564057 147.904684 
L 347.204286 146.127562 
L 347.844514 141.759994 
L 348.484743 142.630974 
L 349.124971 146.366568 
L 349.7652 142.488606 
L 350.405428 136.802612 
L 351.045656 135.317714 
L 351.685885 138.405254 
L 352.326113 138.570188 
L 352.966342 142.037516 
L 353.60657 139.965634 
L 354.246799 138.528844 
L 354.887027 139.685942 
L 356.167484 149.491158 
L 356.807712 145.430842 
L 357.447941 149.765747 
L 358.088169 149.896929 
L 358.728398 151.356866 
L 359.368626 147.834435 
L 360.008855 142.855971 
L 360.649083 140.133879 
L 361.289311 134.785115 
L 361.92954 131.75556 
L 362.569768 132.605522 
L 363.209997 134.38032 
L 363.850225 130.956701 
L 364.490454 130.282806 
L 365.130682 129.322159 
L 365.77091 129.854764 
L 366.411139 122.361797 
L 367.051367 120.491718 
L 367.691596 117.128908 
L 368.972053 115.317157 
L 369.612281 112.941356 
L 370.892738 110.769942 
L 371.532966 109.058067 
L 372.813423 103.985756 
L 373.453652 103.196464 
L 374.09388 106.735261 
L 374.734109 106.48045 
L 375.374337 110.51824 
L 376.014565 113.229372 
L 376.654794 114.876899 
L 377.295022 114.354941 
L 377.935251 113.190044 
L 378.575479 111.428495 
L 379.215708 106.993045 
L 379.855936 110.955066 
L 381.136393 107.469061 
L 381.776621 104.712071 
L 382.41685 103.259245 
L 383.057078 102.899317 
L 383.697307 101.734392 
L 384.337535 99.184627 
L 384.977763 94.176167 
L 385.617992 95.830596 
L 386.25822 92.860184 
L 386.898449 94.323662 
L 387.538677 91.189278 
L 388.178906 92.660686 
L 388.819134 93.327526 
L 389.459363 94.276864 
L 390.099591 93.72362 
L 390.739819 88.735315 
L 391.380048 87.29718 
L 392.020276 88.21262 
L 392.660505 89.492657 
L 393.300733 88.650874 
L 393.940962 85.56421 
L 394.58119 84.384367 
L 395.221418 83.734941 
L 395.861647 85.684077 
L 396.501875 88.675216 
L 397.142104 86.048234 
L 397.782332 80.994121 
L 398.422561 79.957752 
L 399.062789 76.59056 
L 399.703017 77.708318 
L 400.343246 75.436455 
L 400.983474 77.654238 
L 401.623703 81.888465 
L 402.263931 83.744502 
L 402.90416 84.967653 
L 403.544388 80.869353 
L 404.184617 80.962563 
L 405.465073 82.036398 
L 406.105302 83.246265 
L 406.74553 79.477335 
L 407.385759 76.789702 
L 408.025987 77.467953 
L 408.666216 75.532683 
L 411.867358 69.560173 
L 412.507586 72.079758 
L 413.147815 73.092979 
L 413.788043 75.391394 
L 414.428271 73.498468 
L 415.0685 73.27225 
L 415.708728 73.771402 
L 416.348957 77.354733 
L 416.989185 78.72461 
L 417.629414 78.657526 
L 418.269642 76.01281 
L 418.909871 75.993293 
L 419.550099 78.285081 
L 420.190327 77.520363 
L 420.830556 78.201467 
L 421.470784 80.511526 
L 422.111013 78.594676 
L 422.751241 80.530525 
L 423.39147 80.359827 
L 424.031698 81.748752 
L 424.671926 78.008934 
L 425.312155 75.448943 
L 425.952383 73.464295 
L 426.592612 73.192673 
L 427.23284 73.49636 
L 427.873069 77.736224 
L 428.513297 76.771316 
L 429.153525 80.803486 
L 429.793754 77.392925 
L 430.433982 77.640747 
L 431.074211 76.100273 
L 431.714439 79.202267 
L 432.354668 79.651579 
L 432.994896 80.81814 
L 433.635125 82.807051 
L 434.915581 85.705141 
L 435.55581 87.028106 
L 436.196038 90.117924 
L 436.836267 93.912873 
L 437.476495 93.675105 
L 438.116724 92.744936 
L 438.756952 90.14492 
L 439.39718 93.063261 
L 440.677637 95.397998 
L 441.317866 95.205181 
L 441.958094 98.063535 
L 442.598323 97.592323 
L 443.238551 95.000441 
L 443.878779 89.676004 
L 444.519008 86.595852 
L 445.159236 89.326405 
L 445.799465 88.236266 
L 446.439693 83.356811 
L 447.079922 80.533316 
L 448.360379 70.906383 
L 449.000607 70.085061 
L 449.640835 68.435316 
L 450.281064 70.041652 
L 450.921292 69.378 
L 451.561521 65.364007 
L 452.201749 60.052247 
L 452.841978 57.813691 
L 453.482206 57.634414 
L 454.122434 54.868878 
L 455.402891 47.71179 
L 456.04312 49.709479 
L 456.683348 53.300659 
L 457.323577 50.660132 
L 457.963805 46.899909 
L 459.244262 40.74324 
L 459.88449 40.720984 
L 461.164947 34.548456 
L 462.445404 32.82316 
L 463.085633 28.85708 
L 463.725861 30.333938 
L 464.366089 28.342545 
L 465.006318 31.176993 
L 465.646546 32.403742 
L 466.286775 36.547648 
L 466.927003 37.309147 
L 467.567232 40.342897 
L 468.20746 42.261146 
L 469.487917 42.9735 
L 470.128145 40.788653 
L 470.768374 39.03792 
L 471.408602 42.338902 
L 472.048831 43.267098 
L 472.689059 42.856594 
L 473.329287 40.114299 
L 473.969516 41.408908 
L 474.609744 41.305362 
L 475.249973 44.617334 
L 475.890201 43.985236 
L 476.53043 46.380948 
L 477.170658 50.644359 
L 477.810887 46.060927 
L 478.451115 42.69573 
L 479.091343 40.606805 
L 479.731572 40.867175 
L 480.3718 42.179576 
L 481.012029 42.88526 
L 481.652257 44.602736 
L 482.292486 45.654934 
L 482.932714 44.038624 
L 483.572942 44.418608 
L 484.853399 39.399837 
L 485.493628 42.326917 
L 486.133856 43.159155 
L 487.414313 37.261019 
L 488.054541 35.648069 
L 488.69477 37.915369 
L 489.334998 37.672646 
L 489.975227 40.064831 
L 490.615455 41.012617 
L 491.255684 38.014699 
L 492.536141 30.759637 
L 493.176369 30.007184 
L 493.816597 31.505265 
L 494.456826 31.580975 
L 495.097054 32.566482 
L 495.737283 31.672886 
L 496.377511 36.653325 
L 497.01774 34.20264 
L 497.657968 35.677197 
L 498.298196 32.607723 
L 498.938425 31.830093 
L 499.578653 34.046245 
L 500.218882 34.359697 
L 500.85911 37.945006 
L 501.499339 36.785509 
L 502.139567 36.051621 
L 502.779795 38.509921 
L 503.420024 36.445616 
L 504.700481 42.000851 
L 505.340709 41.509252 
L 505.980938 41.718521 
L 506.621166 40.618489 
L 507.261395 41.525468 
L 507.901623 38.499965 
L 508.541851 39.232708 
L 509.18208 37.657645 
L 509.822308 41.068863 
L 510.462537 42.413683 
L 511.102765 42.195748 
L 511.742994 42.9223 
L 513.02345 42.635441 
L 513.663679 43.583408 
L 514.303907 48.536349 
L 515.584364 52.877471 
L 516.224593 56.766135 
L 516.864821 54.722032 
L 517.505049 55.946791 
L 518.145278 55.006567 
L 518.785506 50.515356 
L 519.425735 50.620769 
L 520.065963 52.406211 
L 521.34642 54.514895 
L 521.986649 57.036809 
L 522.626877 54.869474 
L 523.267105 54.071542 
L 523.907334 49.659724 
L 524.547562 48.897796 
L 525.187791 45.38761 
L 525.828019 48.677747 
L 526.468248 50.602598 
L 527.108476 48.672427 
L 527.748704 47.469692 
L 528.388933 46.641892 
L 529.029161 46.752295 
L 529.66939 48.043905 
L 530.309618 43.253407 
L 530.949847 43.881639 
L 531.590075 42.812783 
L 532.230303 37.954273 
L 532.870532 38.159648 
L 533.51076 41.668626 
L 534.150989 40.861822 
L 535.431446 39.863688 
L 536.071674 42.691303 
L 536.711903 39.622042 
L 537.352131 42.189977 
L 537.992359 39.419682 
L 538.632588 43.351687 
L 539.272816 41.548681 
L 539.913045 40.762874 
L 540.553273 43.500457 
L 541.193502 45.182401 
L 541.83373 44.471194 
L 542.473958 42.2501 
L 543.114187 41.313501 
L 543.754415 42.829992 
L 544.394644 40.184661 
L 545.034872 40.241936 
L 545.675101 40.725697 
L 546.315329 37.915626 
L 546.955557 37.873257 
L 547.595786 41.0423 
L 548.236014 42.627426 
L 548.876243 39.917821 
L 549.516471 38.627445 
L 550.1567 42.171983 
L 550.796928 42.981179 
L 552.077385 39.062129 
L 552.717613 40.672117 
L 553.99807 47.523846 
L 554.638299 47.300171 
L 555.278527 49.499427 
L 555.918756 46.006086 
L 556.558984 44.008355 
L 557.199212 44.527961 
L 557.839441 41.683482 
L 558.479669 41.878101 
L 559.119898 39.781451 
L 559.760126 39.745525 
L 560.400355 41.234094 
L 561.040583 43.992961 
L 561.680811 44.994519 
L 562.32104 43.906877 
L 562.961268 43.879462 
L 563.601497 39.376073 
L 564.241725 41.04303 
L 564.881954 40.59751 
L 565.522182 41.291864 
L 566.802639 44.88361 
L 567.442867 42.117591 
L 568.083096 42.097033 
L 568.723324 43.378022 
L 569.363553 44.004459 
L 570.003781 45.395656 
L 570.64401 44.721272 
L 571.284238 44.248776 
L 571.924466 47.006604 
L 572.564695 49.222175 
L 573.204923 48.264269 
L 573.845152 50.448823 
L 574.48538 53.718737 
L 575.125609 51.883152 
L 575.765837 52.160265 
L 576.406065 51.884042 
L 577.046294 54.660689 
L 577.686522 54.618952 
L 578.326751 56.89578 
L 578.966979 56.808274 
L 579.607208 57.905934 
L 580.247436 57.794904 
L 580.887665 56.02847 
L 582.168121 57.01457 
L 582.80835 53.110758 
L 583.448578 53.717417 
L 584.088807 53.233527 
L 584.729035 54.240401 
L 585.369264 52.544822 
L 586.009492 53.841719 
L 586.64972 52.763809 
L 587.289949 50.000116 
L 587.930177 52.551772 
L 588.570406 53.826143 
L 589.210634 52.393783 
L 589.850863 52.031032 
L 590.491091 52.807032 
L 591.131319 51.589558 
L 591.771548 46.643853 
L 592.411776 49.294058 
L 593.692233 49.041162 
L 594.97269 44.955544 
L 595.612919 45.326514 
L 596.253147 44.238073 
L 596.893375 41.035933 
L 597.533604 40.774899 
L 598.173832 43.440696 
L 598.814061 42.034156 
L 599.454289 41.676023 
L 600.094518 43.05108 
L 600.734746 46.124995 
L 601.374974 45.79743 
L 602.015203 45.091608 
L 602.655431 41.241593 
L 603.29566 39.194754 
L 603.935888 42.529587 
L 604.576117 42.646574 
L 605.216345 43.022111 
L 605.856573 43.932281 
L 606.496802 44.501381 
L 607.13703 45.999028 
L 607.777259 46.280871 
L 609.057716 45.057873 
L 609.697944 44.081811 
L 610.338173 41.792782 
L 610.978401 43.323559 
L 611.618629 40.693603 
L 612.258858 42.896319 
L 612.899086 44.694987 
L 613.539315 45.564624 
L 614.179543 42.796359 
L 614.819772 43.913509 
L 615.46 42.457203 
L 616.100228 39.581399 
L 617.380685 39.828843 
L 618.020914 39.308753 
L 618.661142 37.094091 
L 619.301371 38.588637 
L 619.941599 37.749735 
L 620.581827 36.368944 
L 621.222056 38.109294 
L 621.862284 38.014543 
L 623.142741 46.023598 
L 623.78297 43.490088 
L 624.423198 44.057004 
L 625.063427 44.034646 
L 625.703655 43.846175 
L 626.343883 43.389739 
L 627.62434 44.08815 
L 628.264569 45.427589 
L 628.904797 49.213562 
L 629.545026 45.922956 
L 630.185254 44.831353 
L 630.825482 42.368659 
L 631.465711 41.691067 
L 632.105939 40.097225 
L 632.746168 42.1407 
L 633.386396 43.700946 
L 634.026625 41.750288 
L 635.307081 39.10348 
L 635.94731 41.35254 
L 636.587538 42.714294 
L 637.227767 41.797965 
L 638.508224 39.272716 
L 639.148452 41.966449 
L 639.788681 43.219444 
L 640.428909 45.148551 
L 641.069137 44.372138 
L 641.709366 43.196532 
L 642.349594 43.982749 
L 642.989823 41.018772 
L 643.630051 43.230555 
L 644.27028 47.668644 
L 644.910508 47.910682 
L 645.550736 46.727986 
L 646.190965 43.505488 
L 646.831193 44.398703 
L 647.471422 40.361236 
L 648.11165 39.696821 
L 648.751879 39.845397 
L 649.392107 41.012144 
L 650.032335 41.097714 
L 650.672564 43.68586 
L 651.312792 43.641624 
L 651.953021 44.808434 
L 652.593249 44.477394 
L 653.233478 48.088266 
L 653.873706 46.544449 
L 655.154163 40.383397 
L 656.43462 41.277256 
L 657.074848 42.440084 
L 658.355305 40.798465 
L 658.995534 42.481617 
L 659.635762 43.562961 
L 660.27599 44.239994 
L 660.916219 42.444692 
L 661.556447 44.388662 
L 662.196676 47.683322 
L 662.836904 47.948493 
L 663.477133 47.041663 
L 664.117361 46.562459 
L 664.757589 44.175738 
L 665.397818 45.850682 
L 666.038046 48.126832 
L 667.958732 48.622651 
L 668.59896 49.202557 
L 669.239189 48.154908 
L 669.879417 50.181431 
L 670.519645 48.38182 
L 671.159874 49.00112 
L 671.800102 48.685443 
L 672.440331 49.883891 
L 673.080559 48.969942 
L 673.720788 48.611509 
L 674.361016 48.452684 
L 675.001244 48.823357 
L 675.641473 46.684847 
L 676.281701 48.276744 
L 676.92193 50.339318 
L 677.562158 48.623094 
L 678.202387 48.070569 
L 678.842615 47.343822 
L 679.482843 47.901083 
L 680.123072 49.301637 
L 680.7633 48.633723 
L 681.403529 46.800521 
L 682.043757 42.826746 
L 682.683986 44.107073 
L 683.324214 46.464403 
L 683.964443 45.089294 
L 684.604671 46.775918 
L 685.244899 46.660973 
L 685.885128 43.304972 
L 686.525356 44.676847 
L 687.165585 43.048366 
L 687.805813 44.156863 
L 688.446042 44.772776 
L 689.08627 47.113888 
L 689.726498 48.025126 
L 690.366727 47.544726 
L 691.006955 45.248015 
L 691.647184 44.061536 
L 692.287412 42.079322 
L 692.927641 42.144822 
L 693.567869 42.889089 
L 694.208097 39.567978 
L 694.848326 37.517229 
L 695.488554 38.048129 
L 696.128783 39.257635 
L 696.769011 38.557313 
L 698.049468 35.950873 
L 698.689697 33.878878 
L 699.329925 33.377843 
L 699.970153 33.326879 
L 700.610382 31.030261 
L 701.890839 33.216278 
L 702.531067 33.466433 
L 703.171296 33.274346 
L 703.811524 32.080729 
L 704.451752 31.592498 
L 705.091981 32.210094 
L 705.732209 31.351752 
L 706.372438 30.982691 
L 707.652895 28.649168 
L 708.293123 27.92002 
L 708.933351 29.990357 
L 709.57358 30.039454 
L 710.213808 29.365972 
L 710.854037 28.869472 
L 711.494265 27.347249 
L 712.134494 27.764318 
L 713.414951 29.769642 
L 714.055179 30.15957 
L 714.695407 30.400374 
L 715.335636 28.784045 
L 715.975864 27.476792 
L 716.616093 27.169158 
L 717.89655 27.678307 
L 719.177006 26.496032 
L 719.817235 26.592523 
L 720.457463 26.973478 
L 721.097692 28.68906 
L 721.73792 29.018613 
L 722.378149 30.465707 
L 723.018377 30.181518 
L 724.298834 31.410059 
L 724.939062 31.24669 
L 725.579291 30.467723 
L 726.219519 30.514853 
L 726.859748 30.128209 
L 727.499976 32.683778 
L 728.140205 31.566738 
L 728.780433 33.645857 
L 729.420661 33.632062 
L 730.06089 34.842292 
L 730.701118 35.387877 
L 731.981575 35.487589 
L 732.621804 36.764913 
L 733.90226 40.897343 
L 734.542489 41.199775 
L 735.182717 39.122257 
L 735.822946 41.340688 
L 736.463174 41.692973 
L 737.103403 39.978774 
L 737.743631 39.038735 
L 738.383859 39.812075 
L 739.024088 38.789648 
L 739.664316 37.242756 
L 740.304545 37.597186 
L 740.944773 38.290306 
L 741.585002 38.380978 
L 742.22523 40.591504 
L 742.865459 38.843263 
L 743.505687 38.541452 
L 744.145915 38.689326 
L 744.786144 37.722203 
L 745.426372 37.658485 
L 746.066601 38.226186 
L 746.706829 36.511195 
L 747.347058 36.715021 
L 748.627514 38.312468 
L 749.267743 38.78813 
L 749.907971 38.869865 
L 750.5482 39.761462 
L 751.188428 38.199806 
L 751.828657 38.595866 
L 753.109113 43.121616 
L 753.749342 44.766814 
L 754.38957 45.893991 
L 755.029799 43.988426 
L 755.670027 45.209919 
L 756.310256 45.345601 
L 756.950484 46.093145 
L 757.590713 46.245915 
L 758.230941 47.160956 
L 758.871169 49.567778 
L 759.511398 50.131693 
L 760.151626 50.148635 
L 760.791855 50.485737 
L 761.432083 51.524837 
L 762.072312 51.227232 
L 762.71254 50.550629 
L 763.352768 51.401942 
L 763.992997 50.794159 
L 764.633225 51.863549 
L 766.553911 52.751238 
L 767.834367 55.696912 
L 768.474596 55.52113 
L 769.114824 55.849527 
L 769.755053 56.398523 
L 770.395281 55.131176 
L 771.03551 55.207403 
L 771.675738 54.275792 
L 772.315967 53.747193 
L 772.956195 52.664068 
L 773.596423 52.968468 
L 774.236652 52.976601 
L 774.87688 52.703876 
L 775.517109 52.051866 
L 776.797566 51.264108 
L 777.437794 50.670883 
L 778.078022 49.266319 
L 778.718251 49.360145 
L 779.998708 46.595223 
L 780.638936 47.397555 
L 781.279165 48.750799 
L 781.919393 48.243352 
L 782.559621 48.180058 
L 783.19985 48.37501 
L 783.840078 47.058095 
L 784.480307 49.406648 
L 787.041221 52.120485 
L 790.882591 56.233119 
L 792.803276 57.967118 
L 794.083733 58.896824 
L 795.36419 59.591063 
L 796.644647 60.003181 
L 797.925104 60.086523 
L 799.205561 59.794434 
L 800.486018 59.08026 
L 801.766475 57.897346 
L 803.046931 56.199036 
L 804.327388 53.938677 
L 804.967617 52.583149 
L 804.967617 52.583149 
" style="fill:none;stroke:#7e2f8e;stroke-linecap:square;stroke-width:3;"/>
   </g>
   <g id="line2d_26">
    <path clip-path="url(#p34bb7a35d8)" d="M 165.37941 340.416675 
L 167.300096 327.40139 
L 169.220781 315.778513 
L 171.141466 305.495765 
L 173.062152 296.50087 
L 174.982837 288.741547 
L 176.903522 282.16552 
L 178.183979 278.413072 
L 179.464436 275.147809 
L 180.744893 272.354241 
L 182.02535 270.016877 
L 183.305806 268.120228 
L 184.586263 266.648805 
L 185.226492 262.928875 
L 185.86672 262.581877 
L 186.506949 265.448538 
L 187.147177 262.78148 
L 187.787406 262.70371 
L 188.427634 264.846134 
L 189.708091 268.275576 
L 190.348319 265.455315 
L 190.988548 266.946526 
L 191.628776 268.879337 
L 192.269005 265.756975 
L 192.909233 265.404895 
L 193.549461 266.392117 
L 194.829918 265.205387 
L 195.470147 266.001073 
L 196.110375 266.402673 
L 197.390832 269.285025 
L 198.03106 270.47427 
L 198.671289 271.053271 
L 199.311517 271.924521 
L 200.591974 274.686497 
L 201.232203 278.728491 
L 201.872431 279.969428 
L 202.51266 277.7359 
L 203.152888 277.889411 
L 203.793116 278.496408 
L 204.433345 279.792707 
L 205.073573 273.456503 
L 205.713802 269.507194 
L 206.35403 267.558118 
L 206.994259 268.099712 
L 207.634487 267.051941 
L 208.274715 263.152392 
L 208.914944 261.703418 
L 209.555172 264.120799 
L 210.835629 261.728775 
L 211.475858 264.246457 
L 212.116086 262.423361 
L 213.396543 260.165714 
L 214.677 258.131033 
L 215.317228 257.459273 
L 215.957457 256.159443 
L 216.597685 259.134322 
L 219.798827 249.548072 
L 220.439056 248.415805 
L 221.719513 244.595606 
L 222.359741 245.792014 
L 223.640198 241.282224 
L 224.280426 238.725773 
L 224.920655 237.052728 
L 225.560883 234.713693 
L 226.201112 232.988699 
L 227.481568 228.451658 
L 228.121797 226.806026 
L 228.762025 224.794011 
L 229.402254 222.196745 
L 230.042482 220.537482 
L 230.682711 218.392673 
L 231.322939 215.778001 
L 232.603396 212.594616 
L 233.243624 211.803244 
L 233.883853 210.814149 
L 234.524081 210.318376 
L 235.16431 209.383482 
L 237.084995 207.488791 
L 237.725223 206.187902 
L 238.365452 206.207579 
L 239.00568 205.960081 
L 239.645909 206.349914 
L 240.286137 203.472116 
L 240.926366 204.195609 
L 241.566594 204.346718 
L 242.206822 202.242853 
L 242.847051 203.377822 
L 243.487279 201.487393 
L 244.767736 199.490003 
L 245.407965 199.580099 
L 246.048193 200.293156 
L 246.688422 204.949956 
L 247.32865 206.518954 
L 248.609107 211.393445 
L 249.249335 217.089134 
L 249.889564 218.814032 
L 250.529792 217.588452 
L 253.090706 228.814729 
L 253.730934 232.51974 
L 255.011391 244.679752 
L 255.65162 242.775254 
L 256.291848 248.245619 
L 256.932076 251.773658 
L 257.572305 256.733143 
L 258.852762 258.979081 
L 259.49299 263.536831 
L 260.133219 265.271454 
L 260.773447 266.239804 
L 261.413676 266.488617 
L 263.334361 275.142753 
L 263.974589 274.082236 
L 264.614818 274.549496 
L 265.255046 274.35808 
L 265.895275 276.217282 
L 266.535503 276.58854 
L 267.175731 277.421283 
L 267.81596 277.14624 
L 268.456188 276.237837 
L 269.736645 269.228942 
L 270.376874 267.660377 
L 271.017102 265.305281 
L 271.657331 261.702292 
L 272.297559 259.026842 
L 272.937787 258.874635 
L 273.578016 257.419822 
L 274.218244 257.588877 
L 274.858473 255.974383 
L 275.498701 255.169989 
L 276.779158 251.873466 
L 278.699843 243.38542 
L 279.340072 240.294968 
L 282.541214 215.720203 
L 283.181442 214.27112 
L 283.821671 214.222532 
L 284.461899 211.211665 
L 285.102128 211.093613 
L 285.742356 207.762364 
L 286.382585 207.992479 
L 287.663041 202.839556 
L 288.943498 194.890101 
L 289.583727 193.625904 
L 290.223955 193.286895 
L 290.864184 191.731622 
L 291.504412 187.562157 
L 292.14464 188.891597 
L 293.425097 180.573349 
L 294.065326 174.708506 
L 294.705554 176.553709 
L 295.345783 173.724092 
L 295.986011 173.420229 
L 296.626239 170.016764 
L 297.266468 170.650946 
L 297.906696 172.147375 
L 298.546925 167.957689 
L 299.187153 165.594797 
L 299.827382 167.234836 
L 300.46761 166.347764 
L 301.748067 163.277462 
L 302.388295 160.734249 
L 303.028524 162.232899 
L 304.308981 162.186419 
L 304.949209 159.819319 
L 305.589438 158.679964 
L 306.869894 153.544188 
L 307.510123 152.399023 
L 308.150351 154.267494 
L 308.79058 155.523523 
L 310.071037 153.326254 
L 310.711265 153.830869 
L 311.351493 158.089328 
L 311.991722 159.444291 
L 312.63195 158.263621 
L 313.272179 157.930391 
L 313.912407 158.835998 
L 314.552636 160.49889 
L 315.192864 161.465841 
L 315.833093 161.381773 
L 316.473321 159.44607 
L 317.113549 160.180958 
L 317.753778 161.205834 
L 318.394006 161.154346 
L 319.034235 161.553979 
L 319.674463 161.760326 
L 320.314692 164.637389 
L 320.95492 164.17286 
L 321.595148 169.146822 
L 322.875605 169.425547 
L 323.515834 174.201538 
L 324.156062 173.190782 
L 324.796291 174.465347 
L 325.436519 172.455045 
L 326.076747 175.930023 
L 326.716976 170.457756 
L 327.357204 170.255612 
L 327.997433 169.382047 
L 329.27789 161.482698 
L 329.918118 159.275956 
L 330.558347 158.746424 
L 331.198575 149.42466 
L 331.838803 148.854114 
L 332.479032 147.76781 
L 333.11926 149.521543 
L 333.759489 143.499721 
L 334.399717 141.634035 
L 335.039946 139.03045 
L 335.680174 138.138268 
L 336.320402 135.188322 
L 336.960631 134.562488 
L 337.600859 136.142752 
L 338.241088 141.355778 
L 338.881316 141.351591 
L 339.521545 140.839678 
L 340.161773 141.080753 
L 340.802001 143.361362 
L 341.44223 141.654507 
L 342.082458 140.853583 
L 342.722687 140.533901 
L 343.362915 143.353459 
L 344.003144 144.314132 
L 344.643372 144.658316 
L 345.283601 144.823252 
L 345.923829 144.727775 
L 346.564057 144.164838 
L 347.844514 143.557728 
L 348.484743 144.483393 
L 349.124971 148.417351 
L 349.7652 154.435165 
L 350.405428 157.669504 
L 351.045656 159.769024 
L 351.685885 167.376283 
L 352.326113 168.122672 
L 352.966342 174.724098 
L 353.60657 174.575497 
L 354.246799 175.62252 
L 354.887027 179.200042 
L 355.527255 183.525688 
L 356.807712 187.692205 
L 357.447941 193.831377 
L 358.088169 196.358842 
L 359.368626 198.697875 
L 360.008855 200.711957 
L 360.649083 204.657564 
L 361.289311 207.518138 
L 362.569768 205.735101 
L 363.209997 206.565242 
L 363.850225 200.899976 
L 364.490454 200.731207 
L 365.130682 194.142856 
L 365.77091 193.427989 
L 366.411139 186.021107 
L 367.691596 178.968411 
L 368.331824 175.184524 
L 368.972053 169.333746 
L 369.612281 166.253206 
L 370.252509 169.214852 
L 370.892738 168.21331 
L 371.532966 165.281211 
L 372.173195 161.654133 
L 372.813423 163.159457 
L 373.453652 162.039187 
L 374.09388 161.97271 
L 374.734109 162.072602 
L 375.374337 163.87131 
L 376.014565 163.074726 
L 376.654794 162.475371 
L 377.295022 159.573084 
L 377.935251 162.04476 
L 378.575479 162.994339 
L 381.136393 172.962618 
L 381.776621 173.942624 
L 382.41685 170.637101 
L 383.057078 170.030582 
L 383.697307 168.885518 
L 384.977763 172.573337 
L 385.617992 173.269458 
L 386.25822 172.98882 
L 386.898449 173.091707 
L 388.178906 175.026845 
L 388.819134 174.627367 
L 389.459363 173.048527 
L 390.099591 172.817645 
L 390.739819 173.215384 
L 391.380048 177.193079 
L 392.020276 172.587138 
L 392.660505 172.753521 
L 393.300733 175.817193 
L 393.940962 174.948055 
L 394.58119 176.030176 
L 395.861647 181.923173 
L 396.501875 179.74607 
L 397.142104 180.073708 
L 397.782332 179.923872 
L 398.422561 178.356385 
L 399.062789 178.152558 
L 399.703017 176.533372 
L 400.343246 172.459354 
L 400.983474 172.053808 
L 401.623703 169.831535 
L 402.263931 163.810746 
L 402.90416 164.899592 
L 404.184617 157.6087 
L 404.824845 154.813305 
L 405.465073 151.321381 
L 406.74553 145.704658 
L 407.385759 143.64135 
L 408.025987 142.387393 
L 408.666216 139.576032 
L 409.306444 135.442589 
L 409.946672 133.591672 
L 410.586901 132.308006 
L 411.227129 132.350975 
L 411.867358 132.743162 
L 412.507586 134.01746 
L 413.147815 138.18157 
L 413.788043 140.661169 
L 414.428271 141.420329 
L 415.708728 149.835685 
L 416.348957 151.671886 
L 416.989185 151.215452 
L 417.629414 152.186631 
L 418.269642 153.675299 
L 418.909871 150.263541 
L 419.550099 154.607733 
L 420.190327 152.267275 
L 420.830556 152.50262 
L 421.470784 153.24852 
L 422.111013 153.097395 
L 422.751241 158.523205 
L 423.39147 158.867525 
L 424.031698 159.050359 
L 424.671926 162.254297 
L 425.312155 161.611151 
L 425.952383 165.658132 
L 427.23284 169.180132 
L 427.873069 169.17493 
L 429.153525 172.575661 
L 429.793754 173.509485 
L 430.433982 172.390097 
L 431.074211 171.817198 
L 431.714439 174.344929 
L 432.354668 172.819155 
L 432.994896 170.303638 
L 433.635125 172.005142 
L 434.275353 167.532081 
L 434.915581 166.628276 
L 435.55581 164.29676 
L 436.196038 157.824441 
L 436.836267 155.611453 
L 437.476495 156.399191 
L 438.116724 156.153835 
L 438.756952 151.832117 
L 440.037409 146.894592 
L 440.677637 141.635832 
L 441.317866 141.04812 
L 441.958094 136.406692 
L 442.598323 133.937089 
L 443.238551 129.981498 
L 443.878779 128.793646 
L 444.519008 129.087818 
L 445.159236 125.342508 
L 445.799465 126.513071 
L 446.439693 122.770328 
L 447.079922 122.236184 
L 447.72015 120.603607 
L 448.360379 116.385773 
L 449.000607 119.324152 
L 450.281064 123.41609 
L 450.921292 126.834695 
L 451.561521 126.497558 
L 452.201749 124.956806 
L 453.482206 132.812288 
L 454.122434 132.231721 
L 454.762663 135.112021 
L 455.402891 134.861208 
L 456.04312 138.541702 
L 456.683348 141.562455 
L 457.323577 140.172127 
L 457.963805 143.126013 
L 458.604033 140.163024 
L 459.244262 141.874826 
L 460.524719 148.577701 
L 461.164947 152.933294 
L 461.805176 148.667574 
L 462.445404 148.430566 
L 463.085633 148.031605 
L 463.725861 145.069008 
L 464.366089 146.508233 
L 465.646546 150.53864 
L 466.286775 149.880792 
L 466.927003 149.404336 
L 468.20746 146.806792 
L 468.847688 142.206211 
L 469.487917 139.707902 
L 470.128145 141.159879 
L 470.768374 142.325883 
L 471.408602 138.913467 
L 472.048831 142.787445 
L 472.689059 137.729959 
L 473.329287 136.642016 
L 473.969516 136.161273 
L 474.609744 132.822978 
L 475.249973 136.125264 
L 475.890201 137.506667 
L 476.53043 137.036815 
L 477.170658 132.015138 
L 477.810887 129.149344 
L 478.451115 130.292369 
L 479.731572 129.56806 
L 481.652257 119.78676 
L 482.292486 123.004002 
L 482.932714 117.740026 
L 483.572942 113.589401 
L 484.213171 115.032056 
L 484.853399 114.418148 
L 485.493628 114.076998 
L 486.133856 113.099866 
L 486.774085 112.459609 
L 487.414313 115.807156 
L 488.054541 117.628483 
L 489.334998 116.081418 
L 489.975227 117.898469 
L 490.615455 122.72547 
L 491.255684 125.448865 
L 492.536141 119.979635 
L 493.176369 120.472904 
L 493.816597 114.47204 
L 494.456826 115.641043 
L 495.097054 114.251624 
L 495.737283 113.739361 
L 496.377511 112.728575 
L 497.01774 110.968932 
L 497.657968 108.088732 
L 498.298196 107.327971 
L 499.578653 101.78194 
L 500.218882 101.701131 
L 500.85911 101.786638 
L 501.499339 101.118483 
L 502.139567 101.599852 
L 502.779795 103.449415 
L 503.420024 107.161673 
L 504.060252 104.22696 
L 504.700481 104.040553 
L 505.340709 100.818187 
L 505.980938 102.56076 
L 506.621166 101.650049 
L 507.261395 103.017749 
L 507.901623 102.445717 
L 508.541851 107.476344 
L 509.18208 109.946827 
L 509.822308 104.049253 
L 511.102765 101.515558 
L 511.742994 102.906303 
L 512.383222 104.923398 
L 513.02345 102.486724 
L 513.663679 104.335338 
L 514.944136 100.679817 
L 515.584364 97.361583 
L 516.224593 97.510777 
L 516.864821 96.265439 
L 517.505049 94.292977 
L 518.145278 91.352479 
L 518.785506 90.209658 
L 519.425735 90.47926 
L 520.065963 90.040625 
L 520.706192 88.642449 
L 521.34642 83.46856 
L 521.986649 86.052705 
L 522.626877 86.648583 
L 523.267105 86.21152 
L 523.907334 81.063896 
L 524.547562 83.576957 
L 525.187791 80.864085 
L 525.828019 80.894778 
L 526.468248 84.750058 
L 527.108476 80.152904 
L 527.748704 80.422426 
L 528.388933 83.231791 
L 529.029161 83.687902 
L 529.66939 83.376708 
L 530.309618 80.232709 
L 530.949847 78.680544 
L 531.590075 79.186934 
L 532.230303 76.604119 
L 532.870532 77.242722 
L 533.51076 77.365481 
L 534.150989 77.659215 
L 534.791217 76.317143 
L 535.431446 78.624698 
L 536.071674 82.037362 
L 536.711903 89.763315 
L 537.352131 95.982405 
L 539.272816 104.874217 
L 539.913045 110.702409 
L 540.553273 112.326307 
L 541.193502 113.530721 
L 541.83373 113.568302 
L 542.473958 114.13193 
L 543.114187 113.668508 
L 543.754415 111.371602 
L 544.394644 116.899503 
L 545.034872 116.330115 
L 545.675101 120.309337 
L 546.315329 121.314242 
L 546.955557 124.47198 
L 547.595786 119.97527 
L 548.236014 116.28918 
L 548.876243 119.631234 
L 549.516471 122.362409 
L 550.1567 119.910691 
L 550.796928 120.966135 
L 551.437157 121.410822 
L 552.077385 120.279251 
L 552.717613 116.50064 
L 553.357842 115.568296 
L 553.99807 115.71467 
L 554.638299 117.109058 
L 555.278527 118.031659 
L 555.918756 117.786092 
L 556.558984 119.00429 
L 557.199212 117.136466 
L 557.839441 116.098928 
L 558.479669 113.254673 
L 559.119898 114.644927 
L 559.760126 115.126996 
L 560.400355 118.095178 
L 561.040583 117.022803 
L 561.680811 116.720552 
L 562.32104 113.79693 
L 562.961268 115.026105 
L 563.601497 114.838237 
L 564.241725 114.183613 
L 564.881954 117.067548 
L 565.522182 113.587674 
L 566.162411 113.065268 
L 566.802639 114.90336 
L 567.442867 112.983319 
L 568.083096 108.586689 
L 568.723324 108.068545 
L 569.363553 108.710965 
L 570.003781 112.178778 
L 570.64401 112.539159 
L 571.284238 117.439795 
L 572.564695 123.247639 
L 573.204923 128.151694 
L 573.845152 129.537042 
L 574.48538 130.325788 
L 575.125609 128.63044 
L 576.406065 121.253791 
L 577.046294 122.343665 
L 577.686522 122.855487 
L 578.326751 120.765601 
L 578.966979 117.823355 
L 579.607208 115.926383 
L 580.247436 120.041125 
L 580.887665 121.356473 
L 581.527893 121.211882 
L 582.168121 125.033652 
L 582.80835 123.157433 
L 583.448578 118.956323 
L 584.088807 119.767309 
L 584.729035 115.744278 
L 585.369264 115.520427 
L 586.009492 114.877793 
L 586.64972 115.849255 
L 587.289949 117.955577 
L 587.930177 115.370294 
L 588.570406 113.906499 
L 589.210634 115.672629 
L 589.850863 116.834339 
L 590.491091 116.365999 
L 591.131319 118.909978 
L 591.771548 122.148312 
L 592.411776 121.396952 
L 593.052005 123.026345 
L 593.692233 119.602082 
L 594.332462 119.993016 
L 594.97269 121.437114 
L 595.612919 118.133539 
L 596.253147 121.296868 
L 596.893375 119.388872 
L 597.533604 120.254226 
L 598.173832 123.082471 
L 598.814061 120.927787 
L 599.454289 117.524754 
L 600.094518 117.409464 
L 600.734746 114.968813 
L 601.374974 117.507779 
L 602.015203 117.203138 
L 602.655431 114.922073 
L 603.29566 114.02114 
L 603.935888 111.332896 
L 604.576117 110.296341 
L 605.216345 109.728223 
L 605.856573 109.740012 
L 607.777259 118.176665 
L 608.417487 117.973713 
L 609.057716 114.79046 
L 609.697944 116.66208 
L 610.338173 112.857651 
L 610.978401 111.202183 
L 611.618629 111.16044 
L 612.258858 108.158944 
L 612.899086 105.757168 
L 613.539315 106.037578 
L 614.179543 107.215001 
L 615.46 110.721935 
L 616.100228 114.225787 
L 616.740457 115.831412 
L 617.380685 116.94743 
L 618.020914 116.290949 
L 618.661142 120.086074 
L 619.301371 118.334512 
L 619.941599 116.944787 
L 620.581827 119.189922 
L 621.222056 116.971467 
L 621.862284 120.130657 
L 622.502513 122.004079 
L 623.142741 122.453173 
L 623.78297 125.590243 
L 624.423198 123.520095 
L 625.063427 123.257177 
L 625.703655 124.184571 
L 626.984112 126.691643 
L 627.62434 128.177472 
L 628.264569 125.901831 
L 628.904797 125.967428 
L 629.545026 125.525571 
L 630.185254 124.539274 
L 630.825482 122.435349 
L 631.465711 121.334025 
L 632.105939 116.130985 
L 632.746168 116.984123 
L 633.386396 115.294329 
L 634.026625 112.464604 
L 634.666853 113.891162 
L 635.307081 110.945282 
L 635.94731 109.30044 
L 636.587538 110.174091 
L 637.227767 104.321041 
L 637.867995 103.166095 
L 638.508224 105.164204 
L 639.148452 104.093052 
L 639.788681 104.385013 
L 640.428909 101.346398 
L 641.069137 99.783691 
L 641.709366 99.395187 
L 642.349594 101.458711 
L 642.989823 102.016077 
L 643.630051 104.456346 
L 644.910508 105.316399 
L 645.550736 103.284685 
L 646.190965 103.834803 
L 646.831193 102.635162 
L 647.471422 104.258478 
L 648.11165 107.157954 
L 648.751879 104.002513 
L 649.392107 104.177341 
L 650.672564 106.182593 
L 651.312792 104.265029 
L 651.953021 107.200972 
L 652.593249 105.643564 
L 653.233478 113.043705 
L 654.513935 118.839717 
L 655.154163 119.917281 
L 655.794391 122.650384 
L 656.43462 127.363528 
L 657.074848 131.219455 
L 657.715077 130.844466 
L 658.355305 132.80192 
L 658.995534 137.009239 
L 660.916219 134.121937 
L 661.556447 136.15125 
L 662.196676 136.84812 
L 662.836904 136.650516 
L 663.477133 141.623937 
L 664.117361 139.727754 
L 664.757589 141.606268 
L 665.397818 140.891196 
L 666.038046 138.491212 
L 666.678275 135.165496 
L 667.318503 138.74065 
L 667.958732 136.578862 
L 668.59896 135.685449 
L 669.239189 130.334093 
L 669.879417 129.006297 
L 670.519645 129.343774 
L 671.159874 128.202963 
L 671.800102 128.003802 
L 672.440331 127.516962 
L 673.080559 125.918003 
L 673.720788 122.475591 
L 674.361016 122.467454 
L 675.001244 121.371989 
L 675.641473 121.417075 
L 676.281701 122.672655 
L 677.562158 119.301156 
L 678.202387 114.59538 
L 678.842615 112.97609 
L 679.482843 112.320535 
L 680.123072 111.479798 
L 680.7633 109.05917 
L 681.403529 109.13997 
L 682.043757 106.631731 
L 682.683986 105.716676 
L 683.324214 107.113356 
L 683.964443 104.083249 
L 685.244899 103.02717 
L 685.885128 98.25191 
L 686.525356 92.363684 
L 687.165585 88.772031 
L 688.446042 93.521676 
L 689.08627 95.542208 
L 689.726498 93.203536 
L 690.366727 94.698332 
L 691.006955 95.463681 
L 691.647184 101.394178 
L 692.287412 102.450917 
L 692.927641 102.637631 
L 693.567869 104.86872 
L 694.208097 105.301692 
L 694.848326 107.247427 
L 695.488554 104.185254 
L 696.128783 103.511147 
L 696.769011 110.495328 
L 697.40924 112.02471 
L 698.049468 110.28019 
L 698.689697 110.120284 
L 699.329925 113.47214 
L 699.970153 116.033052 
L 700.610382 115.780309 
L 701.25061 116.495936 
L 701.890839 119.249406 
L 702.531067 116.108842 
L 703.171296 119.886729 
L 703.811524 120.415969 
L 704.451752 117.873165 
L 705.091981 120.844054 
L 705.732209 124.974782 
L 706.372438 123.686636 
L 707.012666 121.103298 
L 707.652895 122.744632 
L 708.293123 122.653119 
L 709.57358 118.360311 
L 710.213808 122.173553 
L 710.854037 120.882238 
L 711.494265 116.811572 
L 712.134494 120.764013 
L 712.774722 120.157133 
L 713.414951 117.285243 
L 714.055179 116.185109 
L 714.695407 115.324302 
L 715.335636 110.344678 
L 715.975864 108.696276 
L 716.616093 104.846616 
L 717.256321 104.146903 
L 717.89655 104.484573 
L 718.536778 103.573383 
L 719.177006 107.292546 
L 719.817235 106.490061 
L 720.457463 103.438681 
L 721.097692 104.185144 
L 721.73792 102.23731 
L 722.378149 98.612223 
L 723.018377 100.848289 
L 723.658605 101.771679 
L 724.298834 98.731508 
L 724.939062 98.776153 
L 725.579291 102.007772 
L 726.219519 106.928037 
L 726.859748 109.658594 
L 728.140205 104.443572 
L 728.780433 106.950427 
L 729.420661 107.846995 
L 730.06089 107.967265 
L 730.701118 109.866241 
L 731.341347 105.906909 
L 731.981575 109.277697 
L 732.621804 109.316019 
L 733.262032 109.790334 
L 733.90226 108.004197 
L 734.542489 108.632241 
L 735.182717 109.891591 
L 735.822946 108.348721 
L 736.463174 106.283579 
L 737.103403 109.905887 
L 737.743631 112.371096 
L 738.383859 111.591096 
L 739.024088 114.319656 
L 739.664316 115.127899 
L 740.304545 117.441444 
L 740.944773 118.26703 
L 741.585002 120.574747 
L 742.22523 120.891202 
L 742.865459 118.722857 
L 743.505687 118.816132 
L 744.145915 118.092968 
L 744.786144 115.533217 
L 745.426372 114.39888 
L 746.066601 117.991264 
L 746.706829 114.110755 
L 747.347058 118.770568 
L 748.627514 125.219827 
L 749.267743 124.740125 
L 749.907971 123.687051 
L 750.5482 127.032946 
L 751.188428 124.362057 
L 751.828657 123.657304 
L 752.468885 122.134004 
L 753.109113 123.379442 
L 753.749342 120.170142 
L 754.38957 123.975314 
L 755.029799 120.90222 
L 755.670027 123.14108 
L 756.950484 130.052971 
L 757.590713 131.580958 
L 758.230941 130.405438 
L 758.871169 131.108845 
L 759.511398 134.007552 
L 760.151626 136.025622 
L 760.791855 137.632783 
L 761.432083 141.531206 
L 762.072312 139.072661 
L 762.71254 140.941796 
L 763.352768 144.115661 
L 763.992997 144.969524 
L 764.633225 146.459361 
L 765.913682 136.093949 
L 766.553911 136.601862 
L 767.194139 134.757734 
L 767.834367 134.843801 
L 768.474596 136.099657 
L 769.114824 137.925423 
L 769.755053 134.858895 
L 770.395281 128.717313 
L 771.03551 124.6134 
L 771.675738 124.714464 
L 772.315967 122.907368 
L 772.956195 121.93867 
L 773.596423 121.50377 
L 774.236652 120.746513 
L 774.87688 119.456066 
L 775.517109 119.452926 
L 776.157337 117.250509 
L 776.797566 119.018868 
L 777.437794 117.981139 
L 778.078022 119.883859 
L 778.718251 120.738968 
L 779.358479 118.243423 
L 779.998708 114.582766 
L 780.638936 113.726712 
L 781.279165 111.463672 
L 782.559621 114.381759 
L 783.19985 117.53407 
L 783.840078 119.177141 
L 785.120535 117.503425 
L 785.760764 120.113505 
L 787.681449 119.742125 
L 789.602134 119.127987 
L 791.52282 118.24936 
L 793.443505 117.084514 
L 795.36419 115.611719 
L 797.284875 113.809242 
L 799.205561 111.655355 
L 801.126246 109.128327 
L 803.046931 106.206426 
L 804.967617 102.867922 
L 804.967617 102.867922 
" style="fill:none;stroke:#d95319;stroke-linecap:square;stroke-width:3;"/>
   </g>
   <g id="line2d_27">
    <path clip-path="url(#p34bb7a35d8)" d="M 165.37941 320.734777 
L 166.019639 323.406166 
L 166.659867 325.400557 
L 167.300096 326.74494 
L 167.940324 327.466302 
L 168.580552 327.591633 
L 169.220781 327.147921 
L 169.861009 326.162156 
L 170.501238 324.661325 
L 171.141466 322.672417 
L 172.421923 317.338328 
L 173.70238 310.375798 
L 174.982837 302.000736 
L 176.903522 287.261951 
L 178.824207 270.559463 
L 182.02535 240.337375 
L 184.586263 215.956745 
L 185.226492 207.344253 
L 187.147177 188.743445 
L 187.787406 184.11511 
L 188.427634 183.567618 
L 189.067862 178.615912 
L 189.708091 175.470721 
L 190.988548 170.004151 
L 191.628776 167.173546 
L 192.269005 163.765856 
L 192.909233 162.953961 
L 194.18969 160.700987 
L 194.829918 162.721374 
L 195.470147 162.408604 
L 196.110375 167.024603 
L 196.750604 168.597825 
L 197.390832 168.997306 
L 198.03106 175.33206 
L 198.671289 180.432232 
L 199.311517 183.15971 
L 199.951746 187.404489 
L 200.591974 192.768184 
L 201.232203 194.701371 
L 201.872431 194.842666 
L 202.51266 194.776797 
L 203.152888 189.096727 
L 203.793116 187.809673 
L 204.433345 185.148685 
L 205.073573 184.504738 
L 205.713802 184.520353 
L 206.35403 185.300625 
L 206.994259 184.673159 
L 207.634487 185.069309 
L 208.274715 189.524331 
L 208.914944 183.468708 
L 210.835629 193.864368 
L 211.475858 187.449517 
L 212.116086 184.212545 
L 212.756314 178.653387 
L 213.396543 182.294959 
L 214.036771 184.338806 
L 214.677 181.511119 
L 215.317228 179.56155 
L 215.957457 180.027583 
L 216.597685 178.940371 
L 217.237914 179.910745 
L 217.878142 179.370648 
L 218.51837 179.269427 
L 219.158599 174.928533 
L 219.798827 174.907159 
L 220.439056 174.484055 
L 221.079284 169.16371 
L 221.719513 166.370462 
L 222.359741 167.806999 
L 222.999969 161.9128 
L 223.640198 159.003942 
L 224.280426 159.021299 
L 224.920655 160.083915 
L 225.560883 159.985877 
L 226.201112 164.779042 
L 226.84134 163.10307 
L 228.121797 159.376616 
L 228.762025 157.780972 
L 229.402254 151.627376 
L 230.042482 150.120504 
L 230.682711 150.924153 
L 231.322939 148.625514 
L 231.963168 147.088223 
L 232.603396 143.499097 
L 233.243624 143.264894 
L 233.883853 142.304415 
L 234.524081 143.000161 
L 235.16431 142.185257 
L 235.804538 142.473483 
L 236.444767 144.377903 
L 237.084995 141.025429 
L 237.725223 142.308354 
L 238.365452 139.843494 
L 239.00568 136.704376 
L 239.645909 128.432136 
L 240.286137 127.537324 
L 240.926366 123.941372 
L 241.566594 119.054854 
L 242.206822 124.66599 
L 242.847051 127.245489 
L 243.487279 126.939471 
L 244.127508 128.422388 
L 244.767736 126.35244 
L 246.048193 119.928975 
L 246.688422 118.705794 
L 247.32865 116.489967 
L 247.968878 117.029049 
L 248.609107 115.988937 
L 249.249335 117.221654 
L 249.889564 111.4911 
L 250.529792 110.684546 
L 251.170021 108.067469 
L 251.810249 111.260267 
L 252.450477 104.909236 
L 253.090706 107.951746 
L 254.371163 105.093162 
L 255.011391 107.326311 
L 255.65162 108.455731 
L 256.291848 107.548009 
L 256.932076 112.178624 
L 257.572305 114.081297 
L 258.212533 111.361328 
L 258.852762 104.23516 
L 259.49299 106.157785 
L 260.133219 105.829519 
L 260.773447 103.902364 
L 261.413676 104.176551 
L 262.053904 108.084313 
L 262.694132 113.646947 
L 263.334361 112.586729 
L 263.974589 113.86916 
L 264.614818 115.764887 
L 265.255046 113.313727 
L 265.895275 111.684652 
L 266.535503 111.596989 
L 267.175731 112.95048 
L 267.81596 109.623046 
L 268.456188 112.56195 
L 269.096417 108.133934 
L 269.736645 101.658033 
L 271.017102 99.768706 
L 271.657331 101.93938 
L 272.297559 102.039568 
L 272.937787 100.263308 
L 273.578016 98.954452 
L 274.218244 99.649602 
L 274.858473 101.719031 
L 275.498701 100.717062 
L 276.13893 106.620879 
L 276.779158 105.451152 
L 277.419386 108.184829 
L 278.059615 104.568391 
L 278.699843 100.095714 
L 279.340072 100.033737 
L 279.9803 100.480542 
L 280.620529 106.102886 
L 281.260757 103.85907 
L 281.900985 102.582161 
L 282.541214 101.854895 
L 283.181442 100.879498 
L 283.821671 100.742697 
L 284.461899 102.957324 
L 285.102128 107.049165 
L 285.742356 103.726152 
L 286.382585 105.377684 
L 287.022813 104.891548 
L 287.663041 107.952678 
L 288.30327 104.378133 
L 288.943498 103.057517 
L 289.583727 103.102878 
L 290.223955 101.333535 
L 290.864184 100.694813 
L 291.504412 106.113288 
L 292.14464 104.299595 
L 292.784869 103.306737 
L 293.425097 101.900742 
L 294.065326 96.768909 
L 294.705554 97.565594 
L 295.345783 93.325097 
L 296.626239 86.290102 
L 297.266468 85.282035 
L 297.906696 93.471738 
L 298.546925 91.329988 
L 299.187153 93.292014 
L 299.827382 91.623718 
L 301.107839 98.926649 
L 301.748067 93.743046 
L 302.388295 95.496798 
L 303.028524 94.479557 
L 303.668752 95.287207 
L 304.308981 93.256561 
L 304.949209 94.519381 
L 305.589438 94.222638 
L 306.869894 95.960933 
L 307.510123 98.281108 
L 308.150351 96.203952 
L 308.79058 102.195972 
L 309.430808 102.634826 
L 310.071037 107.087387 
L 310.711265 107.993601 
L 311.351493 110.320095 
L 311.991722 117.337411 
L 312.63195 121.253566 
L 313.272179 118.920696 
L 313.912407 119.430873 
L 314.552636 124.000019 
L 315.192864 121.81129 
L 315.833093 120.142497 
L 316.473321 114.683795 
L 317.113549 113.149347 
L 317.753778 113.664292 
L 318.394006 112.510949 
L 319.034235 116.031982 
L 319.674463 115.103624 
L 320.314692 111.587633 
L 321.595148 113.577323 
L 322.235377 111.429535 
L 322.875605 110.570601 
L 323.515834 108.057919 
L 324.156062 101.15614 
L 324.796291 101.60112 
L 325.436519 99.612335 
L 326.076747 98.384541 
L 326.716976 93.030258 
L 327.357204 93.333029 
L 327.997433 89.610743 
L 328.637661 82.626463 
L 329.27789 83.57998 
L 329.918118 82.754103 
L 330.558347 74.984311 
L 331.198575 71.52269 
L 332.479032 65.953325 
L 333.11926 65.544338 
L 334.399717 63.32626 
L 335.039946 57.998549 
L 336.320402 55.145884 
L 336.960631 45.811362 
L 337.600859 41.743771 
L 338.241088 35.655902 
L 338.881316 39.060455 
L 339.521545 33.997607 
L 340.161773 31.193337 
L 340.802001 32.938946 
L 341.44223 35.776972 
L 342.082458 36.682222 
L 342.722687 33.379171 
L 343.362915 31.559258 
L 344.003144 33.176015 
L 345.283601 29.509727 
L 345.923829 33.309533 
L 346.564057 29.676715 
L 347.844514 37.627195 
L 348.484743 39.882878 
L 349.124971 40.914169 
L 349.7652 45.960691 
L 350.405428 48.077785 
L 351.045656 46.731707 
L 351.685885 47.783382 
L 352.326113 51.808945 
L 352.966342 53.257032 
L 353.60657 49.396011 
L 354.246799 49.311157 
L 354.887027 46.874692 
L 355.527255 50.046336 
L 356.167484 48.351961 
L 356.807712 52.022586 
L 357.447941 57.882699 
L 358.088169 59.184194 
L 358.728398 63.294724 
L 359.368626 68.858564 
L 360.008855 69.961177 
L 360.649083 68.765676 
L 361.289311 66.887181 
L 361.92954 66.40112 
L 362.569768 64.527994 
L 363.209997 68.295821 
L 363.850225 70.800949 
L 364.490454 69.722975 
L 365.130682 70.726239 
L 365.77091 71.422803 
L 366.411139 69.729771 
L 367.051367 71.97283 
L 367.691596 76.103376 
L 368.331824 77.793266 
L 368.972053 76.632662 
L 369.612281 79.963763 
L 370.252509 78.440694 
L 372.173195 80.298299 
L 372.813423 78.476671 
L 373.453652 76.237257 
L 374.09388 78.852909 
L 374.734109 80.214139 
L 375.374337 77.841584 
L 376.014565 77.341071 
L 377.295022 88.929841 
L 377.935251 87.910336 
L 378.575479 90.582926 
L 379.215708 90.011621 
L 379.855936 89.739234 
L 380.496164 95.28493 
L 381.136393 92.634343 
L 382.41685 101.334315 
L 383.057078 108.398595 
L 383.697307 111.336896 
L 384.337535 115.042336 
L 384.977763 117.359839 
L 385.617992 122.772613 
L 386.25822 129.355869 
L 386.898449 128.078195 
L 387.538677 133.94909 
L 389.459363 126.560921 
L 390.099591 123.009209 
L 390.739819 120.745597 
L 391.380048 117.886835 
L 392.020276 115.672263 
L 392.660505 114.21101 
L 393.300733 114.061213 
L 393.940962 109.968533 
L 394.58119 111.383882 
L 395.221418 115.477436 
L 395.861647 113.933546 
L 396.501875 110.666579 
L 397.142104 110.0539 
L 397.782332 104.602776 
L 398.422561 96.571116 
L 399.062789 91.555866 
L 399.703017 94.786213 
L 400.343246 92.811831 
L 400.983474 92.669648 
L 401.623703 94.02376 
L 402.263931 93.357827 
L 402.90416 94.428547 
L 403.544388 95.235355 
L 404.184617 97.0169 
L 404.824845 93.428014 
L 405.465073 93.879823 
L 406.105302 95.095967 
L 406.74553 91.362333 
L 407.385759 88.639401 
L 408.025987 87.142237 
L 408.666216 89.572701 
L 409.306444 91.207849 
L 409.946672 88.072744 
L 411.867358 86.204912 
L 412.507586 84.439659 
L 413.147815 83.837746 
L 413.788043 80.882237 
L 414.428271 83.925166 
L 415.0685 90.73344 
L 415.708728 86.218862 
L 416.348957 89.147363 
L 416.989185 88.642204 
L 417.629414 93.981822 
L 418.269642 96.523474 
L 418.909871 101.984242 
L 419.550099 96.236317 
L 420.190327 99.943495 
L 421.470784 108.81513 
L 422.111013 104.026192 
L 422.751241 104.420445 
L 423.39147 106.357569 
L 424.031698 105.400818 
L 424.671926 103.613647 
L 425.312155 97.379166 
L 425.952383 96.920038 
L 426.592612 92.027083 
L 427.23284 93.495186 
L 427.873069 91.249575 
L 428.513297 95.247131 
L 429.153525 95.060753 
L 429.793754 102.077282 
L 431.074211 106.241037 
L 431.714439 112.211103 
L 432.354668 112.267476 
L 432.994896 116.770003 
L 433.635125 112.055891 
L 434.915581 116.722646 
L 435.55581 116.978678 
L 436.196038 116.227575 
L 436.836267 118.072895 
L 437.476495 123.116956 
L 438.116724 125.000162 
L 438.756952 120.650988 
L 439.39718 122.907589 
L 440.037409 123.896791 
L 440.677637 125.459576 
L 441.317866 128.165725 
L 441.958094 125.793628 
L 442.598323 125.556325 
L 443.238551 124.880175 
L 443.878779 129.587183 
L 444.519008 127.873714 
L 445.159236 126.889163 
L 445.799465 127.698217 
L 446.439693 126.858128 
L 447.079922 131.012923 
L 447.72015 129.055977 
L 449.000607 127.084654 
L 449.640835 128.437427 
L 450.281064 125.08281 
L 450.921292 123.053379 
L 451.561521 124.242795 
L 452.201749 126.672597 
L 452.841978 125.859574 
L 453.482206 127.810235 
L 454.122434 127.663006 
L 454.762663 129.035894 
L 455.402891 122.941481 
L 456.04312 124.54864 
L 456.683348 119.771043 
L 457.323577 120.446628 
L 457.963805 119.236021 
L 458.604033 116.76506 
L 459.244262 121.168626 
L 460.524719 108.186352 
L 461.164947 111.591724 
L 461.805176 110.971552 
L 462.445404 108.123977 
L 463.085633 108.405115 
L 463.725861 103.829271 
L 464.366089 106.108891 
L 465.006318 110.147352 
L 465.646546 107.572898 
L 466.286775 106.727119 
L 466.927003 112.892809 
L 467.567232 112.923391 
L 468.20746 115.459039 
L 468.847688 110.568131 
L 469.487917 109.189433 
L 470.128145 108.568073 
L 471.408602 102.153075 
L 472.048831 104.970905 
L 472.689059 109.043151 
L 473.329287 105.779109 
L 473.969516 103.414963 
L 474.609744 104.165585 
L 475.249973 101.498753 
L 475.890201 100.368811 
L 476.53043 104.775923 
L 477.170658 103.803886 
L 477.810887 108.198305 
L 479.091343 106.101909 
L 480.3718 105.745376 
L 481.012029 109.019425 
L 481.652257 106.037959 
L 482.292486 103.879117 
L 482.932714 103.602116 
L 484.213171 101.888042 
L 484.853399 106.662141 
L 485.493628 109.685448 
L 486.133856 105.386637 
L 486.774085 103.806599 
L 487.414313 101.131962 
L 488.054541 102.120974 
L 488.69477 101.557156 
L 489.334998 101.413837 
L 489.975227 106.340627 
L 490.615455 108.083765 
L 491.255684 105.926731 
L 491.895912 104.839708 
L 492.536141 102.516162 
L 493.176369 100.684557 
L 493.816597 103.730353 
L 494.456826 105.233536 
L 495.097054 112.642991 
L 495.737283 113.523651 
L 496.377511 110.673812 
L 497.01774 114.785836 
L 497.657968 121.677657 
L 498.298196 120.482836 
L 498.938425 118.573141 
L 499.578653 123.820296 
L 500.218882 120.352346 
L 500.85911 121.582962 
L 501.499339 121.629661 
L 502.139567 119.179845 
L 502.779795 122.51771 
L 503.420024 122.57559 
L 504.060252 117.128183 
L 504.700481 122.4009 
L 505.340709 122.692817 
L 505.980938 120.030626 
L 506.621166 116.56268 
L 507.261395 117.73225 
L 508.541851 120.720181 
L 509.18208 117.833292 
L 509.822308 122.631691 
L 510.462537 123.898996 
L 511.742994 118.582958 
L 512.383222 117.212795 
L 513.02345 118.168858 
L 513.663679 118.71971 
L 514.303907 120.33179 
L 514.944136 120.217373 
L 515.584364 120.970626 
L 516.224593 122.239578 
L 516.864821 115.42085 
L 517.505049 117.288088 
L 518.145278 116.268011 
L 518.785506 113.905928 
L 519.425735 111.995945 
L 520.065963 107.446315 
L 520.706192 109.362875 
L 521.34642 115.730855 
L 521.986649 114.19964 
L 522.626877 115.235868 
L 523.267105 113.412705 
L 523.907334 108.791332 
L 524.547562 107.792271 
L 525.187791 111.56483 
L 526.468248 112.814388 
L 527.108476 114.441365 
L 527.748704 114.486246 
L 528.388933 119.500417 
L 529.029161 115.643803 
L 529.66939 112.701036 
L 530.309618 113.749483 
L 530.949847 117.546734 
L 531.590075 120.081055 
L 532.230303 121.441711 
L 532.870532 124.179669 
L 533.51076 125.164333 
L 534.150989 120.636281 
L 534.791217 123.483567 
L 535.431446 128.019484 
L 536.071674 124.308406 
L 536.711903 124.42988 
L 537.352131 122.770081 
L 537.992359 125.487627 
L 538.632588 121.531485 
L 539.272816 121.272655 
L 539.913045 124.569773 
L 540.553273 123.621795 
L 541.193502 123.146862 
L 541.83373 123.212172 
L 542.473958 129.385995 
L 543.114187 129.20917 
L 543.754415 125.530194 
L 544.394644 130.888755 
L 545.034872 128.589436 
L 546.315329 137.886421 
L 546.955557 133.5892 
L 547.595786 133.543068 
L 548.236014 134.59565 
L 548.876243 133.964436 
L 549.516471 135.777233 
L 550.1567 134.89797 
L 550.796928 132.928928 
L 551.437157 131.408346 
L 552.077385 130.324266 
L 552.717613 131.346012 
L 553.357842 133.946534 
L 553.99807 133.721761 
L 554.638299 127.528055 
L 555.278527 123.228929 
L 555.918756 122.657983 
L 556.558984 118.541526 
L 557.199212 118.289777 
L 557.839441 121.942176 
L 558.479669 119.188128 
L 559.119898 121.963708 
L 559.760126 122.073027 
L 560.400355 117.619935 
L 561.040583 120.671619 
L 561.680811 119.89045 
L 562.32104 121.045404 
L 562.961268 118.564311 
L 563.601497 117.24717 
L 564.241725 110.967678 
L 564.881954 106.274167 
L 565.522182 106.738082 
L 566.162411 103.264169 
L 566.802639 105.523729 
L 567.442867 100.02445 
L 568.083096 97.442313 
L 568.723324 98.129162 
L 569.363553 97.305244 
L 570.003781 95.744451 
L 570.64401 96.617908 
L 571.284238 95.12328 
L 571.924466 94.358752 
L 572.564695 96.029534 
L 573.204923 98.328485 
L 573.845152 102.693131 
L 574.48538 102.251262 
L 575.125609 101.664222 
L 575.765837 98.679897 
L 576.406065 97.615092 
L 577.046294 98.951549 
L 577.686522 101.167648 
L 578.326751 104.140472 
L 580.247436 107.637808 
L 580.887665 108.051074 
L 581.527893 104.14054 
L 582.168121 106.148479 
L 582.80835 108.593929 
L 583.448578 105.412951 
L 584.088807 108.508424 
L 584.729035 106.088399 
L 585.369264 103.184522 
L 586.009492 105.487148 
L 586.64972 104.121593 
L 587.289949 106.14813 
L 587.930177 106.567743 
L 588.570406 105.963347 
L 589.210634 105.97872 
L 589.850863 110.119616 
L 590.491091 111.739388 
L 591.131319 111.05532 
L 591.771548 111.167809 
L 592.411776 109.608624 
L 593.052005 110.451152 
L 593.692233 114.614606 
L 594.97269 118.268815 
L 595.612919 119.305127 
L 596.253147 118.574774 
L 596.893375 121.533006 
L 597.533604 126.787377 
L 598.173832 125.406104 
L 598.814061 124.844422 
L 599.454289 124.114558 
L 600.094518 122.251793 
L 600.734746 122.289446 
L 601.374974 120.942184 
L 602.015203 124.388829 
L 602.655431 120.384035 
L 603.29566 117.0888 
L 603.935888 120.679823 
L 604.576117 115.786543 
L 605.216345 114.852961 
L 605.856573 109.115867 
L 606.496802 109.919493 
L 607.13703 109.612428 
L 608.417487 106.467413 
L 609.057716 107.270335 
L 609.697944 104.495959 
L 610.338173 104.372264 
L 610.978401 101.559205 
L 611.618629 100.759178 
L 612.258858 98.226054 
L 612.899086 91.058483 
L 613.539315 88.389198 
L 614.179543 90.571134 
L 614.819772 89.976655 
L 615.46 89.71065 
L 616.100228 87.723481 
L 616.740457 87.758101 
L 617.380685 89.151689 
L 618.020914 86.214899 
L 618.661142 88.292334 
L 619.301371 84.089446 
L 619.941599 81.833028 
L 620.581827 80.758415 
L 621.222056 79.416063 
L 621.862284 80.856428 
L 622.502513 80.648757 
L 623.142741 79.165881 
L 623.78297 77.989907 
L 624.423198 77.980925 
L 625.063427 79.737635 
L 625.703655 85.011901 
L 626.984112 84.770298 
L 627.62434 85.71208 
L 628.264569 85.213085 
L 628.904797 80.10565 
L 629.545026 84.231416 
L 630.185254 84.309152 
L 630.825482 82.899056 
L 631.465711 82.926979 
L 632.105939 84.449926 
L 632.746168 81.998923 
L 633.386396 82.720232 
L 634.026625 86.93657 
L 634.666853 87.664012 
L 635.307081 89.353421 
L 635.94731 88.257259 
L 636.587538 84.958584 
L 637.227767 84.77516 
L 637.867995 87.880738 
L 638.508224 88.492905 
L 639.148452 84.971778 
L 639.788681 83.008613 
L 640.428909 79.039072 
L 641.069137 76.750857 
L 641.709366 80.028771 
L 642.349594 84.442787 
L 642.989823 82.909265 
L 643.630051 82.636252 
L 645.550736 84.391793 
L 646.190965 83.737417 
L 646.831193 83.964896 
L 647.471422 82.81789 
L 648.11165 81.363174 
L 648.751879 78.137531 
L 649.392107 79.96756 
L 650.032335 83.920562 
L 650.672564 84.773919 
L 651.312792 83.52176 
L 651.953021 81.130178 
L 652.593249 80.524706 
L 653.233478 77.787461 
L 653.873706 76.549526 
L 654.513935 79.921607 
L 655.154163 82.275511 
L 655.794391 87.499655 
L 656.43462 82.012677 
L 657.074848 78.052417 
L 657.715077 74.993885 
L 659.635762 84.408226 
L 660.27599 85.995913 
L 660.916219 84.687198 
L 661.556447 87.742295 
L 662.196676 89.942759 
L 662.836904 96.548045 
L 663.477133 93.383505 
L 664.117361 93.492863 
L 664.757589 92.036456 
L 665.397818 91.609844 
L 666.038046 88.183375 
L 666.678275 81.588385 
L 667.318503 79.62748 
L 667.958732 81.417044 
L 668.59896 79.385392 
L 669.239189 79.416429 
L 670.519645 79.812952 
L 671.159874 83.055382 
L 671.800102 82.232879 
L 672.440331 80.295631 
L 673.080559 75.606353 
L 673.720788 73.41111 
L 674.361016 74.087813 
L 675.001244 66.945542 
L 675.641473 70.348502 
L 676.281701 71.851373 
L 676.92193 75.656348 
L 677.562158 76.350104 
L 678.202387 81.627718 
L 678.842615 85.741425 
L 679.482843 90.633252 
L 680.123072 87.749851 
L 680.7633 87.553642 
L 681.403529 89.814837 
L 682.043757 85.633327 
L 682.683986 84.973617 
L 683.324214 82.588544 
L 683.964443 82.296095 
L 684.604671 78.532985 
L 685.244899 78.349351 
L 685.885128 82.056453 
L 686.525356 79.373858 
L 687.165585 78.057848 
L 687.805813 83.769954 
L 688.446042 83.700622 
L 689.726498 76.58276 
L 690.366727 77.37566 
L 691.006955 74.899983 
L 691.647184 77.550167 
L 692.287412 76.878017 
L 692.927641 76.650269 
L 693.567869 73.840148 
L 694.208097 78.005498 
L 694.848326 69.59115 
L 695.488554 75.438847 
L 696.128783 75.309206 
L 696.769011 74.657748 
L 697.40924 72.334106 
L 698.049468 72.257347 
L 698.689697 71.442094 
L 699.329925 71.215182 
L 699.970153 76.457937 
L 700.610382 72.393259 
L 701.25061 73.817336 
L 701.890839 70.168119 
L 702.531067 70.629298 
L 703.171296 71.258551 
L 703.811524 63.349384 
L 705.091981 57.159809 
L 705.732209 62.699178 
L 706.372438 61.975146 
L 707.012666 64.771364 
L 707.652895 61.512367 
L 708.293123 63.764771 
L 708.933351 61.072402 
L 709.57358 61.615895 
L 710.213808 57.499653 
L 710.854037 57.710883 
L 711.494265 59.372143 
L 712.134494 64.590008 
L 712.774722 67.343942 
L 713.414951 71.846516 
L 714.055179 81.007225 
L 714.695407 85.282356 
L 715.335636 86.424798 
L 715.975864 86.393175 
L 716.616093 86.886048 
L 717.89655 84.46048 
L 718.536778 80.641036 
L 719.177006 81.165129 
L 719.817235 78.264482 
L 720.457463 71.203776 
L 721.097692 69.858761 
L 721.73792 69.776553 
L 722.378149 71.876193 
L 723.018377 72.368527 
L 723.658605 73.008401 
L 724.298834 77.580378 
L 724.939062 78.465054 
L 725.579291 85.882859 
L 726.219519 89.39376 
L 727.499976 81.259591 
L 728.140205 74.838295 
L 728.780433 73.849638 
L 729.420661 69.933835 
L 730.06089 77.580759 
L 730.701118 74.369647 
L 731.341347 72.95782 
L 731.981575 75.138617 
L 732.621804 76.656605 
L 733.262032 73.280441 
L 733.90226 73.993521 
L 734.542489 66.849622 
L 735.182717 67.019892 
L 735.822946 66.519999 
L 736.463174 68.23433 
L 737.103403 69.175284 
L 737.743631 69.388049 
L 738.383859 70.822607 
L 739.024088 67.786166 
L 739.664316 65.318788 
L 740.304545 65.296237 
L 740.944773 65.743078 
L 741.585002 65.722658 
L 742.22523 61.971495 
L 742.865459 65.357967 
L 743.505687 70.657443 
L 744.145915 77.755908 
L 744.786144 74.462565 
L 745.426372 74.597373 
L 746.066601 75.161525 
L 746.706829 80.511557 
L 747.347058 77.684141 
L 747.987286 85.149206 
L 748.627514 81.284824 
L 749.267743 81.526291 
L 749.907971 81.053125 
L 750.5482 82.495707 
L 751.188428 81.930452 
L 751.828657 84.050995 
L 752.468885 84.582512 
L 753.109113 83.246893 
L 753.749342 78.718049 
L 754.38957 77.04053 
L 755.029799 74.690993 
L 755.670027 73.880072 
L 756.310256 72.796541 
L 756.950484 70.484784 
L 757.590713 76.742691 
L 758.230941 75.674533 
L 758.871169 81.444731 
L 759.511398 81.522603 
L 760.151626 83.989741 
L 760.791855 85.712559 
L 761.432083 92.546463 
L 762.072312 95.946982 
L 762.71254 96.608918 
L 763.352768 93.955849 
L 763.992997 88.843031 
L 764.633225 89.216757 
L 765.273454 85.134503 
L 765.913682 85.888118 
L 766.553911 90.369182 
L 767.194139 95.702358 
L 767.834367 94.780949 
L 768.474596 90.198343 
L 769.114824 86.609112 
L 769.755053 85.928055 
L 770.395281 84.463343 
L 771.675738 79.209471 
L 772.315967 75.895868 
L 772.956195 80.340567 
L 773.596423 79.829997 
L 774.236652 81.144946 
L 774.87688 81.051941 
L 775.517109 84.024312 
L 776.157337 83.483404 
L 776.797566 84.446504 
L 777.437794 84.441506 
L 778.078022 83.923081 
L 778.718251 90.965368 
L 779.358479 90.341075 
L 779.998708 90.887817 
L 780.638936 92.890056 
L 781.279165 97.588384 
L 781.919393 99.812513 
L 782.559621 94.873613 
L 783.19985 95.405877 
L 783.840078 96.124602 
L 784.480307 99.121538 
L 785.120535 94.050031 
L 785.760764 83.023285 
L 787.041221 82.770609 
L 788.321677 82.690956 
L 790.242363 82.856183 
L 792.163048 83.308593 
L 794.083733 83.986915 
L 796.644647 85.136863 
L 804.967617 89.140306 
L 804.967617 89.140306 
" style="fill:none;stroke:#a2142f;stroke-linecap:square;stroke-width:3;"/>
   </g>
   <g id="patch_3">
    <path d="M 133.4 613.24 
L 133.4 10.8 
" style="fill:none;stroke:#000000;stroke-linecap:square;stroke-linejoin:miter;stroke-width:0.8;"/>
   </g>
   <g id="patch_4">
    <path d="M 836.947027 613.24 
L 836.947027 10.8 
" style="fill:none;stroke:#000000;stroke-linecap:square;stroke-linejoin:miter;stroke-width:0.8;"/>
   </g>
   <g id="patch_5">
    <path d="M 133.4 613.24 
L 836.947027 613.24 
" style="fill:none;stroke:#000000;stroke-linecap:square;stroke-linejoin:miter;stroke-width:0.8;"/>
   </g>
   <g id="patch_6">
    <path d="M 133.4 10.8 
L 836.947027 10.8 
" style="fill:none;stroke:#000000;stroke-linecap:square;stroke-linejoin:miter;stroke-width:0.8;"/>
   </g>
   <g id="legend_1">
    <g id="line2d_28">
     <path d="M 174.8 415.820937 
L 266.8 415.820937 
" style="fill:none;stroke:#7e2f8e;stroke-linecap:square;stroke-width:3;"/>
    </g>
    <g id="line2d_29"/>
    <g id="text_15">
     <!-- RDSE -->
     <g transform="translate(303.6 431.920937)scale(0.46 -0.46)">
      <defs>
       <path d="M 4325 0 
L 3194 0 
L 1759 1981 
Q 1600 1975 1500 1975 
Q 1459 1975 1412 1976 
Q 1366 1978 1316 1981 
L 1316 750 
Q 1316 350 1403 253 
Q 1522 116 1759 116 
L 1925 116 
L 1925 0 
L 109 0 
L 109 116 
L 269 116 
Q 538 116 653 291 
Q 719 388 719 750 
L 719 3488 
Q 719 3888 631 3984 
Q 509 4122 269 4122 
L 109 4122 
L 109 4238 
L 1653 4238 
Q 2328 4238 2648 4139 
Q 2969 4041 3192 3777 
Q 3416 3513 3416 3147 
Q 3416 2756 3161 2468 
Q 2906 2181 2372 2063 
L 3247 847 
Q 3547 428 3762 290 
Q 3978 153 4325 116 
L 4325 0 
z
M 1316 2178 
Q 1375 2178 1419 2176 
Q 1463 2175 1491 2175 
Q 2097 2175 2405 2437 
Q 2713 2700 2713 3106 
Q 2713 3503 2464 3751 
Q 2216 4000 1806 4000 
Q 1625 4000 1316 3941 
L 1316 2178 
z
" id="TimesNewRomanPSMT-52" transform="scale(0.015625)"/>
       <path d="M 109 0 
L 109 116 
L 269 116 
Q 538 116 650 288 
Q 719 391 719 750 
L 719 3488 
Q 719 3884 631 3984 
Q 509 4122 269 4122 
L 109 4122 
L 109 4238 
L 1834 4238 
Q 2784 4238 3279 4022 
Q 3775 3806 4076 3303 
Q 4378 2800 4378 2141 
Q 4378 1256 3841 663 
Q 3238 0 2003 0 
L 109 0 
z
M 1319 306 
Q 1716 219 1984 219 
Q 2709 219 3187 728 
Q 3666 1238 3666 2109 
Q 3666 2988 3187 3494 
Q 2709 4000 1959 4000 
Q 1678 4000 1319 3909 
L 1319 306 
z
" id="TimesNewRomanPSMT-44" transform="scale(0.015625)"/>
       <path d="M 2934 4334 
L 2934 2869 
L 2819 2869 
Q 2763 3291 2617 3541 
Q 2472 3791 2203 3937 
Q 1934 4084 1647 4084 
Q 1322 4084 1109 3886 
Q 897 3688 897 3434 
Q 897 3241 1031 3081 
Q 1225 2847 1953 2456 
Q 2547 2138 2764 1967 
Q 2981 1797 3098 1565 
Q 3216 1334 3216 1081 
Q 3216 600 2842 251 
Q 2469 -97 1881 -97 
Q 1697 -97 1534 -69 
Q 1438 -53 1133 45 
Q 828 144 747 144 
Q 669 144 623 97 
Q 578 50 556 -97 
L 441 -97 
L 441 1356 
L 556 1356 
Q 638 900 775 673 
Q 913 447 1195 297 
Q 1478 147 1816 147 
Q 2206 147 2432 353 
Q 2659 559 2659 841 
Q 2659 997 2573 1156 
Q 2488 1316 2306 1453 
Q 2184 1547 1640 1851 
Q 1097 2156 867 2337 
Q 638 2519 519 2737 
Q 400 2956 400 3219 
Q 400 3675 750 4004 
Q 1100 4334 1641 4334 
Q 1978 4334 2356 4169 
Q 2531 4091 2603 4091 
Q 2684 4091 2736 4139 
Q 2788 4188 2819 4334 
L 2934 4334 
z
" id="TimesNewRomanPSMT-53" transform="scale(0.015625)"/>
       <path d="M 1338 4006 
L 1338 2331 
L 2269 2331 
Q 2631 2331 2753 2441 
Q 2916 2584 2934 2947 
L 3050 2947 
L 3050 1472 
L 2934 1472 
Q 2891 1781 2847 1869 
Q 2791 1978 2662 2040 
Q 2534 2103 2269 2103 
L 1338 2103 
L 1338 706 
Q 1338 425 1363 364 
Q 1388 303 1450 267 
Q 1513 231 1688 231 
L 2406 231 
Q 2766 231 2928 281 
Q 3091 331 3241 478 
Q 3434 672 3638 1063 
L 3763 1063 
L 3397 0 
L 131 0 
L 131 116 
L 281 116 
Q 431 116 566 188 
Q 666 238 702 338 
Q 738 438 738 747 
L 738 3500 
Q 738 3903 656 3997 
Q 544 4122 281 4122 
L 131 4122 
L 131 4238 
L 3397 4238 
L 3444 3309 
L 3322 3309 
Q 3256 3644 3176 3769 
Q 3097 3894 2941 3959 
Q 2816 4006 2500 4006 
L 1338 4006 
z
" id="TimesNewRomanPSMT-45" transform="scale(0.015625)"/>
      </defs>
      <use xlink:href="#TimesNewRomanPSMT-52"/>
      <use x="66.699219" xlink:href="#TimesNewRomanPSMT-44"/>
      <use x="138.916016" xlink:href="#TimesNewRomanPSMT-53"/>
      <use x="194.53125" xlink:href="#TimesNewRomanPSMT-45"/>
     </g>
    </g>
    <g id="line2d_30">
     <path d="M 174.8 480.860625 
L 266.8 480.860625 
" style="fill:none;stroke:#d95319;stroke-linecap:square;stroke-width:3;"/>
    </g>
    <g id="line2d_31"/>
    <g id="text_16">
     <!-- PPO -->
     <g transform="translate(303.6 496.960625)scale(0.46 -0.46)">
      <defs>
       <path d="M 1313 1984 
L 1313 750 
Q 1313 350 1400 253 
Q 1519 116 1759 116 
L 1922 116 
L 1922 0 
L 106 0 
L 106 116 
L 266 116 
Q 534 116 650 291 
Q 713 388 713 750 
L 713 3488 
Q 713 3888 628 3984 
Q 506 4122 266 4122 
L 106 4122 
L 106 4238 
L 1659 4238 
Q 2228 4238 2556 4120 
Q 2884 4003 3109 3725 
Q 3334 3447 3334 3066 
Q 3334 2547 2992 2222 
Q 2650 1897 2025 1897 
Q 1872 1897 1694 1919 
Q 1516 1941 1313 1984 
z
M 1313 2163 
Q 1478 2131 1606 2115 
Q 1734 2100 1825 2100 
Q 2150 2100 2386 2351 
Q 2622 2603 2622 3003 
Q 2622 3278 2509 3514 
Q 2397 3750 2190 3867 
Q 1984 3984 1722 3984 
Q 1563 3984 1313 3925 
L 1313 2163 
z
" id="TimesNewRomanPSMT-50" transform="scale(0.015625)"/>
       <path d="M 2341 4334 
Q 3166 4334 3770 3707 
Q 4375 3081 4375 2144 
Q 4375 1178 3765 540 
Q 3156 -97 2291 -97 
Q 1416 -97 820 525 
Q 225 1147 225 2134 
Q 225 3144 913 3781 
Q 1509 4334 2341 4334 
z
M 2281 4106 
Q 1713 4106 1369 3684 
Q 941 3159 941 2147 
Q 941 1109 1384 550 
Q 1725 125 2284 125 
Q 2881 125 3270 590 
Q 3659 1056 3659 2059 
Q 3659 3147 3231 3681 
Q 2888 4106 2281 4106 
z
" id="TimesNewRomanPSMT-4f" transform="scale(0.015625)"/>
      </defs>
      <use xlink:href="#TimesNewRomanPSMT-50"/>
      <use x="55.615234" xlink:href="#TimesNewRomanPSMT-50"/>
      <use x="111.230469" xlink:href="#TimesNewRomanPSMT-4f"/>
     </g>
    </g>
    <g id="line2d_32">
     <path d="M 174.8 545.900312 
L 266.8 545.900312 
" style="fill:none;stroke:#a2142f;stroke-linecap:square;stroke-width:3;"/>
    </g>
    <g id="line2d_33"/>
    <g id="text_17">
     <!-- A2C -->
     <g transform="translate(303.6 562.000312)scale(0.46 -0.46)">
      <defs>
       <path d="M 2928 1419 
L 1288 1419 
L 1000 750 
Q 894 503 894 381 
Q 894 284 986 211 
Q 1078 138 1384 116 
L 1384 0 
L 50 0 
L 50 116 
Q 316 163 394 238 
Q 553 388 747 847 
L 2238 4334 
L 2347 4334 
L 3822 809 
Q 4000 384 4145 257 
Q 4291 131 4550 116 
L 4550 0 
L 2878 0 
L 2878 116 
Q 3131 128 3220 200 
Q 3309 272 3309 375 
Q 3309 513 3184 809 
L 2928 1419 
z
M 2841 1650 
L 2122 3363 
L 1384 1650 
L 2841 1650 
z
" id="TimesNewRomanPSMT-41" transform="scale(0.015625)"/>
       <path d="M 3853 4334 
L 3950 2894 
L 3853 2894 
Q 3659 3541 3300 3825 
Q 2941 4109 2438 4109 
Q 2016 4109 1675 3895 
Q 1334 3681 1139 3212 
Q 944 2744 944 2047 
Q 944 1472 1128 1050 
Q 1313 628 1683 403 
Q 2053 178 2528 178 
Q 2941 178 3256 354 
Q 3572 531 3950 1056 
L 4047 994 
Q 3728 428 3303 165 
Q 2878 -97 2294 -97 
Q 1241 -97 663 684 
Q 231 1266 231 2053 
Q 231 2688 515 3219 
Q 800 3750 1298 4042 
Q 1797 4334 2388 4334 
Q 2847 4334 3294 4109 
Q 3425 4041 3481 4041 
Q 3566 4041 3628 4100 
Q 3709 4184 3744 4334 
L 3853 4334 
z
" id="TimesNewRomanPSMT-43" transform="scale(0.015625)"/>
      </defs>
      <use xlink:href="#TimesNewRomanPSMT-41"/>
      <use x="72.216797" xlink:href="#TimesNewRomanPSMT-32"/>
      <use x="122.216797" xlink:href="#TimesNewRomanPSMT-43"/>
     </g>
    </g>
   </g>
  </g>
 </g>
 <defs>
  <clipPath id="p34bb7a35d8">
   <rect height="602.44" width="703.547027" x="133.4" y="10.8"/>
  </clipPath>
 </defs>
</svg>
