<?xml version="1.0" encoding="utf-8" standalone="no"?>
<!DOCTYPE svg PUBLIC "-//W3C//DTD SVG 1.1//EN"
  "http://www.w3.org/Graphics/SVG/1.1/DTD/svg11.dtd">
<svg height="720pt" version="1.1" viewBox="0 0 864 720" width="864pt" xmlns="http://www.w3.org/2000/svg" xmlns:xlink="http://www.w3.org/1999/xlink">
 <metadata>
  <rdf:RDF xmlns:cc="http://creativecommons.org/ns#" xmlns:dc="http://purl.org/dc/elements/1.1/" xmlns:rdf="http://www.w3.org/1999/02/22-rdf-syntax-ns#">
   <cc:Work>
    <dc:type rdf:resource="http://purl.org/dc/dcmitype/StillImage"/>
    <dc:date>2025-02-27T15:33:47.740087</dc:date>
    <dc:format>image/svg+xml</dc:format>
    <dc:creator>
     <cc:Agent>
      <dc:title>Matplotlib v3.4.3, https://matplotlib.org/</dc:title>
     </cc:Agent>
    </dc:creator>
   </cc:Work>
  </rdf:RDF>
 </metadata>
 <defs>
  <style type="text/css">*{stroke-linecap:butt;stroke-linejoin:round;}</style>
 </defs>
 <g id="figure_1">
  <g id="patch_1">
   <path d="M 0 720 
L 864 720 
L 864 0 
L 0 0 
z
" style="fill:#ffffff;"/>
  </g>
  <g id="axes_1">
   <g id="patch_2">
    <path d="M 133.4 613.24 
L 837.556364 613.24 
L 837.556364 10.8 
L 133.4 10.8 
z
" style="fill:#ffffff;"/>
   </g>
   <g id="matplotlib.axis_1">
    <g id="xtick_1">
     <g id="line2d_1">
      <path clip-path="url(#p8fb5853aac)" d="M 165.407107 613.24 
L 165.407107 10.8 
" style="fill:none;stroke:#b0b0b0;stroke-dasharray:2.96,1.28;stroke-dashoffset:0;stroke-opacity:0.5;stroke-width:0.8;"/>
     </g>
     <g id="line2d_2">
      <defs>
       <path d="M 0 0 
L 0 3.5 
" id="macee6213c7" style="stroke:#000000;stroke-width:0.8;"/>
      </defs>
      <g>
       <use style="stroke:#000000;stroke-width:0.8;" x="165.407107" xlink:href="#macee6213c7" y="613.24"/>
      </g>
     </g>
     <g id="text_1">
      <!-- 0 -->
      <g transform="translate(153.907107 652.18125)scale(0.46 -0.46)">
       <defs>
        <path d="M 231 2094 
Q 231 2819 450 3342 
Q 669 3866 1031 4122 
Q 1313 4325 1613 4325 
Q 2100 4325 2488 3828 
Q 2972 3213 2972 2159 
Q 2972 1422 2759 906 
Q 2547 391 2217 158 
Q 1888 -75 1581 -75 
Q 975 -75 572 641 
Q 231 1244 231 2094 
z
M 844 2016 
Q 844 1141 1059 588 
Q 1238 122 1591 122 
Q 1759 122 1940 273 
Q 2122 425 2216 781 
Q 2359 1319 2359 2297 
Q 2359 3022 2209 3506 
Q 2097 3866 1919 4016 
Q 1791 4119 1609 4119 
Q 1397 4119 1231 3928 
Q 1006 3669 925 3112 
Q 844 2556 844 2016 
z
" id="TimesNewRomanPSMT-30" transform="scale(0.015625)"/>
       </defs>
       <use xlink:href="#TimesNewRomanPSMT-30"/>
      </g>
     </g>
    </g>
    <g id="xtick_2">
     <g id="line2d_3">
      <path clip-path="url(#p8fb5853aac)" d="M 293.435537 613.24 
L 293.435537 10.8 
" style="fill:none;stroke:#b0b0b0;stroke-dasharray:2.96,1.28;stroke-dashoffset:0;stroke-opacity:0.5;stroke-width:0.8;"/>
     </g>
     <g id="line2d_4">
      <g>
       <use style="stroke:#000000;stroke-width:0.8;" x="293.435537" xlink:href="#macee6213c7" y="613.24"/>
      </g>
     </g>
     <g id="text_2">
      <!-- 200 -->
      <g transform="translate(258.935537 652.18125)scale(0.46 -0.46)">
       <defs>
        <path d="M 2934 816 
L 2638 0 
L 138 0 
L 138 116 
Q 1241 1122 1691 1759 
Q 2141 2397 2141 2925 
Q 2141 3328 1894 3587 
Q 1647 3847 1303 3847 
Q 991 3847 742 3664 
Q 494 3481 375 3128 
L 259 3128 
Q 338 3706 661 4015 
Q 984 4325 1469 4325 
Q 1984 4325 2329 3994 
Q 2675 3663 2675 3213 
Q 2675 2891 2525 2569 
Q 2294 2063 1775 1497 
Q 997 647 803 472 
L 1909 472 
Q 2247 472 2383 497 
Q 2519 522 2628 598 
Q 2738 675 2819 816 
L 2934 816 
z
" id="TimesNewRomanPSMT-32" transform="scale(0.015625)"/>
       </defs>
       <use xlink:href="#TimesNewRomanPSMT-32"/>
       <use x="50" xlink:href="#TimesNewRomanPSMT-30"/>
       <use x="100" xlink:href="#TimesNewRomanPSMT-30"/>
      </g>
     </g>
    </g>
    <g id="xtick_3">
     <g id="line2d_5">
      <path clip-path="url(#p8fb5853aac)" d="M 421.463967 613.24 
L 421.463967 10.8 
" style="fill:none;stroke:#b0b0b0;stroke-dasharray:2.96,1.28;stroke-dashoffset:0;stroke-opacity:0.5;stroke-width:0.8;"/>
     </g>
     <g id="line2d_6">
      <g>
       <use style="stroke:#000000;stroke-width:0.8;" x="421.463967" xlink:href="#macee6213c7" y="613.24"/>
      </g>
     </g>
     <g id="text_3">
      <!-- 400 -->
      <g transform="translate(386.963967 652.18125)scale(0.46 -0.46)">
       <defs>
        <path d="M 2978 1563 
L 2978 1119 
L 2409 1119 
L 2409 0 
L 1894 0 
L 1894 1119 
L 100 1119 
L 100 1519 
L 2066 4325 
L 2409 4325 
L 2409 1563 
L 2978 1563 
z
M 1894 1563 
L 1894 3666 
L 406 1563 
L 1894 1563 
z
" id="TimesNewRomanPSMT-34" transform="scale(0.015625)"/>
       </defs>
       <use xlink:href="#TimesNewRomanPSMT-34"/>
       <use x="50" xlink:href="#TimesNewRomanPSMT-30"/>
       <use x="100" xlink:href="#TimesNewRomanPSMT-30"/>
      </g>
     </g>
    </g>
    <g id="xtick_4">
     <g id="line2d_7">
      <path clip-path="url(#p8fb5853aac)" d="M 549.492397 613.24 
L 549.492397 10.8 
" style="fill:none;stroke:#b0b0b0;stroke-dasharray:2.96,1.28;stroke-dashoffset:0;stroke-opacity:0.5;stroke-width:0.8;"/>
     </g>
     <g id="line2d_8">
      <g>
       <use style="stroke:#000000;stroke-width:0.8;" x="549.492397" xlink:href="#macee6213c7" y="613.24"/>
      </g>
     </g>
     <g id="text_4">
      <!-- 600 -->
      <g transform="translate(514.992397 652.18125)scale(0.46 -0.46)">
       <defs>
        <path d="M 2869 4325 
L 2869 4209 
Q 2456 4169 2195 4045 
Q 1934 3922 1679 3669 
Q 1425 3416 1258 3105 
Q 1091 2794 978 2366 
Q 1428 2675 1881 2675 
Q 2316 2675 2634 2325 
Q 2953 1975 2953 1425 
Q 2953 894 2631 456 
Q 2244 -75 1606 -75 
Q 1172 -75 869 213 
Q 275 772 275 1663 
Q 275 2231 503 2743 
Q 731 3256 1154 3653 
Q 1578 4050 1965 4187 
Q 2353 4325 2688 4325 
L 2869 4325 
z
M 925 2138 
Q 869 1716 869 1456 
Q 869 1156 980 804 
Q 1091 453 1309 247 
Q 1469 100 1697 100 
Q 1969 100 2183 356 
Q 2397 613 2397 1088 
Q 2397 1622 2184 2012 
Q 1972 2403 1581 2403 
Q 1463 2403 1327 2353 
Q 1191 2303 925 2138 
z
" id="TimesNewRomanPSMT-36" transform="scale(0.015625)"/>
       </defs>
       <use xlink:href="#TimesNewRomanPSMT-36"/>
       <use x="50" xlink:href="#TimesNewRomanPSMT-30"/>
       <use x="100" xlink:href="#TimesNewRomanPSMT-30"/>
      </g>
     </g>
    </g>
    <g id="xtick_5">
     <g id="line2d_9">
      <path clip-path="url(#p8fb5853aac)" d="M 677.520826 613.24 
L 677.520826 10.8 
" style="fill:none;stroke:#b0b0b0;stroke-dasharray:2.96,1.28;stroke-dashoffset:0;stroke-opacity:0.5;stroke-width:0.8;"/>
     </g>
     <g id="line2d_10">
      <g>
       <use style="stroke:#000000;stroke-width:0.8;" x="677.520826" xlink:href="#macee6213c7" y="613.24"/>
      </g>
     </g>
     <g id="text_5">
      <!-- 800 -->
      <g transform="translate(643.020826 652.18125)scale(0.46 -0.46)">
       <defs>
        <path d="M 1228 2134 
Q 725 2547 579 2797 
Q 434 3047 434 3316 
Q 434 3728 753 4026 
Q 1072 4325 1600 4325 
Q 2113 4325 2425 4047 
Q 2738 3769 2738 3413 
Q 2738 3175 2569 2928 
Q 2400 2681 1866 2347 
Q 2416 1922 2594 1678 
Q 2831 1359 2831 1006 
Q 2831 559 2490 242 
Q 2150 -75 1597 -75 
Q 994 -75 656 303 
Q 388 606 388 966 
Q 388 1247 577 1523 
Q 766 1800 1228 2134 
z
M 1719 2469 
Q 2094 2806 2194 3001 
Q 2294 3197 2294 3444 
Q 2294 3772 2109 3958 
Q 1925 4144 1606 4144 
Q 1288 4144 1088 3959 
Q 888 3775 888 3528 
Q 888 3366 970 3203 
Q 1053 3041 1206 2894 
L 1719 2469 
z
M 1375 2016 
Q 1116 1797 991 1539 
Q 866 1281 866 981 
Q 866 578 1086 336 
Q 1306 94 1647 94 
Q 1984 94 2187 284 
Q 2391 475 2391 747 
Q 2391 972 2272 1150 
Q 2050 1481 1375 2016 
z
" id="TimesNewRomanPSMT-38" transform="scale(0.015625)"/>
       </defs>
       <use xlink:href="#TimesNewRomanPSMT-38"/>
       <use x="50" xlink:href="#TimesNewRomanPSMT-30"/>
       <use x="100" xlink:href="#TimesNewRomanPSMT-30"/>
      </g>
     </g>
    </g>
    <g id="xtick_6">
     <g id="line2d_11">
      <path clip-path="url(#p8fb5853aac)" d="M 805.549256 613.24 
L 805.549256 10.8 
" style="fill:none;stroke:#b0b0b0;stroke-dasharray:2.96,1.28;stroke-dashoffset:0;stroke-opacity:0.5;stroke-width:0.8;"/>
     </g>
     <g id="line2d_12">
      <g>
       <use style="stroke:#000000;stroke-width:0.8;" x="805.549256" xlink:href="#macee6213c7" y="613.24"/>
      </g>
     </g>
     <g id="text_6">
      <!-- 1000 -->
      <g transform="translate(759.549256 652.18125)scale(0.46 -0.46)">
       <defs>
        <path d="M 750 3822 
L 1781 4325 
L 1884 4325 
L 1884 747 
Q 1884 391 1914 303 
Q 1944 216 2037 169 
Q 2131 122 2419 116 
L 2419 0 
L 825 0 
L 825 116 
Q 1125 122 1212 167 
Q 1300 213 1334 289 
Q 1369 366 1369 747 
L 1369 3034 
Q 1369 3497 1338 3628 
Q 1316 3728 1258 3775 
Q 1200 3822 1119 3822 
Q 1003 3822 797 3725 
L 750 3822 
z
" id="TimesNewRomanPSMT-31" transform="scale(0.015625)"/>
       </defs>
       <use xlink:href="#TimesNewRomanPSMT-31"/>
       <use x="50" xlink:href="#TimesNewRomanPSMT-30"/>
       <use x="100" xlink:href="#TimesNewRomanPSMT-30"/>
       <use x="150" xlink:href="#TimesNewRomanPSMT-30"/>
      </g>
     </g>
    </g>
    <g id="text_7">
     <!-- episode -->
     <g transform="translate(415.216776 697.962187)scale(0.46 -0.46)">
      <defs>
       <path d="M 681 1784 
Q 678 1147 991 784 
Q 1303 422 1725 422 
Q 2006 422 2214 576 
Q 2422 731 2563 1106 
L 2659 1044 
Q 2594 616 2278 264 
Q 1963 -88 1488 -88 
Q 972 -88 605 314 
Q 238 716 238 1394 
Q 238 2128 614 2539 
Q 991 2950 1559 2950 
Q 2041 2950 2350 2633 
Q 2659 2316 2659 1784 
L 681 1784 
z
M 681 1966 
L 2006 1966 
Q 1991 2241 1941 2353 
Q 1863 2528 1708 2628 
Q 1553 2728 1384 2728 
Q 1125 2728 920 2526 
Q 716 2325 681 1966 
z
" id="TimesNewRomanPSMT-65" transform="scale(0.015625)"/>
       <path d="M -6 2578 
L 875 2934 
L 994 2934 
L 994 2266 
Q 1216 2644 1439 2795 
Q 1663 2947 1909 2947 
Q 2341 2947 2628 2609 
Q 2981 2197 2981 1534 
Q 2981 794 2556 309 
Q 2206 -88 1675 -88 
Q 1444 -88 1275 -22 
Q 1150 25 994 166 
L 994 -706 
Q 994 -1000 1030 -1079 
Q 1066 -1159 1155 -1206 
Q 1244 -1253 1478 -1253 
L 1478 -1369 
L -22 -1369 
L -22 -1253 
L 56 -1253 
Q 228 -1256 350 -1188 
Q 409 -1153 442 -1076 
Q 475 -1000 475 -688 
L 475 2019 
Q 475 2297 450 2372 
Q 425 2447 370 2484 
Q 316 2522 222 2522 
Q 147 2522 31 2478 
L -6 2578 
z
M 994 2081 
L 994 1013 
Q 994 666 1022 556 
Q 1066 375 1236 237 
Q 1406 100 1666 100 
Q 1978 100 2172 344 
Q 2425 663 2425 1241 
Q 2425 1897 2138 2250 
Q 1938 2494 1663 2494 
Q 1513 2494 1366 2419 
Q 1253 2363 994 2081 
z
" id="TimesNewRomanPSMT-70" transform="scale(0.015625)"/>
       <path d="M 928 4444 
Q 1059 4444 1151 4351 
Q 1244 4259 1244 4128 
Q 1244 3997 1151 3903 
Q 1059 3809 928 3809 
Q 797 3809 703 3903 
Q 609 3997 609 4128 
Q 609 4259 701 4351 
Q 794 4444 928 4444 
z
M 1188 2947 
L 1188 647 
Q 1188 378 1227 289 
Q 1266 200 1342 156 
Q 1419 113 1622 113 
L 1622 0 
L 231 0 
L 231 113 
Q 441 113 512 153 
Q 584 194 626 287 
Q 669 381 669 647 
L 669 1750 
Q 669 2216 641 2353 
Q 619 2453 572 2492 
Q 525 2531 444 2531 
Q 356 2531 231 2484 
L 188 2597 
L 1050 2947 
L 1188 2947 
z
" id="TimesNewRomanPSMT-69" transform="scale(0.015625)"/>
       <path d="M 2050 2947 
L 2050 1972 
L 1947 1972 
Q 1828 2431 1642 2597 
Q 1456 2763 1169 2763 
Q 950 2763 815 2647 
Q 681 2531 681 2391 
Q 681 2216 781 2091 
Q 878 1963 1175 1819 
L 1631 1597 
Q 2266 1288 2266 781 
Q 2266 391 1970 151 
Q 1675 -88 1309 -88 
Q 1047 -88 709 6 
Q 606 38 541 38 
Q 469 38 428 -44 
L 325 -44 
L 325 978 
L 428 978 
Q 516 541 762 319 
Q 1009 97 1316 97 
Q 1531 97 1667 223 
Q 1803 350 1803 528 
Q 1803 744 1651 891 
Q 1500 1038 1047 1263 
Q 594 1488 453 1669 
Q 313 1847 313 2119 
Q 313 2472 555 2709 
Q 797 2947 1181 2947 
Q 1350 2947 1591 2875 
Q 1750 2828 1803 2828 
Q 1853 2828 1881 2850 
Q 1909 2872 1947 2947 
L 2050 2947 
z
" id="TimesNewRomanPSMT-73" transform="scale(0.015625)"/>
       <path d="M 1600 2947 
Q 2250 2947 2644 2453 
Q 2978 2031 2978 1484 
Q 2978 1100 2793 706 
Q 2609 313 2286 112 
Q 1963 -88 1566 -88 
Q 919 -88 538 428 
Q 216 863 216 1403 
Q 216 1797 411 2186 
Q 606 2575 925 2761 
Q 1244 2947 1600 2947 
z
M 1503 2744 
Q 1338 2744 1170 2645 
Q 1003 2547 900 2300 
Q 797 2053 797 1666 
Q 797 1041 1045 587 
Q 1294 134 1700 134 
Q 2003 134 2200 384 
Q 2397 634 2397 1244 
Q 2397 2006 2069 2444 
Q 1847 2744 1503 2744 
z
" id="TimesNewRomanPSMT-6f" transform="scale(0.015625)"/>
       <path d="M 2222 322 
Q 2013 103 1813 7 
Q 1613 -88 1381 -88 
Q 913 -88 563 304 
Q 213 697 213 1313 
Q 213 1928 600 2439 
Q 988 2950 1597 2950 
Q 1975 2950 2222 2709 
L 2222 3238 
Q 2222 3728 2198 3840 
Q 2175 3953 2125 3993 
Q 2075 4034 2000 4034 
Q 1919 4034 1784 3984 
L 1744 4094 
L 2597 4444 
L 2738 4444 
L 2738 1134 
Q 2738 631 2761 520 
Q 2784 409 2836 365 
Q 2888 322 2956 322 
Q 3041 322 3181 375 
L 3216 266 
L 2366 -88 
L 2222 -88 
L 2222 322 
z
M 2222 541 
L 2222 2016 
Q 2203 2228 2109 2403 
Q 2016 2578 1861 2667 
Q 1706 2756 1559 2756 
Q 1284 2756 1069 2509 
Q 784 2184 784 1559 
Q 784 928 1059 592 
Q 1334 256 1672 256 
Q 1956 256 2222 541 
z
" id="TimesNewRomanPSMT-64" transform="scale(0.015625)"/>
      </defs>
      <use xlink:href="#TimesNewRomanPSMT-65"/>
      <use x="44.384766" xlink:href="#TimesNewRomanPSMT-70"/>
      <use x="94.384766" xlink:href="#TimesNewRomanPSMT-69"/>
      <use x="122.167969" xlink:href="#TimesNewRomanPSMT-73"/>
      <use x="161.083984" xlink:href="#TimesNewRomanPSMT-6f"/>
      <use x="211.083984" xlink:href="#TimesNewRomanPSMT-64"/>
      <use x="261.083984" xlink:href="#TimesNewRomanPSMT-65"/>
     </g>
    </g>
   </g>
   <g id="matplotlib.axis_2">
    <g id="ytick_1">
     <g id="line2d_13">
      <path clip-path="url(#p8fb5853aac)" d="M 133.4 613.24 
L 837.556364 613.24 
" style="fill:none;stroke:#b0b0b0;stroke-dasharray:2.96,1.28;stroke-dashoffset:0;stroke-opacity:0.5;stroke-width:0.8;"/>
     </g>
     <g id="line2d_14">
      <defs>
       <path d="M 0 0 
L -3.5 0 
" id="m48fa157438" style="stroke:#000000;stroke-width:0.8;"/>
      </defs>
      <g>
       <use style="stroke:#000000;stroke-width:0.8;" x="133.4" xlink:href="#m48fa157438" y="613.24"/>
      </g>
     </g>
     <g id="text_8">
      <!-- 0 -->
      <g transform="translate(103.4 629.210625)scale(0.46 -0.46)">
       <use xlink:href="#TimesNewRomanPSMT-30"/>
      </g>
     </g>
    </g>
    <g id="ytick_2">
     <g id="line2d_15">
      <path clip-path="url(#p8fb5853aac)" d="M 133.4 507.537047 
L 837.556364 507.537047 
" style="fill:none;stroke:#b0b0b0;stroke-dasharray:2.96,1.28;stroke-dashoffset:0;stroke-opacity:0.5;stroke-width:0.8;"/>
     </g>
     <g id="line2d_16">
      <g>
       <use style="stroke:#000000;stroke-width:0.8;" x="133.4" xlink:href="#m48fa157438" y="507.537047"/>
      </g>
     </g>
     <g id="text_9">
      <!-- 20 -->
      <g transform="translate(80.4 523.507672)scale(0.46 -0.46)">
       <use xlink:href="#TimesNewRomanPSMT-32"/>
       <use x="50" xlink:href="#TimesNewRomanPSMT-30"/>
      </g>
     </g>
    </g>
    <g id="ytick_3">
     <g id="line2d_17">
      <path clip-path="url(#p8fb5853aac)" d="M 133.4 401.834095 
L 837.556364 401.834095 
" style="fill:none;stroke:#b0b0b0;stroke-dasharray:2.96,1.28;stroke-dashoffset:0;stroke-opacity:0.5;stroke-width:0.8;"/>
     </g>
     <g id="line2d_18">
      <g>
       <use style="stroke:#000000;stroke-width:0.8;" x="133.4" xlink:href="#m48fa157438" y="401.834095"/>
      </g>
     </g>
     <g id="text_10">
      <!-- 40 -->
      <g transform="translate(80.4 417.80472)scale(0.46 -0.46)">
       <use xlink:href="#TimesNewRomanPSMT-34"/>
       <use x="50" xlink:href="#TimesNewRomanPSMT-30"/>
      </g>
     </g>
    </g>
    <g id="ytick_4">
     <g id="line2d_19">
      <path clip-path="url(#p8fb5853aac)" d="M 133.4 296.131142 
L 837.556364 296.131142 
" style="fill:none;stroke:#b0b0b0;stroke-dasharray:2.96,1.28;stroke-dashoffset:0;stroke-opacity:0.5;stroke-width:0.8;"/>
     </g>
     <g id="line2d_20">
      <g>
       <use style="stroke:#000000;stroke-width:0.8;" x="133.4" xlink:href="#m48fa157438" y="296.131142"/>
      </g>
     </g>
     <g id="text_11">
      <!-- 60 -->
      <g transform="translate(80.4 312.101767)scale(0.46 -0.46)">
       <use xlink:href="#TimesNewRomanPSMT-36"/>
       <use x="50" xlink:href="#TimesNewRomanPSMT-30"/>
      </g>
     </g>
    </g>
    <g id="ytick_5">
     <g id="line2d_21">
      <path clip-path="url(#p8fb5853aac)" d="M 133.4 190.42819 
L 837.556364 190.42819 
" style="fill:none;stroke:#b0b0b0;stroke-dasharray:2.96,1.28;stroke-dashoffset:0;stroke-opacity:0.5;stroke-width:0.8;"/>
     </g>
     <g id="line2d_22">
      <g>
       <use style="stroke:#000000;stroke-width:0.8;" x="133.4" xlink:href="#m48fa157438" y="190.42819"/>
      </g>
     </g>
     <g id="text_12">
      <!-- 80 -->
      <g transform="translate(80.4 206.398815)scale(0.46 -0.46)">
       <use xlink:href="#TimesNewRomanPSMT-38"/>
       <use x="50" xlink:href="#TimesNewRomanPSMT-30"/>
      </g>
     </g>
    </g>
    <g id="ytick_6">
     <g id="line2d_23">
      <path clip-path="url(#p8fb5853aac)" d="M 133.4 84.725237 
L 837.556364 84.725237 
" style="fill:none;stroke:#b0b0b0;stroke-dasharray:2.96,1.28;stroke-dashoffset:0;stroke-opacity:0.5;stroke-width:0.8;"/>
     </g>
     <g id="line2d_24">
      <g>
       <use style="stroke:#000000;stroke-width:0.8;" x="133.4" xlink:href="#m48fa157438" y="84.725237"/>
      </g>
     </g>
     <g id="text_13">
      <!-- 100 -->
      <g transform="translate(57.4 100.695862)scale(0.46 -0.46)">
       <use xlink:href="#TimesNewRomanPSMT-31"/>
       <use x="50" xlink:href="#TimesNewRomanPSMT-30"/>
       <use x="100" xlink:href="#TimesNewRomanPSMT-30"/>
      </g>
     </g>
    </g>
    <g id="text_14">
     <!-- returns -->
     <g transform="translate(43.560313 375.888125)rotate(-90)scale(0.46 -0.46)">
      <defs>
       <path d="M 1038 2947 
L 1038 2303 
Q 1397 2947 1775 2947 
Q 1947 2947 2059 2842 
Q 2172 2738 2172 2600 
Q 2172 2478 2090 2393 
Q 2009 2309 1897 2309 
Q 1788 2309 1652 2417 
Q 1516 2525 1450 2525 
Q 1394 2525 1328 2463 
Q 1188 2334 1038 2041 
L 1038 669 
Q 1038 431 1097 309 
Q 1138 225 1241 169 
Q 1344 113 1538 113 
L 1538 0 
L 72 0 
L 72 113 
Q 291 113 397 181 
Q 475 231 506 341 
Q 522 394 522 644 
L 522 1753 
Q 522 2253 501 2348 
Q 481 2444 426 2487 
Q 372 2531 291 2531 
Q 194 2531 72 2484 
L 41 2597 
L 906 2947 
L 1038 2947 
z
" id="TimesNewRomanPSMT-72" transform="scale(0.015625)"/>
       <path d="M 1031 3803 
L 1031 2863 
L 1700 2863 
L 1700 2644 
L 1031 2644 
L 1031 788 
Q 1031 509 1111 412 
Q 1191 316 1316 316 
Q 1419 316 1516 380 
Q 1613 444 1666 569 
L 1788 569 
Q 1678 263 1478 108 
Q 1278 -47 1066 -47 
Q 922 -47 784 33 
Q 647 113 581 261 
Q 516 409 516 719 
L 516 2644 
L 63 2644 
L 63 2747 
Q 234 2816 414 2980 
Q 594 3144 734 3369 
Q 806 3488 934 3803 
L 1031 3803 
z
" id="TimesNewRomanPSMT-74" transform="scale(0.015625)"/>
       <path d="M 2709 2863 
L 2709 1128 
Q 2709 631 2732 520 
Q 2756 409 2807 365 
Q 2859 322 2928 322 
Q 3025 322 3147 375 
L 3191 266 
L 2334 -88 
L 2194 -88 
L 2194 519 
Q 1825 119 1631 15 
Q 1438 -88 1222 -88 
Q 981 -88 804 51 
Q 628 191 559 409 
Q 491 628 491 1028 
L 491 2306 
Q 491 2509 447 2587 
Q 403 2666 317 2708 
Q 231 2750 6 2747 
L 6 2863 
L 1009 2863 
L 1009 947 
Q 1009 547 1148 422 
Q 1288 297 1484 297 
Q 1619 297 1789 381 
Q 1959 466 2194 703 
L 2194 2325 
Q 2194 2569 2105 2655 
Q 2016 2741 1734 2747 
L 1734 2863 
L 2709 2863 
z
" id="TimesNewRomanPSMT-75" transform="scale(0.015625)"/>
       <path d="M 1034 2341 
Q 1538 2947 1994 2947 
Q 2228 2947 2397 2830 
Q 2566 2713 2666 2444 
Q 2734 2256 2734 1869 
L 2734 647 
Q 2734 375 2778 278 
Q 2813 200 2889 156 
Q 2966 113 3172 113 
L 3172 0 
L 1756 0 
L 1756 113 
L 1816 113 
Q 2016 113 2095 173 
Q 2175 234 2206 353 
Q 2219 400 2219 647 
L 2219 1819 
Q 2219 2209 2117 2386 
Q 2016 2563 1775 2563 
Q 1403 2563 1034 2156 
L 1034 647 
Q 1034 356 1069 288 
Q 1113 197 1189 155 
Q 1266 113 1500 113 
L 1500 0 
L 84 0 
L 84 113 
L 147 113 
Q 366 113 442 223 
Q 519 334 519 647 
L 519 1709 
Q 519 2225 495 2337 
Q 472 2450 423 2490 
Q 375 2531 294 2531 
Q 206 2531 84 2484 
L 38 2597 
L 900 2947 
L 1034 2947 
L 1034 2341 
z
" id="TimesNewRomanPSMT-6e" transform="scale(0.015625)"/>
      </defs>
      <use xlink:href="#TimesNewRomanPSMT-72"/>
      <use x="33.300781" xlink:href="#TimesNewRomanPSMT-65"/>
      <use x="77.685547" xlink:href="#TimesNewRomanPSMT-74"/>
      <use x="105.46875" xlink:href="#TimesNewRomanPSMT-75"/>
      <use x="155.46875" xlink:href="#TimesNewRomanPSMT-72"/>
      <use x="188.769531" xlink:href="#TimesNewRomanPSMT-6e"/>
      <use x="238.769531" xlink:href="#TimesNewRomanPSMT-73"/>
     </g>
    </g>
   </g>
   <g id="line2d_25">
    <path clip-path="url(#p8fb5853aac)" d="M 165.407107 416.087317 
L 167.327534 399.825228 
L 169.24796 385.232672 
L 171.168387 372.207213 
L 173.088813 360.646413 
L 175.00924 350.447836 
L 176.929666 341.509045 
L 178.850093 333.727603 
L 180.770519 327.001074 
L 182.690945 321.22702 
L 184.611372 316.303005 
L 186.531798 312.126592 
L 188.452225 308.595344 
L 190.372651 305.606824 
L 191.012793 304.713552 
L 191.652936 299.067278 
L 192.293078 294.71376 
L 193.573362 293.863725 
L 194.213504 288.209465 
L 194.853646 288.938798 
L 195.493788 285.486552 
L 196.133931 283.111337 
L 196.774073 285.286656 
L 197.414215 284.59422 
L 198.054357 281.775676 
L 198.694499 277.61628 
L 199.334641 274.629476 
L 199.974783 272.568712 
L 200.614926 273.742867 
L 201.255068 274.027082 
L 201.89521 272.950749 
L 202.535352 273.993526 
L 203.175494 279.399157 
L 203.815636 288.961647 
L 205.095921 297.336356 
L 205.736063 303.61921 
L 206.376205 300.733 
L 208.296631 315.30743 
L 208.936774 317.9892 
L 209.576916 322.848267 
L 210.217058 322.569018 
L 210.8572 321.225515 
L 211.497342 320.948727 
L 212.777626 329.954644 
L 213.417769 332.626166 
L 214.057911 334.170972 
L 214.698053 329.658604 
L 215.338195 329.197786 
L 215.978337 324.25337 
L 217.258621 308.880753 
L 217.898764 305.63485 
L 218.538906 307.794199 
L 219.179048 295.565131 
L 219.81919 292.704294 
L 220.459332 292.933054 
L 221.739617 284.005008 
L 222.379759 285.677881 
L 223.019901 284.413103 
L 223.660043 285.723347 
L 224.300185 285.029149 
L 224.940327 282.562026 
L 225.580469 281.239661 
L 226.220612 282.720337 
L 226.860754 283.401014 
L 227.500896 275.828804 
L 228.141038 281.999853 
L 229.421322 274.931754 
L 230.061464 275.176914 
L 230.701607 276.357961 
L 231.341749 278.061761 
L 231.981891 271.554298 
L 232.622033 268.325378 
L 233.262175 261.937128 
L 233.902317 261.534928 
L 234.54246 259.772522 
L 235.182602 263.612178 
L 235.822744 262.259818 
L 236.462886 259.792904 
L 237.103028 255.570887 
L 238.383312 259.841839 
L 239.023455 260.269902 
L 239.663597 258.976652 
L 240.303739 261.704351 
L 240.943881 262.214786 
L 241.584023 255.79205 
L 242.224165 250.60674 
L 243.50445 259.611092 
L 244.144592 262.137416 
L 244.784734 256.983862 
L 245.424876 257.796712 
L 246.065018 259.41875 
L 246.70516 259.362432 
L 247.345302 262.748606 
L 247.985445 264.679074 
L 248.625587 255.992146 
L 249.265729 256.189979 
L 249.905871 259.675082 
L 250.546013 266.425355 
L 251.186155 267.654922 
L 251.826298 271.174564 
L 252.46644 266.591392 
L 253.106582 270.068719 
L 253.746724 274.821944 
L 254.386866 276.795643 
L 255.027008 276.720015 
L 255.66715 268.773297 
L 256.307293 269.516828 
L 256.947435 267.04762 
L 257.587577 267.642647 
L 258.227719 270.013963 
L 259.508003 260.065408 
L 260.148145 257.977262 
L 260.788288 257.685415 
L 261.42843 253.687677 
L 262.068572 253.665095 
L 263.348856 242.609901 
L 263.988998 242.767323 
L 264.62914 236.042123 
L 265.269283 231.792835 
L 265.909425 225.096792 
L 267.189709 218.958305 
L 267.829851 217.583433 
L 268.469993 220.317663 
L 269.110136 220.560258 
L 269.750278 222.866876 
L 270.39042 214.181042 
L 271.030562 215.290348 
L 271.670704 213.718391 
L 272.310846 209.294417 
L 272.950988 207.682754 
L 273.591131 206.495792 
L 274.231273 199.134246 
L 274.871415 195.557912 
L 275.511557 189.955915 
L 276.151699 188.423896 
L 276.791841 180.075631 
L 278.712268 169.595563 
L 279.35241 171.157143 
L 279.992552 165.116755 
L 280.632694 166.877577 
L 281.272836 171.585729 
L 281.912979 172.327288 
L 282.553121 169.570243 
L 283.193263 169.51475 
L 283.833405 172.816535 
L 284.473547 173.453599 
L 285.113689 179.231801 
L 285.753831 178.33955 
L 286.393974 181.898997 
L 287.034116 181.2677 
L 287.674258 179.760364 
L 288.3144 180.626941 
L 288.954542 184.89921 
L 289.594684 184.908124 
L 290.234826 187.486037 
L 290.874969 186.906993 
L 291.515111 188.84117 
L 292.155253 189.535285 
L 292.795395 191.537607 
L 293.435537 199.352957 
L 294.075679 199.24544 
L 294.715821 200.59817 
L 295.355964 199.717318 
L 295.996106 197.608495 
L 296.636248 198.500663 
L 297.27639 195.917996 
L 297.916532 195.668839 
L 298.556674 188.788427 
L 299.836959 186.416107 
L 300.477101 187.992159 
L 301.117243 183.752745 
L 301.757385 178.58018 
L 302.397527 168.892042 
L 303.037669 169.014897 
L 303.677812 169.876034 
L 304.317954 170.196366 
L 304.958096 165.590683 
L 305.598238 162.761846 
L 306.23838 164.850003 
L 306.878522 161.697753 
L 307.518664 164.137646 
L 308.158807 158.42842 
L 308.798949 159.63993 
L 309.439091 153.426095 
L 310.079233 150.138317 
L 310.719375 150.201987 
L 311.359517 151.831902 
L 311.99966 152.692775 
L 312.639802 147.341981 
L 313.279944 147.478116 
L 313.920086 143.60433 
L 314.560228 147.594952 
L 315.20037 149.551061 
L 315.840512 144.097841 
L 317.120797 136.969483 
L 318.401081 138.058882 
L 319.041223 130.71107 
L 319.681365 126.621146 
L 320.321507 117.359892 
L 320.96165 118.53764 
L 321.601792 116.7267 
L 322.241934 116.273417 
L 322.882076 114.007606 
L 323.522218 117.16631 
L 324.802502 107.248502 
L 325.442645 107.975761 
L 326.082787 113.686831 
L 326.722929 114.42411 
L 327.363071 108.747257 
L 328.003213 107.712576 
L 328.643355 109.199342 
L 329.283498 109.492196 
L 330.563782 106.99337 
L 331.203924 108.821441 
L 331.844066 111.89647 
L 332.484208 116.940414 
L 333.12435 117.431027 
L 335.044777 123.796903 
L 335.684919 123.577611 
L 336.325061 126.926229 
L 336.965203 126.431415 
L 337.605345 127.763128 
L 338.245488 126.239814 
L 339.525772 127.722857 
L 340.165914 130.210013 
L 340.806056 129.33933 
L 341.446198 132.822111 
L 342.08634 132.723007 
L 342.726483 134.758299 
L 343.366625 132.15061 
L 344.006767 129.04473 
L 344.646909 126.723754 
L 345.287051 125.057799 
L 345.927193 128.092393 
L 346.567336 122.789147 
L 347.207478 122.68184 
L 347.84762 121.987467 
L 348.487762 125.130094 
L 349.127904 122.621932 
L 349.768046 117.349683 
L 350.408188 120.317152 
L 351.048331 118.410492 
L 351.688473 118.268538 
L 352.328615 117.387245 
L 352.968757 117.805542 
L 353.608899 114.629539 
L 354.249041 116.618695 
L 354.889183 114.807719 
L 355.529326 110.426565 
L 356.169468 109.769959 
L 356.80961 111.611044 
L 357.449752 111.588717 
L 358.089894 108.115748 
L 358.730036 106.315806 
L 359.370179 104.163793 
L 360.010321 106.195339 
L 360.650463 104.535719 
L 361.290605 105.677203 
L 361.930747 105.448079 
L 362.570889 103.116129 
L 363.211031 101.505861 
L 363.851174 100.596644 
L 364.491316 100.496955 
L 365.131458 98.100094 
L 365.7716 97.680359 
L 366.411742 93.813656 
L 367.692026 89.263924 
L 368.332169 92.183447 
L 368.972311 92.502041 
L 370.252595 85.981835 
L 370.892737 88.53656 
L 371.532879 88.911377 
L 372.173021 94.201601 
L 373.453306 89.167612 
L 374.093448 89.637491 
L 374.73359 91.513132 
L 375.373732 88.163753 
L 376.013874 91.734138 
L 376.654017 93.861786 
L 377.294159 93.400723 
L 377.934301 89.533947 
L 378.574443 87.906272 
L 379.214585 92.168656 
L 379.854727 92.757969 
L 380.494869 95.158222 
L 381.135012 99.502115 
L 382.415296 104.728317 
L 383.69558 107.057822 
L 384.335722 106.11199 
L 384.975864 107.132801 
L 385.616007 106.881705 
L 386.256149 107.495148 
L 386.896291 107.496224 
L 387.536433 107.358396 
L 388.176575 106.031724 
L 388.816717 106.856272 
L 389.45686 104.204678 
L 390.097002 104.244171 
L 390.737144 104.030115 
L 391.377286 101.983171 
L 392.017428 105.367426 
L 392.65757 107.030108 
L 393.297712 104.067561 
L 393.937855 102.752199 
L 394.577997 102.944723 
L 395.218139 104.36939 
L 395.858281 104.929617 
L 396.498423 106.993156 
L 397.138565 105.51192 
L 397.778707 101.53176 
L 398.41885 101.423195 
L 399.058992 100.278738 
L 399.699134 101.024779 
L 400.339276 98.133817 
L 400.979418 98.619586 
L 401.61956 102.380549 
L 402.259702 101.36375 
L 402.899845 101.381136 
L 403.539987 97.021841 
L 404.180129 98.683437 
L 404.820271 96.095539 
L 405.460413 97.868054 
L 406.740698 102.981808 
L 407.38084 103.232998 
L 408.020982 105.476804 
L 408.661124 105.17168 
L 409.301266 107.148337 
L 409.941408 108.068909 
L 410.58155 110.028462 
L 411.221693 108.153267 
L 411.861835 110.249526 
L 412.501977 111.572157 
L 413.142119 109.993899 
L 413.782261 109.20228 
L 414.422403 110.503618 
L 415.062545 109.012356 
L 415.702688 108.968068 
L 416.34283 108.556764 
L 416.982972 110.099379 
L 417.623114 108.256912 
L 418.263256 109.384946 
L 418.903398 107.356119 
L 419.54354 106.684694 
L 420.183683 108.452115 
L 420.823825 108.928542 
L 421.463967 107.754728 
L 422.104109 107.478351 
L 422.744251 108.658824 
L 423.384393 109.26221 
L 424.024536 108.596546 
L 424.664678 107.731756 
L 425.30482 108.156847 
L 425.944962 107.080752 
L 426.585104 105.130484 
L 427.225246 104.661778 
L 427.865388 102.435768 
L 428.505531 101.097777 
L 429.145673 99.183658 
L 429.785815 99.82415 
L 430.425957 98.103516 
L 431.066099 97.841881 
L 431.706241 96.592408 
L 432.346383 94.219016 
L 432.986526 93.309389 
L 433.626668 92.672047 
L 434.906952 90.702684 
L 435.547094 89.780663 
L 436.187236 88.626067 
L 437.467521 82.82948 
L 438.107663 81.788458 
L 439.387947 75.734456 
L 440.028089 73.179096 
L 440.668231 69.116615 
L 441.308374 68.439995 
L 441.948516 69.71662 
L 442.588658 69.453661 
L 443.2288 68.843636 
L 444.509084 64.259365 
L 445.149226 63.975253 
L 445.789369 64.4029 
L 446.429511 63.814542 
L 447.069653 62.536305 
L 447.709795 62.29616 
L 448.349937 61.406911 
L 448.990079 60.064867 
L 450.270364 62.904577 
L 450.910506 61.987015 
L 451.550648 62.253793 
L 452.19079 63.246246 
L 452.830932 62.70475 
L 453.471074 63.076949 
L 454.111217 66.701452 
L 454.751359 65.722451 
L 455.391501 67.915291 
L 456.031643 66.344565 
L 456.671785 68.983251 
L 457.311927 70.843275 
L 457.952069 70.505729 
L 458.592212 69.375902 
L 459.232354 73.143247 
L 459.872496 73.871676 
L 460.512638 73.33595 
L 461.15278 72.067781 
L 461.792922 71.971025 
L 462.433064 70.677367 
L 463.073207 73.25627 
L 463.713349 71.295041 
L 464.353491 70.905829 
L 465.633775 74.276897 
L 466.273917 72.88009 
L 466.91406 73.492749 
L 467.554202 74.536743 
L 468.194344 75.919664 
L 468.834486 73.773807 
L 469.474628 76.490552 
L 470.11477 75.917489 
L 470.754912 77.955528 
L 471.395055 78.285327 
L 472.035197 77.885426 
L 472.675339 76.719507 
L 473.315481 76.033449 
L 473.955623 76.205388 
L 474.595765 75.841321 
L 475.235907 73.71798 
L 475.87605 73.667285 
L 476.516192 73.073578 
L 477.156334 71.318966 
L 477.796476 71.096939 
L 478.436618 70.078002 
L 479.07676 70.154026 
L 479.716902 70.405949 
L 480.357045 70.294313 
L 480.997187 71.34383 
L 481.637329 68.778249 
L 482.277471 68.787223 
L 483.557755 65.814679 
L 484.197898 65.694472 
L 484.83804 64.000129 
L 485.478182 63.704117 
L 486.118324 62.825945 
L 486.758466 61.193523 
L 487.398608 60.376441 
L 488.03875 58.744422 
L 488.678893 59.103169 
L 489.319035 60.322171 
L 489.959177 58.537044 
L 490.599319 59.596018 
L 491.239461 59.701237 
L 491.879603 60.317257 
L 493.159888 60.374556 
L 493.80003 59.890123 
L 495.080314 59.467456 
L 495.720456 58.493753 
L 497.00074 62.517953 
L 497.640883 62.758227 
L 498.281025 61.133445 
L 498.921167 61.993961 
L 499.561309 62.288761 
L 500.201451 61.322627 
L 500.841593 62.578269 
L 501.481736 62.183292 
L 502.121878 63.673638 
L 502.76202 64.569111 
L 503.402162 63.477022 
L 504.682446 63.164578 
L 505.322588 64.763138 
L 505.962731 63.991211 
L 506.602873 64.991582 
L 507.243015 64.349168 
L 507.883157 65.648068 
L 508.523299 64.809377 
L 509.163441 65.019575 
L 509.803583 64.798964 
L 510.443726 64.976171 
L 511.083868 64.563305 
L 511.72401 62.942804 
L 512.364152 63.541189 
L 513.004294 64.814059 
L 513.644436 65.071554 
L 514.284579 64.940013 
L 514.924721 65.303428 
L 515.564863 65.308743 
L 516.205005 63.353727 
L 516.845147 62.650807 
L 517.485289 62.712328 
L 518.125431 63.052137 
L 518.765574 64.731752 
L 519.405716 62.759041 
L 520.686 62.231215 
L 521.326142 62.056232 
L 521.966284 60.634856 
L 522.606426 61.364108 
L 523.246569 60.887608 
L 523.886711 59.149846 
L 524.526853 60.235038 
L 525.166995 61.924388 
L 525.807137 61.514843 
L 526.447279 60.416817 
L 527.087421 60.847444 
L 528.367706 61.233229 
L 529.007848 62.128114 
L 529.64799 61.915159 
L 530.288132 62.864735 
L 530.928274 61.669736 
L 531.568417 61.833975 
L 532.208559 61.098868 
L 532.848701 59.201574 
L 534.128985 60.024247 
L 534.769127 59.794421 
L 535.409269 60.714184 
L 536.049412 60.842212 
L 536.689554 62.313105 
L 537.329696 61.064083 
L 537.969838 60.33747 
L 538.60998 61.312298 
L 540.530407 64.925757 
L 541.170549 64.302271 
L 541.810691 65.311148 
L 542.450833 64.605584 
L 543.090975 65.640242 
L 543.731117 66.082068 
L 544.37126 65.668879 
L 545.011402 65.620614 
L 545.651544 63.966025 
L 546.291686 64.137643 
L 546.931828 63.912143 
L 547.57197 65.719231 
L 548.212112 65.730757 
L 548.852255 64.72626 
L 549.492397 64.03705 
L 550.132539 63.649445 
L 550.772681 62.705839 
L 551.412823 63.212079 
L 552.052965 64.356495 
L 553.33325 65.321851 
L 553.973392 64.412423 
L 555.253676 65.823577 
L 555.893818 65.135733 
L 556.53396 63.864672 
L 557.174102 63.682201 
L 557.814245 62.58384 
L 558.454387 61.898769 
L 559.094529 62.346137 
L 559.734671 61.511127 
L 560.374813 61.579501 
L 561.014955 59.341923 
L 561.655098 58.242002 
L 562.29524 57.432739 
L 562.935382 55.81387 
L 563.575524 57.278622 
L 564.215666 56.810685 
L 564.855808 55.326612 
L 565.49595 55.50039 
L 566.136093 53.673905 
L 566.776235 52.305324 
L 567.416377 52.201028 
L 568.056519 51.848783 
L 568.696661 51.997992 
L 569.336803 52.65769 
L 569.976945 53.153556 
L 570.617088 52.470998 
L 571.25723 53.995952 
L 571.897372 52.363165 
L 572.537514 53.907688 
L 573.177656 53.311824 
L 573.817798 53.039701 
L 574.45794 51.594691 
L 575.098083 52.284127 
L 575.738225 53.18441 
L 576.378367 52.706732 
L 577.018509 52.663868 
L 577.658651 53.501182 
L 578.298793 53.427072 
L 578.938936 55.154311 
L 579.579078 54.428715 
L 580.21922 53.368423 
L 580.859362 51.943777 
L 582.139646 52.799341 
L 582.779788 52.758044 
L 583.419931 53.898797 
L 584.060073 54.64282 
L 584.700215 56.084487 
L 585.340357 56.564856 
L 585.980499 56.703999 
L 586.620641 58.375828 
L 587.260783 58.908899 
L 587.900926 59.60051 
L 588.541068 60.673789 
L 589.18121 62.194996 
L 589.821352 64.467968 
L 590.461494 63.907462 
L 591.101636 63.518027 
L 591.741779 63.671041 
L 592.381921 63.609045 
L 593.022063 65.694711 
L 593.662205 65.984362 
L 594.942489 67.265838 
L 595.582631 66.285949 
L 596.222774 68.406622 
L 596.862916 70.974747 
L 597.503058 72.456656 
L 598.1432 71.158037 
L 598.783342 72.489221 
L 599.423484 71.54489 
L 600.063626 71.90204 
L 600.703769 71.895374 
L 601.343911 72.568387 
L 601.984053 73.423955 
L 602.624195 73.043494 
L 603.264337 73.520922 
L 603.904479 74.233359 
L 604.544621 73.34721 
L 605.184764 72.96193 
L 605.824906 72.835046 
L 606.465048 72.281964 
L 607.10519 70.799015 
L 607.745332 70.050434 
L 608.385474 70.421029 
L 609.025617 69.75816 
L 609.665759 68.111491 
L 610.305901 68.007941 
L 610.946043 67.465084 
L 611.586185 65.420961 
L 612.226327 65.11778 
L 612.866469 66.274646 
L 614.146754 65.80387 
L 614.786896 64.985008 
L 615.427038 64.415987 
L 616.06718 64.156748 
L 616.707322 64.986829 
L 617.347464 63.351052 
L 617.987607 63.698246 
L 618.627749 63.235211 
L 619.267891 61.569786 
L 619.908033 62.575625 
L 620.548175 61.927614 
L 621.188317 60.169356 
L 621.82846 58.909971 
L 622.468602 58.206798 
L 623.108744 56.424166 
L 624.389028 54.467404 
L 625.02917 54.515657 
L 625.669312 55.406588 
L 626.309455 55.811297 
L 626.949597 56.625176 
L 627.589739 56.166983 
L 628.229881 54.873622 
L 628.870023 54.13708 
L 629.510165 54.113575 
L 630.150307 53.681545 
L 630.79045 52.779549 
L 632.070734 53.221856 
L 632.710876 54.403378 
L 633.351018 54.79092 
L 633.99116 55.698868 
L 634.631302 56.046657 
L 635.271445 55.864376 
L 635.911587 56.00815 
L 636.551729 55.630866 
L 637.191871 56.606056 
L 637.832013 56.673382 
L 638.472155 57.273794 
L 639.112298 57.613582 
L 639.75244 58.809211 
L 640.392582 58.167156 
L 641.032724 58.450726 
L 641.672866 58.233373 
L 642.313008 59.81241 
L 642.95315 62.107438 
L 643.593293 61.96323 
L 644.233435 63.84003 
L 644.873577 63.45323 
L 645.513719 63.267971 
L 646.153861 63.749028 
L 646.794003 64.827073 
L 647.434145 66.278845 
L 648.074288 67.352785 
L 648.71443 66.257795 
L 649.354572 66.725954 
L 649.994714 68.086877 
L 650.634856 68.222292 
L 651.274998 68.739715 
L 651.91514 69.922916 
L 652.555283 70.150294 
L 653.195425 71.412884 
L 653.835567 71.564208 
L 654.475709 71.884712 
L 655.115851 71.497939 
L 655.755993 70.222867 
L 656.396136 71.158037 
L 657.036278 72.833506 
L 657.67642 72.401974 
L 658.316562 72.987802 
L 658.956704 72.783733 
L 659.596846 73.713028 
L 660.236988 74.228101 
L 660.877131 73.386284 
L 661.517273 74.953071 
L 662.797557 72.442831 
L 663.437699 72.967449 
L 664.077841 72.301465 
L 664.717983 72.635486 
L 665.358126 72.715806 
L 665.998268 73.967738 
L 666.63841 74.359727 
L 667.278552 74.308844 
L 667.918694 75.032558 
L 668.558836 74.317197 
L 669.839121 71.427976 
L 670.479263 71.212509 
L 671.119405 71.633434 
L 671.759547 71.011558 
L 672.399689 69.646199 
L 673.039831 69.968342 
L 673.679974 69.631673 
L 674.320116 68.18851 
L 674.960258 67.344829 
L 675.6004 68.656044 
L 676.240542 68.467595 
L 676.880684 67.022756 
L 677.520826 66.427225 
L 678.801111 63.007268 
L 679.441253 63.755609 
L 680.081395 63.225222 
L 680.721537 63.355712 
L 681.361679 62.523949 
L 682.001821 63.108732 
L 682.641964 62.866376 
L 683.282106 61.398516 
L 683.922248 62.538464 
L 684.56239 62.433999 
L 685.202532 61.176709 
L 685.842674 60.234196 
L 686.482817 60.724091 
L 687.122959 59.601872 
L 687.763101 60.190831 
L 688.403243 59.998293 
L 689.043385 59.617265 
L 689.683527 59.096174 
L 690.323669 56.911706 
L 690.963812 58.051175 
L 691.603954 58.859383 
L 692.244096 58.890694 
L 692.884238 58.564231 
L 693.52438 57.943249 
L 694.164522 56.695719 
L 694.804664 55.939027 
L 695.444807 57.319853 
L 696.084949 57.377258 
L 696.725091 58.20607 
L 697.365233 58.542174 
L 698.005375 58.134095 
L 698.645517 58.512253 
L 699.28566 58.740637 
L 699.925802 58.303059 
L 700.565944 57.711125 
L 701.846228 57.922666 
L 702.48637 58.685123 
L 703.126512 59.151534 
L 703.766655 58.065638 
L 704.406797 60.033027 
L 705.046939 58.972079 
L 705.687081 58.368668 
L 706.327223 58.957837 
L 706.967365 58.981186 
L 707.607507 59.6538 
L 708.24765 59.834614 
L 709.527934 59.612067 
L 710.168076 58.719569 
L 712.088502 60.760014 
L 712.728645 61.812348 
L 713.368787 60.714447 
L 714.008929 61.03587 
L 714.649071 61.014148 
L 715.929355 64.171936 
L 716.569498 63.929296 
L 717.20964 64.190405 
L 717.849782 64.070271 
L 718.489924 64.338583 
L 719.130066 62.482633 
L 719.770208 62.189202 
L 720.41035 60.724151 
L 721.050493 60.452232 
L 721.690635 61.271421 
L 722.330777 59.440988 
L 722.970919 59.588932 
L 723.611061 58.873868 
L 724.251203 59.238668 
L 724.891345 58.05621 
L 725.531488 57.363203 
L 726.811772 58.131914 
L 727.451914 57.632362 
L 728.092056 56.780858 
L 728.732198 55.476025 
L 729.37234 54.857537 
L 730.012483 56.128263 
L 730.652625 56.677668 
L 731.292767 55.300269 
L 731.932909 55.616834 
L 733.213193 53.092947 
L 734.493478 51.444969 
L 735.13362 50.823734 
L 735.773762 48.78276 
L 736.413904 47.30004 
L 737.054046 46.376097 
L 737.694188 45.895241 
L 738.334331 44.712284 
L 738.974473 44.068962 
L 739.614615 43.093065 
L 740.254757 43.152797 
L 740.894899 42.20829 
L 741.535041 43.891219 
L 742.175183 44.337125 
L 742.815326 43.273844 
L 744.09561 42.581822 
L 744.735752 42.466404 
L 745.375894 43.525131 
L 746.016036 44.818962 
L 746.656179 46.70337 
L 747.296321 47.519661 
L 747.936463 47.077672 
L 748.576605 46.215168 
L 749.856889 47.883061 
L 750.497031 46.881062 
L 751.137174 46.283516 
L 751.777316 45.225054 
L 752.417458 45.940189 
L 753.0576 47.013182 
L 753.697742 47.60387 
L 755.618169 52.633462 
L 756.898453 53.974114 
L 758.178737 55.89951 
L 758.818879 56.843322 
L 759.459021 57.045094 
L 760.099164 58.427951 
L 760.739306 58.617197 
L 761.379448 59.884169 
L 762.01959 59.792793 
L 762.659732 60.70166 
L 763.299874 61.076511 
L 763.940017 61.84641 
L 764.580159 60.658518 
L 765.220301 61.442254 
L 765.860443 61.852113 
L 766.500585 64.259649 
L 767.140727 65.639214 
L 767.780869 64.889943 
L 768.421012 64.670695 
L 769.061154 65.516255 
L 769.701296 63.989122 
L 770.341438 63.07409 
L 770.98158 64.006088 
L 771.621722 63.350773 
L 772.902007 63.406871 
L 773.542149 64.554032 
L 774.182291 66.546513 
L 774.822433 66.240002 
L 775.462575 64.976506 
L 776.102717 65.702742 
L 776.74286 65.550529 
L 777.383002 65.215674 
L 778.023144 66.332025 
L 778.663286 65.367027 
L 779.94357 64.323232 
L 784.424565 61.107557 
L 786.344992 59.9689 
L 788.265418 59.109603 
L 789.545702 58.738317 
L 790.825987 58.560763 
L 792.106271 58.604768 
L 793.386555 58.898161 
L 794.66684 59.468771 
L 795.947124 60.344425 
L 797.227408 61.552953 
L 798.507693 63.122184 
L 799.787977 65.079945 
L 801.068261 67.454066 
L 802.348545 70.272375 
L 803.62883 73.562701 
L 804.909114 77.352871 
L 804.909114 77.352871 
" style="fill:none;stroke:#7e2f8e;stroke-linecap:square;stroke-width:3;"/>
   </g>
   <g id="line2d_26">
    <path clip-path="url(#p8fb5853aac)" d="M 165.407107 190.030458 
L 167.327534 170.995991 
L 169.24796 154.315248 
L 171.168387 139.845957 
L 173.088813 127.445843 
L 175.00924 116.972634 
L 176.289524 110.990739 
L 177.569808 105.759858 
L 178.850093 101.237838 
L 180.130377 97.382522 
L 181.410661 94.151756 
L 182.690945 91.503384 
L 183.97123 89.395253 
L 185.251514 87.785206 
L 186.531798 86.631089 
L 187.812083 85.890748 
L 189.092367 85.522025 
L 190.372651 85.482768 
L 191.012793 85.573516 
L 191.652936 86.100404 
L 192.293078 79.367455 
L 192.93322 82.807443 
L 193.573362 81.704808 
L 194.213504 80.991983 
L 194.853646 83.435807 
L 195.493788 89.163144 
L 196.133931 88.814746 
L 196.774073 86.872358 
L 197.414215 85.779809 
L 198.054357 94.84688 
L 198.694499 93.734205 
L 199.334641 101.442839 
L 199.974783 103.324625 
L 200.614926 100.36668 
L 201.255068 99.914765 
L 201.89521 100.291175 
L 202.535352 98.00466 
L 203.175494 97.957712 
L 203.815636 93.312796 
L 205.095921 86.170362 
L 205.736063 90.739397 
L 206.376205 91.581516 
L 207.016347 85.607174 
L 208.296631 85.767309 
L 208.936774 83.918413 
L 209.576916 80.142909 
L 210.217058 83.216633 
L 210.8572 84.045732 
L 211.497342 82.719897 
L 212.137484 87.134203 
L 212.777626 87.762015 
L 213.417769 85.518328 
L 214.057911 86.113129 
L 214.698053 84.336916 
L 215.338195 85.355904 
L 215.978337 82.401249 
L 216.618479 77.737633 
L 217.258621 76.207568 
L 217.898764 75.535806 
L 218.538906 74.352422 
L 219.179048 73.623549 
L 219.81919 74.918199 
L 220.459332 73.768081 
L 221.739617 69.664485 
L 222.379759 67.134503 
L 223.019901 67.910105 
L 223.660043 63.485662 
L 224.300185 61.187221 
L 224.940327 63.18698 
L 225.580469 60.434983 
L 226.220612 62.200426 
L 226.860754 63.161952 
L 227.500896 62.573742 
L 228.141038 61.35234 
L 228.78118 66.687477 
L 229.421322 67.801494 
L 230.061464 65.437789 
L 230.701607 66.334635 
L 231.341749 72.474558 
L 231.981891 70.59521 
L 232.622033 68.159636 
L 233.262175 68.585171 
L 233.902317 67.792821 
L 234.54246 67.223578 
L 235.822744 74.321012 
L 236.462886 73.631801 
L 237.103028 77.510756 
L 237.74317 78.898346 
L 238.383312 79.02732 
L 239.023455 82.026918 
L 239.663597 77.372996 
L 240.303739 77.956564 
L 240.943881 81.29394 
L 241.584023 85.30419 
L 242.224165 88.414884 
L 242.864307 88.28784 
L 243.50445 94.050598 
L 244.144592 92.662451 
L 244.784734 94.614746 
L 245.424876 93.852306 
L 246.065018 94.825021 
L 246.70516 94.231879 
L 247.345302 92.000323 
L 247.985445 93.912866 
L 248.625587 95.411215 
L 249.265729 98.484564 
L 249.905871 94.510326 
L 250.546013 95.105771 
L 251.186155 92.356657 
L 251.826298 90.710038 
L 252.46644 88.125815 
L 253.746724 85.906917 
L 254.386866 89.232145 
L 255.027008 93.729072 
L 256.307293 94.829902 
L 256.947435 98.956671 
L 257.587577 94.14316 
L 258.227719 91.784312 
L 258.867861 91.674004 
L 259.508003 86.220197 
L 260.148145 82.176359 
L 260.788288 85.697613 
L 261.42843 85.588722 
L 262.068572 81.192641 
L 262.708714 78.206355 
L 263.348856 77.111394 
L 263.988998 70.795097 
L 264.62914 72.566714 
L 265.269283 75.83022 
L 265.909425 78.455027 
L 266.549567 79.637964 
L 267.189709 83.031765 
L 267.829851 79.322313 
L 268.469993 76.474771 
L 269.110136 78.003108 
L 270.39042 70.960611 
L 271.030562 74.144482 
L 271.670704 66.186754 
L 272.310846 63.446048 
L 273.591131 57.295385 
L 274.231273 56.240832 
L 275.511557 52.148735 
L 276.151699 51.588245 
L 276.791841 49.584583 
L 277.431983 51.846621 
L 278.072126 52.358508 
L 278.712268 47.682114 
L 279.35241 49.937255 
L 279.992552 56.795656 
L 280.632694 54.106599 
L 281.272836 52.327376 
L 281.912979 53.577552 
L 282.553121 56.018778 
L 283.193263 50.433764 
L 283.833405 54.660732 
L 284.473547 56.503211 
L 285.753831 60.913713 
L 286.393974 65.189104 
L 287.034116 66.506746 
L 287.674258 64.624897 
L 288.3144 70.968145 
L 288.954542 69.198979 
L 289.594684 70.896646 
L 290.234826 73.300325 
L 290.874969 72.769384 
L 291.515111 79.902283 
L 292.155253 81.080226 
L 292.795395 81.762732 
L 293.435537 81.120847 
L 294.075679 77.658311 
L 294.715821 79.343878 
L 295.355964 72.274363 
L 295.996106 74.210261 
L 296.636248 69.620831 
L 297.27639 74.837404 
L 297.916532 77.152985 
L 298.556674 78.189069 
L 299.196817 77.172108 
L 299.836959 79.039741 
L 300.477101 81.26418 
L 301.117243 85.38292 
L 301.757385 85.01027 
L 302.397527 83.297059 
L 303.037669 80.533071 
L 303.677812 80.586909 
L 304.317954 81.386407 
L 304.958096 80.401938 
L 305.598238 81.603803 
L 306.878522 74.87099 
L 307.518664 77.273689 
L 308.158807 77.516919 
L 308.798949 72.132419 
L 309.439091 74.005644 
L 310.079233 73.107911 
L 310.719375 74.003442 
L 311.359517 78.786888 
L 311.99966 86.212848 
L 312.639802 83.954055 
L 313.279944 85.20965 
L 313.920086 84.332419 
L 314.560228 87.880401 
L 315.20037 87.378026 
L 315.840512 90.204808 
L 316.480655 87.830573 
L 317.120797 88.427024 
L 319.041223 72.798862 
L 319.681365 71.927774 
L 320.321507 71.981478 
L 320.96165 70.796684 
L 321.601792 67.816949 
L 322.241934 68.70195 
L 322.882076 60.780946 
L 323.522218 62.498155 
L 324.16236 56.853427 
L 324.802502 56.574864 
L 325.442645 52.584373 
L 326.722929 48.394442 
L 327.363071 51.361213 
L 328.003213 51.068331 
L 328.643355 59.19306 
L 329.283498 60.01175 
L 329.92364 59.329623 
L 330.563782 61.672245 
L 331.203924 65.49284 
L 331.844066 57.984089 
L 332.484208 55.23062 
L 333.12435 50.612668 
L 333.764493 51.697691 
L 334.404635 52.159673 
L 335.044777 52.225604 
L 335.684919 49.139976 
L 336.325061 51.178798 
L 336.965203 56.511685 
L 337.605345 60.18141 
L 338.245488 59.829981 
L 338.88563 57.31853 
L 339.525772 57.426231 
L 340.806056 50.821765 
L 342.08634 47.521615 
L 342.726483 44.109655 
L 343.366625 39.706387 
L 344.006767 38.392118 
L 344.646909 36.596491 
L 345.287051 32.166298 
L 345.927193 34.257633 
L 346.567336 32.777308 
L 347.207478 33.065103 
L 347.84762 32.083711 
L 348.487762 33.867797 
L 349.127904 36.713889 
L 349.768046 35.876911 
L 350.408188 34.703622 
L 351.048331 35.316174 
L 351.688473 34.956781 
L 352.328615 36.503962 
L 352.968757 31.28181 
L 353.608899 30.099396 
L 354.249041 31.54666 
L 354.889183 32.399323 
L 355.529326 33.518371 
L 356.169468 34.088881 
L 356.80961 34.374601 
L 357.449752 36.628663 
L 358.089894 39.979164 
L 358.730036 41.181036 
L 359.370179 38.845385 
L 360.010321 39.213642 
L 361.930747 47.960481 
L 362.570889 48.945211 
L 363.211031 49.230473 
L 363.851174 46.563532 
L 364.491316 45.51215 
L 365.131458 47.119973 
L 365.7716 50.099029 
L 366.411742 50.845943 
L 367.051884 55.020509 
L 368.332169 56.553235 
L 368.972311 55.957227 
L 369.612453 56.433905 
L 370.252595 57.897707 
L 370.892737 57.366398 
L 371.532879 59.220247 
L 372.173021 59.209796 
L 372.813164 56.228403 
L 373.453306 57.991432 
L 374.093448 55.856926 
L 374.73359 57.294751 
L 375.373732 56.737325 
L 376.013874 60.934335 
L 376.654017 62.783274 
L 377.294159 66.706957 
L 377.934301 68.683104 
L 378.574443 71.433006 
L 379.214585 71.978221 
L 379.854727 75.88696 
L 381.135012 69.585615 
L 381.775154 71.311054 
L 382.415296 71.819787 
L 383.055438 67.915168 
L 383.69558 67.477528 
L 384.335722 69.369013 
L 384.975864 72.86819 
L 385.616007 74.141968 
L 386.256149 73.947528 
L 386.896291 75.531017 
L 388.176575 77.398715 
L 389.45686 68.997202 
L 390.097002 68.198331 
L 390.737144 68.71009 
L 391.377286 66.209026 
L 392.017428 64.45894 
L 392.65757 64.92949 
L 393.297712 64.265867 
L 393.937855 62.483321 
L 394.577997 64.041916 
L 395.218139 62.501824 
L 395.858281 61.839154 
L 396.498423 61.423056 
L 397.138565 62.897448 
L 397.778707 61.995496 
L 398.41885 62.002642 
L 399.058992 62.256828 
L 399.699134 64.134687 
L 400.339276 64.697042 
L 400.979418 59.772021 
L 401.61956 60.909483 
L 402.259702 63.600923 
L 402.899845 64.10889 
L 404.180129 62.950437 
L 404.820271 63.69584 
L 405.460413 64.073826 
L 406.100555 62.867106 
L 406.740698 63.958117 
L 408.020982 61.253293 
L 408.661124 61.757282 
L 409.301266 61.380183 
L 409.941408 60.617471 
L 410.58155 61.474592 
L 411.221693 61.025011 
L 411.861835 61.354373 
L 412.501977 61.389924 
L 413.142119 59.689697 
L 413.782261 59.63767 
L 414.422403 60.607608 
L 415.702688 59.372976 
L 416.34283 60.035435 
L 416.982972 60.40751 
L 417.623114 58.995386 
L 418.263256 58.842571 
L 418.903398 57.671046 
L 419.54354 57.917529 
L 420.183683 58.354476 
L 420.823825 59.056405 
L 420.823825 59.056405 
" style="fill:none;stroke:#a2142f;stroke-linecap:square;stroke-width:3;"/>
   </g>
   <g id="line2d_27">
    <path clip-path="url(#p8fb5853aac)" d="M 421.463967 60.942073 
L 804.909114 60.942073 
L 804.909114 60.942073 
" style="fill:none;stroke:#a2142f;stroke-dasharray:14.8,6.4;stroke-dashoffset:0;stroke-width:4;"/>
   </g>
   <g id="line2d_28">
    <path clip-path="url(#p8fb5853aac)" d="M 165.407107 188.842646 
L 805.549256 188.842646 
L 805.549256 188.842646 
" style="fill:none;stroke:#d95319;stroke-dasharray:14.8,6.4;stroke-dashoffset:0;stroke-width:4;"/>
   </g>
   <g id="patch_3">
    <path d="M 133.4 613.24 
L 133.4 10.8 
" style="fill:none;stroke:#000000;stroke-linecap:square;stroke-linejoin:miter;stroke-width:0.8;"/>
   </g>
   <g id="patch_4">
    <path d="M 837.556364 613.24 
L 837.556364 10.8 
" style="fill:none;stroke:#000000;stroke-linecap:square;stroke-linejoin:miter;stroke-width:0.8;"/>
   </g>
   <g id="patch_5">
    <path d="M 133.4 613.24 
L 837.556364 613.24 
" style="fill:none;stroke:#000000;stroke-linecap:square;stroke-linejoin:miter;stroke-width:0.8;"/>
   </g>
   <g id="patch_6">
    <path d="M 133.4 10.8 
L 837.556364 10.8 
" style="fill:none;stroke:#000000;stroke-linecap:square;stroke-linejoin:miter;stroke-width:0.8;"/>
   </g>
   <g id="legend_1">
    <g id="line2d_29">
     <path d="M 494.899489 415.820937 
L 586.899489 415.820937 
" style="fill:none;stroke:#7e2f8e;stroke-linecap:square;stroke-width:3;"/>
    </g>
    <g id="line2d_30"/>
    <g id="text_15">
     <!-- RDSE -->
     <g transform="translate(623.699489 431.920937)scale(0.46 -0.46)">
      <defs>
       <path d="M 4325 0 
L 3194 0 
L 1759 1981 
Q 1600 1975 1500 1975 
Q 1459 1975 1412 1976 
Q 1366 1978 1316 1981 
L 1316 750 
Q 1316 350 1403 253 
Q 1522 116 1759 116 
L 1925 116 
L 1925 0 
L 109 0 
L 109 116 
L 269 116 
Q 538 116 653 291 
Q 719 388 719 750 
L 719 3488 
Q 719 3888 631 3984 
Q 509 4122 269 4122 
L 109 4122 
L 109 4238 
L 1653 4238 
Q 2328 4238 2648 4139 
Q 2969 4041 3192 3777 
Q 3416 3513 3416 3147 
Q 3416 2756 3161 2468 
Q 2906 2181 2372 2063 
L 3247 847 
Q 3547 428 3762 290 
Q 3978 153 4325 116 
L 4325 0 
z
M 1316 2178 
Q 1375 2178 1419 2176 
Q 1463 2175 1491 2175 
Q 2097 2175 2405 2437 
Q 2713 2700 2713 3106 
Q 2713 3503 2464 3751 
Q 2216 4000 1806 4000 
Q 1625 4000 1316 3941 
L 1316 2178 
z
" id="TimesNewRomanPSMT-52" transform="scale(0.015625)"/>
       <path d="M 109 0 
L 109 116 
L 269 116 
Q 538 116 650 288 
Q 719 391 719 750 
L 719 3488 
Q 719 3884 631 3984 
Q 509 4122 269 4122 
L 109 4122 
L 109 4238 
L 1834 4238 
Q 2784 4238 3279 4022 
Q 3775 3806 4076 3303 
Q 4378 2800 4378 2141 
Q 4378 1256 3841 663 
Q 3238 0 2003 0 
L 109 0 
z
M 1319 306 
Q 1716 219 1984 219 
Q 2709 219 3187 728 
Q 3666 1238 3666 2109 
Q 3666 2988 3187 3494 
Q 2709 4000 1959 4000 
Q 1678 4000 1319 3909 
L 1319 306 
z
" id="TimesNewRomanPSMT-44" transform="scale(0.015625)"/>
       <path d="M 2934 4334 
L 2934 2869 
L 2819 2869 
Q 2763 3291 2617 3541 
Q 2472 3791 2203 3937 
Q 1934 4084 1647 4084 
Q 1322 4084 1109 3886 
Q 897 3688 897 3434 
Q 897 3241 1031 3081 
Q 1225 2847 1953 2456 
Q 2547 2138 2764 1967 
Q 2981 1797 3098 1565 
Q 3216 1334 3216 1081 
Q 3216 600 2842 251 
Q 2469 -97 1881 -97 
Q 1697 -97 1534 -69 
Q 1438 -53 1133 45 
Q 828 144 747 144 
Q 669 144 623 97 
Q 578 50 556 -97 
L 441 -97 
L 441 1356 
L 556 1356 
Q 638 900 775 673 
Q 913 447 1195 297 
Q 1478 147 1816 147 
Q 2206 147 2432 353 
Q 2659 559 2659 841 
Q 2659 997 2573 1156 
Q 2488 1316 2306 1453 
Q 2184 1547 1640 1851 
Q 1097 2156 867 2337 
Q 638 2519 519 2737 
Q 400 2956 400 3219 
Q 400 3675 750 4004 
Q 1100 4334 1641 4334 
Q 1978 4334 2356 4169 
Q 2531 4091 2603 4091 
Q 2684 4091 2736 4139 
Q 2788 4188 2819 4334 
L 2934 4334 
z
" id="TimesNewRomanPSMT-53" transform="scale(0.015625)"/>
       <path d="M 1338 4006 
L 1338 2331 
L 2269 2331 
Q 2631 2331 2753 2441 
Q 2916 2584 2934 2947 
L 3050 2947 
L 3050 1472 
L 2934 1472 
Q 2891 1781 2847 1869 
Q 2791 1978 2662 2040 
Q 2534 2103 2269 2103 
L 1338 2103 
L 1338 706 
Q 1338 425 1363 364 
Q 1388 303 1450 267 
Q 1513 231 1688 231 
L 2406 231 
Q 2766 231 2928 281 
Q 3091 331 3241 478 
Q 3434 672 3638 1063 
L 3763 1063 
L 3397 0 
L 131 0 
L 131 116 
L 281 116 
Q 431 116 566 188 
Q 666 238 702 338 
Q 738 438 738 747 
L 738 3500 
Q 738 3903 656 3997 
Q 544 4122 281 4122 
L 131 4122 
L 131 4238 
L 3397 4238 
L 3444 3309 
L 3322 3309 
Q 3256 3644 3176 3769 
Q 3097 3894 2941 3959 
Q 2816 4006 2500 4006 
L 1338 4006 
z
" id="TimesNewRomanPSMT-45" transform="scale(0.015625)"/>
      </defs>
      <use xlink:href="#TimesNewRomanPSMT-52"/>
      <use x="66.699219" xlink:href="#TimesNewRomanPSMT-44"/>
      <use x="138.916016" xlink:href="#TimesNewRomanPSMT-53"/>
      <use x="194.53125" xlink:href="#TimesNewRomanPSMT-45"/>
     </g>
    </g>
    <g id="line2d_31">
     <path d="M 494.899489 480.860625 
L 586.899489 480.860625 
" style="fill:none;stroke:#a2142f;stroke-linecap:square;stroke-width:3;"/>
    </g>
    <g id="line2d_32"/>
    <g id="text_16">
     <!-- few-shot  -->
     <g transform="translate(623.699489 496.960625)scale(0.46 -0.46)">
      <defs>
       <path d="M 1319 2638 
L 1319 756 
Q 1319 356 1406 250 
Q 1522 113 1716 113 
L 1975 113 
L 1975 0 
L 266 0 
L 266 113 
L 394 113 
Q 519 113 622 175 
Q 725 238 764 344 
Q 803 450 803 756 
L 803 2638 
L 247 2638 
L 247 2863 
L 803 2863 
L 803 3050 
Q 803 3478 940 3775 
Q 1078 4072 1361 4255 
Q 1644 4438 1997 4438 
Q 2325 4438 2600 4225 
Q 2781 4084 2781 3909 
Q 2781 3816 2700 3733 
Q 2619 3650 2525 3650 
Q 2453 3650 2373 3701 
Q 2294 3753 2178 3923 
Q 2063 4094 1966 4153 
Q 1869 4213 1750 4213 
Q 1606 4213 1506 4136 
Q 1406 4059 1362 3898 
Q 1319 3738 1319 3069 
L 1319 2863 
L 2056 2863 
L 2056 2638 
L 1319 2638 
z
" id="TimesNewRomanPSMT-66" transform="scale(0.015625)"/>
       <path d="M 41 2863 
L 1241 2863 
L 1241 2747 
Q 1075 2734 1023 2687 
Q 972 2641 972 2553 
Q 972 2456 1025 2319 
L 1638 672 
L 2253 2013 
L 2091 2434 
Q 2016 2622 1894 2694 
Q 1825 2738 1638 2747 
L 1638 2863 
L 3000 2863 
L 3000 2747 
Q 2775 2738 2681 2666 
Q 2619 2616 2619 2506 
Q 2619 2444 2644 2378 
L 3294 734 
L 3897 2319 
Q 3959 2488 3959 2588 
Q 3959 2647 3898 2694 
Q 3838 2741 3659 2747 
L 3659 2863 
L 4563 2863 
L 4563 2747 
Q 4291 2706 4163 2378 
L 3206 -88 
L 3078 -88 
L 2363 1741 
L 1528 -88 
L 1413 -88 
L 494 2319 
Q 403 2547 315 2626 
Q 228 2706 41 2747 
L 41 2863 
z
" id="TimesNewRomanPSMT-77" transform="scale(0.015625)"/>
       <path d="M 259 1672 
L 1875 1672 
L 1875 1200 
L 259 1200 
L 259 1672 
z
" id="TimesNewRomanPSMT-2d" transform="scale(0.015625)"/>
       <path d="M 1041 4444 
L 1041 2350 
Q 1388 2731 1591 2839 
Q 1794 2947 1997 2947 
Q 2241 2947 2416 2812 
Q 2591 2678 2675 2391 
Q 2734 2191 2734 1659 
L 2734 647 
Q 2734 375 2778 275 
Q 2809 200 2884 156 
Q 2959 113 3159 113 
L 3159 0 
L 1753 0 
L 1753 113 
L 1819 113 
Q 2019 113 2097 173 
Q 2175 234 2206 353 
Q 2216 403 2216 647 
L 2216 1659 
Q 2216 2128 2167 2275 
Q 2119 2422 2012 2495 
Q 1906 2569 1756 2569 
Q 1603 2569 1437 2487 
Q 1272 2406 1041 2159 
L 1041 647 
Q 1041 353 1073 281 
Q 1106 209 1195 161 
Q 1284 113 1503 113 
L 1503 0 
L 84 0 
L 84 113 
Q 275 113 384 172 
Q 447 203 484 290 
Q 522 378 522 647 
L 522 3238 
Q 522 3728 498 3840 
Q 475 3953 426 3993 
Q 378 4034 297 4034 
Q 231 4034 84 3984 
L 41 4094 
L 897 4444 
L 1041 4444 
z
" id="TimesNewRomanPSMT-68" transform="scale(0.015625)"/>
       <path id="TimesNewRomanPSMT-20" transform="scale(0.015625)"/>
      </defs>
      <use xlink:href="#TimesNewRomanPSMT-66"/>
      <use x="33.300781" xlink:href="#TimesNewRomanPSMT-65"/>
      <use x="77.685547" xlink:href="#TimesNewRomanPSMT-77"/>
      <use x="149.902344" xlink:href="#TimesNewRomanPSMT-2d"/>
      <use x="183.203125" xlink:href="#TimesNewRomanPSMT-73"/>
      <use x="222.119141" xlink:href="#TimesNewRomanPSMT-68"/>
      <use x="272.119141" xlink:href="#TimesNewRomanPSMT-6f"/>
      <use x="322.119141" xlink:href="#TimesNewRomanPSMT-74"/>
      <use x="349.902344" xlink:href="#TimesNewRomanPSMT-20"/>
     </g>
    </g>
    <g id="line2d_33">
     <path d="M 494.899489 545.900312 
L 586.899489 545.900312 
" style="fill:none;stroke:#d95319;stroke-dasharray:14.8,6.4;stroke-dashoffset:0;stroke-width:4;"/>
    </g>
    <g id="line2d_34"/>
    <g id="text_17">
     <!-- zero-shot -->
     <g transform="translate(623.699489 562.000312)scale(0.46 -0.46)">
      <defs>
       <path d="M 2688 878 
L 2653 0 
L 128 0 
L 128 113 
L 2028 2644 
L 1091 2644 
Q 788 2644 694 2605 
Q 600 2566 541 2456 
Q 456 2300 444 2069 
L 319 2069 
L 338 2863 
L 2738 2863 
L 2738 2747 
L 819 209 
L 1863 209 
Q 2191 209 2308 264 
Q 2425 319 2497 456 
Q 2547 556 2581 878 
L 2688 878 
z
" id="TimesNewRomanPSMT-7a" transform="scale(0.015625)"/>
      </defs>
      <use xlink:href="#TimesNewRomanPSMT-7a"/>
      <use x="44.384766" xlink:href="#TimesNewRomanPSMT-65"/>
      <use x="88.769531" xlink:href="#TimesNewRomanPSMT-72"/>
      <use x="122.070312" xlink:href="#TimesNewRomanPSMT-6f"/>
      <use x="172.070312" xlink:href="#TimesNewRomanPSMT-2d"/>
      <use x="205.371094" xlink:href="#TimesNewRomanPSMT-73"/>
      <use x="244.287109" xlink:href="#TimesNewRomanPSMT-68"/>
      <use x="294.287109" xlink:href="#TimesNewRomanPSMT-6f"/>
      <use x="344.287109" xlink:href="#TimesNewRomanPSMT-74"/>
     </g>
    </g>
   </g>
  </g>
 </g>
 <defs>
  <clipPath id="p8fb5853aac">
   <rect height="602.44" width="704.156364" x="133.4" y="10.8"/>
  </clipPath>
 </defs>
</svg>
