<?xml version="1.0" encoding="utf-8" standalone="no"?>
<!DOCTYPE svg PUBLIC "-//W3C//DTD SVG 1.1//EN"
  "http://www.w3.org/Graphics/SVG/1.1/DTD/svg11.dtd">
<svg height="720pt" version="1.1" viewBox="0 0 864 720" width="864pt" xmlns="http://www.w3.org/2000/svg" xmlns:xlink="http://www.w3.org/1999/xlink">
 <metadata>
  <rdf:RDF xmlns:cc="http://creativecommons.org/ns#" xmlns:dc="http://purl.org/dc/elements/1.1/" xmlns:rdf="http://www.w3.org/1999/02/22-rdf-syntax-ns#">
   <cc:Work>
    <dc:type rdf:resource="http://purl.org/dc/dcmitype/StillImage"/>
    <dc:date>2025-02-27T17:21:20.696542</dc:date>
    <dc:format>image/svg+xml</dc:format>
    <dc:creator>
     <cc:Agent>
      <dc:title>Matplotlib v3.4.3, https://matplotlib.org/</dc:title>
     </cc:Agent>
    </dc:creator>
   </cc:Work>
  </rdf:RDF>
 </metadata>
 <defs>
  <style type="text/css">*{stroke-linecap:butt;stroke-linejoin:round;}</style>
 </defs>
 <g id="figure_1">
  <g id="patch_1">
   <path d="M 0 720 
L 864 720 
L 864 0 
L 0 0 
z
" style="fill:#ffffff;"/>
  </g>
  <g id="axes_1">
   <g id="patch_2">
    <path d="M 110.36 613.24 
L 837.556364 613.24 
L 837.556364 10.8 
L 110.36 10.8 
z
" style="fill:#ffffff;"/>
   </g>
   <g id="matplotlib.axis_1">
    <g id="xtick_1">
     <g id="line2d_1">
      <path clip-path="url(#p0c7afdce41)" d="M 143.41438 613.24 
L 143.41438 10.8 
" style="fill:none;stroke:#b0b0b0;stroke-dasharray:2.96,1.28;stroke-dashoffset:0;stroke-opacity:0.5;stroke-width:0.8;"/>
     </g>
     <g id="line2d_2">
      <defs>
       <path d="M 0 0 
L 0 3.5 
" id="m157d947c26" style="stroke:#000000;stroke-width:0.8;"/>
      </defs>
      <g>
       <use style="stroke:#000000;stroke-width:0.8;" x="143.41438" xlink:href="#m157d947c26" y="613.24"/>
      </g>
     </g>
     <g id="text_1">
      <!-- 0 -->
      <g transform="translate(131.91438 652.18125)scale(0.46 -0.46)">
       <defs>
        <path d="M 231 2094 
Q 231 2819 450 3342 
Q 669 3866 1031 4122 
Q 1313 4325 1613 4325 
Q 2100 4325 2488 3828 
Q 2972 3213 2972 2159 
Q 2972 1422 2759 906 
Q 2547 391 2217 158 
Q 1888 -75 1581 -75 
Q 975 -75 572 641 
Q 231 1244 231 2094 
z
M 844 2016 
Q 844 1141 1059 588 
Q 1238 122 1591 122 
Q 1759 122 1940 273 
Q 2122 425 2216 781 
Q 2359 1319 2359 2297 
Q 2359 3022 2209 3506 
Q 2097 3866 1919 4016 
Q 1791 4119 1609 4119 
Q 1397 4119 1231 3928 
Q 1006 3669 925 3112 
Q 844 2556 844 2016 
z
" id="TimesNewRomanPSMT-30" transform="scale(0.015625)"/>
       </defs>
       <use xlink:href="#TimesNewRomanPSMT-30"/>
      </g>
     </g>
    </g>
    <g id="xtick_2">
     <g id="line2d_3">
      <path clip-path="url(#p0c7afdce41)" d="M 275.631901 613.24 
L 275.631901 10.8 
" style="fill:none;stroke:#b0b0b0;stroke-dasharray:2.96,1.28;stroke-dashoffset:0;stroke-opacity:0.5;stroke-width:0.8;"/>
     </g>
     <g id="line2d_4">
      <g>
       <use style="stroke:#000000;stroke-width:0.8;" x="275.631901" xlink:href="#m157d947c26" y="613.24"/>
      </g>
     </g>
     <g id="text_2">
      <!-- 200 -->
      <g transform="translate(241.131901 652.18125)scale(0.46 -0.46)">
       <defs>
        <path d="M 2934 816 
L 2638 0 
L 138 0 
L 138 116 
Q 1241 1122 1691 1759 
Q 2141 2397 2141 2925 
Q 2141 3328 1894 3587 
Q 1647 3847 1303 3847 
Q 991 3847 742 3664 
Q 494 3481 375 3128 
L 259 3128 
Q 338 3706 661 4015 
Q 984 4325 1469 4325 
Q 1984 4325 2329 3994 
Q 2675 3663 2675 3213 
Q 2675 2891 2525 2569 
Q 2294 2063 1775 1497 
Q 997 647 803 472 
L 1909 472 
Q 2247 472 2383 497 
Q 2519 522 2628 598 
Q 2738 675 2819 816 
L 2934 816 
z
" id="TimesNewRomanPSMT-32" transform="scale(0.015625)"/>
       </defs>
       <use xlink:href="#TimesNewRomanPSMT-32"/>
       <use x="50" xlink:href="#TimesNewRomanPSMT-30"/>
       <use x="100" xlink:href="#TimesNewRomanPSMT-30"/>
      </g>
     </g>
    </g>
    <g id="xtick_3">
     <g id="line2d_5">
      <path clip-path="url(#p0c7afdce41)" d="M 407.849421 613.24 
L 407.849421 10.8 
" style="fill:none;stroke:#b0b0b0;stroke-dasharray:2.96,1.28;stroke-dashoffset:0;stroke-opacity:0.5;stroke-width:0.8;"/>
     </g>
     <g id="line2d_6">
      <g>
       <use style="stroke:#000000;stroke-width:0.8;" x="407.849421" xlink:href="#m157d947c26" y="613.24"/>
      </g>
     </g>
     <g id="text_3">
      <!-- 400 -->
      <g transform="translate(373.349421 652.18125)scale(0.46 -0.46)">
       <defs>
        <path d="M 2978 1563 
L 2978 1119 
L 2409 1119 
L 2409 0 
L 1894 0 
L 1894 1119 
L 100 1119 
L 100 1519 
L 2066 4325 
L 2409 4325 
L 2409 1563 
L 2978 1563 
z
M 1894 1563 
L 1894 3666 
L 406 1563 
L 1894 1563 
z
" id="TimesNewRomanPSMT-34" transform="scale(0.015625)"/>
       </defs>
       <use xlink:href="#TimesNewRomanPSMT-34"/>
       <use x="50" xlink:href="#TimesNewRomanPSMT-30"/>
       <use x="100" xlink:href="#TimesNewRomanPSMT-30"/>
      </g>
     </g>
    </g>
    <g id="xtick_4">
     <g id="line2d_7">
      <path clip-path="url(#p0c7afdce41)" d="M 540.066942 613.24 
L 540.066942 10.8 
" style="fill:none;stroke:#b0b0b0;stroke-dasharray:2.96,1.28;stroke-dashoffset:0;stroke-opacity:0.5;stroke-width:0.8;"/>
     </g>
     <g id="line2d_8">
      <g>
       <use style="stroke:#000000;stroke-width:0.8;" x="540.066942" xlink:href="#m157d947c26" y="613.24"/>
      </g>
     </g>
     <g id="text_4">
      <!-- 600 -->
      <g transform="translate(505.566942 652.18125)scale(0.46 -0.46)">
       <defs>
        <path d="M 2869 4325 
L 2869 4209 
Q 2456 4169 2195 4045 
Q 1934 3922 1679 3669 
Q 1425 3416 1258 3105 
Q 1091 2794 978 2366 
Q 1428 2675 1881 2675 
Q 2316 2675 2634 2325 
Q 2953 1975 2953 1425 
Q 2953 894 2631 456 
Q 2244 -75 1606 -75 
Q 1172 -75 869 213 
Q 275 772 275 1663 
Q 275 2231 503 2743 
Q 731 3256 1154 3653 
Q 1578 4050 1965 4187 
Q 2353 4325 2688 4325 
L 2869 4325 
z
M 925 2138 
Q 869 1716 869 1456 
Q 869 1156 980 804 
Q 1091 453 1309 247 
Q 1469 100 1697 100 
Q 1969 100 2183 356 
Q 2397 613 2397 1088 
Q 2397 1622 2184 2012 
Q 1972 2403 1581 2403 
Q 1463 2403 1327 2353 
Q 1191 2303 925 2138 
z
" id="TimesNewRomanPSMT-36" transform="scale(0.015625)"/>
       </defs>
       <use xlink:href="#TimesNewRomanPSMT-36"/>
       <use x="50" xlink:href="#TimesNewRomanPSMT-30"/>
       <use x="100" xlink:href="#TimesNewRomanPSMT-30"/>
      </g>
     </g>
    </g>
    <g id="xtick_5">
     <g id="line2d_9">
      <path clip-path="url(#p0c7afdce41)" d="M 672.284463 613.24 
L 672.284463 10.8 
" style="fill:none;stroke:#b0b0b0;stroke-dasharray:2.96,1.28;stroke-dashoffset:0;stroke-opacity:0.5;stroke-width:0.8;"/>
     </g>
     <g id="line2d_10">
      <g>
       <use style="stroke:#000000;stroke-width:0.8;" x="672.284463" xlink:href="#m157d947c26" y="613.24"/>
      </g>
     </g>
     <g id="text_5">
      <!-- 800 -->
      <g transform="translate(637.784463 652.18125)scale(0.46 -0.46)">
       <defs>
        <path d="M 1228 2134 
Q 725 2547 579 2797 
Q 434 3047 434 3316 
Q 434 3728 753 4026 
Q 1072 4325 1600 4325 
Q 2113 4325 2425 4047 
Q 2738 3769 2738 3413 
Q 2738 3175 2569 2928 
Q 2400 2681 1866 2347 
Q 2416 1922 2594 1678 
Q 2831 1359 2831 1006 
Q 2831 559 2490 242 
Q 2150 -75 1597 -75 
Q 994 -75 656 303 
Q 388 606 388 966 
Q 388 1247 577 1523 
Q 766 1800 1228 2134 
z
M 1719 2469 
Q 2094 2806 2194 3001 
Q 2294 3197 2294 3444 
Q 2294 3772 2109 3958 
Q 1925 4144 1606 4144 
Q 1288 4144 1088 3959 
Q 888 3775 888 3528 
Q 888 3366 970 3203 
Q 1053 3041 1206 2894 
L 1719 2469 
z
M 1375 2016 
Q 1116 1797 991 1539 
Q 866 1281 866 981 
Q 866 578 1086 336 
Q 1306 94 1647 94 
Q 1984 94 2187 284 
Q 2391 475 2391 747 
Q 2391 972 2272 1150 
Q 2050 1481 1375 2016 
z
" id="TimesNewRomanPSMT-38" transform="scale(0.015625)"/>
       </defs>
       <use xlink:href="#TimesNewRomanPSMT-38"/>
       <use x="50" xlink:href="#TimesNewRomanPSMT-30"/>
       <use x="100" xlink:href="#TimesNewRomanPSMT-30"/>
      </g>
     </g>
    </g>
    <g id="xtick_6">
     <g id="line2d_11">
      <path clip-path="url(#p0c7afdce41)" d="M 804.501983 613.24 
L 804.501983 10.8 
" style="fill:none;stroke:#b0b0b0;stroke-dasharray:2.96,1.28;stroke-dashoffset:0;stroke-opacity:0.5;stroke-width:0.8;"/>
     </g>
     <g id="line2d_12">
      <g>
       <use style="stroke:#000000;stroke-width:0.8;" x="804.501983" xlink:href="#m157d947c26" y="613.24"/>
      </g>
     </g>
     <g id="text_6">
      <!-- 1000 -->
      <g transform="translate(758.501983 652.18125)scale(0.46 -0.46)">
       <defs>
        <path d="M 750 3822 
L 1781 4325 
L 1884 4325 
L 1884 747 
Q 1884 391 1914 303 
Q 1944 216 2037 169 
Q 2131 122 2419 116 
L 2419 0 
L 825 0 
L 825 116 
Q 1125 122 1212 167 
Q 1300 213 1334 289 
Q 1369 366 1369 747 
L 1369 3034 
Q 1369 3497 1338 3628 
Q 1316 3728 1258 3775 
Q 1200 3822 1119 3822 
Q 1003 3822 797 3725 
L 750 3822 
z
" id="TimesNewRomanPSMT-31" transform="scale(0.015625)"/>
       </defs>
       <use xlink:href="#TimesNewRomanPSMT-31"/>
       <use x="50" xlink:href="#TimesNewRomanPSMT-30"/>
       <use x="100" xlink:href="#TimesNewRomanPSMT-30"/>
       <use x="150" xlink:href="#TimesNewRomanPSMT-30"/>
      </g>
     </g>
    </g>
    <g id="text_7">
     <!-- episode -->
     <g transform="translate(403.696776 697.962187)scale(0.46 -0.46)">
      <defs>
       <path d="M 681 1784 
Q 678 1147 991 784 
Q 1303 422 1725 422 
Q 2006 422 2214 576 
Q 2422 731 2563 1106 
L 2659 1044 
Q 2594 616 2278 264 
Q 1963 -88 1488 -88 
Q 972 -88 605 314 
Q 238 716 238 1394 
Q 238 2128 614 2539 
Q 991 2950 1559 2950 
Q 2041 2950 2350 2633 
Q 2659 2316 2659 1784 
L 681 1784 
z
M 681 1966 
L 2006 1966 
Q 1991 2241 1941 2353 
Q 1863 2528 1708 2628 
Q 1553 2728 1384 2728 
Q 1125 2728 920 2526 
Q 716 2325 681 1966 
z
" id="TimesNewRomanPSMT-65" transform="scale(0.015625)"/>
       <path d="M -6 2578 
L 875 2934 
L 994 2934 
L 994 2266 
Q 1216 2644 1439 2795 
Q 1663 2947 1909 2947 
Q 2341 2947 2628 2609 
Q 2981 2197 2981 1534 
Q 2981 794 2556 309 
Q 2206 -88 1675 -88 
Q 1444 -88 1275 -22 
Q 1150 25 994 166 
L 994 -706 
Q 994 -1000 1030 -1079 
Q 1066 -1159 1155 -1206 
Q 1244 -1253 1478 -1253 
L 1478 -1369 
L -22 -1369 
L -22 -1253 
L 56 -1253 
Q 228 -1256 350 -1188 
Q 409 -1153 442 -1076 
Q 475 -1000 475 -688 
L 475 2019 
Q 475 2297 450 2372 
Q 425 2447 370 2484 
Q 316 2522 222 2522 
Q 147 2522 31 2478 
L -6 2578 
z
M 994 2081 
L 994 1013 
Q 994 666 1022 556 
Q 1066 375 1236 237 
Q 1406 100 1666 100 
Q 1978 100 2172 344 
Q 2425 663 2425 1241 
Q 2425 1897 2138 2250 
Q 1938 2494 1663 2494 
Q 1513 2494 1366 2419 
Q 1253 2363 994 2081 
z
" id="TimesNewRomanPSMT-70" transform="scale(0.015625)"/>
       <path d="M 928 4444 
Q 1059 4444 1151 4351 
Q 1244 4259 1244 4128 
Q 1244 3997 1151 3903 
Q 1059 3809 928 3809 
Q 797 3809 703 3903 
Q 609 3997 609 4128 
Q 609 4259 701 4351 
Q 794 4444 928 4444 
z
M 1188 2947 
L 1188 647 
Q 1188 378 1227 289 
Q 1266 200 1342 156 
Q 1419 113 1622 113 
L 1622 0 
L 231 0 
L 231 113 
Q 441 113 512 153 
Q 584 194 626 287 
Q 669 381 669 647 
L 669 1750 
Q 669 2216 641 2353 
Q 619 2453 572 2492 
Q 525 2531 444 2531 
Q 356 2531 231 2484 
L 188 2597 
L 1050 2947 
L 1188 2947 
z
" id="TimesNewRomanPSMT-69" transform="scale(0.015625)"/>
       <path d="M 2050 2947 
L 2050 1972 
L 1947 1972 
Q 1828 2431 1642 2597 
Q 1456 2763 1169 2763 
Q 950 2763 815 2647 
Q 681 2531 681 2391 
Q 681 2216 781 2091 
Q 878 1963 1175 1819 
L 1631 1597 
Q 2266 1288 2266 781 
Q 2266 391 1970 151 
Q 1675 -88 1309 -88 
Q 1047 -88 709 6 
Q 606 38 541 38 
Q 469 38 428 -44 
L 325 -44 
L 325 978 
L 428 978 
Q 516 541 762 319 
Q 1009 97 1316 97 
Q 1531 97 1667 223 
Q 1803 350 1803 528 
Q 1803 744 1651 891 
Q 1500 1038 1047 1263 
Q 594 1488 453 1669 
Q 313 1847 313 2119 
Q 313 2472 555 2709 
Q 797 2947 1181 2947 
Q 1350 2947 1591 2875 
Q 1750 2828 1803 2828 
Q 1853 2828 1881 2850 
Q 1909 2872 1947 2947 
L 2050 2947 
z
" id="TimesNewRomanPSMT-73" transform="scale(0.015625)"/>
       <path d="M 1600 2947 
Q 2250 2947 2644 2453 
Q 2978 2031 2978 1484 
Q 2978 1100 2793 706 
Q 2609 313 2286 112 
Q 1963 -88 1566 -88 
Q 919 -88 538 428 
Q 216 863 216 1403 
Q 216 1797 411 2186 
Q 606 2575 925 2761 
Q 1244 2947 1600 2947 
z
M 1503 2744 
Q 1338 2744 1170 2645 
Q 1003 2547 900 2300 
Q 797 2053 797 1666 
Q 797 1041 1045 587 
Q 1294 134 1700 134 
Q 2003 134 2200 384 
Q 2397 634 2397 1244 
Q 2397 2006 2069 2444 
Q 1847 2744 1503 2744 
z
" id="TimesNewRomanPSMT-6f" transform="scale(0.015625)"/>
       <path d="M 2222 322 
Q 2013 103 1813 7 
Q 1613 -88 1381 -88 
Q 913 -88 563 304 
Q 213 697 213 1313 
Q 213 1928 600 2439 
Q 988 2950 1597 2950 
Q 1975 2950 2222 2709 
L 2222 3238 
Q 2222 3728 2198 3840 
Q 2175 3953 2125 3993 
Q 2075 4034 2000 4034 
Q 1919 4034 1784 3984 
L 1744 4094 
L 2597 4444 
L 2738 4444 
L 2738 1134 
Q 2738 631 2761 520 
Q 2784 409 2836 365 
Q 2888 322 2956 322 
Q 3041 322 3181 375 
L 3216 266 
L 2366 -88 
L 2222 -88 
L 2222 322 
z
M 2222 541 
L 2222 2016 
Q 2203 2228 2109 2403 
Q 2016 2578 1861 2667 
Q 1706 2756 1559 2756 
Q 1284 2756 1069 2509 
Q 784 2184 784 1559 
Q 784 928 1059 592 
Q 1334 256 1672 256 
Q 1956 256 2222 541 
z
" id="TimesNewRomanPSMT-64" transform="scale(0.015625)"/>
      </defs>
      <use xlink:href="#TimesNewRomanPSMT-65"/>
      <use x="44.384766" xlink:href="#TimesNewRomanPSMT-70"/>
      <use x="94.384766" xlink:href="#TimesNewRomanPSMT-69"/>
      <use x="122.167969" xlink:href="#TimesNewRomanPSMT-73"/>
      <use x="161.083984" xlink:href="#TimesNewRomanPSMT-6f"/>
      <use x="211.083984" xlink:href="#TimesNewRomanPSMT-64"/>
      <use x="261.083984" xlink:href="#TimesNewRomanPSMT-65"/>
     </g>
    </g>
   </g>
   <g id="matplotlib.axis_2">
    <g id="ytick_1">
     <g id="line2d_13">
      <path clip-path="url(#p0c7afdce41)" d="M 110.36 613.24 
L 837.556364 613.24 
" style="fill:none;stroke:#b0b0b0;stroke-dasharray:2.96,1.28;stroke-dashoffset:0;stroke-opacity:0.5;stroke-width:0.8;"/>
     </g>
     <g id="line2d_14">
      <defs>
       <path d="M 0 0 
L -3.5 0 
" id="m7d3ebbe1ac" style="stroke:#000000;stroke-width:0.8;"/>
      </defs>
      <g>
       <use style="stroke:#000000;stroke-width:0.8;" x="110.36" xlink:href="#m7d3ebbe1ac" y="613.24"/>
      </g>
     </g>
     <g id="text_8">
      <!-- 0 -->
      <g transform="translate(80.36 629.210625)scale(0.46 -0.46)">
       <use xlink:href="#TimesNewRomanPSMT-30"/>
      </g>
     </g>
    </g>
    <g id="ytick_2">
     <g id="line2d_15">
      <path clip-path="url(#p0c7afdce41)" d="M 110.36 546.211322 
L 837.556364 546.211322 
" style="fill:none;stroke:#b0b0b0;stroke-dasharray:2.96,1.28;stroke-dashoffset:0;stroke-opacity:0.5;stroke-width:0.8;"/>
     </g>
     <g id="line2d_16">
      <g>
       <use style="stroke:#000000;stroke-width:0.8;" x="110.36" xlink:href="#m7d3ebbe1ac" y="546.211322"/>
      </g>
     </g>
     <g id="text_9">
      <!-- 10 -->
      <g transform="translate(57.36 562.181947)scale(0.46 -0.46)">
       <use xlink:href="#TimesNewRomanPSMT-31"/>
       <use x="50" xlink:href="#TimesNewRomanPSMT-30"/>
      </g>
     </g>
    </g>
    <g id="ytick_3">
     <g id="line2d_17">
      <path clip-path="url(#p0c7afdce41)" d="M 110.36 479.182644 
L 837.556364 479.182644 
" style="fill:none;stroke:#b0b0b0;stroke-dasharray:2.96,1.28;stroke-dashoffset:0;stroke-opacity:0.5;stroke-width:0.8;"/>
     </g>
     <g id="line2d_18">
      <g>
       <use style="stroke:#000000;stroke-width:0.8;" x="110.36" xlink:href="#m7d3ebbe1ac" y="479.182644"/>
      </g>
     </g>
     <g id="text_10">
      <!-- 20 -->
      <g transform="translate(57.36 495.153269)scale(0.46 -0.46)">
       <use xlink:href="#TimesNewRomanPSMT-32"/>
       <use x="50" xlink:href="#TimesNewRomanPSMT-30"/>
      </g>
     </g>
    </g>
    <g id="ytick_4">
     <g id="line2d_19">
      <path clip-path="url(#p0c7afdce41)" d="M 110.36 412.153966 
L 837.556364 412.153966 
" style="fill:none;stroke:#b0b0b0;stroke-dasharray:2.96,1.28;stroke-dashoffset:0;stroke-opacity:0.5;stroke-width:0.8;"/>
     </g>
     <g id="line2d_20">
      <g>
       <use style="stroke:#000000;stroke-width:0.8;" x="110.36" xlink:href="#m7d3ebbe1ac" y="412.153966"/>
      </g>
     </g>
     <g id="text_11">
      <!-- 30 -->
      <g transform="translate(57.36 428.124591)scale(0.46 -0.46)">
       <defs>
        <path d="M 325 3431 
Q 506 3859 782 4092 
Q 1059 4325 1472 4325 
Q 1981 4325 2253 3994 
Q 2459 3747 2459 3466 
Q 2459 3003 1878 2509 
Q 2269 2356 2469 2072 
Q 2669 1788 2669 1403 
Q 2669 853 2319 450 
Q 1863 -75 997 -75 
Q 569 -75 414 31 
Q 259 138 259 259 
Q 259 350 332 419 
Q 406 488 509 488 
Q 588 488 669 463 
Q 722 447 909 348 
Q 1097 250 1169 231 
Q 1284 197 1416 197 
Q 1734 197 1970 444 
Q 2206 691 2206 1028 
Q 2206 1275 2097 1509 
Q 2016 1684 1919 1775 
Q 1784 1900 1550 2001 
Q 1316 2103 1072 2103 
L 972 2103 
L 972 2197 
Q 1219 2228 1467 2375 
Q 1716 2522 1828 2728 
Q 1941 2934 1941 3181 
Q 1941 3503 1739 3701 
Q 1538 3900 1238 3900 
Q 753 3900 428 3381 
L 325 3431 
z
" id="TimesNewRomanPSMT-33" transform="scale(0.015625)"/>
       </defs>
       <use xlink:href="#TimesNewRomanPSMT-33"/>
       <use x="50" xlink:href="#TimesNewRomanPSMT-30"/>
      </g>
     </g>
    </g>
    <g id="ytick_5">
     <g id="line2d_21">
      <path clip-path="url(#p0c7afdce41)" d="M 110.36 345.125288 
L 837.556364 345.125288 
" style="fill:none;stroke:#b0b0b0;stroke-dasharray:2.96,1.28;stroke-dashoffset:0;stroke-opacity:0.5;stroke-width:0.8;"/>
     </g>
     <g id="line2d_22">
      <g>
       <use style="stroke:#000000;stroke-width:0.8;" x="110.36" xlink:href="#m7d3ebbe1ac" y="345.125288"/>
      </g>
     </g>
     <g id="text_12">
      <!-- 40 -->
      <g transform="translate(57.36 361.095913)scale(0.46 -0.46)">
       <use xlink:href="#TimesNewRomanPSMT-34"/>
       <use x="50" xlink:href="#TimesNewRomanPSMT-30"/>
      </g>
     </g>
    </g>
    <g id="ytick_6">
     <g id="line2d_23">
      <path clip-path="url(#p0c7afdce41)" d="M 110.36 278.09661 
L 837.556364 278.09661 
" style="fill:none;stroke:#b0b0b0;stroke-dasharray:2.96,1.28;stroke-dashoffset:0;stroke-opacity:0.5;stroke-width:0.8;"/>
     </g>
     <g id="line2d_24">
      <g>
       <use style="stroke:#000000;stroke-width:0.8;" x="110.36" xlink:href="#m7d3ebbe1ac" y="278.09661"/>
      </g>
     </g>
     <g id="text_13">
      <!-- 50 -->
      <g transform="translate(57.36 294.067235)scale(0.46 -0.46)">
       <defs>
        <path d="M 2778 4238 
L 2534 3706 
L 1259 3706 
L 981 3138 
Q 1809 3016 2294 2522 
Q 2709 2097 2709 1522 
Q 2709 1188 2573 903 
Q 2438 619 2231 419 
Q 2025 219 1772 97 
Q 1413 -75 1034 -75 
Q 653 -75 479 54 
Q 306 184 306 341 
Q 306 428 378 495 
Q 450 563 559 563 
Q 641 563 702 538 
Q 763 513 909 409 
Q 1144 247 1384 247 
Q 1750 247 2026 523 
Q 2303 800 2303 1197 
Q 2303 1581 2056 1914 
Q 1809 2247 1375 2428 
Q 1034 2569 447 2591 
L 1259 4238 
L 2778 4238 
z
" id="TimesNewRomanPSMT-35" transform="scale(0.015625)"/>
       </defs>
       <use xlink:href="#TimesNewRomanPSMT-35"/>
       <use x="50" xlink:href="#TimesNewRomanPSMT-30"/>
      </g>
     </g>
    </g>
    <g id="ytick_7">
     <g id="line2d_25">
      <path clip-path="url(#p0c7afdce41)" d="M 110.36 211.067932 
L 837.556364 211.067932 
" style="fill:none;stroke:#b0b0b0;stroke-dasharray:2.96,1.28;stroke-dashoffset:0;stroke-opacity:0.5;stroke-width:0.8;"/>
     </g>
     <g id="line2d_26">
      <g>
       <use style="stroke:#000000;stroke-width:0.8;" x="110.36" xlink:href="#m7d3ebbe1ac" y="211.067932"/>
      </g>
     </g>
     <g id="text_14">
      <!-- 60 -->
      <g transform="translate(57.36 227.038557)scale(0.46 -0.46)">
       <use xlink:href="#TimesNewRomanPSMT-36"/>
       <use x="50" xlink:href="#TimesNewRomanPSMT-30"/>
      </g>
     </g>
    </g>
    <g id="ytick_8">
     <g id="line2d_27">
      <path clip-path="url(#p0c7afdce41)" d="M 110.36 144.039254 
L 837.556364 144.039254 
" style="fill:none;stroke:#b0b0b0;stroke-dasharray:2.96,1.28;stroke-dashoffset:0;stroke-opacity:0.5;stroke-width:0.8;"/>
     </g>
     <g id="line2d_28">
      <g>
       <use style="stroke:#000000;stroke-width:0.8;" x="110.36" xlink:href="#m7d3ebbe1ac" y="144.039254"/>
      </g>
     </g>
     <g id="text_15">
      <!-- 70 -->
      <g transform="translate(57.36 160.009879)scale(0.46 -0.46)">
       <defs>
        <path d="M 644 4238 
L 2916 4238 
L 2916 4119 
L 1503 -88 
L 1153 -88 
L 2419 3728 
L 1253 3728 
Q 900 3728 750 3644 
Q 488 3500 328 3200 
L 238 3234 
L 644 4238 
z
" id="TimesNewRomanPSMT-37" transform="scale(0.015625)"/>
       </defs>
       <use xlink:href="#TimesNewRomanPSMT-37"/>
       <use x="50" xlink:href="#TimesNewRomanPSMT-30"/>
      </g>
     </g>
    </g>
    <g id="ytick_9">
     <g id="line2d_29">
      <path clip-path="url(#p0c7afdce41)" d="M 110.36 77.010576 
L 837.556364 77.010576 
" style="fill:none;stroke:#b0b0b0;stroke-dasharray:2.96,1.28;stroke-dashoffset:0;stroke-opacity:0.5;stroke-width:0.8;"/>
     </g>
     <g id="line2d_30">
      <g>
       <use style="stroke:#000000;stroke-width:0.8;" x="110.36" xlink:href="#m7d3ebbe1ac" y="77.010576"/>
      </g>
     </g>
     <g id="text_16">
      <!-- 80 -->
      <g transform="translate(57.36 92.981201)scale(0.46 -0.46)">
       <use xlink:href="#TimesNewRomanPSMT-38"/>
       <use x="50" xlink:href="#TimesNewRomanPSMT-30"/>
      </g>
     </g>
    </g>
    <g id="text_17">
     <!-- returns -->
     <g transform="translate(43.520313 375.888125)rotate(-90)scale(0.46 -0.46)">
      <defs>
       <path d="M 1038 2947 
L 1038 2303 
Q 1397 2947 1775 2947 
Q 1947 2947 2059 2842 
Q 2172 2738 2172 2600 
Q 2172 2478 2090 2393 
Q 2009 2309 1897 2309 
Q 1788 2309 1652 2417 
Q 1516 2525 1450 2525 
Q 1394 2525 1328 2463 
Q 1188 2334 1038 2041 
L 1038 669 
Q 1038 431 1097 309 
Q 1138 225 1241 169 
Q 1344 113 1538 113 
L 1538 0 
L 72 0 
L 72 113 
Q 291 113 397 181 
Q 475 231 506 341 
Q 522 394 522 644 
L 522 1753 
Q 522 2253 501 2348 
Q 481 2444 426 2487 
Q 372 2531 291 2531 
Q 194 2531 72 2484 
L 41 2597 
L 906 2947 
L 1038 2947 
z
" id="TimesNewRomanPSMT-72" transform="scale(0.015625)"/>
       <path d="M 1031 3803 
L 1031 2863 
L 1700 2863 
L 1700 2644 
L 1031 2644 
L 1031 788 
Q 1031 509 1111 412 
Q 1191 316 1316 316 
Q 1419 316 1516 380 
Q 1613 444 1666 569 
L 1788 569 
Q 1678 263 1478 108 
Q 1278 -47 1066 -47 
Q 922 -47 784 33 
Q 647 113 581 261 
Q 516 409 516 719 
L 516 2644 
L 63 2644 
L 63 2747 
Q 234 2816 414 2980 
Q 594 3144 734 3369 
Q 806 3488 934 3803 
L 1031 3803 
z
" id="TimesNewRomanPSMT-74" transform="scale(0.015625)"/>
       <path d="M 2709 2863 
L 2709 1128 
Q 2709 631 2732 520 
Q 2756 409 2807 365 
Q 2859 322 2928 322 
Q 3025 322 3147 375 
L 3191 266 
L 2334 -88 
L 2194 -88 
L 2194 519 
Q 1825 119 1631 15 
Q 1438 -88 1222 -88 
Q 981 -88 804 51 
Q 628 191 559 409 
Q 491 628 491 1028 
L 491 2306 
Q 491 2509 447 2587 
Q 403 2666 317 2708 
Q 231 2750 6 2747 
L 6 2863 
L 1009 2863 
L 1009 947 
Q 1009 547 1148 422 
Q 1288 297 1484 297 
Q 1619 297 1789 381 
Q 1959 466 2194 703 
L 2194 2325 
Q 2194 2569 2105 2655 
Q 2016 2741 1734 2747 
L 1734 2863 
L 2709 2863 
z
" id="TimesNewRomanPSMT-75" transform="scale(0.015625)"/>
       <path d="M 1034 2341 
Q 1538 2947 1994 2947 
Q 2228 2947 2397 2830 
Q 2566 2713 2666 2444 
Q 2734 2256 2734 1869 
L 2734 647 
Q 2734 375 2778 278 
Q 2813 200 2889 156 
Q 2966 113 3172 113 
L 3172 0 
L 1756 0 
L 1756 113 
L 1816 113 
Q 2016 113 2095 173 
Q 2175 234 2206 353 
Q 2219 400 2219 647 
L 2219 1819 
Q 2219 2209 2117 2386 
Q 2016 2563 1775 2563 
Q 1403 2563 1034 2156 
L 1034 647 
Q 1034 356 1069 288 
Q 1113 197 1189 155 
Q 1266 113 1500 113 
L 1500 0 
L 84 0 
L 84 113 
L 147 113 
Q 366 113 442 223 
Q 519 334 519 647 
L 519 1709 
Q 519 2225 495 2337 
Q 472 2450 423 2490 
Q 375 2531 294 2531 
Q 206 2531 84 2484 
L 38 2597 
L 900 2947 
L 1034 2947 
L 1034 2341 
z
" id="TimesNewRomanPSMT-6e" transform="scale(0.015625)"/>
      </defs>
      <use xlink:href="#TimesNewRomanPSMT-72"/>
      <use x="33.300781" xlink:href="#TimesNewRomanPSMT-65"/>
      <use x="77.685547" xlink:href="#TimesNewRomanPSMT-74"/>
      <use x="105.46875" xlink:href="#TimesNewRomanPSMT-75"/>
      <use x="155.46875" xlink:href="#TimesNewRomanPSMT-72"/>
      <use x="188.769531" xlink:href="#TimesNewRomanPSMT-6e"/>
      <use x="238.769531" xlink:href="#TimesNewRomanPSMT-73"/>
     </g>
    </g>
   </g>
   <g id="line2d_31">
    <path clip-path="url(#p0c7afdce41)" d="M 143.41438 372.365259 
L 145.397643 352.856156 
L 147.380906 335.514816 
L 149.364169 320.230559 
L 151.347431 306.8927 
L 153.330694 295.39056 
L 155.313957 285.613456 
L 156.636132 279.999082 
L 157.958307 275.069403 
L 159.280483 270.791626 
L 160.602658 267.132955 
L 161.924833 264.060597 
L 163.247008 261.541755 
L 164.569183 259.543637 
L 165.891359 258.033446 
L 167.213534 256.978388 
L 168.535709 256.345669 
L 169.857884 256.102494 
L 170.518972 259.044407 
L 171.18006 260.540752 
L 171.841147 259.689485 
L 172.502235 264.364354 
L 173.163322 265.420189 
L 173.82441 264.147473 
L 174.485498 257.804432 
L 175.146585 256.128124 
L 175.807673 249.518538 
L 176.46876 251.05887 
L 177.129848 257.21785 
L 177.790936 258.199887 
L 178.452023 256.833901 
L 179.113111 258.174011 
L 179.774198 256.275086 
L 180.435286 256.377014 
L 181.096374 257.510648 
L 181.757461 259.912968 
L 182.418549 266.385829 
L 183.079636 266.872427 
L 183.740724 267.789117 
L 184.401812 267.967787 
L 185.062899 272.006494 
L 185.723987 274.909595 
L 186.385074 276.477958 
L 187.70725 290.584699 
L 188.368337 293.184038 
L 189.029425 292.675584 
L 189.690512 298.095804 
L 190.3516 300.224681 
L 191.012688 301.579127 
L 191.673775 301.871512 
L 192.334863 296.55335 
L 192.99595 295.87971 
L 194.318126 288.920243 
L 194.979213 291.687313 
L 195.640301 292.483995 
L 196.301388 294.175038 
L 196.962476 300.085053 
L 197.623564 296.241885 
L 198.284651 297.189059 
L 199.606826 309.435806 
L 200.267914 315.655631 
L 201.590089 318.1461 
L 202.251177 312.250137 
L 202.912264 316.25556 
L 203.573352 318.51767 
L 204.23444 320.20488 
L 204.895527 327.60299 
L 205.556615 325.564644 
L 206.217702 330.86918 
L 206.87879 337.672517 
L 207.539878 341.123606 
L 208.200965 342.615428 
L 208.862053 346.005143 
L 209.52314 342.194013 
L 210.184228 339.378194 
L 210.845316 343.782039 
L 211.506403 341.294151 
L 212.167491 334.307271 
L 212.828579 336.346388 
L 213.489666 334.027999 
L 214.150754 332.18907 
L 214.811841 329.732472 
L 215.472929 328.264541 
L 216.134017 322.807969 
L 216.795104 320.983958 
L 218.117279 324.143829 
L 218.778367 318.960707 
L 219.439455 316.628462 
L 220.100542 312.090081 
L 220.76163 311.412512 
L 221.422717 312.417116 
L 222.083805 303.72688 
L 222.744893 302.382662 
L 223.40598 293.965268 
L 224.067068 294.279387 
L 224.728155 293.395754 
L 225.389243 295.603583 
L 226.050331 290.235865 
L 226.711418 283.80771 
L 227.372506 282.202935 
L 228.033593 285.017493 
L 228.694681 285.81212 
L 229.355769 290.841446 
L 230.016856 284.729007 
L 231.339031 279.249018 
L 232.000119 274.983256 
L 232.661207 269.428908 
L 233.983382 264.217273 
L 234.644469 267.048668 
L 235.305557 266.969755 
L 235.966645 267.602912 
L 236.627732 262.206702 
L 237.28882 261.521196 
L 237.949907 259.481804 
L 238.610995 264.432241 
L 239.272083 261.957454 
L 239.93317 260.027625 
L 240.594258 260.507201 
L 241.255345 251.767768 
L 241.916433 251.104677 
L 242.577521 249.339146 
L 243.238608 245.060754 
L 243.899696 249.034534 
L 245.221871 250.956113 
L 245.882959 253.679111 
L 246.544046 251.937695 
L 247.205134 252.267985 
L 247.866221 255.923789 
L 248.527309 257.082366 
L 249.188397 261.019444 
L 249.849484 266.212375 
L 250.510572 264.712349 
L 251.17166 272.015624 
L 251.832747 273.232078 
L 252.493835 270.569651 
L 253.154922 269.74209 
L 253.81601 270.193859 
L 254.477098 266.580642 
L 255.799273 273.170888 
L 256.46036 274.425338 
L 257.121448 278.122128 
L 257.782536 277.386733 
L 258.443623 278.544957 
L 259.104711 282.762553 
L 259.765798 282.721425 
L 260.426886 282.449879 
L 261.087974 273.46225 
L 261.749061 272.133796 
L 262.410149 264.264719 
L 263.071236 265.710367 
L 263.732324 268.259879 
L 264.393412 262.655578 
L 265.054499 264.192738 
L 265.715587 262.571287 
L 266.376674 259.333907 
L 267.037762 262.351701 
L 267.69885 264.750213 
L 268.359937 263.142212 
L 269.021025 261.117585 
L 269.682112 265.694003 
L 270.3432 263.707535 
L 271.004288 253.204103 
L 271.665375 245.853545 
L 272.326463 244.773783 
L 272.98755 242.043543 
L 273.648638 241.021445 
L 274.309726 238.931488 
L 274.970813 228.375787 
L 275.631901 230.76453 
L 276.292988 230.924031 
L 276.954076 229.295424 
L 278.276251 216.324199 
L 278.937339 208.00059 
L 279.598426 202.914315 
L 280.259514 200.157376 
L 280.920602 198.653571 
L 281.581689 195.298457 
L 282.242777 196.836106 
L 282.903864 189.354768 
L 283.564952 190.972105 
L 284.22604 182.302783 
L 284.887127 179.339243 
L 285.548215 181.245052 
L 286.209302 183.872907 
L 287.531478 192.99884 
L 288.192565 188.20065 
L 288.853653 185.413877 
L 289.51474 181.456017 
L 290.175828 185.366852 
L 290.836916 184.21935 
L 291.498003 184.844767 
L 292.159091 185.667626 
L 292.820179 191.797822 
L 293.481266 189.893315 
L 294.142354 190.429852 
L 294.803441 196.91442 
L 295.464529 202.190366 
L 296.125617 208.917574 
L 296.786704 210.623484 
L 297.447792 214.298249 
L 298.108879 213.571084 
L 298.769967 211.013632 
L 299.431055 215.699196 
L 300.092142 216.30722 
L 301.414317 219.895459 
L 302.075405 218.353851 
L 302.736493 226.757249 
L 303.39758 230.858057 
L 304.058668 229.461784 
L 304.719755 232.593737 
L 305.380843 228.889522 
L 306.041931 234.522423 
L 306.703018 238.13935 
L 307.364106 234.560584 
L 308.025193 244.089356 
L 308.686281 238.916872 
L 309.347369 237.565843 
L 310.008456 238.392694 
L 310.669544 240.817895 
L 311.330631 241.920967 
L 312.652807 232.807634 
L 313.313894 228.700819 
L 313.974982 230.193762 
L 314.636069 232.351947 
L 315.297157 235.045396 
L 315.958245 242.681107 
L 316.619332 247.399067 
L 317.28042 243.855593 
L 317.941507 242.498013 
L 318.602595 239.498056 
L 319.263683 243.329186 
L 319.92477 249.436501 
L 320.585858 246.339715 
L 321.246945 247.123394 
L 321.908033 250.123136 
L 322.569121 249.228966 
L 323.230208 244.745633 
L 323.891296 238.655764 
L 324.552383 241.955688 
L 325.213471 241.595039 
L 325.874559 237.510008 
L 326.535646 232.5334 
L 327.857821 227.890191 
L 328.518909 233.307101 
L 329.179997 230.750643 
L 329.841084 224.492347 
L 330.502172 228.749559 
L 331.16326 223.961757 
L 331.824347 222.663356 
L 332.485435 221.103872 
L 333.80761 233.270481 
L 334.468698 236.887207 
L 335.129785 239.490762 
L 335.790873 237.665395 
L 336.45196 240.519185 
L 337.113048 234.878431 
L 337.774136 233.953761 
L 338.435223 230.413918 
L 339.096311 228.639539 
L 339.757398 230.267951 
L 341.079574 220.904694 
L 341.740661 221.511099 
L 342.401749 221.419687 
L 343.062836 222.713523 
L 343.723924 217.860447 
L 344.385012 222.613675 
L 345.046099 230.018832 
L 346.368274 216.002812 
L 347.029362 218.459193 
L 347.69045 219.1263 
L 348.351537 217.782954 
L 349.012625 211.138214 
L 349.673712 215.983987 
L 350.3348 215.085787 
L 350.995888 207.702746 
L 351.656975 203.573524 
L 352.318063 208.558399 
L 352.97915 204.462753 
L 353.640238 207.449803 
L 354.301326 208.852765 
L 354.962413 214.118165 
L 355.623501 217.576926 
L 356.284588 216.448093 
L 356.945676 211.531412 
L 357.606764 212.903477 
L 358.267851 207.044135 
L 358.928939 211.83473 
L 360.251114 212.631478 
L 360.912202 215.124581 
L 361.573289 208.564682 
L 362.234377 208.940849 
L 362.895464 211.157167 
L 363.556552 206.392959 
L 364.21764 202.891442 
L 364.878727 201.33137 
L 365.539815 200.607961 
L 366.200902 206.035845 
L 366.86199 214.044812 
L 367.523078 207.74234 
L 368.184165 211.058888 
L 368.845253 213.39471 
L 369.50634 204.877829 
L 370.167428 198.02168 
L 370.828516 199.722419 
L 371.489603 197.598982 
L 372.150691 196.243296 
L 372.811779 196.19533 
L 373.472866 195.583222 
L 374.133954 197.024383 
L 374.795041 194.185567 
L 375.456129 192.869481 
L 376.117217 185.066591 
L 376.778304 183.78271 
L 377.439392 182.789313 
L 378.100479 186.628085 
L 378.761567 192.14137 
L 379.422655 193.892483 
L 380.083742 197.364095 
L 381.405917 187.922206 
L 382.067005 187.065242 
L 382.728093 182.609994 
L 383.38918 180.129628 
L 384.050268 180.389323 
L 384.711355 179.157691 
L 385.372443 180.157485 
L 386.033531 183.070599 
L 386.694618 179.798244 
L 387.355706 178.627719 
L 388.016793 170.883137 
L 388.677881 171.212783 
L 389.338969 161.441376 
L 390.000056 160.380477 
L 390.661144 161.471644 
L 391.322231 161.979886 
L 391.983319 158.435989 
L 392.644407 156.550674 
L 393.305494 148.392814 
L 393.966582 146.437332 
L 394.627669 150.130614 
L 395.288757 150.408002 
L 395.949845 147.987289 
L 396.610932 144.024893 
L 397.27202 146.580576 
L 397.933107 146.935556 
L 398.594195 147.42854 
L 399.255283 155.031686 
L 399.91637 157.304302 
L 400.577458 154.739015 
L 401.238545 153.470113 
L 401.899633 157.485228 
L 402.560721 163.983353 
L 403.221808 162.061989 
L 403.882896 160.485913 
L 404.543983 164.480657 
L 405.205071 166.649682 
L 405.866159 167.504368 
L 406.527246 169.11835 
L 407.188334 163.545285 
L 407.849421 167.468153 
L 408.510509 163.522514 
L 409.171597 161.146534 
L 410.493772 165.792007 
L 411.15486 169.428151 
L 411.815947 174.096917 
L 413.138122 169.957648 
L 414.460298 156.627741 
L 415.121385 153.097861 
L 415.782473 152.817028 
L 416.44356 151.85124 
L 417.104648 154.230925 
L 417.765736 150.109775 
L 418.426823 151.599622 
L 419.087911 152.528582 
L 419.748998 148.957685 
L 420.410086 140.606499 
L 421.071174 140.453179 
L 421.732261 137.786444 
L 422.393349 132.367054 
L 423.054436 136.41834 
L 423.715524 137.007789 
L 424.376612 136.020081 
L 425.037699 136.555873 
L 425.698787 136.605776 
L 426.359874 139.03802 
L 427.020962 135.145802 
L 427.68205 136.279345 
L 428.343137 138.639238 
L 429.004225 134.423845 
L 429.665312 139.791382 
L 430.3264 138.940052 
L 430.987488 139.920277 
L 431.648575 137.008686 
L 432.309663 130.498851 
L 432.97075 127.264266 
L 433.631838 124.857056 
L 434.292926 126.21094 
L 434.954013 124.894508 
L 435.615101 122.089703 
L 436.276188 121.721584 
L 436.937276 125.600545 
L 437.598364 120.755888 
L 438.259451 125.159906 
L 438.920539 124.452356 
L 439.581626 126.118044 
L 440.242714 124.182109 
L 440.903802 121.200366 
L 441.564889 125.844638 
L 442.225977 118.059191 
L 442.887064 122.287696 
L 443.548152 114.54698 
L 444.20924 112.34044 
L 444.870327 112.146571 
L 445.531415 115.775577 
L 446.192502 113.823769 
L 447.514678 123.751279 
L 448.175765 124.300503 
L 448.836853 129.268742 
L 449.49794 131.211336 
L 450.159028 133.744881 
L 450.820116 140.865258 
L 451.481203 141.026691 
L 452.142291 140.956706 
L 452.803379 135.44268 
L 453.464466 134.310362 
L 454.125554 139.684963 
L 454.786641 140.146571 
L 455.447729 138.925043 
L 456.108817 137.225257 
L 456.769904 131.096253 
L 457.430992 136.405706 
L 458.092079 132.925599 
L 458.753167 135.143472 
L 459.414255 130.259139 
L 460.075342 128.787981 
L 460.73643 132.736331 
L 461.397517 133.573456 
L 462.719693 140.254676 
L 463.38078 134.643864 
L 464.041868 134.351564 
L 465.364043 123.988752 
L 466.025131 121.480995 
L 466.686218 117.642709 
L 467.347306 118.881795 
L 468.008393 119.365387 
L 468.669481 120.019528 
L 469.330569 117.064714 
L 470.652744 108.202133 
L 471.974919 103.374296 
L 472.636007 101.741125 
L 473.297094 101.186451 
L 473.958182 99.587979 
L 474.619269 97.411567 
L 475.280357 94.11277 
L 475.941445 94.128219 
L 476.602532 91.779349 
L 477.26362 92.969998 
L 477.924707 90.425415 
L 478.585795 89.28044 
L 479.246883 90.691617 
L 479.90797 90.132232 
L 480.569058 87.907872 
L 481.230145 87.18134 
L 481.891233 83.419185 
L 482.552321 82.5946 
L 483.213408 82.273571 
L 483.874496 82.282669 
L 484.535583 79.687668 
L 485.857759 76.823838 
L 487.841021 69.65935 
L 488.502109 71.58782 
L 489.163197 68.96412 
L 489.824284 69.090781 
L 490.485372 67.275576 
L 491.14646 66.155377 
L 491.807547 64.392911 
L 492.468635 65.832122 
L 493.129722 61.887779 
L 493.79081 60.646013 
L 494.451898 58.738825 
L 495.112985 55.987492 
L 495.774073 57.738764 
L 496.43516 56.936528 
L 497.096248 58.678702 
L 497.757336 59.693648 
L 498.418423 61.856039 
L 499.740598 67.894787 
L 500.401686 67.676059 
L 501.062774 68.58414 
L 501.723861 67.835113 
L 502.384949 63.887192 
L 503.046036 66.273163 
L 503.707124 65.751576 
L 505.029299 62.971724 
L 505.690387 62.613376 
L 506.351474 64.265588 
L 507.012562 65.603542 
L 507.67365 63.781603 
L 508.334737 64.169072 
L 508.995825 64.751098 
L 509.656912 63.585282 
L 510.318 66.384227 
L 511.640175 65.254963 
L 512.301263 63.340962 
L 512.96235 64.52577 
L 513.623438 64.296642 
L 514.284526 65.499317 
L 514.945613 63.188454 
L 515.606701 62.461864 
L 516.267788 62.73774 
L 516.928876 61.400897 
L 517.589964 60.365025 
L 518.251051 58.070498 
L 518.912139 58.461676 
L 519.573226 58.627499 
L 520.234314 57.576532 
L 520.895402 53.318403 
L 521.556489 52.801712 
L 522.217577 51.530755 
L 522.878664 53.03155 
L 523.539752 55.130471 
L 524.20084 55.405338 
L 524.861927 56.120849 
L 525.523015 55.787828 
L 526.184102 54.487521 
L 527.506278 55.588231 
L 528.167365 56.902209 
L 528.828453 58.499417 
L 529.48954 55.685589 
L 530.150628 56.064798 
L 530.811716 55.892558 
L 531.472803 53.28663 
L 532.133891 53.924378 
L 532.794979 53.579973 
L 533.456066 50.507849 
L 534.117154 53.022934 
L 534.778241 53.744641 
L 535.439329 53.427691 
L 536.100417 52.531884 
L 536.761504 51.022717 
L 537.422592 52.380771 
L 538.083679 52.580912 
L 538.744767 52.116295 
L 539.405855 54.93598 
L 540.066942 56.015647 
L 540.72803 57.574755 
L 541.389117 56.083873 
L 542.050205 56.400756 
L 542.711293 57.837627 
L 543.37238 57.75756 
L 544.033468 56.938183 
L 544.694555 57.648518 
L 545.355643 55.600758 
L 546.016731 52.868617 
L 546.677818 56.884642 
L 547.338906 56.753111 
L 547.999993 57.024745 
L 548.661081 56.402632 
L 549.322169 56.145019 
L 550.644344 62.450781 
L 551.305431 64.893639 
L 551.966519 65.654387 
L 552.627607 64.488282 
L 553.288694 63.611193 
L 553.949782 64.721161 
L 554.610869 62.672246 
L 555.271957 63.804914 
L 555.933045 64.028753 
L 556.594132 64.68073 
L 557.25522 68.762088 
L 558.577395 68.22934 
L 559.238483 67.199418 
L 560.560658 71.212828 
L 561.221745 72.858237 
L 561.882833 76.054897 
L 562.543921 74.927198 
L 563.205008 74.991575 
L 564.527183 67.949416 
L 565.188271 69.730939 
L 565.849359 70.283663 
L 566.510446 69.285161 
L 567.171534 69.405732 
L 567.832621 67.111693 
L 568.493709 69.131055 
L 569.154797 69.912491 
L 569.815884 69.469315 
L 570.476972 71.919983 
L 571.13806 72.153836 
L 571.799147 73.283555 
L 572.460235 70.864569 
L 573.121322 71.76205 
L 573.78241 72.996011 
L 574.443498 75.897997 
L 575.104585 74.505737 
L 575.765673 76.100685 
L 576.42676 74.789814 
L 578.410023 79.546601 
L 579.071111 80.702579 
L 579.732198 79.309053 
L 580.393286 78.873377 
L 581.715461 81.247943 
L 582.376549 81.681121 
L 583.037636 83.356485 
L 583.698724 82.430263 
L 584.359812 80.689694 
L 585.020899 81.559185 
L 586.343074 78.748806 
L 587.004162 78.317762 
L 587.66525 75.874088 
L 588.326337 72.864119 
L 589.648512 75.539574 
L 590.3096 75.880935 
L 590.970688 75.786188 
L 591.631775 76.955571 
L 592.292863 74.879568 
L 593.615038 72.352323 
L 594.276126 68.722402 
L 594.937213 71.250566 
L 595.598301 69.461525 
L 596.259388 66.222466 
L 596.920476 62.396725 
L 597.581564 60.929617 
L 598.242651 59.140831 
L 598.903739 61.866206 
L 599.564826 62.319183 
L 600.225914 59.319569 
L 600.887002 61.778911 
L 601.548089 60.060414 
L 602.209177 62.225368 
L 602.870264 61.742518 
L 603.531352 58.060018 
L 604.19244 58.446286 
L 604.853527 56.706579 
L 605.514615 58.261536 
L 606.175702 57.703985 
L 606.83679 57.438087 
L 608.158965 60.854257 
L 608.820053 59.028632 
L 609.48114 59.651482 
L 610.142228 60.085276 
L 610.803316 57.483614 
L 611.464403 56.303031 
L 612.125491 56.541873 
L 612.786579 54.599396 
L 613.447666 53.255856 
L 614.108754 50.666701 
L 615.430929 48.839224 
L 616.092017 48.967024 
L 616.753104 47.145072 
L 617.414192 49.663048 
L 618.075279 49.879249 
L 618.736367 49.406933 
L 619.397455 48.202734 
L 620.058542 51.187425 
L 620.71963 55.396203 
L 621.380717 56.179115 
L 622.041805 59.7125 
L 622.702893 59.584238 
L 624.025068 59.570091 
L 625.347243 64.03805 
L 626.008331 65.609518 
L 626.669418 68.429104 
L 627.330506 70.570814 
L 627.991593 73.605305 
L 628.652681 78.228722 
L 629.313769 80.908706 
L 629.974856 82.042499 
L 630.635944 81.563763 
L 631.297031 79.996027 
L 631.958119 80.650762 
L 632.619207 80.805093 
L 633.280294 80.461301 
L 633.941382 79.334651 
L 634.602469 80.659019 
L 635.263557 78.389917 
L 635.924645 76.711348 
L 637.24682 74.745401 
L 638.568995 74.427973 
L 639.230083 77.743118 
L 639.89117 77.453474 
L 640.552258 76.528233 
L 641.213345 75.848183 
L 642.535521 74.215843 
L 643.196608 76.079221 
L 643.857696 73.935598 
L 644.518783 70.230643 
L 645.179871 71.100184 
L 645.840959 69.585871 
L 646.502046 69.733469 
L 647.163134 70.309946 
L 647.824221 71.724975 
L 648.485309 69.082459 
L 649.146397 67.260246 
L 649.807484 67.458514 
L 650.468572 69.814134 
L 651.12966 71.448019 
L 651.790747 72.227371 
L 652.451835 69.688023 
L 653.112922 68.352154 
L 653.77401 69.003037 
L 654.435098 67.96622 
L 655.757273 69.832072 
L 656.41836 70.177142 
L 657.079448 72.486374 
L 657.740536 71.577202 
L 658.401623 72.17612 
L 659.062711 70.266986 
L 659.723798 70.396376 
L 661.045974 65.421707 
L 661.707061 64.038088 
L 662.368149 63.260309 
L 663.029236 63.468928 
L 663.690324 59.159662 
L 664.351412 56.680908 
L 665.012499 54.701018 
L 665.673587 55.255805 
L 666.334674 55.549287 
L 666.995762 51.380834 
L 667.65685 53.223947 
L 668.317937 53.453356 
L 669.640112 50.216147 
L 670.3012 49.705651 
L 671.623375 48.078971 
L 672.284463 49.753501 
L 672.94555 52.57369 
L 673.606638 50.577474 
L 674.267726 48.116959 
L 674.928813 50.048345 
L 675.589901 48.916482 
L 676.250988 51.623945 
L 676.912076 53.852274 
L 677.573164 53.693301 
L 678.234251 51.080989 
L 678.895339 49.211139 
L 679.556426 51.302534 
L 680.217514 52.328693 
L 680.878602 52.653888 
L 681.539689 52.255118 
L 682.200777 49.458469 
L 682.861864 47.312823 
L 683.522952 50.067953 
L 684.18404 49.561604 
L 685.506215 50.094084 
L 686.167302 49.848774 
L 686.82839 51.827177 
L 687.489478 51.898603 
L 688.150565 49.884569 
L 688.811653 52.696192 
L 689.47274 53.30936 
L 690.133828 52.564634 
L 690.794916 53.125286 
L 692.117091 50.791701 
L 692.778179 49.862867 
L 693.439266 48.090847 
L 694.100354 49.117855 
L 694.761441 51.145419 
L 695.422529 55.091607 
L 696.083617 55.699979 
L 696.744704 55.779629 
L 697.405792 55.984818 
L 698.066879 57.08382 
L 698.727967 58.436036 
L 699.389055 61.988443 
L 700.050142 60.243102 
L 700.71123 61.448398 
L 701.372317 61.325922 
L 702.033405 62.673862 
L 702.694493 62.787912 
L 704.016668 66.978764 
L 704.677755 66.151488 
L 705.338843 66.428954 
L 705.999931 65.521476 
L 706.661018 69.226342 
L 707.322106 67.871715 
L 707.983193 67.922558 
L 708.644281 68.139748 
L 709.305369 68.802865 
L 709.966456 72.144777 
L 710.627544 72.805931 
L 711.288631 71.180763 
L 711.949719 70.69333 
L 712.610807 69.389569 
L 713.271894 70.186469 
L 713.932982 72.7652 
L 714.594069 72.920316 
L 715.255157 71.104139 
L 715.916245 67.581084 
L 716.577332 65.60719 
L 717.23842 63.994911 
L 717.899507 63.991954 
L 718.560595 64.42324 
L 719.221683 61.959269 
L 719.88277 60.761597 
L 720.543858 62.202826 
L 721.204945 59.64628 
L 721.866033 60.282763 
L 722.527121 62.634968 
L 724.510383 60.013741 
L 725.171471 63.066657 
L 725.832559 62.067813 
L 726.493646 62.836981 
L 727.154734 62.910613 
L 727.815821 62.342553 
L 728.476909 63.216022 
L 729.137997 62.413736 
L 729.799084 62.606076 
L 730.460172 62.259542 
L 731.12126 62.588317 
L 731.782347 63.241718 
L 732.443435 66.535687 
L 733.76561 67.813961 
L 734.426698 66.218225 
L 735.748873 68.721244 
L 736.40996 68.998295 
L 737.732136 68.368361 
L 738.393223 67.956315 
L 739.054311 66.122967 
L 739.715398 63.634324 
L 741.037574 66.999976 
L 741.698661 66.833602 
L 742.359749 66.115227 
L 743.020836 67.252468 
L 743.681924 69.07649 
L 744.343012 66.208904 
L 745.004099 65.328444 
L 745.665187 65.929562 
L 746.326274 63.159063 
L 746.987362 65.592227 
L 747.64845 66.663572 
L 748.309537 64.177505 
L 748.970625 62.152347 
L 750.953888 62.899277 
L 751.614975 64.436481 
L 752.276063 61.581194 
L 752.93715 59.419519 
L 753.598238 62.223551 
L 754.259326 61.011235 
L 754.920413 60.743244 
L 755.581501 59.172333 
L 756.242588 59.51736 
L 756.903676 57.332017 
L 757.564764 53.889629 
L 758.886939 56.548735 
L 759.548026 58.52325 
L 760.209114 56.73878 
L 760.870202 58.3766 
L 761.531289 58.167687 
L 762.192377 59.699963 
L 762.853464 58.543033 
L 763.514552 56.331546 
L 764.17564 55.505101 
L 764.836727 56.227766 
L 765.497815 54.384301 
L 766.158902 55.347423 
L 766.81999 55.231946 
L 767.481078 52.73738 
L 768.142165 51.61456 
L 768.803253 49.35672 
L 770.125428 48.984102 
L 771.447603 47.623349 
L 772.108691 49.564895 
L 772.769779 49.531348 
L 773.430866 49.758857 
L 774.091954 51.276937 
L 774.753041 52.343494 
L 775.414129 52.186106 
L 776.075217 49.313971 
L 776.736304 50.004096 
L 777.397392 51.538681 
L 786.652618 57.435172 
L 788.635881 58.319845 
L 790.619144 58.91567 
L 791.941319 59.117944 
L 793.263494 59.140131 
L 794.585669 58.961548 
L 795.907845 58.56151 
L 797.23002 57.919333 
L 798.552195 57.014334 
L 799.87437 55.825828 
L 801.196545 54.333131 
L 802.518721 52.515559 
L 803.840896 50.352428 
L 803.840896 50.352428 
" style="fill:none;stroke:#7e2f8e;stroke-linecap:square;stroke-width:3;"/>
   </g>
   <g id="line2d_32">
    <path clip-path="url(#p0c7afdce41)" d="M 143.41438 208.92337 
L 144.075468 209.740316 
L 144.736555 209.074819 
L 145.397643 207.060202 
L 146.058731 203.829787 
L 146.719818 199.516895 
L 148.041993 188.176968 
L 149.364169 174.106995 
L 152.008519 142.043213 
L 153.991782 118.761654 
L 154.652869 111.858142 
L 155.313957 111.884716 
L 155.975045 108.737994 
L 156.636132 114.903261 
L 157.29722 131.314198 
L 157.958307 135.640321 
L 158.619395 124.486247 
L 159.280483 125.971711 
L 159.94157 113.869284 
L 160.602658 94.972074 
L 161.263745 83.847678 
L 161.924833 101.16182 
L 162.585921 102.714332 
L 163.247008 105.185716 
L 163.908096 98.074066 
L 164.569183 100.851406 
L 165.230271 96.274738 
L 165.891359 76.709449 
L 166.552446 88.667591 
L 167.213534 88.769392 
L 167.874621 99.765011 
L 168.535709 88.012442 
L 169.196797 90.360425 
L 169.857884 95.326628 
L 170.518972 111.270443 
L 171.18006 115.451099 
L 171.841147 124.43629 
L 172.502235 130.097665 
L 173.163322 131.99571 
L 174.485498 136.87189 
L 175.146585 131.183769 
L 175.807673 137.199051 
L 176.46876 135.042673 
L 177.129848 129.023002 
L 177.790936 152.64315 
L 179.113111 164.611286 
L 180.435286 169.45057 
L 181.096374 168.481736 
L 181.757461 166.407031 
L 182.418549 166.260798 
L 183.079636 161.420772 
L 183.740724 153.171458 
L 184.401812 148.361126 
L 185.723987 128.818671 
L 186.385074 118.421027 
L 187.046162 114.660946 
L 188.368337 91.616111 
L 189.029425 103.377293 
L 191.012688 71.294732 
L 191.673775 76.667282 
L 192.334863 79.315657 
L 192.99595 76.617268 
L 193.657038 74.488642 
L 194.318126 74.532133 
L 194.979213 67.207318 
L 195.640301 61.372561 
L 196.301388 61.584472 
L 196.962476 56.964346 
L 197.623564 53.386323 
L 198.284651 59.384465 
L 198.945739 55.222933 
L 199.606826 59.876852 
L 200.267914 65.649077 
L 200.929002 65.517805 
L 201.590089 69.46884 
L 202.251177 67.17284 
L 202.912264 66.743636 
L 204.23444 65.232244 
L 204.895527 52.397224 
L 206.217702 64.271795 
L 206.87879 73.740957 
L 207.539878 73.928691 
L 208.200965 76.290606 
L 210.184228 90.771239 
L 210.845316 94.145383 
L 211.506403 95.28766 
L 212.167491 98.13443 
L 212.828579 99.313635 
L 213.489666 108.817789 
L 214.150754 110.066437 
L 214.811841 115.989722 
L 215.472929 115.922844 
L 216.134017 116.74457 
L 216.795104 114.745324 
L 217.456192 110.963538 
L 218.778367 105.677108 
L 219.439455 101.281226 
L 220.100542 95.668724 
L 220.76163 94.690495 
L 221.422717 88.503087 
L 223.40598 60.0897 
L 224.067068 54.663147 
L 224.728155 48.102933 
L 225.389243 46.182182 
L 226.711418 37.574063 
L 227.372506 35.890623 
L 228.033593 51.113329 
L 228.694681 47.916176 
L 229.355769 52.159798 
L 230.016856 52.199174 
L 231.339031 65.845809 
L 232.000119 69.303077 
L 232.661207 72.128969 
L 233.322294 72.915617 
L 233.983382 73.17238 
L 234.644469 76.21831 
L 235.305557 76.004037 
L 235.966645 75.916083 
L 236.627732 74.719965 
L 237.28882 68.408438 
L 237.949907 67.638937 
L 238.610995 66.20037 
L 239.272083 64.218616 
L 240.594258 58.801124 
L 241.255345 58.45905 
L 241.916433 55.38669 
L 243.238608 45.004437 
L 243.899696 41.272686 
L 244.560783 31.094569 
L 245.221871 33.303065 
L 245.882959 32.587403 
L 246.544046 33.397284 
L 247.866221 39.421598 
L 248.527309 41.864165 
L 249.849484 52.019845 
L 250.510572 53.725564 
L 251.17166 56.506219 
L 251.832747 62.050646 
L 252.493835 61.627589 
L 253.154922 64.840573 
L 253.81601 67.445262 
L 254.477098 69.441654 
L 255.138185 70.829751 
L 255.799273 66.85528 
L 256.46036 68.616358 
L 257.121448 69.602566 
L 257.782536 69.800624 
L 258.443623 66.889532 
L 259.104711 66.668423 
L 259.765798 63.282325 
L 260.426886 68.504025 
L 261.087974 66.257004 
L 261.749061 66.278277 
L 263.071236 63.854749 
L 263.732324 63.180365 
L 264.393412 60.788754 
L 265.054499 53.346449 
L 265.715587 50.643858 
L 266.376674 51.120696 
L 267.037762 45.358814 
L 267.69885 50.04123 
L 268.359937 50.40908 
L 269.021025 52.477022 
L 269.682112 59.568427 
L 270.3432 60.085565 
L 271.004288 62.821798 
L 271.665375 60.791731 
L 272.326463 59.22068 
L 272.98755 56.527794 
L 273.648638 59.652903 
L 274.309726 60.030077 
L 274.970813 59.628389 
L 275.631901 60.722971 
L 276.292988 59.220644 
L 276.954076 58.736595 
L 277.615164 58.806683 
L 278.276251 58.160117 
L 278.937339 63.126922 
L 279.598426 61.214377 
L 280.259514 60.60357 
L 280.920602 58.096739 
L 281.581689 60.138328 
L 282.242777 59.052066 
L 282.903864 49.642901 
L 283.564952 51.816749 
L 284.22604 56.089494 
L 284.887127 54.293067 
L 285.548215 56.468281 
L 286.209302 57.158513 
L 286.87039 54.859182 
L 287.531478 53.187725 
L 288.192565 58.915664 
L 288.853653 62.814809 
L 289.51474 63.410022 
L 290.175828 68.151185 
L 290.836916 68.009685 
L 291.498003 68.960556 
L 292.159091 69.134279 
L 292.820179 68.660482 
L 294.142354 65.469705 
L 294.803441 65.806598 
L 295.464529 65.185719 
L 296.125617 66.680446 
L 296.786704 65.002998 
L 298.108879 59.712028 
L 298.769967 59.880408 
L 299.431055 59.312037 
L 300.092142 57.676043 
L 300.75323 52.409125 
L 301.414317 49.549167 
L 302.075405 46.027526 
L 302.736493 44.167271 
L 303.39758 40.365489 
L 304.058668 35.592586 
L 305.380843 28.017393 
L 306.041931 36.835249 
L 306.703018 36.082451 
L 307.364106 34.506835 
L 308.025193 36.825536 
L 308.686281 34.208264 
L 309.347369 31.022183 
L 310.669544 38.918375 
L 311.330631 40.540205 
L 311.991719 41.850883 
L 312.652807 42.850409 
L 313.313894 43.538782 
L 313.974982 44.736229 
L 314.636069 44.86768 
L 315.297157 46.475267 
L 315.958245 47.657213 
L 316.619332 49.284338 
L 317.28042 48.842916 
L 317.941507 49.832915 
L 318.602595 51.188125 
L 319.263683 49.070001 
L 319.92477 49.932148 
L 320.585858 50.530233 
L 321.246945 50.653152 
L 321.908033 50.32468 
L 322.569121 49.865165 
L 323.230208 48.757669 
L 323.891296 50.380314 
L 324.552383 49.040072 
L 325.213471 44.418945 
L 325.874559 44.049664 
L 326.535646 43.372711 
L 327.196734 45.36502 
L 327.857821 44.752883 
L 328.518909 43.696055 
L 329.179997 44.113737 
L 331.16326 39.920794 
L 331.824347 38.113161 
L 332.485435 39.488084 
L 333.80761 41.188647 
L 334.468698 39.272726 
L 335.129785 39.871432 
L 335.790873 40.753642 
L 336.45196 41.401536 
L 337.113048 44.020084 
L 337.774136 46.101065 
L 338.435223 47.332497 
L 339.096311 42.985897 
L 339.757398 45.284206 
L 340.418486 46.007544 
L 341.079574 48.611764 
L 341.740661 50.459363 
L 342.401749 55.960294 
L 343.062836 54.819908 
L 343.723924 58.039693 
L 344.385012 59.537553 
L 345.046099 62.067132 
L 345.707187 63.684448 
L 346.368274 63.687234 
L 347.029362 65.189182 
L 347.69045 64.225832 
L 348.351537 70.373741 
L 349.012625 72.25458 
L 349.673712 71.279562 
L 350.3348 72.020056 
L 350.995888 72.933449 
L 351.656975 73.152729 
L 352.318063 72.670836 
L 352.97915 69.867927 
L 353.640238 63.057118 
L 354.301326 63.4153 
L 354.962413 66.503564 
L 355.623501 68.245664 
L 356.284588 68.888148 
L 356.945676 68.810524 
L 357.606764 71.233008 
L 358.267851 71.39982 
L 358.928939 70.544371 
L 360.251114 67.535314 
L 360.912202 64.293679 
L 361.573289 61.786329 
L 362.234377 60.465841 
L 362.895464 60.156962 
L 363.556552 63.146662 
L 364.21764 61.148279 
L 364.878727 61.595304 
L 365.539815 59.120548 
L 366.200902 59.551877 
L 366.86199 60.907128 
L 367.523078 63.195786 
L 368.184165 63.738714 
L 368.845253 64.131225 
L 369.50634 65.961107 
L 370.167428 61.125793 
L 370.828516 62.692497 
L 371.489603 63.716023 
L 372.150691 63.071719 
L 372.811779 66.537004 
L 373.472866 67.257977 
L 374.133954 66.847489 
L 374.795041 66.822744 
L 375.456129 63.666974 
L 376.117217 61.30999 
L 376.778304 64.434432 
L 377.439392 66.209658 
L 378.100479 69.735908 
L 378.761567 74.483687 
L 379.422655 77.097981 
L 380.083742 78.92852 
L 380.74483 80.211639 
L 381.405917 80.619383 
L 382.067005 79.190404 
L 382.728093 78.475776 
L 383.38918 75.131895 
L 384.050268 75.453698 
L 384.711355 71.447306 
L 385.372443 76.58649 
L 386.033531 72.767318 
L 386.694618 72.290633 
L 387.355706 73.473983 
L 388.016793 72.320875 
L 388.677881 70.284299 
L 389.338969 67.620279 
L 390.661144 68.73201 
L 391.983319 68.534773 
L 392.644407 66.774539 
L 393.305494 71.040948 
L 393.966582 70.167447 
L 394.627669 67.595445 
L 395.288757 69.41167 
L 395.949845 69.106239 
L 396.610932 66.852372 
L 397.27202 67.160786 
L 397.933107 64.916822 
L 398.594195 63.976254 
L 399.255283 65.809641 
L 400.577458 72.253662 
L 401.238545 74.223819 
L 403.221808 81.112698 
L 403.882896 82.245746 
L 404.543983 82.565042 
L 405.205071 82.718667 
L 405.866159 81.721259 
L 406.527246 82.78515 
L 407.188334 80.887137 
L 407.849421 81.491285 
L 408.510509 77.133509 
L 409.171597 79.056491 
L 409.832684 77.209046 
L 410.493772 71.601409 
L 411.15486 69.195341 
L 411.815947 69.429425 
L 412.477035 75.286632 
L 413.138122 70.078996 
L 413.79921 68.563355 
L 414.460298 69.096215 
L 415.121385 67.787919 
L 416.44356 62.623113 
L 417.104648 63.474224 
L 417.765736 66.204378 
L 418.426823 65.809785 
L 419.087911 64.686561 
L 419.748998 65.375592 
L 420.410086 63.578949 
L 421.071174 62.462028 
L 421.732261 58.998453 
L 422.393349 61.003994 
L 423.054436 65.656573 
L 424.376612 70.597172 
L 425.037699 71.465241 
L 425.698787 69.387211 
L 426.359874 69.847319 
L 427.020962 66.763845 
L 428.343137 64.241221 
L 429.004225 64.444046 
L 429.665312 64.955297 
L 430.3264 63.193973 
L 430.987488 63.15265 
L 431.648575 65.481481 
L 432.309663 65.015419 
L 432.97075 63.649051 
L 433.631838 63.381674 
L 434.292926 61.876305 
L 434.954013 58.67571 
L 435.615101 57.245279 
L 436.276188 61.820174 
L 437.598364 64.248517 
L 438.259451 64.947437 
L 438.920539 68.266521 
L 439.581626 70.783961 
L 440.242714 70.741196 
L 440.242714 70.741196 
" style="fill:none;stroke:#a2142f;stroke-linecap:square;stroke-width:3;"/>
   </g>
   <g id="line2d_33">
    <path clip-path="url(#p0c7afdce41)" d="M 440.903802 70.307708 
L 803.840896 70.307708 
L 803.840896 70.307708 
" style="fill:none;stroke:#a2142f;stroke-dasharray:14.8,6.4;stroke-dashoffset:0;stroke-width:4;"/>
   </g>
   <g id="line2d_34">
    <path clip-path="url(#p0c7afdce41)" d="M 143.41438 209.057072 
L 804.501983 209.057072 
L 804.501983 209.057072 
" style="fill:none;stroke:#d95319;stroke-dasharray:14.8,6.4;stroke-dashoffset:0;stroke-width:4;"/>
   </g>
   <g id="patch_3">
    <path d="M 110.36 613.24 
L 110.36 10.8 
" style="fill:none;stroke:#000000;stroke-linecap:square;stroke-linejoin:miter;stroke-width:0.8;"/>
   </g>
   <g id="patch_4">
    <path d="M 837.556364 613.24 
L 837.556364 10.8 
" style="fill:none;stroke:#000000;stroke-linecap:square;stroke-linejoin:miter;stroke-width:0.8;"/>
   </g>
   <g id="patch_5">
    <path d="M 110.36 613.24 
L 837.556364 613.24 
" style="fill:none;stroke:#000000;stroke-linecap:square;stroke-linejoin:miter;stroke-width:0.8;"/>
   </g>
   <g id="patch_6">
    <path d="M 110.36 10.8 
L 837.556364 10.8 
" style="fill:none;stroke:#000000;stroke-linecap:square;stroke-linejoin:miter;stroke-width:0.8;"/>
   </g>
   <g id="legend_1">
    <g id="line2d_35">
     <path d="M 151.76 415.820937 
L 243.76 415.820937 
" style="fill:none;stroke:#7e2f8e;stroke-linecap:square;stroke-width:3;"/>
    </g>
    <g id="line2d_36"/>
    <g id="text_18">
     <!-- RDSE -->
     <g transform="translate(280.56 431.920937)scale(0.46 -0.46)">
      <defs>
       <path d="M 4325 0 
L 3194 0 
L 1759 1981 
Q 1600 1975 1500 1975 
Q 1459 1975 1412 1976 
Q 1366 1978 1316 1981 
L 1316 750 
Q 1316 350 1403 253 
Q 1522 116 1759 116 
L 1925 116 
L 1925 0 
L 109 0 
L 109 116 
L 269 116 
Q 538 116 653 291 
Q 719 388 719 750 
L 719 3488 
Q 719 3888 631 3984 
Q 509 4122 269 4122 
L 109 4122 
L 109 4238 
L 1653 4238 
Q 2328 4238 2648 4139 
Q 2969 4041 3192 3777 
Q 3416 3513 3416 3147 
Q 3416 2756 3161 2468 
Q 2906 2181 2372 2063 
L 3247 847 
Q 3547 428 3762 290 
Q 3978 153 4325 116 
L 4325 0 
z
M 1316 2178 
Q 1375 2178 1419 2176 
Q 1463 2175 1491 2175 
Q 2097 2175 2405 2437 
Q 2713 2700 2713 3106 
Q 2713 3503 2464 3751 
Q 2216 4000 1806 4000 
Q 1625 4000 1316 3941 
L 1316 2178 
z
" id="TimesNewRomanPSMT-52" transform="scale(0.015625)"/>
       <path d="M 109 0 
L 109 116 
L 269 116 
Q 538 116 650 288 
Q 719 391 719 750 
L 719 3488 
Q 719 3884 631 3984 
Q 509 4122 269 4122 
L 109 4122 
L 109 4238 
L 1834 4238 
Q 2784 4238 3279 4022 
Q 3775 3806 4076 3303 
Q 4378 2800 4378 2141 
Q 4378 1256 3841 663 
Q 3238 0 2003 0 
L 109 0 
z
M 1319 306 
Q 1716 219 1984 219 
Q 2709 219 3187 728 
Q 3666 1238 3666 2109 
Q 3666 2988 3187 3494 
Q 2709 4000 1959 4000 
Q 1678 4000 1319 3909 
L 1319 306 
z
" id="TimesNewRomanPSMT-44" transform="scale(0.015625)"/>
       <path d="M 2934 4334 
L 2934 2869 
L 2819 2869 
Q 2763 3291 2617 3541 
Q 2472 3791 2203 3937 
Q 1934 4084 1647 4084 
Q 1322 4084 1109 3886 
Q 897 3688 897 3434 
Q 897 3241 1031 3081 
Q 1225 2847 1953 2456 
Q 2547 2138 2764 1967 
Q 2981 1797 3098 1565 
Q 3216 1334 3216 1081 
Q 3216 600 2842 251 
Q 2469 -97 1881 -97 
Q 1697 -97 1534 -69 
Q 1438 -53 1133 45 
Q 828 144 747 144 
Q 669 144 623 97 
Q 578 50 556 -97 
L 441 -97 
L 441 1356 
L 556 1356 
Q 638 900 775 673 
Q 913 447 1195 297 
Q 1478 147 1816 147 
Q 2206 147 2432 353 
Q 2659 559 2659 841 
Q 2659 997 2573 1156 
Q 2488 1316 2306 1453 
Q 2184 1547 1640 1851 
Q 1097 2156 867 2337 
Q 638 2519 519 2737 
Q 400 2956 400 3219 
Q 400 3675 750 4004 
Q 1100 4334 1641 4334 
Q 1978 4334 2356 4169 
Q 2531 4091 2603 4091 
Q 2684 4091 2736 4139 
Q 2788 4188 2819 4334 
L 2934 4334 
z
" id="TimesNewRomanPSMT-53" transform="scale(0.015625)"/>
       <path d="M 1338 4006 
L 1338 2331 
L 2269 2331 
Q 2631 2331 2753 2441 
Q 2916 2584 2934 2947 
L 3050 2947 
L 3050 1472 
L 2934 1472 
Q 2891 1781 2847 1869 
Q 2791 1978 2662 2040 
Q 2534 2103 2269 2103 
L 1338 2103 
L 1338 706 
Q 1338 425 1363 364 
Q 1388 303 1450 267 
Q 1513 231 1688 231 
L 2406 231 
Q 2766 231 2928 281 
Q 3091 331 3241 478 
Q 3434 672 3638 1063 
L 3763 1063 
L 3397 0 
L 131 0 
L 131 116 
L 281 116 
Q 431 116 566 188 
Q 666 238 702 338 
Q 738 438 738 747 
L 738 3500 
Q 738 3903 656 3997 
Q 544 4122 281 4122 
L 131 4122 
L 131 4238 
L 3397 4238 
L 3444 3309 
L 3322 3309 
Q 3256 3644 3176 3769 
Q 3097 3894 2941 3959 
Q 2816 4006 2500 4006 
L 1338 4006 
z
" id="TimesNewRomanPSMT-45" transform="scale(0.015625)"/>
      </defs>
      <use xlink:href="#TimesNewRomanPSMT-52"/>
      <use x="66.699219" xlink:href="#TimesNewRomanPSMT-44"/>
      <use x="138.916016" xlink:href="#TimesNewRomanPSMT-53"/>
      <use x="194.53125" xlink:href="#TimesNewRomanPSMT-45"/>
     </g>
    </g>
    <g id="line2d_37">
     <path d="M 151.76 480.860625 
L 243.76 480.860625 
" style="fill:none;stroke:#a2142f;stroke-linecap:square;stroke-width:3;"/>
    </g>
    <g id="line2d_38"/>
    <g id="text_19">
     <!-- few-shot  -->
     <g transform="translate(280.56 496.960625)scale(0.46 -0.46)">
      <defs>
       <path d="M 1319 2638 
L 1319 756 
Q 1319 356 1406 250 
Q 1522 113 1716 113 
L 1975 113 
L 1975 0 
L 266 0 
L 266 113 
L 394 113 
Q 519 113 622 175 
Q 725 238 764 344 
Q 803 450 803 756 
L 803 2638 
L 247 2638 
L 247 2863 
L 803 2863 
L 803 3050 
Q 803 3478 940 3775 
Q 1078 4072 1361 4255 
Q 1644 4438 1997 4438 
Q 2325 4438 2600 4225 
Q 2781 4084 2781 3909 
Q 2781 3816 2700 3733 
Q 2619 3650 2525 3650 
Q 2453 3650 2373 3701 
Q 2294 3753 2178 3923 
Q 2063 4094 1966 4153 
Q 1869 4213 1750 4213 
Q 1606 4213 1506 4136 
Q 1406 4059 1362 3898 
Q 1319 3738 1319 3069 
L 1319 2863 
L 2056 2863 
L 2056 2638 
L 1319 2638 
z
" id="TimesNewRomanPSMT-66" transform="scale(0.015625)"/>
       <path d="M 41 2863 
L 1241 2863 
L 1241 2747 
Q 1075 2734 1023 2687 
Q 972 2641 972 2553 
Q 972 2456 1025 2319 
L 1638 672 
L 2253 2013 
L 2091 2434 
Q 2016 2622 1894 2694 
Q 1825 2738 1638 2747 
L 1638 2863 
L 3000 2863 
L 3000 2747 
Q 2775 2738 2681 2666 
Q 2619 2616 2619 2506 
Q 2619 2444 2644 2378 
L 3294 734 
L 3897 2319 
Q 3959 2488 3959 2588 
Q 3959 2647 3898 2694 
Q 3838 2741 3659 2747 
L 3659 2863 
L 4563 2863 
L 4563 2747 
Q 4291 2706 4163 2378 
L 3206 -88 
L 3078 -88 
L 2363 1741 
L 1528 -88 
L 1413 -88 
L 494 2319 
Q 403 2547 315 2626 
Q 228 2706 41 2747 
L 41 2863 
z
" id="TimesNewRomanPSMT-77" transform="scale(0.015625)"/>
       <path d="M 259 1672 
L 1875 1672 
L 1875 1200 
L 259 1200 
L 259 1672 
z
" id="TimesNewRomanPSMT-2d" transform="scale(0.015625)"/>
       <path d="M 1041 4444 
L 1041 2350 
Q 1388 2731 1591 2839 
Q 1794 2947 1997 2947 
Q 2241 2947 2416 2812 
Q 2591 2678 2675 2391 
Q 2734 2191 2734 1659 
L 2734 647 
Q 2734 375 2778 275 
Q 2809 200 2884 156 
Q 2959 113 3159 113 
L 3159 0 
L 1753 0 
L 1753 113 
L 1819 113 
Q 2019 113 2097 173 
Q 2175 234 2206 353 
Q 2216 403 2216 647 
L 2216 1659 
Q 2216 2128 2167 2275 
Q 2119 2422 2012 2495 
Q 1906 2569 1756 2569 
Q 1603 2569 1437 2487 
Q 1272 2406 1041 2159 
L 1041 647 
Q 1041 353 1073 281 
Q 1106 209 1195 161 
Q 1284 113 1503 113 
L 1503 0 
L 84 0 
L 84 113 
Q 275 113 384 172 
Q 447 203 484 290 
Q 522 378 522 647 
L 522 3238 
Q 522 3728 498 3840 
Q 475 3953 426 3993 
Q 378 4034 297 4034 
Q 231 4034 84 3984 
L 41 4094 
L 897 4444 
L 1041 4444 
z
" id="TimesNewRomanPSMT-68" transform="scale(0.015625)"/>
       <path id="TimesNewRomanPSMT-20" transform="scale(0.015625)"/>
      </defs>
      <use xlink:href="#TimesNewRomanPSMT-66"/>
      <use x="33.300781" xlink:href="#TimesNewRomanPSMT-65"/>
      <use x="77.685547" xlink:href="#TimesNewRomanPSMT-77"/>
      <use x="149.902344" xlink:href="#TimesNewRomanPSMT-2d"/>
      <use x="183.203125" xlink:href="#TimesNewRomanPSMT-73"/>
      <use x="222.119141" xlink:href="#TimesNewRomanPSMT-68"/>
      <use x="272.119141" xlink:href="#TimesNewRomanPSMT-6f"/>
      <use x="322.119141" xlink:href="#TimesNewRomanPSMT-74"/>
      <use x="349.902344" xlink:href="#TimesNewRomanPSMT-20"/>
     </g>
    </g>
    <g id="line2d_39">
     <path d="M 151.76 545.900312 
L 243.76 545.900312 
" style="fill:none;stroke:#d95319;stroke-dasharray:14.8,6.4;stroke-dashoffset:0;stroke-width:4;"/>
    </g>
    <g id="line2d_40"/>
    <g id="text_20">
     <!-- zero-shot -->
     <g transform="translate(280.56 562.000312)scale(0.46 -0.46)">
      <defs>
       <path d="M 2688 878 
L 2653 0 
L 128 0 
L 128 113 
L 2028 2644 
L 1091 2644 
Q 788 2644 694 2605 
Q 600 2566 541 2456 
Q 456 2300 444 2069 
L 319 2069 
L 338 2863 
L 2738 2863 
L 2738 2747 
L 819 209 
L 1863 209 
Q 2191 209 2308 264 
Q 2425 319 2497 456 
Q 2547 556 2581 878 
L 2688 878 
z
" id="TimesNewRomanPSMT-7a" transform="scale(0.015625)"/>
      </defs>
      <use xlink:href="#TimesNewRomanPSMT-7a"/>
      <use x="44.384766" xlink:href="#TimesNewRomanPSMT-65"/>
      <use x="88.769531" xlink:href="#TimesNewRomanPSMT-72"/>
      <use x="122.070312" xlink:href="#TimesNewRomanPSMT-6f"/>
      <use x="172.070312" xlink:href="#TimesNewRomanPSMT-2d"/>
      <use x="205.371094" xlink:href="#TimesNewRomanPSMT-73"/>
      <use x="244.287109" xlink:href="#TimesNewRomanPSMT-68"/>
      <use x="294.287109" xlink:href="#TimesNewRomanPSMT-6f"/>
      <use x="344.287109" xlink:href="#TimesNewRomanPSMT-74"/>
     </g>
    </g>
   </g>
  </g>
 </g>
 <defs>
  <clipPath id="p0c7afdce41">
   <rect height="602.44" width="727.196364" x="110.36" y="10.8"/>
  </clipPath>
 </defs>
</svg>
