<?xml version="1.0" encoding="utf-8" standalone="no"?>
<!DOCTYPE svg PUBLIC "-//W3C//DTD SVG 1.1//EN"
  "http://www.w3.org/Graphics/SVG/1.1/DTD/svg11.dtd">
<svg height="720pt" version="1.1" viewBox="0 0 864 720" width="864pt" xmlns="http://www.w3.org/2000/svg" xmlns:xlink="http://www.w3.org/1999/xlink">
 <metadata>
  <rdf:RDF xmlns:cc="http://creativecommons.org/ns#" xmlns:dc="http://purl.org/dc/elements/1.1/" xmlns:rdf="http://www.w3.org/1999/02/22-rdf-syntax-ns#">
   <cc:Work>
    <dc:type rdf:resource="http://purl.org/dc/dcmitype/StillImage"/>
    <dc:date>2025-03-02T10:47:19.349460</dc:date>
    <dc:format>image/svg+xml</dc:format>
    <dc:creator>
     <cc:Agent>
      <dc:title>Matplotlib v3.4.3, https://matplotlib.org/</dc:title>
     </cc:Agent>
    </dc:creator>
   </cc:Work>
  </rdf:RDF>
 </metadata>
 <defs>
  <style type="text/css">*{stroke-linecap:butt;stroke-linejoin:round;}</style>
 </defs>
 <g id="figure_1">
  <g id="patch_1">
   <path d="M 0 720 
L 864 720 
L 864 0 
L 0 0 
z
" style="fill:#ffffff;"/>
  </g>
  <g id="axes_1">
   <g id="patch_2">
    <path d="M 110.36 613.24 
L 836.947027 613.24 
L 836.947027 10.8 
L 110.36 10.8 
z
" style="fill:#ffffff;"/>
   </g>
   <g id="matplotlib.axis_1">
    <g id="xtick_1">
     <g id="line2d_1">
      <path clip-path="url(#p739a6d1dab)" d="M 143.386683 613.24 
L 143.386683 10.8 
" style="fill:none;stroke:#b0b0b0;stroke-dasharray:2.96,1.28;stroke-dashoffset:0;stroke-opacity:0.5;stroke-width:0.8;"/>
     </g>
     <g id="line2d_2">
      <defs>
       <path d="M 0 0 
L 0 3.5 
" id="m51ef17bb08" style="stroke:#000000;stroke-width:0.8;"/>
      </defs>
      <g>
       <use style="stroke:#000000;stroke-width:0.8;" x="143.386683" xlink:href="#m51ef17bb08" y="613.24"/>
      </g>
     </g>
     <g id="text_1">
      <!-- 0 -->
      <g transform="translate(131.886683 652.18125)scale(0.46 -0.46)">
       <defs>
        <path d="M 231 2094 
Q 231 2819 450 3342 
Q 669 3866 1031 4122 
Q 1313 4325 1613 4325 
Q 2100 4325 2488 3828 
Q 2972 3213 2972 2159 
Q 2972 1422 2759 906 
Q 2547 391 2217 158 
Q 1888 -75 1581 -75 
Q 975 -75 572 641 
Q 231 1244 231 2094 
z
M 844 2016 
Q 844 1141 1059 588 
Q 1238 122 1591 122 
Q 1759 122 1940 273 
Q 2122 425 2216 781 
Q 2359 1319 2359 2297 
Q 2359 3022 2209 3506 
Q 2097 3866 1919 4016 
Q 1791 4119 1609 4119 
Q 1397 4119 1231 3928 
Q 1006 3669 925 3112 
Q 844 2556 844 2016 
z
" id="TimesNewRomanPSMT-30" transform="scale(0.015625)"/>
       </defs>
       <use xlink:href="#TimesNewRomanPSMT-30"/>
      </g>
     </g>
    </g>
    <g id="xtick_2">
     <g id="line2d_3">
      <path clip-path="url(#p739a6d1dab)" d="M 275.625654 613.24 
L 275.625654 10.8 
" style="fill:none;stroke:#b0b0b0;stroke-dasharray:2.96,1.28;stroke-dashoffset:0;stroke-opacity:0.5;stroke-width:0.8;"/>
     </g>
     <g id="line2d_4">
      <g>
       <use style="stroke:#000000;stroke-width:0.8;" x="275.625654" xlink:href="#m51ef17bb08" y="613.24"/>
      </g>
     </g>
     <g id="text_2">
      <!-- 200 -->
      <g transform="translate(241.125654 652.18125)scale(0.46 -0.46)">
       <defs>
        <path d="M 2934 816 
L 2638 0 
L 138 0 
L 138 116 
Q 1241 1122 1691 1759 
Q 2141 2397 2141 2925 
Q 2141 3328 1894 3587 
Q 1647 3847 1303 3847 
Q 991 3847 742 3664 
Q 494 3481 375 3128 
L 259 3128 
Q 338 3706 661 4015 
Q 984 4325 1469 4325 
Q 1984 4325 2329 3994 
Q 2675 3663 2675 3213 
Q 2675 2891 2525 2569 
Q 2294 2063 1775 1497 
Q 997 647 803 472 
L 1909 472 
Q 2247 472 2383 497 
Q 2519 522 2628 598 
Q 2738 675 2819 816 
L 2934 816 
z
" id="TimesNewRomanPSMT-32" transform="scale(0.015625)"/>
       </defs>
       <use xlink:href="#TimesNewRomanPSMT-32"/>
       <use x="50" xlink:href="#TimesNewRomanPSMT-30"/>
       <use x="100" xlink:href="#TimesNewRomanPSMT-30"/>
      </g>
     </g>
    </g>
    <g id="xtick_3">
     <g id="line2d_5">
      <path clip-path="url(#p739a6d1dab)" d="M 407.864625 613.24 
L 407.864625 10.8 
" style="fill:none;stroke:#b0b0b0;stroke-dasharray:2.96,1.28;stroke-dashoffset:0;stroke-opacity:0.5;stroke-width:0.8;"/>
     </g>
     <g id="line2d_6">
      <g>
       <use style="stroke:#000000;stroke-width:0.8;" x="407.864625" xlink:href="#m51ef17bb08" y="613.24"/>
      </g>
     </g>
     <g id="text_3">
      <!-- 400 -->
      <g transform="translate(373.364625 652.18125)scale(0.46 -0.46)">
       <defs>
        <path d="M 2978 1563 
L 2978 1119 
L 2409 1119 
L 2409 0 
L 1894 0 
L 1894 1119 
L 100 1119 
L 100 1519 
L 2066 4325 
L 2409 4325 
L 2409 1563 
L 2978 1563 
z
M 1894 1563 
L 1894 3666 
L 406 1563 
L 1894 1563 
z
" id="TimesNewRomanPSMT-34" transform="scale(0.015625)"/>
       </defs>
       <use xlink:href="#TimesNewRomanPSMT-34"/>
       <use x="50" xlink:href="#TimesNewRomanPSMT-30"/>
       <use x="100" xlink:href="#TimesNewRomanPSMT-30"/>
      </g>
     </g>
    </g>
    <g id="xtick_4">
     <g id="line2d_7">
      <path clip-path="url(#p739a6d1dab)" d="M 540.103597 613.24 
L 540.103597 10.8 
" style="fill:none;stroke:#b0b0b0;stroke-dasharray:2.96,1.28;stroke-dashoffset:0;stroke-opacity:0.5;stroke-width:0.8;"/>
     </g>
     <g id="line2d_8">
      <g>
       <use style="stroke:#000000;stroke-width:0.8;" x="540.103597" xlink:href="#m51ef17bb08" y="613.24"/>
      </g>
     </g>
     <g id="text_4">
      <!-- 600 -->
      <g transform="translate(505.603597 652.18125)scale(0.46 -0.46)">
       <defs>
        <path d="M 2869 4325 
L 2869 4209 
Q 2456 4169 2195 4045 
Q 1934 3922 1679 3669 
Q 1425 3416 1258 3105 
Q 1091 2794 978 2366 
Q 1428 2675 1881 2675 
Q 2316 2675 2634 2325 
Q 2953 1975 2953 1425 
Q 2953 894 2631 456 
Q 2244 -75 1606 -75 
Q 1172 -75 869 213 
Q 275 772 275 1663 
Q 275 2231 503 2743 
Q 731 3256 1154 3653 
Q 1578 4050 1965 4187 
Q 2353 4325 2688 4325 
L 2869 4325 
z
M 925 2138 
Q 869 1716 869 1456 
Q 869 1156 980 804 
Q 1091 453 1309 247 
Q 1469 100 1697 100 
Q 1969 100 2183 356 
Q 2397 613 2397 1088 
Q 2397 1622 2184 2012 
Q 1972 2403 1581 2403 
Q 1463 2403 1327 2353 
Q 1191 2303 925 2138 
z
" id="TimesNewRomanPSMT-36" transform="scale(0.015625)"/>
       </defs>
       <use xlink:href="#TimesNewRomanPSMT-36"/>
       <use x="50" xlink:href="#TimesNewRomanPSMT-30"/>
       <use x="100" xlink:href="#TimesNewRomanPSMT-30"/>
      </g>
     </g>
    </g>
    <g id="xtick_5">
     <g id="line2d_9">
      <path clip-path="url(#p739a6d1dab)" d="M 672.342568 613.24 
L 672.342568 10.8 
" style="fill:none;stroke:#b0b0b0;stroke-dasharray:2.96,1.28;stroke-dashoffset:0;stroke-opacity:0.5;stroke-width:0.8;"/>
     </g>
     <g id="line2d_10">
      <g>
       <use style="stroke:#000000;stroke-width:0.8;" x="672.342568" xlink:href="#m51ef17bb08" y="613.24"/>
      </g>
     </g>
     <g id="text_5">
      <!-- 800 -->
      <g transform="translate(637.842568 652.18125)scale(0.46 -0.46)">
       <defs>
        <path d="M 1228 2134 
Q 725 2547 579 2797 
Q 434 3047 434 3316 
Q 434 3728 753 4026 
Q 1072 4325 1600 4325 
Q 2113 4325 2425 4047 
Q 2738 3769 2738 3413 
Q 2738 3175 2569 2928 
Q 2400 2681 1866 2347 
Q 2416 1922 2594 1678 
Q 2831 1359 2831 1006 
Q 2831 559 2490 242 
Q 2150 -75 1597 -75 
Q 994 -75 656 303 
Q 388 606 388 966 
Q 388 1247 577 1523 
Q 766 1800 1228 2134 
z
M 1719 2469 
Q 2094 2806 2194 3001 
Q 2294 3197 2294 3444 
Q 2294 3772 2109 3958 
Q 1925 4144 1606 4144 
Q 1288 4144 1088 3959 
Q 888 3775 888 3528 
Q 888 3366 970 3203 
Q 1053 3041 1206 2894 
L 1719 2469 
z
M 1375 2016 
Q 1116 1797 991 1539 
Q 866 1281 866 981 
Q 866 578 1086 336 
Q 1306 94 1647 94 
Q 1984 94 2187 284 
Q 2391 475 2391 747 
Q 2391 972 2272 1150 
Q 2050 1481 1375 2016 
z
" id="TimesNewRomanPSMT-38" transform="scale(0.015625)"/>
       </defs>
       <use xlink:href="#TimesNewRomanPSMT-38"/>
       <use x="50" xlink:href="#TimesNewRomanPSMT-30"/>
       <use x="100" xlink:href="#TimesNewRomanPSMT-30"/>
      </g>
     </g>
    </g>
    <g id="xtick_6">
     <g id="line2d_11">
      <path clip-path="url(#p739a6d1dab)" d="M 804.581539 613.24 
L 804.581539 10.8 
" style="fill:none;stroke:#b0b0b0;stroke-dasharray:2.96,1.28;stroke-dashoffset:0;stroke-opacity:0.5;stroke-width:0.8;"/>
     </g>
     <g id="line2d_12">
      <g>
       <use style="stroke:#000000;stroke-width:0.8;" x="804.581539" xlink:href="#m51ef17bb08" y="613.24"/>
      </g>
     </g>
     <g id="text_6">
      <!-- 1000 -->
      <g transform="translate(758.581539 652.18125)scale(0.46 -0.46)">
       <defs>
        <path d="M 750 3822 
L 1781 4325 
L 1884 4325 
L 1884 747 
Q 1884 391 1914 303 
Q 1944 216 2037 169 
Q 2131 122 2419 116 
L 2419 0 
L 825 0 
L 825 116 
Q 1125 122 1212 167 
Q 1300 213 1334 289 
Q 1369 366 1369 747 
L 1369 3034 
Q 1369 3497 1338 3628 
Q 1316 3728 1258 3775 
Q 1200 3822 1119 3822 
Q 1003 3822 797 3725 
L 750 3822 
z
" id="TimesNewRomanPSMT-31" transform="scale(0.015625)"/>
       </defs>
       <use xlink:href="#TimesNewRomanPSMT-31"/>
       <use x="50" xlink:href="#TimesNewRomanPSMT-30"/>
       <use x="100" xlink:href="#TimesNewRomanPSMT-30"/>
       <use x="150" xlink:href="#TimesNewRomanPSMT-30"/>
      </g>
     </g>
    </g>
    <g id="text_7">
     <!-- episode -->
     <g transform="translate(403.392107 697.962187)scale(0.46 -0.46)">
      <defs>
       <path d="M 681 1784 
Q 678 1147 991 784 
Q 1303 422 1725 422 
Q 2006 422 2214 576 
Q 2422 731 2563 1106 
L 2659 1044 
Q 2594 616 2278 264 
Q 1963 -88 1488 -88 
Q 972 -88 605 314 
Q 238 716 238 1394 
Q 238 2128 614 2539 
Q 991 2950 1559 2950 
Q 2041 2950 2350 2633 
Q 2659 2316 2659 1784 
L 681 1784 
z
M 681 1966 
L 2006 1966 
Q 1991 2241 1941 2353 
Q 1863 2528 1708 2628 
Q 1553 2728 1384 2728 
Q 1125 2728 920 2526 
Q 716 2325 681 1966 
z
" id="TimesNewRomanPSMT-65" transform="scale(0.015625)"/>
       <path d="M -6 2578 
L 875 2934 
L 994 2934 
L 994 2266 
Q 1216 2644 1439 2795 
Q 1663 2947 1909 2947 
Q 2341 2947 2628 2609 
Q 2981 2197 2981 1534 
Q 2981 794 2556 309 
Q 2206 -88 1675 -88 
Q 1444 -88 1275 -22 
Q 1150 25 994 166 
L 994 -706 
Q 994 -1000 1030 -1079 
Q 1066 -1159 1155 -1206 
Q 1244 -1253 1478 -1253 
L 1478 -1369 
L -22 -1369 
L -22 -1253 
L 56 -1253 
Q 228 -1256 350 -1188 
Q 409 -1153 442 -1076 
Q 475 -1000 475 -688 
L 475 2019 
Q 475 2297 450 2372 
Q 425 2447 370 2484 
Q 316 2522 222 2522 
Q 147 2522 31 2478 
L -6 2578 
z
M 994 2081 
L 994 1013 
Q 994 666 1022 556 
Q 1066 375 1236 237 
Q 1406 100 1666 100 
Q 1978 100 2172 344 
Q 2425 663 2425 1241 
Q 2425 1897 2138 2250 
Q 1938 2494 1663 2494 
Q 1513 2494 1366 2419 
Q 1253 2363 994 2081 
z
" id="TimesNewRomanPSMT-70" transform="scale(0.015625)"/>
       <path d="M 928 4444 
Q 1059 4444 1151 4351 
Q 1244 4259 1244 4128 
Q 1244 3997 1151 3903 
Q 1059 3809 928 3809 
Q 797 3809 703 3903 
Q 609 3997 609 4128 
Q 609 4259 701 4351 
Q 794 4444 928 4444 
z
M 1188 2947 
L 1188 647 
Q 1188 378 1227 289 
Q 1266 200 1342 156 
Q 1419 113 1622 113 
L 1622 0 
L 231 0 
L 231 113 
Q 441 113 512 153 
Q 584 194 626 287 
Q 669 381 669 647 
L 669 1750 
Q 669 2216 641 2353 
Q 619 2453 572 2492 
Q 525 2531 444 2531 
Q 356 2531 231 2484 
L 188 2597 
L 1050 2947 
L 1188 2947 
z
" id="TimesNewRomanPSMT-69" transform="scale(0.015625)"/>
       <path d="M 2050 2947 
L 2050 1972 
L 1947 1972 
Q 1828 2431 1642 2597 
Q 1456 2763 1169 2763 
Q 950 2763 815 2647 
Q 681 2531 681 2391 
Q 681 2216 781 2091 
Q 878 1963 1175 1819 
L 1631 1597 
Q 2266 1288 2266 781 
Q 2266 391 1970 151 
Q 1675 -88 1309 -88 
Q 1047 -88 709 6 
Q 606 38 541 38 
Q 469 38 428 -44 
L 325 -44 
L 325 978 
L 428 978 
Q 516 541 762 319 
Q 1009 97 1316 97 
Q 1531 97 1667 223 
Q 1803 350 1803 528 
Q 1803 744 1651 891 
Q 1500 1038 1047 1263 
Q 594 1488 453 1669 
Q 313 1847 313 2119 
Q 313 2472 555 2709 
Q 797 2947 1181 2947 
Q 1350 2947 1591 2875 
Q 1750 2828 1803 2828 
Q 1853 2828 1881 2850 
Q 1909 2872 1947 2947 
L 2050 2947 
z
" id="TimesNewRomanPSMT-73" transform="scale(0.015625)"/>
       <path d="M 1600 2947 
Q 2250 2947 2644 2453 
Q 2978 2031 2978 1484 
Q 2978 1100 2793 706 
Q 2609 313 2286 112 
Q 1963 -88 1566 -88 
Q 919 -88 538 428 
Q 216 863 216 1403 
Q 216 1797 411 2186 
Q 606 2575 925 2761 
Q 1244 2947 1600 2947 
z
M 1503 2744 
Q 1338 2744 1170 2645 
Q 1003 2547 900 2300 
Q 797 2053 797 1666 
Q 797 1041 1045 587 
Q 1294 134 1700 134 
Q 2003 134 2200 384 
Q 2397 634 2397 1244 
Q 2397 2006 2069 2444 
Q 1847 2744 1503 2744 
z
" id="TimesNewRomanPSMT-6f" transform="scale(0.015625)"/>
       <path d="M 2222 322 
Q 2013 103 1813 7 
Q 1613 -88 1381 -88 
Q 913 -88 563 304 
Q 213 697 213 1313 
Q 213 1928 600 2439 
Q 988 2950 1597 2950 
Q 1975 2950 2222 2709 
L 2222 3238 
Q 2222 3728 2198 3840 
Q 2175 3953 2125 3993 
Q 2075 4034 2000 4034 
Q 1919 4034 1784 3984 
L 1744 4094 
L 2597 4444 
L 2738 4444 
L 2738 1134 
Q 2738 631 2761 520 
Q 2784 409 2836 365 
Q 2888 322 2956 322 
Q 3041 322 3181 375 
L 3216 266 
L 2366 -88 
L 2222 -88 
L 2222 322 
z
M 2222 541 
L 2222 2016 
Q 2203 2228 2109 2403 
Q 2016 2578 1861 2667 
Q 1706 2756 1559 2756 
Q 1284 2756 1069 2509 
Q 784 2184 784 1559 
Q 784 928 1059 592 
Q 1334 256 1672 256 
Q 1956 256 2222 541 
z
" id="TimesNewRomanPSMT-64" transform="scale(0.015625)"/>
      </defs>
      <use xlink:href="#TimesNewRomanPSMT-65"/>
      <use x="44.384766" xlink:href="#TimesNewRomanPSMT-70"/>
      <use x="94.384766" xlink:href="#TimesNewRomanPSMT-69"/>
      <use x="122.167969" xlink:href="#TimesNewRomanPSMT-73"/>
      <use x="161.083984" xlink:href="#TimesNewRomanPSMT-6f"/>
      <use x="211.083984" xlink:href="#TimesNewRomanPSMT-64"/>
      <use x="261.083984" xlink:href="#TimesNewRomanPSMT-65"/>
     </g>
    </g>
   </g>
   <g id="matplotlib.axis_2">
    <g id="ytick_1">
     <g id="line2d_13">
      <path clip-path="url(#p739a6d1dab)" d="M 110.36 613.24 
L 836.947027 613.24 
" style="fill:none;stroke:#b0b0b0;stroke-dasharray:2.96,1.28;stroke-dashoffset:0;stroke-opacity:0.5;stroke-width:0.8;"/>
     </g>
     <g id="line2d_14">
      <defs>
       <path d="M 0 0 
L -3.5 0 
" id="m0306105072" style="stroke:#000000;stroke-width:0.8;"/>
      </defs>
      <g>
       <use style="stroke:#000000;stroke-width:0.8;" x="110.36" xlink:href="#m0306105072" y="613.24"/>
      </g>
     </g>
     <g id="text_8">
      <!-- 0 -->
      <g transform="translate(80.36 629.210625)scale(0.46 -0.46)">
       <use xlink:href="#TimesNewRomanPSMT-30"/>
      </g>
     </g>
    </g>
    <g id="ytick_2">
     <g id="line2d_15">
      <path clip-path="url(#p739a6d1dab)" d="M 110.36 543.030092 
L 836.947027 543.030092 
" style="fill:none;stroke:#b0b0b0;stroke-dasharray:2.96,1.28;stroke-dashoffset:0;stroke-opacity:0.5;stroke-width:0.8;"/>
     </g>
     <g id="line2d_16">
      <g>
       <use style="stroke:#000000;stroke-width:0.8;" x="110.36" xlink:href="#m0306105072" y="543.030092"/>
      </g>
     </g>
     <g id="text_9">
      <!-- 10 -->
      <g transform="translate(57.36 559.000717)scale(0.46 -0.46)">
       <use xlink:href="#TimesNewRomanPSMT-31"/>
       <use x="50" xlink:href="#TimesNewRomanPSMT-30"/>
      </g>
     </g>
    </g>
    <g id="ytick_3">
     <g id="line2d_17">
      <path clip-path="url(#p739a6d1dab)" d="M 110.36 472.820184 
L 836.947027 472.820184 
" style="fill:none;stroke:#b0b0b0;stroke-dasharray:2.96,1.28;stroke-dashoffset:0;stroke-opacity:0.5;stroke-width:0.8;"/>
     </g>
     <g id="line2d_18">
      <g>
       <use style="stroke:#000000;stroke-width:0.8;" x="110.36" xlink:href="#m0306105072" y="472.820184"/>
      </g>
     </g>
     <g id="text_10">
      <!-- 20 -->
      <g transform="translate(57.36 488.790809)scale(0.46 -0.46)">
       <use xlink:href="#TimesNewRomanPSMT-32"/>
       <use x="50" xlink:href="#TimesNewRomanPSMT-30"/>
      </g>
     </g>
    </g>
    <g id="ytick_4">
     <g id="line2d_19">
      <path clip-path="url(#p739a6d1dab)" d="M 110.36 402.610275 
L 836.947027 402.610275 
" style="fill:none;stroke:#b0b0b0;stroke-dasharray:2.96,1.28;stroke-dashoffset:0;stroke-opacity:0.5;stroke-width:0.8;"/>
     </g>
     <g id="line2d_20">
      <g>
       <use style="stroke:#000000;stroke-width:0.8;" x="110.36" xlink:href="#m0306105072" y="402.610275"/>
      </g>
     </g>
     <g id="text_11">
      <!-- 30 -->
      <g transform="translate(57.36 418.5809)scale(0.46 -0.46)">
       <defs>
        <path d="M 325 3431 
Q 506 3859 782 4092 
Q 1059 4325 1472 4325 
Q 1981 4325 2253 3994 
Q 2459 3747 2459 3466 
Q 2459 3003 1878 2509 
Q 2269 2356 2469 2072 
Q 2669 1788 2669 1403 
Q 2669 853 2319 450 
Q 1863 -75 997 -75 
Q 569 -75 414 31 
Q 259 138 259 259 
Q 259 350 332 419 
Q 406 488 509 488 
Q 588 488 669 463 
Q 722 447 909 348 
Q 1097 250 1169 231 
Q 1284 197 1416 197 
Q 1734 197 1970 444 
Q 2206 691 2206 1028 
Q 2206 1275 2097 1509 
Q 2016 1684 1919 1775 
Q 1784 1900 1550 2001 
Q 1316 2103 1072 2103 
L 972 2103 
L 972 2197 
Q 1219 2228 1467 2375 
Q 1716 2522 1828 2728 
Q 1941 2934 1941 3181 
Q 1941 3503 1739 3701 
Q 1538 3900 1238 3900 
Q 753 3900 428 3381 
L 325 3431 
z
" id="TimesNewRomanPSMT-33" transform="scale(0.015625)"/>
       </defs>
       <use xlink:href="#TimesNewRomanPSMT-33"/>
       <use x="50" xlink:href="#TimesNewRomanPSMT-30"/>
      </g>
     </g>
    </g>
    <g id="ytick_5">
     <g id="line2d_21">
      <path clip-path="url(#p739a6d1dab)" d="M 110.36 332.400367 
L 836.947027 332.400367 
" style="fill:none;stroke:#b0b0b0;stroke-dasharray:2.96,1.28;stroke-dashoffset:0;stroke-opacity:0.5;stroke-width:0.8;"/>
     </g>
     <g id="line2d_22">
      <g>
       <use style="stroke:#000000;stroke-width:0.8;" x="110.36" xlink:href="#m0306105072" y="332.400367"/>
      </g>
     </g>
     <g id="text_12">
      <!-- 40 -->
      <g transform="translate(57.36 348.370992)scale(0.46 -0.46)">
       <use xlink:href="#TimesNewRomanPSMT-34"/>
       <use x="50" xlink:href="#TimesNewRomanPSMT-30"/>
      </g>
     </g>
    </g>
    <g id="ytick_6">
     <g id="line2d_23">
      <path clip-path="url(#p739a6d1dab)" d="M 110.36 262.190459 
L 836.947027 262.190459 
" style="fill:none;stroke:#b0b0b0;stroke-dasharray:2.96,1.28;stroke-dashoffset:0;stroke-opacity:0.5;stroke-width:0.8;"/>
     </g>
     <g id="line2d_24">
      <g>
       <use style="stroke:#000000;stroke-width:0.8;" x="110.36" xlink:href="#m0306105072" y="262.190459"/>
      </g>
     </g>
     <g id="text_13">
      <!-- 50 -->
      <g transform="translate(57.36 278.161084)scale(0.46 -0.46)">
       <defs>
        <path d="M 2778 4238 
L 2534 3706 
L 1259 3706 
L 981 3138 
Q 1809 3016 2294 2522 
Q 2709 2097 2709 1522 
Q 2709 1188 2573 903 
Q 2438 619 2231 419 
Q 2025 219 1772 97 
Q 1413 -75 1034 -75 
Q 653 -75 479 54 
Q 306 184 306 341 
Q 306 428 378 495 
Q 450 563 559 563 
Q 641 563 702 538 
Q 763 513 909 409 
Q 1144 247 1384 247 
Q 1750 247 2026 523 
Q 2303 800 2303 1197 
Q 2303 1581 2056 1914 
Q 1809 2247 1375 2428 
Q 1034 2569 447 2591 
L 1259 4238 
L 2778 4238 
z
" id="TimesNewRomanPSMT-35" transform="scale(0.015625)"/>
       </defs>
       <use xlink:href="#TimesNewRomanPSMT-35"/>
       <use x="50" xlink:href="#TimesNewRomanPSMT-30"/>
      </g>
     </g>
    </g>
    <g id="ytick_7">
     <g id="line2d_25">
      <path clip-path="url(#p739a6d1dab)" d="M 110.36 191.980551 
L 836.947027 191.980551 
" style="fill:none;stroke:#b0b0b0;stroke-dasharray:2.96,1.28;stroke-dashoffset:0;stroke-opacity:0.5;stroke-width:0.8;"/>
     </g>
     <g id="line2d_26">
      <g>
       <use style="stroke:#000000;stroke-width:0.8;" x="110.36" xlink:href="#m0306105072" y="191.980551"/>
      </g>
     </g>
     <g id="text_14">
      <!-- 60 -->
      <g transform="translate(57.36 207.951176)scale(0.46 -0.46)">
       <use xlink:href="#TimesNewRomanPSMT-36"/>
       <use x="50" xlink:href="#TimesNewRomanPSMT-30"/>
      </g>
     </g>
    </g>
    <g id="ytick_8">
     <g id="line2d_27">
      <path clip-path="url(#p739a6d1dab)" d="M 110.36 121.770643 
L 836.947027 121.770643 
" style="fill:none;stroke:#b0b0b0;stroke-dasharray:2.96,1.28;stroke-dashoffset:0;stroke-opacity:0.5;stroke-width:0.8;"/>
     </g>
     <g id="line2d_28">
      <g>
       <use style="stroke:#000000;stroke-width:0.8;" x="110.36" xlink:href="#m0306105072" y="121.770643"/>
      </g>
     </g>
     <g id="text_15">
      <!-- 70 -->
      <g transform="translate(57.36 137.741268)scale(0.46 -0.46)">
       <defs>
        <path d="M 644 4238 
L 2916 4238 
L 2916 4119 
L 1503 -88 
L 1153 -88 
L 2419 3728 
L 1253 3728 
Q 900 3728 750 3644 
Q 488 3500 328 3200 
L 238 3234 
L 644 4238 
z
" id="TimesNewRomanPSMT-37" transform="scale(0.015625)"/>
       </defs>
       <use xlink:href="#TimesNewRomanPSMT-37"/>
       <use x="50" xlink:href="#TimesNewRomanPSMT-30"/>
      </g>
     </g>
    </g>
    <g id="ytick_9">
     <g id="line2d_29">
      <path clip-path="url(#p739a6d1dab)" d="M 110.36 51.560734 
L 836.947027 51.560734 
" style="fill:none;stroke:#b0b0b0;stroke-dasharray:2.96,1.28;stroke-dashoffset:0;stroke-opacity:0.5;stroke-width:0.8;"/>
     </g>
     <g id="line2d_30">
      <g>
       <use style="stroke:#000000;stroke-width:0.8;" x="110.36" xlink:href="#m0306105072" y="51.560734"/>
      </g>
     </g>
     <g id="text_16">
      <!-- 80 -->
      <g transform="translate(57.36 67.531359)scale(0.46 -0.46)">
       <use xlink:href="#TimesNewRomanPSMT-38"/>
       <use x="50" xlink:href="#TimesNewRomanPSMT-30"/>
      </g>
     </g>
    </g>
    <g id="text_17">
     <!-- returns -->
     <g transform="translate(43.520313 375.888125)rotate(-90)scale(0.46 -0.46)">
      <defs>
       <path d="M 1038 2947 
L 1038 2303 
Q 1397 2947 1775 2947 
Q 1947 2947 2059 2842 
Q 2172 2738 2172 2600 
Q 2172 2478 2090 2393 
Q 2009 2309 1897 2309 
Q 1788 2309 1652 2417 
Q 1516 2525 1450 2525 
Q 1394 2525 1328 2463 
Q 1188 2334 1038 2041 
L 1038 669 
Q 1038 431 1097 309 
Q 1138 225 1241 169 
Q 1344 113 1538 113 
L 1538 0 
L 72 0 
L 72 113 
Q 291 113 397 181 
Q 475 231 506 341 
Q 522 394 522 644 
L 522 1753 
Q 522 2253 501 2348 
Q 481 2444 426 2487 
Q 372 2531 291 2531 
Q 194 2531 72 2484 
L 41 2597 
L 906 2947 
L 1038 2947 
z
" id="TimesNewRomanPSMT-72" transform="scale(0.015625)"/>
       <path d="M 1031 3803 
L 1031 2863 
L 1700 2863 
L 1700 2644 
L 1031 2644 
L 1031 788 
Q 1031 509 1111 412 
Q 1191 316 1316 316 
Q 1419 316 1516 380 
Q 1613 444 1666 569 
L 1788 569 
Q 1678 263 1478 108 
Q 1278 -47 1066 -47 
Q 922 -47 784 33 
Q 647 113 581 261 
Q 516 409 516 719 
L 516 2644 
L 63 2644 
L 63 2747 
Q 234 2816 414 2980 
Q 594 3144 734 3369 
Q 806 3488 934 3803 
L 1031 3803 
z
" id="TimesNewRomanPSMT-74" transform="scale(0.015625)"/>
       <path d="M 2709 2863 
L 2709 1128 
Q 2709 631 2732 520 
Q 2756 409 2807 365 
Q 2859 322 2928 322 
Q 3025 322 3147 375 
L 3191 266 
L 2334 -88 
L 2194 -88 
L 2194 519 
Q 1825 119 1631 15 
Q 1438 -88 1222 -88 
Q 981 -88 804 51 
Q 628 191 559 409 
Q 491 628 491 1028 
L 491 2306 
Q 491 2509 447 2587 
Q 403 2666 317 2708 
Q 231 2750 6 2747 
L 6 2863 
L 1009 2863 
L 1009 947 
Q 1009 547 1148 422 
Q 1288 297 1484 297 
Q 1619 297 1789 381 
Q 1959 466 2194 703 
L 2194 2325 
Q 2194 2569 2105 2655 
Q 2016 2741 1734 2747 
L 1734 2863 
L 2709 2863 
z
" id="TimesNewRomanPSMT-75" transform="scale(0.015625)"/>
       <path d="M 1034 2341 
Q 1538 2947 1994 2947 
Q 2228 2947 2397 2830 
Q 2566 2713 2666 2444 
Q 2734 2256 2734 1869 
L 2734 647 
Q 2734 375 2778 278 
Q 2813 200 2889 156 
Q 2966 113 3172 113 
L 3172 0 
L 1756 0 
L 1756 113 
L 1816 113 
Q 2016 113 2095 173 
Q 2175 234 2206 353 
Q 2219 400 2219 647 
L 2219 1819 
Q 2219 2209 2117 2386 
Q 2016 2563 1775 2563 
Q 1403 2563 1034 2156 
L 1034 647 
Q 1034 356 1069 288 
Q 1113 197 1189 155 
Q 1266 113 1500 113 
L 1500 0 
L 84 0 
L 84 113 
L 147 113 
Q 366 113 442 223 
Q 519 334 519 647 
L 519 1709 
Q 519 2225 495 2337 
Q 472 2450 423 2490 
Q 375 2531 294 2531 
Q 206 2531 84 2484 
L 38 2597 
L 900 2947 
L 1034 2947 
L 1034 2341 
z
" id="TimesNewRomanPSMT-6e" transform="scale(0.015625)"/>
      </defs>
      <use xlink:href="#TimesNewRomanPSMT-72"/>
      <use x="33.300781" xlink:href="#TimesNewRomanPSMT-65"/>
      <use x="77.685547" xlink:href="#TimesNewRomanPSMT-74"/>
      <use x="105.46875" xlink:href="#TimesNewRomanPSMT-75"/>
      <use x="155.46875" xlink:href="#TimesNewRomanPSMT-72"/>
      <use x="188.769531" xlink:href="#TimesNewRomanPSMT-6e"/>
      <use x="238.769531" xlink:href="#TimesNewRomanPSMT-73"/>
     </g>
    </g>
   </g>
   <g id="line2d_31">
    <path clip-path="url(#p739a6d1dab)" d="M 143.386683 354.695805 
L 145.370268 341.140626 
L 147.353852 325.686021 
L 149.998632 302.959283 
L 159.25536 220.094084 
L 159.916554 215.922186 
L 160.577749 203.498299 
L 161.238944 185.515563 
L 161.900139 195.091458 
L 162.561334 189.614364 
L 163.222529 177.729309 
L 163.883724 174.998345 
L 164.544918 172.787677 
L 165.206113 167.816687 
L 165.867308 173.503512 
L 166.528503 188.228571 
L 167.189698 194.564224 
L 167.850893 202.404193 
L 168.512088 202.718869 
L 169.173282 207.393799 
L 169.834477 204.263527 
L 170.495672 200.572395 
L 171.156867 206.674604 
L 171.818062 203.191369 
L 172.479257 202.601289 
L 173.140452 203.86152 
L 173.801646 201.711564 
L 174.462841 202.023138 
L 175.124036 208.073092 
L 175.785231 207.97867 
L 176.446426 207.063289 
L 177.107621 214.228784 
L 177.768816 224.240644 
L 178.43001 220.477187 
L 179.091205 221.62886 
L 179.7524 219.983647 
L 180.413595 219.839137 
L 181.07479 219.032625 
L 181.735985 215.304599 
L 182.39718 226.381624 
L 183.058374 227.743586 
L 185.041959 215.754748 
L 185.703154 205.009885 
L 186.364349 200.147086 
L 187.025544 194.222061 
L 187.686738 192.315466 
L 188.347933 185.370994 
L 189.009128 180.962958 
L 189.670323 173.489316 
L 190.331518 163.784008 
L 190.992713 156.848517 
L 191.653908 155.552701 
L 192.315102 148.757167 
L 192.976297 140.323497 
L 193.637492 152.040133 
L 194.298687 145.204126 
L 194.959882 143.875136 
L 195.621077 136.156188 
L 196.282272 144.287127 
L 196.943466 144.770532 
L 197.604661 141.534854 
L 198.265856 137.614695 
L 198.927051 136.854291 
L 199.588246 131.868253 
L 200.249441 117.904716 
L 200.910636 122.429151 
L 201.57183 119.901941 
L 202.233025 125.136352 
L 202.89422 128.435589 
L 203.555415 127.06932 
L 204.21661 134.071277 
L 204.877805 143.279721 
L 205.538999 147.17727 
L 206.200194 154.404024 
L 206.861389 155.651907 
L 207.522584 160.071036 
L 208.844974 165.727083 
L 209.506169 167.384323 
L 210.167363 168.726478 
L 210.828558 172.816896 
L 211.489753 175.788588 
L 212.150948 176.560065 
L 212.812143 175.72994 
L 213.473338 173.648477 
L 214.134533 172.929285 
L 214.795727 171.534071 
L 215.456922 169.615935 
L 216.118117 168.521755 
L 216.779312 166.584711 
L 217.440507 160.660972 
L 218.101702 162.788917 
L 218.762897 156.817511 
L 219.424091 159.583016 
L 220.085286 157.061628 
L 220.746481 157.88431 
L 221.407676 154.755078 
L 222.068871 152.268557 
L 222.730066 152.220299 
L 223.391261 151.297353 
L 224.052455 147.529369 
L 224.71365 145.007858 
L 225.374845 146.425644 
L 226.03604 144.029075 
L 226.697235 142.400495 
L 227.35843 139.437231 
L 228.019625 137.719349 
L 229.342014 130.878611 
L 231.325599 124.829626 
L 231.986794 123.351978 
L 232.647989 129.366183 
L 233.309183 127.74023 
L 233.970378 129.704628 
L 234.631573 128.138301 
L 235.292768 131.815628 
L 235.953963 134.220486 
L 236.615158 135.336131 
L 237.276353 135.992219 
L 238.598742 132.129009 
L 239.259937 134.02414 
L 239.921132 129.122566 
L 240.582327 129.42953 
L 241.243522 127.861502 
L 241.904717 123.344201 
L 242.565911 124.080764 
L 243.227106 122.88652 
L 243.888301 123.360334 
L 244.549496 123.352092 
L 245.210691 124.298968 
L 245.871886 124.043712 
L 246.533081 123.962084 
L 247.194275 123.599111 
L 247.85547 120.00168 
L 248.516665 119.317924 
L 249.17786 118.212792 
L 249.839055 120.998694 
L 250.50025 122.602296 
L 251.161445 123.786708 
L 251.822639 125.344896 
L 252.483834 128.136316 
L 253.806224 129.13445 
L 254.467419 132.081469 
L 255.128614 132.243681 
L 255.789809 133.405922 
L 256.451003 135.01023 
L 257.112198 136.993338 
L 257.773393 137.813581 
L 258.434588 138.820257 
L 259.095783 139.441134 
L 259.756978 139.809046 
L 260.418173 136.385528 
L 261.079367 134.932357 
L 261.740562 135.490422 
L 262.401757 132.80536 
L 263.062952 132.359577 
L 263.724147 132.549989 
L 264.385342 132.503294 
L 265.046537 136.407758 
L 265.707731 136.221021 
L 266.368926 135.777832 
L 267.691316 131.248235 
L 268.352511 129.217146 
L 269.013706 128.464801 
L 269.674901 127.51146 
L 270.336095 127.639958 
L 270.99729 125.647422 
L 271.658485 122.937518 
L 272.31968 126.492888 
L 272.980875 126.54617 
L 273.64207 127.881962 
L 274.303264 132.879212 
L 274.964459 131.800263 
L 275.625654 133.703629 
L 276.286849 132.59536 
L 276.948044 132.411545 
L 277.609239 132.002344 
L 278.270434 124.748592 
L 278.931628 125.959812 
L 279.592823 126.769736 
L 280.254018 128.237086 
L 280.915213 129.424016 
L 281.576408 130.093536 
L 282.237603 128.562809 
L 282.898798 127.620188 
L 283.559992 132.498856 
L 284.221187 133.272843 
L 284.882382 133.651802 
L 285.543577 133.723106 
L 286.204772 134.172816 
L 286.865967 134.262172 
L 287.527162 136.406509 
L 288.188356 136.299269 
L 288.849551 137.50254 
L 290.171941 136.683867 
L 290.833136 135.157851 
L 291.494331 133.927092 
L 292.155526 132.277202 
L 292.81672 134.834862 
L 293.477915 136.051307 
L 294.13911 134.881582 
L 294.800305 136.745581 
L 295.4615 136.698487 
L 296.122695 133.698468 
L 296.78389 132.380025 
L 298.106279 128.770307 
L 299.428669 124.029821 
L 300.089864 123.421059 
L 300.751059 123.847415 
L 301.412254 120.861314 
L 302.073448 118.797685 
L 302.734643 116.143674 
L 303.395838 115.82911 
L 304.057033 113.719118 
L 304.718228 110.146053 
L 305.379423 108.835566 
L 306.701812 105.345354 
L 307.363007 104.607016 
L 308.024202 102.466834 
L 308.685397 101.383572 
L 310.007787 94.049088 
L 310.668982 102.332118 
L 311.991371 100.978033 
L 312.652566 102.026077 
L 313.974956 101.404625 
L 314.636151 101.232941 
L 315.297346 103.081887 
L 315.95854 103.410959 
L 316.619735 103.60982 
L 317.942125 103.59003 
L 318.60332 105.420642 
L 319.264515 105.573012 
L 319.92571 105.299115 
L 320.586904 102.460614 
L 321.248099 103.431648 
L 322.570489 104.513071 
L 323.231684 105.445762 
L 324.554074 106.072615 
L 325.215268 105.859841 
L 326.537658 104.710146 
L 327.860048 99.486333 
L 328.521243 101.216532 
L 329.182438 101.1439 
L 329.843632 99.068492 
L 330.504827 98.655791 
L 331.166022 98.447348 
L 331.827217 100.301475 
L 332.488412 99.817489 
L 333.149607 99.076304 
L 333.810802 100.034375 
L 334.471996 95.498245 
L 335.133191 96.333259 
L 335.794386 94.822375 
L 336.455581 97.392181 
L 337.116776 101.020137 
L 337.777971 102.29412 
L 338.439166 100.487784 
L 339.10036 101.946158 
L 339.761555 102.228902 
L 340.42275 103.331509 
L 341.083945 103.955547 
L 341.74514 105.348149 
L 342.406335 107.768385 
L 343.067529 107.004808 
L 343.728724 108.442382 
L 344.389919 109.475399 
L 345.051114 109.748035 
L 345.712309 110.452609 
L 346.373504 111.499883 
L 347.034699 114.691269 
L 347.695893 115.652873 
L 348.357088 115.098814 
L 349.018283 111.130437 
L 349.679478 112.650946 
L 350.340673 113.724507 
L 351.001868 113.606066 
L 352.324257 115.348539 
L 352.985452 119.044266 
L 353.646647 119.792702 
L 354.307842 120.181533 
L 354.969037 120.276832 
L 355.630232 120.078602 
L 356.291427 118.438521 
L 356.952621 117.902863 
L 357.613816 112.867751 
L 358.275011 112.569447 
L 358.936206 111.96834 
L 359.597401 112.131481 
L 360.258596 114.025301 
L 360.919791 112.395562 
L 361.580985 109.129326 
L 362.24218 111.633709 
L 362.903375 112.313915 
L 363.56457 112.280938 
L 364.225765 111.867107 
L 364.88696 111.669298 
L 365.548155 107.864968 
L 366.209349 105.833587 
L 366.870544 110.432499 
L 367.531739 109.607584 
L 368.192934 112.464581 
L 369.515324 112.496379 
L 370.176519 112.517017 
L 370.837713 113.772456 
L 372.160103 108.805224 
L 372.821298 108.990091 
L 373.482493 110.772201 
L 374.143688 113.641978 
L 374.804883 114.823751 
L 375.466077 117.945916 
L 376.127272 118.760202 
L 376.788467 119.292551 
L 377.449662 120.701791 
L 378.110857 121.649682 
L 378.772052 120.275207 
L 379.433247 120.326084 
L 380.094441 118.373661 
L 380.755636 119.585313 
L 381.416831 122.481433 
L 382.078026 123.34409 
L 382.739221 123.862824 
L 383.400416 125.449928 
L 384.061611 123.571338 
L 384.722805 118.595656 
L 386.045195 119.383696 
L 387.367585 119.509644 
L 388.02878 118.631209 
L 388.689975 119.420435 
L 389.351169 116.506178 
L 390.012364 118.775549 
L 390.673559 119.137457 
L 391.334754 119.055273 
L 391.995949 119.318073 
L 392.657144 119.810608 
L 393.318339 120.745439 
L 393.979533 122.396582 
L 394.640728 120.89993 
L 395.301923 117.767756 
L 396.624313 116.030012 
L 397.285508 115.524281 
L 397.946703 119.552048 
L 398.607897 121.460917 
L 399.269092 121.550075 
L 399.930287 122.323605 
L 400.591482 120.891703 
L 401.913872 119.443519 
L 402.575067 117.402753 
L 403.236261 117.635509 
L 403.897456 117.625918 
L 404.558651 121.408292 
L 405.219846 122.435179 
L 405.881041 119.281539 
L 406.542236 118.619752 
L 407.203431 117.566548 
L 407.864625 116.237351 
L 408.52582 110.646708 
L 409.187015 107.906552 
L 409.84821 107.678167 
L 411.1706 104.021343 
L 411.831794 101.388897 
L 412.492989 100.723442 
L 413.154184 99.272961 
L 413.815379 100.557648 
L 414.476574 99.016544 
L 415.798964 94.825726 
L 416.460158 94.884123 
L 417.121353 95.840805 
L 417.782548 96.019789 
L 419.104938 95.024108 
L 420.427328 92.834228 
L 421.088522 89.718507 
L 421.749717 91.004806 
L 422.410912 90.290438 
L 423.072107 88.95652 
L 423.733302 86.861189 
L 424.394497 87.593916 
L 425.055692 87.985334 
L 425.716886 87.070972 
L 427.039276 91.21814 
L 427.700471 95.146787 
L 428.361666 96.572301 
L 429.022861 95.627667 
L 429.684056 95.556428 
L 430.34525 93.455317 
L 431.006445 92.921101 
L 431.66764 91.888633 
L 432.328835 90.106549 
L 432.99003 90.630608 
L 434.973614 88.690784 
L 435.634809 85.604056 
L 436.296004 86.263139 
L 436.957199 85.010023 
L 437.618394 83.348451 
L 438.279589 82.963656 
L 438.940784 80.081051 
L 439.601978 78.851046 
L 440.263173 77.199978 
L 440.924368 79.271396 
L 441.585563 79.785929 
L 442.246758 76.680133 
L 442.907953 76.235738 
L 443.569148 76.789589 
L 444.230342 75.204685 
L 444.891537 76.047144 
L 445.552732 75.671202 
L 446.875122 72.391973 
L 448.197512 70.556143 
L 448.858706 67.840913 
L 449.519901 70.694384 
L 450.181096 68.452356 
L 450.842291 68.332944 
L 451.503486 65.513208 
L 452.164681 65.290435 
L 452.825876 65.236109 
L 453.48707 65.522871 
L 454.148265 65.334445 
L 454.80946 65.350576 
L 455.470655 67.202919 
L 456.13185 68.415178 
L 456.793045 70.416357 
L 457.45424 69.651396 
L 458.115434 71.409021 
L 458.776629 71.231226 
L 459.437824 70.397182 
L 460.099019 67.779384 
L 460.760214 67.358639 
L 461.421409 69.071939 
L 462.082604 69.408039 
L 462.743798 71.182397 
L 463.404993 71.509699 
L 464.066188 63.047326 
L 464.727383 65.782429 
L 465.388578 66.557896 
L 466.049773 65.983342 
L 466.710968 67.379909 
L 467.372162 68.342416 
L 468.033357 71.272615 
L 468.694552 72.255678 
L 469.355747 72.004809 
L 470.016942 70.693392 
L 470.678137 72.203032 
L 471.339332 74.671981 
L 472.000526 75.20701 
L 472.661721 74.702691 
L 473.322916 75.508088 
L 473.984111 73.963029 
L 474.645306 75.840141 
L 475.306501 75.512514 
L 475.967696 75.39843 
L 476.62889 77.137382 
L 477.290085 76.632912 
L 477.95128 73.715558 
L 479.27367 74.842603 
L 479.934865 74.658743 
L 480.596059 74.045415 
L 481.257254 75.059754 
L 481.918449 74.200259 
L 482.579644 75.240393 
L 483.240839 74.286777 
L 483.902034 72.927165 
L 484.563229 73.069015 
L 485.224423 72.869934 
L 485.885618 73.732326 
L 486.546813 73.121078 
L 487.208008 75.078407 
L 487.869203 74.248572 
L 488.530398 74.479486 
L 489.191593 73.761266 
L 489.852787 72.06424 
L 491.175177 70.021032 
L 491.836372 68.72069 
L 493.819957 59.584618 
L 494.481151 59.157232 
L 495.803541 56.773596 
L 496.464736 66.239946 
L 497.787126 67.630087 
L 498.448321 69.075471 
L 499.109515 69.376362 
L 500.431905 68.755441 
L 501.754295 66.258636 
L 502.41549 68.50881 
L 503.076685 69.589871 
L 503.737879 69.713658 
L 504.399074 69.559168 
L 505.060269 69.985025 
L 505.721464 66.468181 
L 506.382659 68.213988 
L 507.043854 67.820978 
L 507.705049 67.819207 
L 508.366243 65.88853 
L 509.027438 64.796945 
L 509.688633 65.526084 
L 510.349828 68.690749 
L 511.011023 68.278638 
L 511.672218 69.43816 
L 512.333413 69.056246 
L 512.994607 70.110087 
L 513.655802 70.873853 
L 514.316997 71.354717 
L 514.978192 70.044914 
L 515.639387 70.246666 
L 516.300582 73.930451 
L 516.961777 73.898074 
L 517.622971 73.540342 
L 518.284166 72.860842 
L 518.945361 71.86316 
L 519.606556 70.550883 
L 520.267751 68.775035 
L 520.928946 67.992101 
L 521.590141 66.002759 
L 522.91253 62.668727 
L 524.23492 58.312409 
L 524.896115 59.978515 
L 525.55731 58.894171 
L 526.218505 60.140031 
L 527.540894 58.031505 
L 528.202089 53.496893 
L 528.863284 52.19533 
L 529.524479 49.257351 
L 530.846869 46.974033 
L 531.508063 46.51628 
L 532.169258 46.350273 
L 532.830453 44.845137 
L 533.491648 45.452345 
L 534.152843 46.603017 
L 535.475233 42.387473 
L 536.136427 41.11779 
L 536.797622 41.199404 
L 537.458817 41.05511 
L 538.120012 44.455207 
L 538.781207 44.01765 
L 540.103597 45.29901 
L 540.764791 47.985856 
L 541.425986 49.565077 
L 542.748376 51.256154 
L 543.409571 53.371337 
L 544.070766 53.714991 
L 544.731961 55.73413 
L 545.393155 54.06951 
L 546.05435 54.587681 
L 546.715545 54.805398 
L 547.37674 56.69617 
L 548.037935 57.042783 
L 548.69913 57.12427 
L 549.360325 56.575834 
L 550.021519 56.348646 
L 550.682714 55.916526 
L 552.666299 53.687728 
L 553.327494 50.383124 
L 553.988688 49.15607 
L 554.649883 45.083325 
L 555.311078 45.152177 
L 555.972273 44.963877 
L 556.633468 44.518423 
L 557.294663 40.753694 
L 557.955858 40.304099 
L 558.617052 40.726687 
L 559.278247 40.738329 
L 559.939442 40.633876 
L 560.600637 43.944188 
L 561.261832 44.337576 
L 561.923027 46.405006 
L 562.584222 46.74997 
L 563.245416 48.513736 
L 564.567806 48.115531 
L 565.229001 48.964739 
L 565.890196 48.528286 
L 566.551391 44.137576 
L 567.212586 45.980659 
L 568.534975 50.766866 
L 569.857365 52.10026 
L 570.51856 52.251366 
L 571.179755 51.285917 
L 571.84095 52.502415 
L 572.502144 51.676678 
L 573.163339 50.044214 
L 573.824534 52.137501 
L 574.485729 52.591341 
L 575.146924 53.406181 
L 575.808119 53.498169 
L 576.469314 53.994857 
L 577.130508 54.085972 
L 577.791703 56.410142 
L 578.452898 56.540244 
L 579.114093 56.536244 
L 579.775288 56.300222 
L 580.436483 55.606842 
L 581.097678 54.737672 
L 581.758872 54.289514 
L 582.420067 51.914353 
L 583.742457 49.544391 
L 584.403652 48.023957 
L 585.064847 45.867009 
L 585.726042 46.563343 
L 586.387236 45.358576 
L 587.048431 49.244649 
L 587.709626 46.027229 
L 588.370821 44.932215 
L 589.032016 44.176428 
L 589.693211 46.847855 
L 590.354406 48.972786 
L 591.0156 48.886531 
L 592.33799 47.501123 
L 592.999185 47.093222 
L 593.66038 46.412055 
L 594.98277 43.986512 
L 596.305159 42.226848 
L 596.966354 37.926793 
L 597.627549 37.232025 
L 598.288744 33.868727 
L 598.949939 38.665943 
L 600.272328 39.835104 
L 600.933523 39.983439 
L 601.594718 38.050951 
L 602.255913 36.731919 
L 602.917108 37.040681 
L 603.578303 39.749639 
L 604.239498 40.248515 
L 604.900692 42.264635 
L 605.561887 45.274379 
L 606.223082 46.264663 
L 606.884277 47.634095 
L 607.545472 48.341992 
L 608.206667 47.681557 
L 609.529056 49.326752 
L 610.190251 49.898018 
L 610.851446 46.380797 
L 611.512641 47.070922 
L 613.496226 49.580919 
L 614.15742 49.816226 
L 614.818615 51.585831 
L 615.47981 52.055806 
L 616.141005 52.194228 
L 616.8022 52.133247 
L 617.463395 52.348451 
L 618.12459 51.980125 
L 618.785784 51.415983 
L 619.446979 50.629686 
L 620.108174 52.4575 
L 620.769369 52.146415 
L 622.091759 50.863814 
L 624.736538 47.206083 
L 625.397733 45.797272 
L 626.058928 41.913034 
L 626.720123 39.086633 
L 627.381317 38.979807 
L 628.703707 36.232009 
L 629.364902 39.042346 
L 630.026097 38.335544 
L 630.687292 40.742614 
L 632.670876 39.684543 
L 633.332071 37.365205 
L 633.993266 38.945941 
L 634.654461 39.247102 
L 635.315656 38.266297 
L 635.976851 39.100747 
L 636.638045 37.821669 
L 638.62163 40.357846 
L 639.94402 41.013882 
L 640.605215 43.303447 
L 641.266409 43.708775 
L 641.927604 43.774489 
L 642.588799 43.463279 
L 643.249994 45.803735 
L 643.911189 47.453188 
L 644.572384 48.677816 
L 645.894773 50.436618 
L 646.555968 51.280943 
L 647.217163 49.943714 
L 647.878358 49.66673 
L 648.539553 50.486444 
L 649.200748 48.946165 
L 649.861943 48.158984 
L 650.523137 49.245771 
L 651.845527 50.774948 
L 652.506722 51.125372 
L 653.167917 51.659118 
L 653.829112 51.723545 
L 654.490307 51.486701 
L 655.151501 50.705373 
L 655.812696 48.136483 
L 656.473891 47.915627 
L 657.135086 47.556455 
L 657.796281 46.89589 
L 658.457476 47.602832 
L 659.118671 49.962991 
L 659.779865 49.990521 
L 660.44106 50.591006 
L 661.102255 50.827891 
L 661.76345 50.369229 
L 662.424645 48.805722 
L 663.747035 47.936942 
L 664.408229 47.136254 
L 665.730619 44.916416 
L 667.053009 44.549818 
L 667.714204 46.631813 
L 668.375399 46.604929 
L 669.036593 48.460055 
L 670.358983 48.620836 
L 671.020178 48.507055 
L 672.342568 46.884189 
L 673.003763 44.598756 
L 673.664957 44.290075 
L 674.326152 42.878865 
L 674.987347 42.818277 
L 675.648542 45.070651 
L 676.970932 44.354122 
L 677.632127 43.775294 
L 678.293321 43.019537 
L 678.954516 41.138873 
L 679.615711 42.486713 
L 680.276906 43.07912 
L 680.938101 42.458076 
L 681.599296 43.304656 
L 682.260491 45.180166 
L 682.921685 45.205664 
L 683.58288 45.10841 
L 684.244075 44.466473 
L 684.90527 44.25455 
L 685.566465 42.073669 
L 686.888855 41.492658 
L 687.550049 41.626602 
L 688.211244 43.698123 
L 688.872439 43.519566 
L 689.533634 43.204238 
L 690.194829 40.935787 
L 690.856024 40.190861 
L 692.178413 40.651972 
L 692.839608 38.67097 
L 693.500803 37.326869 
L 694.161998 38.292973 
L 694.823193 40.550339 
L 695.484388 41.318587 
L 696.145582 41.895016 
L 697.467972 42.590476 
L 698.129167 45.011013 
L 698.790362 45.304698 
L 699.451557 47.098954 
L 700.112752 45.400331 
L 701.435141 46.630454 
L 702.096336 46.443729 
L 702.757531 46.675273 
L 703.418726 44.786926 
L 704.079921 45.750409 
L 704.741116 46.454303 
L 705.40231 47.563015 
L 706.063505 46.33498 
L 706.7247 48.425228 
L 708.04709 50.043755 
L 709.36948 46.60299 
L 710.030674 47.791433 
L 710.691869 48.73136 
L 711.353064 50.590276 
L 712.014259 51.289885 
L 712.675454 51.761056 
L 713.336649 52.003788 
L 713.997844 52.895637 
L 714.659038 51.051241 
L 715.320233 50.980127 
L 715.981428 49.410204 
L 716.642623 48.239465 
L 717.303818 48.784408 
L 717.965013 51.193379 
L 718.626208 49.736611 
L 719.287402 50.40339 
L 719.948597 48.234723 
L 720.609792 48.395174 
L 721.270987 48.782057 
L 721.932182 48.866733 
L 722.593377 50.877216 
L 723.254572 53.548056 
L 723.915766 54.081901 
L 724.576961 54.271477 
L 725.899351 59.272436 
L 726.560546 56.805275 
L 727.221741 57.450741 
L 727.882936 57.819477 
L 728.54413 57.590187 
L 729.205325 57.585842 
L 729.86652 57.229762 
L 730.527715 54.77699 
L 731.18891 54.469836 
L 731.850105 53.554953 
L 732.5113 53.662613 
L 733.172494 51.501282 
L 733.833689 51.572231 
L 734.494884 51.860057 
L 735.156079 51.37712 
L 735.817274 52.990161 
L 736.478469 52.423921 
L 737.139664 51.187122 
L 737.800858 51.62425 
L 738.462053 52.86904 
L 739.123248 52.032889 
L 739.784443 49.852112 
L 740.445638 48.787023 
L 741.768028 52.523314 
L 742.429222 51.887666 
L 743.751612 49.946287 
L 745.074002 47.292669 
L 746.396392 44.295919 
L 747.057586 44.649538 
L 747.718781 43.455068 
L 748.379976 43.814951 
L 749.041171 44.658272 
L 750.363561 42.028735 
L 751.024756 42.872377 
L 751.68595 41.552794 
L 752.347145 40.920815 
L 753.00834 38.884788 
L 753.669535 38.540179 
L 754.33073 38.585038 
L 754.991925 38.481356 
L 756.314314 37.946428 
L 756.975509 37.41983 
L 758.297899 35.889209 
L 758.959094 38.214089 
L 760.281483 37.234864 
L 760.942678 37.02442 
L 762.926263 34.768217 
L 763.587458 32.728846 
L 764.248653 33.297459 
L 764.909847 35.393627 
L 765.571042 37.859341 
L 766.232237 38.734136 
L 766.893432 39.371072 
L 767.554627 39.66895 
L 768.215822 38.571148 
L 768.877017 39.363846 
L 769.538211 40.668063 
L 770.199406 41.441773 
L 770.860601 38.692516 
L 771.521796 39.972405 
L 772.182991 42.448993 
L 773.505381 44.668885 
L 774.166575 45.61058 
L 776.15016 47.609215 
L 776.811355 47.998754 
L 777.47255 48.238549 
L 778.133745 46.138442 
L 778.794939 44.603114 
L 779.456134 45.391884 
L 780.117329 44.095194 
L 780.778524 44.805132 
L 781.439719 45.31123 
L 782.100914 45.613487 
L 782.762109 45.711905 
L 783.423303 45.606482 
L 784.084498 45.138689 
L 785.406888 50.126596 
L 786.068083 50.944528 
L 786.729278 51.163674 
L 787.390473 51.222637 
L 788.051667 51.121418 
L 789.374057 50.482261 
L 790.696447 49.552887 
L 792.018837 48.356082 
L 793.341226 46.914631 
L 795.324811 44.343586 
L 797.308395 41.350252 
L 799.953175 36.835162 
L 803.259149 30.605523 
L 803.920344 29.309972 
L 803.920344 29.309972 
" style="fill:none;stroke:#7e2f8e;stroke-linecap:square;stroke-width:3;"/>
   </g>
   <g id="line2d_32">
    <path clip-path="url(#p739a6d1dab)" d="M 143.386683 317.778016 
L 144.709073 275.570499 
L 145.370268 259.118123 
L 146.031462 245.529975 
L 146.692657 234.628531 
L 147.353852 226.236271 
L 148.015047 220.175672 
L 148.676242 216.269212 
L 149.337437 214.33937 
L 149.998632 214.208625 
L 150.659826 215.699454 
L 151.321021 218.634335 
L 151.982216 222.835747 
L 152.643411 228.126168 
L 153.965801 241.263951 
L 155.949385 264.700151 
L 157.271775 282.134263 
L 157.93297 286.50201 
L 158.594165 294.243042 
L 159.25536 295.676385 
L 159.916554 283.369632 
L 160.577749 289.47685 
L 161.238944 281.635388 
L 161.900139 280.952165 
L 162.561334 288.350779 
L 163.222529 284.431089 
L 163.883724 287.539683 
L 165.867308 254.657326 
L 167.189698 265.612964 
L 167.850893 260.170061 
L 168.512088 269.208333 
L 169.173282 264.413505 
L 169.834477 256.063784 
L 170.495672 250.661124 
L 171.156867 258.757298 
L 171.818062 261.377445 
L 172.479257 260.921167 
L 173.140452 256.584602 
L 173.801646 255.585822 
L 174.462841 262.373373 
L 175.124036 262.615092 
L 175.785231 250.686953 
L 176.446426 236.234325 
L 177.107621 231.345277 
L 177.768816 238.527703 
L 178.43001 239.652151 
L 179.091205 250.225801 
L 179.7524 238.47448 
L 180.413595 233.59413 
L 181.07479 230.387738 
L 182.39718 240.022953 
L 183.058374 233.385559 
L 183.719569 236.155892 
L 184.380764 243.153002 
L 185.041959 243.413824 
L 185.703154 243.319788 
L 186.364349 230.29782 
L 187.025544 239.715031 
L 187.686738 233.196682 
L 188.347933 245.404965 
L 189.009128 242.211508 
L 189.670323 240.123806 
L 190.331518 240.480215 
L 190.992713 239.226543 
L 191.653908 246.095588 
L 192.315102 250.327 
L 192.976297 256.609257 
L 193.637492 241.619618 
L 194.298687 236.433956 
L 194.959882 243.830837 
L 195.621077 242.759644 
L 196.943466 252.064831 
L 197.604661 252.908509 
L 198.265856 247.531757 
L 198.927051 243.452692 
L 199.588246 237.727515 
L 200.249441 219.648613 
L 200.910636 220.027125 
L 201.57183 213.101831 
L 202.89422 195.452223 
L 203.555415 188.676708 
L 204.21661 194.636364 
L 204.877805 188.699478 
L 205.538999 183.954057 
L 206.200194 175.871065 
L 206.861389 179.812636 
L 207.522584 182.185969 
L 208.183779 188.770726 
L 208.844974 198.085452 
L 209.506169 195.144229 
L 210.167363 201.856595 
L 210.828558 199.000032 
L 211.489753 194.09122 
L 212.150948 190.337829 
L 212.812143 184.134428 
L 213.473338 185.579335 
L 214.134533 180.26488 
L 214.795727 186.071338 
L 215.456922 183.14562 
L 216.118117 185.760342 
L 216.779312 181.361552 
L 217.440507 175.72882 
L 218.101702 171.220678 
L 218.762897 155.825628 
L 219.424091 147.039595 
L 220.085286 141.033806 
L 220.746481 147.136374 
L 221.407676 140.95707 
L 222.730066 149.372111 
L 223.391261 150.69347 
L 224.052455 151.555566 
L 225.374845 156.155565 
L 226.03604 154.878815 
L 226.697235 157.220776 
L 227.35843 169.829428 
L 228.019625 171.561832 
L 229.342014 160.876554 
L 230.003209 170.312631 
L 230.664404 184.301572 
L 231.325599 183.632542 
L 231.986794 186.349057 
L 232.647989 194.557318 
L 233.309183 199.913807 
L 233.970378 203.623829 
L 234.631573 209.572632 
L 235.292768 210.472547 
L 235.953963 210.293456 
L 237.276353 209.168124 
L 237.937547 209.28933 
L 238.598742 208.829451 
L 239.259937 205.813379 
L 239.921132 199.83002 
L 240.582327 197.34239 
L 241.904717 190.308789 
L 244.549496 159.747857 
L 245.210691 149.58884 
L 245.871886 151.014459 
L 246.533081 147.871889 
L 247.194275 140.745812 
L 247.85547 140.125379 
L 248.516665 149.0501 
L 249.839055 144.416268 
L 250.50025 139.991252 
L 252.483834 130.965434 
L 253.145029 128.379882 
L 253.806224 122.967124 
L 254.467419 116.320493 
L 255.128614 111.354621 
L 255.789809 111.61973 
L 256.451003 118.180745 
L 257.112198 113.516103 
L 257.773393 110.901217 
L 259.095783 119.479385 
L 259.756978 118.587703 
L 261.079367 116.208014 
L 261.740562 114.429837 
L 262.401757 114.403413 
L 263.724147 117.195792 
L 264.385342 113.476255 
L 265.046537 113.668208 
L 266.368926 115.242592 
L 267.030121 117.843254 
L 269.674901 132.269525 
L 270.336095 134.303818 
L 270.99729 138.225144 
L 271.658485 140.748462 
L 272.31968 145.659187 
L 272.980875 148.383325 
L 273.64207 154.092329 
L 274.303264 160.996084 
L 275.625654 169.890136 
L 276.286849 173.63299 
L 276.948044 174.994029 
L 277.609239 180.537986 
L 278.931628 188.025836 
L 279.592823 190.49425 
L 280.254018 192.241084 
L 280.915213 194.568211 
L 281.576408 197.366881 
L 282.237603 195.977679 
L 282.898798 195.665942 
L 283.559992 193.971778 
L 284.221187 195.979169 
L 284.882382 196.383297 
L 285.543577 195.494415 
L 286.204772 190.056863 
L 287.527162 187.442075 
L 288.188356 185.320504 
L 289.510746 184.019142 
L 290.171941 181.136548 
L 290.833136 179.404064 
L 291.494331 181.865542 
L 292.155526 182.028927 
L 292.81672 178.318192 
L 293.477915 180.583382 
L 294.13911 183.962443 
L 294.800305 180.876605 
L 295.4615 180.464621 
L 296.78389 182.457958 
L 298.106279 188.697823 
L 298.767474 191.022717 
L 299.428669 188.728307 
L 300.089864 190.417443 
L 300.751059 190.660437 
L 301.412254 190.131732 
L 302.073448 192.612095 
L 302.734643 192.233631 
L 303.395838 194.025751 
L 304.057033 197.872343 
L 304.718228 199.405175 
L 305.379423 200.5695 
L 306.040618 191.658123 
L 306.701812 189.251736 
L 307.363007 192.481181 
L 308.024202 192.358476 
L 308.685397 194.535728 
L 310.007787 201.897982 
L 310.668982 205.108422 
L 311.330176 205.303495 
L 311.991371 205.307071 
L 312.652566 205.00091 
L 313.313761 209.08035 
L 313.974956 206.597075 
L 314.636151 206.731736 
L 315.297346 204.757464 
L 315.95854 203.403742 
L 316.619735 201.684939 
L 317.28093 201.632809 
L 317.942125 202.291692 
L 318.60332 203.27993 
L 319.264515 203.452543 
L 319.92571 208.622415 
L 320.586904 206.603915 
L 321.248099 201.129539 
L 321.909294 205.381436 
L 322.570489 207.708608 
L 323.231684 208.15569 
L 323.892879 207.346856 
L 324.554074 206.107202 
L 325.215268 195.067486 
L 325.876463 193.261366 
L 326.537658 196.942024 
L 327.198853 199.108441 
L 327.860048 197.547234 
L 328.521243 199.068584 
L 329.182438 197.26256 
L 329.843632 199.355338 
L 330.504827 200.109722 
L 331.166022 198.528696 
L 331.827217 192.091046 
L 332.488412 192.079527 
L 333.149607 202.358337 
L 333.810802 209.421217 
L 334.471996 209.01686 
L 335.133191 213.449818 
L 335.794386 213.451632 
L 336.455581 214.537845 
L 337.116776 215.036714 
L 337.777971 214.159616 
L 338.439166 214.548372 
L 339.10036 213.912822 
L 340.42275 209.906532 
L 341.083945 207.897884 
L 341.74514 203.106978 
L 342.406335 206.123629 
L 343.067529 205.352336 
L 343.728724 205.653281 
L 344.389919 203.820978 
L 345.051114 203.934557 
L 345.712309 199.526659 
L 346.373504 198.774079 
L 347.034699 192.322717 
L 347.695893 187.943351 
L 348.357088 192.53504 
L 349.018283 195.525922 
L 349.679478 196.759524 
L 350.340673 197.458639 
L 351.001868 197.625852 
L 351.663063 194.666846 
L 352.324257 199.7646 
L 352.985452 203.895969 
L 354.307842 204.000354 
L 354.969037 207.624964 
L 355.630232 210.230795 
L 356.291427 213.524715 
L 356.952621 213.446138 
L 357.613816 211.705927 
L 358.275011 210.992058 
L 358.936206 218.611388 
L 359.597401 219.345366 
L 360.258596 214.278372 
L 360.919791 215.632335 
L 361.580985 218.377449 
L 362.903375 219.339676 
L 363.56457 217.680343 
L 364.225765 217.197013 
L 364.88696 216.513624 
L 365.548155 215.20583 
L 366.209349 199.409512 
L 366.870544 200.550478 
L 367.531739 198.293781 
L 368.192934 197.978035 
L 368.854129 201.688371 
L 369.515324 201.000582 
L 370.176519 201.185159 
L 370.837713 201.079009 
L 371.498908 202.655127 
L 372.160103 199.607169 
L 372.821298 202.535205 
L 373.482493 201.330198 
L 374.143688 207.175843 
L 374.804883 214.695691 
L 375.466077 218.17475 
L 376.127272 217.100466 
L 376.788467 215.136138 
L 377.449662 215.051358 
L 378.110857 214.08234 
L 378.772052 212.500288 
L 379.433247 217.130728 
L 380.094441 216.645961 
L 380.755636 215.81039 
L 381.416831 213.645274 
L 382.078026 213.804857 
L 383.400416 208.412841 
L 384.061611 202.572727 
L 384.722805 202.6195 
L 385.384 203.123636 
L 386.045195 200.522934 
L 386.70639 195.500919 
L 387.367585 200.18414 
L 388.02878 192.363266 
L 388.689975 190.246795 
L 389.351169 188.75848 
L 390.012364 188.123121 
L 390.673559 187.064244 
L 391.334754 184.854837 
L 391.995949 181.75506 
L 392.657144 176.331317 
L 393.318339 190.093659 
L 393.979533 189.269497 
L 395.301923 196.857435 
L 395.963118 195.851643 
L 396.624313 192.732829 
L 397.285508 194.488613 
L 397.946703 194.978096 
L 399.269092 197.49877 
L 399.930287 196.993091 
L 400.591482 196.681662 
L 401.252677 193.177408 
L 401.913872 184.572242 
L 402.575067 180.349418 
L 403.236261 179.627335 
L 403.897456 180.352745 
L 404.558651 176.213766 
L 405.219846 169.615339 
L 405.881041 168.703206 
L 406.542236 160.717818 
L 407.203431 159.362713 
L 407.864625 159.141846 
L 408.52582 158.716245 
L 409.187015 156.297932 
L 409.84821 150.617383 
L 410.509405 148.854935 
L 411.1706 152.043224 
L 411.831794 148.093499 
L 412.492989 146.452457 
L 413.154184 143.998395 
L 413.815379 143.994184 
L 414.476574 136.774608 
L 415.137769 142.709612 
L 415.798964 144.456307 
L 416.460158 142.58044 
L 417.121353 143.149045 
L 417.782548 144.292833 
L 418.443743 141.90077 
L 419.104938 141.57714 
L 419.766133 144.684396 
L 420.427328 144.854363 
L 421.088522 140.878638 
L 422.410912 138.996441 
L 423.072107 141.144619 
L 423.733302 144.37662 
L 424.394497 143.576921 
L 425.055692 145.014138 
L 425.716886 145.123516 
L 426.378081 145.513033 
L 427.039276 144.499575 
L 428.361666 141.186616 
L 429.022861 145.833781 
L 429.684056 146.971334 
L 430.34525 143.225449 
L 431.006445 141.197395 
L 431.66764 138.615014 
L 432.328835 141.496523 
L 432.99003 141.528239 
L 433.651225 145.134376 
L 434.31242 143.776308 
L 434.973614 143.326836 
L 435.634809 142.627143 
L 436.296004 141.020428 
L 436.957199 138.974273 
L 437.618394 138.615001 
L 438.279589 136.456149 
L 438.940784 137.681507 
L 439.601978 132.755172 
L 440.263173 132.545602 
L 440.924368 129.423061 
L 441.585563 134.242483 
L 442.246758 133.797308 
L 442.907953 132.72885 
L 443.569148 133.440261 
L 444.230342 131.905596 
L 444.891537 129.473976 
L 445.552732 129.650438 
L 446.213927 129.225846 
L 446.875122 126.376769 
L 447.536317 122.570358 
L 448.197512 123.171397 
L 448.858706 124.538648 
L 449.519901 124.562957 
L 450.181096 126.70584 
L 451.503486 132.405597 
L 452.825876 134.70976 
L 453.48707 135.036129 
L 454.148265 135.159739 
L 455.470655 133.993826 
L 456.13185 130.082443 
L 456.793045 129.292179 
L 457.45424 121.482674 
L 458.115434 122.804183 
L 458.776629 125.596833 
L 459.437824 126.272289 
L 460.099019 120.373642 
L 460.760214 122.48495 
L 461.421409 126.419257 
L 462.082604 128.276598 
L 462.743798 129.480366 
L 463.404993 129.323088 
L 464.066188 135.437131 
L 464.727383 136.137775 
L 465.388578 138.132565 
L 466.049773 138.248574 
L 466.710968 143.317238 
L 467.372162 144.052361 
L 468.033357 147.067975 
L 468.694552 143.720507 
L 469.355747 138.038983 
L 470.016942 138.560271 
L 470.678137 140.483175 
L 471.339332 141.167214 
L 472.000526 142.0484 
L 472.661721 141.957239 
L 473.322916 139.790924 
L 473.984111 135.342448 
L 474.645306 138.09663 
L 475.306501 139.933187 
L 475.967696 138.22846 
L 476.62889 139.093446 
L 477.290085 141.655609 
L 477.95128 141.946264 
L 478.612475 140.387847 
L 479.27367 139.49746 
L 479.934865 141.117103 
L 480.596059 142.190434 
L 481.257254 143.974407 
L 481.918449 144.35387 
L 482.579644 144.109922 
L 483.240839 146.088214 
L 483.902034 146.274194 
L 484.563229 157.258268 
L 485.224423 158.380402 
L 485.885618 156.28623 
L 486.546813 157.424273 
L 487.208008 164.697442 
L 487.869203 166.471034 
L 488.530398 166.239421 
L 489.191593 167.243222 
L 489.852787 162.952151 
L 490.513982 165.02513 
L 491.175177 165.713333 
L 491.836372 165.276876 
L 492.497567 158.125056 
L 493.158762 159.034275 
L 493.819957 158.108456 
L 494.481151 152.350946 
L 495.142346 150.517165 
L 495.803541 152.842215 
L 496.464736 156.825409 
L 497.125931 157.140145 
L 497.787126 155.933357 
L 498.448321 152.599227 
L 499.109515 150.165701 
L 499.77071 146.799331 
L 500.431905 144.683407 
L 501.0931 144.853707 
L 501.754295 138.259568 
L 502.41549 136.510006 
L 503.076685 132.16017 
L 503.737879 133.793231 
L 504.399074 133.592802 
L 505.060269 135.204623 
L 505.721464 139.629258 
L 506.382659 141.309619 
L 507.043854 141.363123 
L 507.705049 143.679361 
L 508.366243 142.150346 
L 509.027438 142.419189 
L 509.688633 144.135539 
L 510.349828 143.298423 
L 511.011023 143.058292 
L 512.333413 139.439214 
L 512.994607 142.943903 
L 514.316997 141.637269 
L 514.978192 142.306948 
L 515.639387 142.750189 
L 516.300582 140.842892 
L 516.961777 144.506808 
L 517.622971 142.765606 
L 518.284166 138.867126 
L 518.945361 136.763642 
L 519.606556 141.986209 
L 520.267751 140.203424 
L 520.928946 133.195949 
L 521.590141 136.416061 
L 522.251335 135.802383 
L 522.91253 134.178904 
L 523.573725 134.780218 
L 524.23492 133.713282 
L 524.896115 129.272313 
L 525.55731 128.58232 
L 526.879699 124.541471 
L 528.863284 110.874069 
L 529.524479 110.905365 
L 530.185674 116.703525 
L 530.846869 119.553658 
L 531.508063 120.528781 
L 532.169258 118.781933 
L 532.830453 119.45666 
L 533.491648 120.34418 
L 534.152843 123.380311 
L 534.814038 122.363296 
L 535.475233 126.047136 
L 536.136427 128.840011 
L 536.797622 129.791491 
L 538.120012 133.364803 
L 539.442402 139.889197 
L 540.764791 141.750047 
L 541.425986 141.084123 
L 542.748376 140.96446 
L 543.409571 140.83014 
L 544.070766 139.884618 
L 544.731961 138.584553 
L 545.393155 137.943933 
L 546.05435 134.562522 
L 546.715545 133.012227 
L 547.37674 130.305235 
L 548.037935 134.633651 
L 548.69913 133.738939 
L 550.021519 130.35327 
L 551.343909 125.639472 
L 552.005104 124.102637 
L 552.666299 120.832977 
L 553.327494 119.106786 
L 553.988688 110.543353 
L 554.649883 111.205083 
L 555.311078 112.436177 
L 555.972273 117.503776 
L 557.294663 120.977241 
L 557.955858 121.34848 
L 558.617052 118.680336 
L 559.278247 120.978793 
L 559.939442 120.83092 
L 560.600637 121.192067 
L 561.261832 122.338214 
L 561.923027 124.140576 
L 562.584222 124.659884 
L 563.245416 123.223642 
L 563.906611 124.318497 
L 564.567806 126.538155 
L 565.229001 128.318484 
L 565.890196 127.628925 
L 566.551391 128.808131 
L 567.212586 129.734885 
L 567.87378 130.039348 
L 568.534975 129.396209 
L 569.19617 130.644002 
L 569.857365 127.282041 
L 570.51856 128.302688 
L 571.179755 128.33769 
L 571.84095 128.888812 
L 572.502144 128.831595 
L 573.163339 131.221905 
L 573.824534 131.553933 
L 574.485729 132.284508 
L 575.808119 131.972829 
L 576.469314 130.461512 
L 577.130508 129.889233 
L 577.791703 128.738988 
L 578.452898 126.617663 
L 579.114093 125.183725 
L 579.775288 125.946916 
L 580.436483 123.894236 
L 581.097678 129.570108 
L 581.758872 129.121513 
L 582.420067 128.462098 
L 583.742457 125.672768 
L 585.064847 121.446834 
L 585.726042 121.610175 
L 587.048431 114.257168 
L 587.709626 115.169528 
L 588.370821 113.622991 
L 589.032016 113.489467 
L 589.693211 112.716709 
L 590.354406 113.685753 
L 591.0156 111.536249 
L 591.676795 111.961989 
L 592.33799 110.653075 
L 592.999185 111.085123 
L 593.66038 109.752959 
L 594.98277 106.308908 
L 595.643964 107.336275 
L 596.305159 105.787326 
L 596.966354 109.192056 
L 597.627549 108.805478 
L 598.288744 107.842081 
L 598.949939 102.7938 
L 599.611134 103.974163 
L 600.272328 105.788139 
L 600.933523 101.053943 
L 601.594718 100.696465 
L 602.255913 104.253541 
L 602.917108 101.104932 
L 603.578303 106.725378 
L 606.884277 127.857899 
L 607.545472 125.473701 
L 608.867862 133.554999 
L 609.529056 136.172711 
L 610.190251 137.565106 
L 610.851446 139.936057 
L 611.512641 141.876136 
L 612.173836 143.418921 
L 612.835031 144.208335 
L 613.496226 146.577583 
L 614.15742 149.566295 
L 614.818615 150.336792 
L 615.47981 150.847325 
L 616.141005 149.679371 
L 616.8022 147.881631 
L 617.463395 148.354451 
L 618.12459 149.345851 
L 618.785784 149.019441 
L 620.108174 147.595689 
L 621.430564 144.19496 
L 622.091759 141.702779 
L 622.752953 137.085106 
L 623.414148 134.636376 
L 624.075343 131.719571 
L 624.736538 128.146393 
L 625.397733 125.792869 
L 626.058928 125.428243 
L 627.381317 119.311974 
L 628.042512 124.565298 
L 628.703707 127.787544 
L 629.364902 126.969455 
L 630.026097 133.710861 
L 630.687292 135.446118 
L 631.348487 130.205314 
L 632.009681 132.424951 
L 632.670876 133.230856 
L 633.332071 133.483734 
L 633.993266 133.038929 
L 634.654461 136.983973 
L 635.315656 135.539733 
L 635.976851 135.752972 
L 636.638045 135.80195 
L 637.29924 130.340607 
L 637.960435 129.865244 
L 638.62163 122.144706 
L 639.282825 124.751091 
L 639.94402 122.182718 
L 641.266409 127.474364 
L 641.927604 127.717375 
L 642.588799 129.393205 
L 643.911189 134.947307 
L 644.572384 132.040177 
L 645.233579 132.170429 
L 645.894773 132.08512 
L 646.555968 129.447936 
L 647.217163 129.28894 
L 647.878358 128.028124 
L 648.539553 128.041279 
L 649.200748 126.948431 
L 649.861943 129.276968 
L 650.523137 129.668115 
L 651.184332 129.624181 
L 651.845527 129.050257 
L 652.506722 127.142507 
L 653.167917 128.025355 
L 653.829112 131.079379 
L 654.490307 131.95124 
L 655.151501 132.380165 
L 657.135086 133.021218 
L 657.796281 131.151375 
L 658.457476 136.746408 
L 659.779865 133.612386 
L 660.44106 131.386758 
L 661.102255 128.513753 
L 661.76345 127.789805 
L 662.424645 124.271137 
L 663.08584 118.920776 
L 663.747035 116.05703 
L 664.408229 120.358833 
L 665.069424 115.907032 
L 665.730619 122.89561 
L 666.391814 122.009739 
L 667.053009 128.571042 
L 667.714204 130.140921 
L 668.375399 130.832217 
L 669.036593 132.723254 
L 669.697788 132.619862 
L 670.358983 125.696002 
L 671.020178 125.159415 
L 671.681373 129.538015 
L 672.342568 131.484639 
L 673.003763 133.026796 
L 673.664957 135.606252 
L 674.326152 137.143499 
L 674.987347 140.122733 
L 675.648542 141.572837 
L 676.309737 142.578879 
L 676.970932 141.983456 
L 677.632127 143.650312 
L 678.954516 146.053038 
L 679.615711 148.105767 
L 680.276906 150.528289 
L 681.599296 151.351258 
L 682.260491 149.828846 
L 682.921685 147.995028 
L 683.58288 147.091894 
L 684.244075 147.263743 
L 684.90527 146.930377 
L 685.566465 144.702266 
L 686.22766 144.258544 
L 686.888855 143.064685 
L 687.550049 140.952776 
L 688.211244 137.721138 
L 688.872439 135.710036 
L 690.194829 136.594632 
L 690.856024 134.531601 
L 691.517218 130.53017 
L 692.178413 132.388081 
L 692.839608 133.813704 
L 693.500803 134.568812 
L 694.161998 133.566886 
L 694.823193 132.360713 
L 695.484388 130.722792 
L 696.806777 126.557699 
L 697.467972 132.189517 
L 698.129167 130.848762 
L 698.790362 128.900015 
L 699.451557 128.924088 
L 700.112752 128.662888 
L 700.773946 130.085329 
L 701.435141 130.058241 
L 702.096336 129.486176 
L 702.757531 128.635779 
L 703.418726 129.720878 
L 704.079921 131.400193 
L 704.741116 130.921653 
L 705.40231 130.22828 
L 706.063505 129.082725 
L 706.7247 128.191405 
L 707.385895 117.994668 
L 708.04709 118.999436 
L 708.708285 119.758367 
L 709.36948 122.117018 
L 710.030674 125.276028 
L 710.691869 127.43143 
L 711.353064 128.21301 
L 712.014259 128.725805 
L 712.675454 130.856338 
L 713.336649 131.260316 
L 713.997844 131.41545 
L 714.659038 131.911836 
L 715.320233 132.193476 
L 715.981428 130.770551 
L 716.642623 131.181593 
L 717.303818 131.411016 
L 717.965013 131.357207 
L 718.626208 133.267111 
L 719.287402 134.015456 
L 719.948597 134.056761 
L 720.609792 133.89005 
L 721.270987 129.779865 
L 721.932182 130.10966 
L 722.593377 129.964235 
L 723.254572 128.588235 
L 724.576961 128.294945 
L 725.238156 130.493792 
L 725.899351 130.138771 
L 726.560546 131.012787 
L 727.882936 128.32835 
L 728.54413 127.629584 
L 729.205325 128.759735 
L 729.86652 125.749787 
L 731.18891 128.668943 
L 731.850105 127.134756 
L 733.172494 128.980687 
L 733.833689 128.769895 
L 734.494884 140.032373 
L 735.156079 142.006536 
L 736.478469 144.767965 
L 737.139664 145.829344 
L 737.800858 146.49348 
L 738.462053 146.918469 
L 739.784443 146.491342 
L 740.445638 145.902054 
L 741.768028 143.799207 
L 742.429222 143.801505 
L 743.090417 142.473114 
L 744.412807 140.410962 
L 745.074002 137.674596 
L 746.396392 134.733098 
L 747.718781 127.282558 
L 748.379976 130.380029 
L 749.041171 129.086897 
L 749.702366 126.011906 
L 750.363561 124.277459 
L 751.024756 124.356429 
L 751.68595 123.771059 
L 752.347145 122.40694 
L 753.00834 122.743387 
L 753.669535 122.399487 
L 754.33073 124.055446 
L 755.65312 128.362273 
L 756.314314 128.423597 
L 756.975509 132.949509 
L 757.636704 133.462864 
L 758.297899 133.747482 
L 758.959094 136.950068 
L 759.620289 137.549483 
L 760.281483 132.989173 
L 760.942678 134.808345 
L 761.603873 135.920436 
L 762.926263 137.522041 
L 763.587458 137.635674 
L 764.248653 135.635266 
L 764.909847 135.875174 
L 765.571042 134.611553 
L 766.232237 128.925183 
L 766.893432 130.0711 
L 767.554627 129.822669 
L 768.215822 130.682123 
L 768.877017 130.101395 
L 769.538211 127.62317 
L 770.199406 130.358246 
L 770.860601 131.048618 
L 771.521796 131.044232 
L 772.182991 132.386673 
L 772.844186 130.149669 
L 773.505381 129.883156 
L 774.166575 131.221805 
L 774.82777 131.177271 
L 776.15016 131.31812 
L 776.811355 131.734746 
L 777.47255 135.298611 
L 778.133745 135.770247 
L 778.794939 133.861306 
L 779.456134 134.635352 
L 780.117329 137.214251 
L 780.778524 137.592567 
L 781.439719 131.788481 
L 782.100914 133.099576 
L 782.762109 131.891982 
L 783.423303 133.006172 
L 784.084498 133.873339 
L 785.406888 131.45113 
L 786.068083 131.512728 
L 786.729278 129.903569 
L 787.390473 133.105614 
L 788.051667 133.335216 
L 788.712862 132.941739 
L 790.696447 131.044187 
L 795.324811 141.517291 
L 796.647201 143.551455 
L 797.308395 144.221605 
L 797.96959 144.610535 
L 798.630785 144.680797 
L 799.29198 144.394943 
L 799.953175 143.715525 
L 800.61437 142.605095 
L 801.275565 141.026204 
L 801.936759 138.941404 
L 802.597954 136.313247 
L 803.259149 133.104284 
L 803.920344 129.277069 
L 803.920344 129.277069 
" style="fill:none;stroke:#d95319;stroke-linecap:square;stroke-width:3;"/>
   </g>
   <g id="line2d_33">
    <path clip-path="url(#p739a6d1dab)" d="M 143.386683 399.509422 
L 156.61058 376.660439 
L 157.271775 358.652487 
L 157.93297 360.482102 
L 158.594165 358.165933 
L 159.916554 385.357511 
L 160.577749 390.661038 
L 161.238944 397.193337 
L 161.900139 394.933118 
L 162.561334 394.440368 
L 163.222529 391.939565 
L 163.883724 391.086668 
L 164.544918 382.034607 
L 165.206113 383.10122 
L 165.867308 384.597737 
L 166.528503 387.83986 
L 167.189698 389.330469 
L 167.850893 386.870048 
L 168.512088 382.88291 
L 169.173282 385.337929 
L 169.834477 386.324714 
L 170.495672 374.222178 
L 171.156867 386.747302 
L 171.818062 379.623325 
L 173.140452 372.565753 
L 173.801646 364.361602 
L 174.462841 353.254617 
L 175.124036 357.750005 
L 175.785231 352.671583 
L 176.446426 357.027784 
L 177.107621 362.350047 
L 177.768816 356.317345 
L 178.43001 339.877583 
L 179.091205 341.349741 
L 179.7524 331.186754 
L 180.413595 340.925936 
L 181.07479 355.204734 
L 181.735985 347.856358 
L 182.39718 352.648382 
L 183.058374 344.467315 
L 183.719569 330.626256 
L 184.380764 324.050022 
L 185.041959 327.811049 
L 185.703154 317.898221 
L 186.364349 318.764326 
L 187.025544 311.952486 
L 187.686738 302.690542 
L 188.347933 289.726467 
L 189.009128 283.818972 
L 189.670323 283.197947 
L 190.331518 288.362178 
L 190.992713 277.49765 
L 191.653908 274.130651 
L 192.315102 279.129655 
L 192.976297 269.79014 
L 193.637492 257.250119 
L 194.298687 262.383396 
L 195.621077 256.325579 
L 196.282272 247.758424 
L 196.943466 248.943056 
L 197.604661 266.27137 
L 198.927051 256.320124 
L 199.588246 246.279038 
L 200.249441 239.145389 
L 200.910636 236.166155 
L 201.57183 231.721654 
L 202.233025 228.737037 
L 202.89422 231.438654 
L 203.555415 225.450404 
L 204.21661 216.985736 
L 204.877805 214.192999 
L 205.538999 218.973134 
L 206.200194 214.086464 
L 206.861389 223.23262 
L 208.183779 199.37754 
L 208.844974 206.59742 
L 209.506169 206.241285 
L 210.167363 210.397053 
L 210.828558 218.176522 
L 211.489753 224.50742 
L 212.150948 214.737197 
L 212.812143 218.051657 
L 213.473338 208.61457 
L 214.134533 207.851745 
L 215.456922 229.196055 
L 216.118117 230.353812 
L 217.440507 216.217993 
L 218.762897 218.077404 
L 219.424091 201.421382 
L 220.085286 198.238274 
L 220.746481 204.677555 
L 221.407676 191.939109 
L 222.068871 189.048382 
L 222.730066 185.581846 
L 223.391261 184.034868 
L 224.052455 171.724585 
L 224.71365 162.127878 
L 225.374845 162.194254 
L 226.697235 171.895352 
L 227.35843 171.781149 
L 228.019625 172.204901 
L 228.680819 174.762283 
L 229.342014 172.452844 
L 230.003209 165.154766 
L 230.664404 167.388954 
L 231.325599 164.847529 
L 231.986794 164.148369 
L 232.647989 168.810582 
L 233.309183 167.079351 
L 233.970378 164.322869 
L 235.292768 173.047833 
L 235.953963 172.207592 
L 236.615158 169.563286 
L 237.276353 168.592865 
L 237.937547 166.805684 
L 238.598742 162.127283 
L 239.259937 170.2785 
L 239.921132 172.936588 
L 240.582327 174.041899 
L 241.243522 179.438575 
L 241.904717 172.638441 
L 242.565911 172.136216 
L 243.888301 176.738241 
L 244.549496 170.953546 
L 245.210691 175.130104 
L 246.533081 188.727192 
L 247.194275 189.732629 
L 247.85547 188.116257 
L 248.516665 191.581099 
L 249.17786 189.941808 
L 249.839055 196.082752 
L 250.50025 196.359848 
L 251.161445 200.791182 
L 251.822639 195.260795 
L 252.483834 192.40539 
L 253.145029 194.476955 
L 253.806224 194.471811 
L 254.467419 193.444597 
L 255.128614 198.305118 
L 255.789809 204.303388 
L 256.451003 197.968629 
L 257.112198 198.57703 
L 257.773393 195.080767 
L 258.434588 199.480584 
L 259.095783 203.089964 
L 259.756978 198.736554 
L 260.418173 201.647206 
L 261.079367 201.763279 
L 261.740562 204.340011 
L 262.401757 204.440735 
L 263.062952 205.549615 
L 264.385342 194.297423 
L 265.046537 194.155769 
L 265.707731 198.140453 
L 266.368926 190.374918 
L 267.030121 191.145146 
L 267.691316 193.947825 
L 268.352511 189.933695 
L 269.013706 193.527137 
L 269.674901 193.087219 
L 270.336095 194.372941 
L 270.99729 198.245064 
L 271.658485 206.106016 
L 272.31968 210.234976 
L 272.980875 202.690054 
L 273.64207 198.386994 
L 274.303264 201.673228 
L 274.964459 196.133056 
L 275.625654 188.385678 
L 276.286849 192.230591 
L 276.948044 186.140932 
L 277.609239 189.716618 
L 278.270434 190.703059 
L 278.931628 196.779422 
L 279.592823 198.413061 
L 280.254018 191.984165 
L 280.915213 189.360594 
L 281.576408 190.327136 
L 282.237603 192.843372 
L 282.898798 186.520356 
L 283.559992 187.893491 
L 284.221187 195.316381 
L 284.882382 190.906024 
L 286.204772 198.336601 
L 286.865967 200.560557 
L 287.527162 194.737192 
L 288.188356 196.577725 
L 288.849551 194.648539 
L 289.510746 194.080189 
L 290.171941 189.927223 
L 290.833136 192.615205 
L 291.494331 200.047293 
L 292.155526 204.197756 
L 292.81672 202.822437 
L 293.477915 204.674059 
L 294.800305 206.019198 
L 295.4615 203.188857 
L 296.122695 202.106263 
L 296.78389 201.600254 
L 297.445084 197.896835 
L 298.767474 182.238132 
L 299.428669 173.636778 
L 300.089864 175.162854 
L 300.751059 178.73304 
L 301.412254 177.705549 
L 302.073448 184.805083 
L 302.734643 186.611998 
L 303.395838 183.921733 
L 304.057033 186.650867 
L 304.718228 188.523434 
L 305.379423 191.383117 
L 306.040618 185.633261 
L 306.701812 184.740945 
L 308.024202 199.146174 
L 308.685397 195.678964 
L 309.346592 190.60947 
L 310.007787 196.727475 
L 310.668982 195.918771 
L 311.330176 194.485376 
L 311.991371 197.573127 
L 313.313761 189.569297 
L 314.636151 199.767897 
L 315.297346 196.068578 
L 315.95854 198.766962 
L 316.619735 199.954154 
L 317.942125 205.247516 
L 318.60332 205.41921 
L 319.92571 199.032014 
L 320.586904 201.82344 
L 321.248099 193.273576 
L 321.909294 193.53022 
L 322.570489 197.929328 
L 323.231684 198.031538 
L 323.892879 193.853051 
L 324.554074 194.090846 
L 325.215268 198.281839 
L 325.876463 199.159039 
L 326.537658 204.634756 
L 327.198853 208.153693 
L 327.860048 208.301942 
L 328.521243 213.457759 
L 329.182438 211.542659 
L 329.843632 218.020793 
L 330.504827 217.04208 
L 331.166022 219.513871 
L 332.488412 203.90143 
L 333.149607 207.664675 
L 333.810802 212.317281 
L 334.471996 204.619082 
L 335.133191 203.994925 
L 335.794386 208.010888 
L 336.455581 206.709522 
L 337.116776 204.421862 
L 337.777971 208.573125 
L 338.439166 201.216055 
L 339.10036 197.180447 
L 339.761555 194.645688 
L 340.42275 198.23565 
L 341.083945 196.261365 
L 341.74514 195.132425 
L 342.406335 197.146164 
L 343.067529 196.938422 
L 343.728724 196.252459 
L 344.389919 198.57105 
L 345.051114 199.914843 
L 345.712309 196.775621 
L 346.373504 194.733029 
L 347.034699 191.561907 
L 347.695893 194.735049 
L 348.357088 194.552488 
L 349.018283 198.940742 
L 349.679478 209.896056 
L 350.340673 212.467185 
L 351.001868 211.789791 
L 351.663063 207.798113 
L 352.324257 217.478698 
L 352.985452 215.410298 
L 353.646647 213.936275 
L 354.307842 223.226884 
L 354.969037 219.738664 
L 355.630232 210.952069 
L 356.291427 208.146911 
L 356.952621 216.907062 
L 357.613816 231.002631 
L 358.275011 223.286342 
L 358.936206 237.41451 
L 359.597401 240.532605 
L 360.258596 247.808281 
L 360.919791 250.142038 
L 361.580985 263.608605 
L 362.24218 259.89333 
L 362.903375 259.482299 
L 363.56457 257.998488 
L 364.88696 244.838933 
L 365.548155 244.15173 
L 366.209349 244.635428 
L 366.870544 243.203282 
L 367.531739 237.27763 
L 368.192934 236.611652 
L 368.854129 231.830664 
L 369.515324 227.965264 
L 370.176519 232.912692 
L 370.837713 229.743863 
L 371.498908 228.11018 
L 372.160103 221.10989 
L 372.821298 218.07662 
L 373.482493 219.374636 
L 374.143688 221.235976 
L 374.804883 214.544922 
L 375.466077 231.901795 
L 376.127272 228.219338 
L 376.788467 214.131608 
L 377.449662 210.95126 
L 378.110857 212.09126 
L 378.772052 227.268459 
L 379.433247 214.217431 
L 380.094441 215.467083 
L 380.755636 211.902789 
L 381.416831 201.492295 
L 382.078026 208.725551 
L 382.739221 213.695245 
L 383.400416 211.378036 
L 384.061611 197.679424 
L 384.722805 197.128244 
L 385.384 198.283803 
L 386.045195 184.860094 
L 386.70639 183.961146 
L 387.367585 176.952506 
L 388.02878 167.989668 
L 388.689975 154.652079 
L 389.351169 152.900527 
L 390.012364 149.73619 
L 390.673559 152.158724 
L 391.995949 155.457415 
L 393.318339 157.729086 
L 393.979533 161.935504 
L 394.640728 161.495138 
L 395.301923 160.078323 
L 395.963118 167.339835 
L 396.624313 169.065463 
L 397.285508 157.793448 
L 397.946703 158.748538 
L 398.607897 158.31567 
L 399.269092 164.803886 
L 400.591482 171.244741 
L 401.252677 177.158139 
L 401.913872 181.349539 
L 402.575067 170.387202 
L 403.236261 161.947908 
L 403.897456 167.642031 
L 404.558651 165.380783 
L 405.219846 170.740007 
L 405.881041 159.999679 
L 406.542236 165.602724 
L 407.203431 166.139603 
L 407.864625 169.346223 
L 408.52582 170.702344 
L 409.187015 164.391111 
L 409.84821 164.023495 
L 410.509405 167.125856 
L 411.1706 166.073167 
L 411.831794 157.140662 
L 412.492989 162.957877 
L 413.154184 162.839103 
L 413.815379 159.699844 
L 414.476574 155.412528 
L 415.798964 166.416911 
L 416.460158 168.328985 
L 417.121353 169.825776 
L 417.782548 172.241784 
L 418.443743 178.085894 
L 419.104938 179.956629 
L 419.766133 185.019348 
L 420.427328 183.966708 
L 421.088522 180.155477 
L 421.749717 178.949462 
L 422.410912 179.659631 
L 423.072107 179.304738 
L 423.733302 176.531502 
L 424.394497 182.469458 
L 425.055692 181.489436 
L 425.716886 177.627671 
L 426.378081 178.012294 
L 427.039276 180.517759 
L 427.700471 179.762687 
L 428.361666 171.591885 
L 429.684056 159.677097 
L 430.34525 158.881003 
L 431.006445 157.552179 
L 431.66764 164.534851 
L 432.328835 162.408243 
L 432.99003 165.379525 
L 433.651225 164.311355 
L 434.31242 166.592381 
L 434.973614 162.805393 
L 435.634809 163.574917 
L 436.957199 154.59846 
L 437.618394 153.058377 
L 438.279589 151.104864 
L 438.940784 151.825982 
L 439.601978 144.810517 
L 440.263173 149.927605 
L 441.585563 158.529709 
L 442.246758 153.251311 
L 442.907953 152.222115 
L 443.569148 153.492389 
L 444.230342 155.355987 
L 444.891537 158.709044 
L 445.552732 153.441342 
L 446.213927 152.505216 
L 446.875122 147.852059 
L 447.536317 150.457969 
L 448.858706 163.072254 
L 449.519901 165.312638 
L 450.181096 163.875732 
L 450.842291 170.515023 
L 451.503486 169.773271 
L 452.825876 180.439693 
L 453.48707 180.324868 
L 454.148265 179.085507 
L 454.80946 182.928523 
L 455.470655 183.734716 
L 456.13185 184.988051 
L 456.793045 187.356487 
L 457.45424 194.635701 
L 458.115434 193.292372 
L 458.776629 188.706568 
L 459.437824 191.741428 
L 460.099019 191.535014 
L 460.760214 188.83952 
L 462.082604 194.396658 
L 462.743798 195.228264 
L 463.404993 196.592389 
L 464.727383 207.429422 
L 465.388578 207.300777 
L 466.049773 200.632927 
L 466.710968 201.653011 
L 468.033357 202.204107 
L 468.694552 195.277861 
L 469.355747 201.648739 
L 470.016942 199.300342 
L 470.678137 196.339949 
L 471.339332 194.638611 
L 472.000526 192.614108 
L 472.661721 196.869295 
L 473.322916 196.717782 
L 473.984111 200.000776 
L 474.645306 199.345866 
L 475.306501 194.468177 
L 475.967696 192.467968 
L 476.62889 189.72821 
L 477.290085 188.543963 
L 477.95128 184.815139 
L 479.27367 174.943385 
L 479.934865 174.903016 
L 481.257254 166.481373 
L 481.918449 162.678798 
L 482.579644 165.898356 
L 483.240839 167.896151 
L 483.902034 169.226646 
L 484.563229 164.053468 
L 485.224423 161.531175 
L 485.885618 162.520266 
L 486.546813 161.998044 
L 487.208008 162.197798 
L 487.869203 163.805358 
L 488.530398 163.958312 
L 489.191593 167.251877 
L 489.852787 165.774648 
L 490.513982 169.153964 
L 491.836372 159.472734 
L 493.158762 169.376561 
L 493.819957 172.962916 
L 494.481151 170.536781 
L 495.142346 170.355351 
L 495.803541 174.153406 
L 496.464736 167.249591 
L 497.125931 170.828239 
L 497.787126 172.240671 
L 498.448321 171.260802 
L 499.109515 172.067743 
L 500.431905 168.546854 
L 501.0931 171.523224 
L 501.754295 171.173156 
L 502.41549 171.86235 
L 503.076685 174.408645 
L 503.737879 173.637065 
L 505.060269 169.418356 
L 505.721464 175.135532 
L 506.382659 173.964505 
L 507.043854 166.687583 
L 507.705049 166.465154 
L 508.366243 165.41517 
L 509.027438 167.008438 
L 509.688633 170.939201 
L 510.349828 174.002852 
L 511.011023 172.5664 
L 511.672218 176.796056 
L 512.333413 175.295825 
L 512.994607 178.839565 
L 514.316997 169.001438 
L 514.978192 169.173182 
L 515.639387 163.358712 
L 516.300582 163.262823 
L 516.961777 159.569993 
L 517.622971 159.031216 
L 518.284166 163.11073 
L 518.945361 165.310819 
L 519.606556 166.083148 
L 520.267751 166.578473 
L 520.928946 166.124067 
L 521.590141 167.329172 
L 522.251335 170.336503 
L 522.91253 172.513428 
L 523.573725 179.388684 
L 524.23492 179.204456 
L 524.896115 181.979666 
L 526.218505 181.756357 
L 526.879699 183.335845 
L 527.540894 183.395198 
L 528.202089 173.923137 
L 529.524479 163.46601 
L 530.185674 169.555449 
L 530.846869 178.806248 
L 531.508063 173.130359 
L 532.169258 169.995581 
L 532.830453 165.783503 
L 533.491648 164.303504 
L 534.152843 166.120664 
L 534.814038 174.44755 
L 535.475233 187.202435 
L 536.136427 194.74756 
L 536.797622 187.702024 
L 538.120012 180.067257 
L 538.781207 184.01487 
L 539.442402 182.332346 
L 540.103597 173.024094 
L 540.764791 180.228385 
L 541.425986 190.654853 
L 542.087181 198.504217 
L 542.748376 211.425924 
L 543.409571 203.410467 
L 544.070766 198.854803 
L 544.731961 192.532446 
L 545.393155 199.637602 
L 546.05435 205.167188 
L 546.715545 212.253857 
L 547.37674 221.332414 
L 548.037935 214.588483 
L 548.69913 222.979106 
L 550.021519 208.68393 
L 550.682714 214.82153 
L 551.343909 223.678362 
L 552.005104 230.65712 
L 552.666299 239.400405 
L 553.327494 230.485553 
L 553.988688 225.759397 
L 554.649883 227.28523 
L 555.311078 229.778454 
L 555.972273 242.533062 
L 556.633468 242.308407 
L 557.294663 242.286166 
L 557.955858 228.122143 
L 558.617052 229.384456 
L 559.278247 239.671604 
L 559.939442 239.034445 
L 560.600637 241.609569 
L 561.261832 251.558931 
L 561.923027 236.802075 
L 562.584222 231.331361 
L 563.245416 216.577991 
L 563.906611 211.684748 
L 564.567806 217.333125 
L 565.890196 212.645096 
L 566.551391 222.220329 
L 567.212586 219.339492 
L 568.534975 215.789505 
L 569.19617 211.753789 
L 569.857365 195.057997 
L 570.51856 206.707029 
L 571.179755 220.855567 
L 571.84095 222.82873 
L 572.502144 223.974276 
L 573.163339 220.670479 
L 573.824534 202.953141 
L 574.485729 190.249678 
L 575.146924 188.007497 
L 575.808119 182.4238 
L 577.130508 178.205802 
L 577.791703 163.124612 
L 578.452898 144.570898 
L 579.775288 114.624403 
L 580.436483 127.211152 
L 581.097678 122.468741 
L 581.758872 120.541424 
L 582.420067 127.924157 
L 583.081262 114.443478 
L 583.742457 117.383397 
L 584.403652 115.660371 
L 585.064847 112.026699 
L 585.726042 123.067723 
L 586.387236 110.110484 
L 587.048431 103.822625 
L 587.709626 101.170767 
L 588.370821 85.003516 
L 589.032016 96.257374 
L 589.693211 93.586682 
L 590.354406 104.574236 
L 591.0156 104.775775 
L 591.676795 94.926044 
L 592.33799 103.595388 
L 592.999185 96.347249 
L 593.66038 90.819472 
L 594.321575 99.404042 
L 596.305159 77.462692 
L 596.966354 85.175242 
L 597.627549 77.086185 
L 598.288744 66.338962 
L 598.949939 66.983948 
L 599.611134 55.97826 
L 600.272328 51.389714 
L 600.933523 56.599868 
L 601.594718 55.883372 
L 602.255913 63.29258 
L 602.917108 60.564658 
L 603.578303 65.469403 
L 604.239498 74.116739 
L 604.900692 76.103952 
L 605.561887 81.613756 
L 606.223082 83.98236 
L 606.884277 92.707247 
L 607.545472 83.847559 
L 608.206667 88.634982 
L 608.867862 91.76214 
L 609.529056 85.807487 
L 610.190251 91.049561 
L 610.851446 92.910673 
L 611.512641 85.094138 
L 612.173836 90.137331 
L 612.835031 81.876009 
L 614.15742 98.911804 
L 614.818615 102.423381 
L 615.47981 108.318292 
L 616.141005 104.27825 
L 616.8022 101.853623 
L 617.463395 95.045222 
L 618.12459 99.90319 
L 618.785784 101.353875 
L 619.446979 100.687002 
L 620.108174 102.740063 
L 620.769369 103.213748 
L 621.430564 101.671838 
L 622.091759 104.933047 
L 622.752953 102.178694 
L 623.414148 101.675557 
L 624.075343 97.988442 
L 624.736538 97.916691 
L 625.397733 99.859971 
L 626.058928 104.657814 
L 626.720123 104.571484 
L 627.381317 105.389903 
L 628.703707 110.529809 
L 629.364902 108.934258 
L 630.026097 108.728394 
L 630.687292 109.692688 
L 631.348487 110.292275 
L 632.670876 114.406334 
L 633.332071 114.623365 
L 633.993266 111.276629 
L 635.315656 114.239271 
L 635.976851 113.585345 
L 637.29924 115.778517 
L 637.960435 115.018766 
L 638.62163 113.157991 
L 639.282825 117.262319 
L 639.94402 118.496236 
L 640.605215 114.774208 
L 641.266409 112.158446 
L 641.927604 114.018259 
L 642.588799 112.534726 
L 643.249994 111.731123 
L 643.911189 110.479855 
L 644.572384 109.488847 
L 645.233579 111.591355 
L 645.894773 113.044238 
L 646.555968 113.71698 
L 647.217163 113.899073 
L 647.878358 113.843911 
L 648.539553 115.313005 
L 649.200748 113.701489 
L 649.861943 113.386235 
L 650.523137 111.075596 
L 651.184332 110.390594 
L 651.845527 113.212508 
L 652.506722 113.991756 
L 653.167917 110.297329 
L 653.829112 109.012807 
L 654.490307 106.574864 
L 655.151501 104.999174 
L 655.812696 102.372841 
L 656.473891 103.244152 
L 657.135086 98.455663 
L 658.457476 92.064638 
L 659.118671 94.285045 
L 659.779865 93.139877 
L 660.44106 95.154359 
L 661.102255 96.754859 
L 661.76345 94.276883 
L 662.424645 96.13249 
L 663.08584 97.174423 
L 663.747035 98.72498 
L 664.408229 99.084902 
L 665.069424 101.761632 
L 665.730619 100.976397 
L 666.391814 99.066534 
L 667.053009 99.624361 
L 667.714204 99.53497 
L 668.375399 97.616135 
L 669.036593 97.557036 
L 669.697788 98.189323 
L 670.358983 96.314708 
L 671.020178 99.016031 
L 671.681373 99.030144 
L 672.342568 98.423199 
L 673.003763 97.386958 
L 673.664957 96.707408 
L 674.326152 98.512861 
L 674.987347 99.459515 
L 675.648542 96.46938 
L 676.309737 96.855051 
L 676.970932 98.094022 
L 677.632127 100.360956 
L 678.293321 101.756597 
L 678.954516 99.634771 
L 679.615711 99.519621 
L 680.276906 98.772679 
L 680.938101 100.03305 
L 681.599296 102.921328 
L 682.260491 103.531425 
L 684.90527 112.666172 
L 685.566465 114.775504 
L 686.22766 110.360302 
L 686.888855 110.347993 
L 687.550049 107.371021 
L 688.872439 111.370182 
L 689.533634 112.306749 
L 690.194829 112.627181 
L 690.856024 110.906072 
L 691.517218 110.464876 
L 692.178413 106.974801 
L 692.839608 107.942951 
L 693.500803 106.872819 
L 694.161998 107.388614 
L 694.823193 111.434886 
L 695.484388 114.321721 
L 696.145582 111.96341 
L 696.806777 115.673873 
L 697.467972 118.39639 
L 698.129167 115.871851 
L 698.790362 117.241207 
L 699.451557 119.704136 
L 700.112752 120.693101 
L 700.773946 118.404519 
L 701.435141 114.674789 
L 702.096336 111.745767 
L 702.757531 114.280985 
L 703.418726 113.704111 
L 704.079921 116.020092 
L 704.741116 115.226988 
L 705.40231 113.757656 
L 706.063505 113.963766 
L 706.7247 111.15937 
L 708.04709 115.544322 
L 708.708285 114.483657 
L 709.36948 112.633032 
L 710.030674 113.921191 
L 710.691869 112.021403 
L 711.353064 112.530838 
L 712.014259 113.392533 
L 712.675454 110.979141 
L 713.336649 111.417183 
L 713.997844 109.722228 
L 714.659038 112.928901 
L 715.320233 108.967555 
L 715.981428 111.524969 
L 716.642623 107.393308 
L 717.303818 106.772125 
L 717.965013 104.784304 
L 718.626208 101.87586 
L 719.287402 100.888812 
L 720.609792 99.545137 
L 721.270987 97.587641 
L 721.932182 97.471743 
L 722.593377 95.139756 
L 723.254572 97.128312 
L 723.915766 97.337553 
L 724.576961 94.875487 
L 725.238156 98.057672 
L 725.899351 99.172407 
L 726.560546 96.515519 
L 727.221741 95.820164 
L 727.882936 94.090778 
L 728.54413 95.192055 
L 729.205325 97.704271 
L 729.86652 97.093845 
L 730.527715 99.998354 
L 731.18891 98.163435 
L 731.850105 100.178571 
L 732.5113 100.823014 
L 733.172494 98.422316 
L 734.494884 102.822975 
L 735.156079 100.708969 
L 736.478469 103.840915 
L 737.139664 104.039965 
L 737.800858 102.242358 
L 738.462053 101.789344 
L 739.123248 98.489739 
L 739.784443 98.533411 
L 740.445638 102.151987 
L 741.106833 104.161095 
L 741.768028 102.290434 
L 742.429222 104.186001 
L 743.090417 103.111795 
L 743.751612 103.454248 
L 744.412807 104.610892 
L 745.074002 105.298929 
L 745.735197 108.548362 
L 746.396392 110.042458 
L 747.057586 109.665238 
L 747.718781 112.071963 
L 748.379976 111.14338 
L 749.041171 109.861227 
L 749.702366 113.797637 
L 750.363561 110.722426 
L 751.024756 108.662511 
L 751.68595 110.668943 
L 752.347145 109.974339 
L 753.00834 106.375744 
L 753.669535 108.473097 
L 754.991925 115.516946 
L 755.65312 116.61797 
L 756.314314 115.247786 
L 756.975509 114.582206 
L 757.636704 112.658101 
L 758.297899 115.386992 
L 758.959094 112.422942 
L 759.620289 114.102892 
L 760.281483 117.461329 
L 760.942678 117.433572 
L 761.603873 114.754656 
L 762.265068 117.616231 
L 762.926263 113.873003 
L 763.587458 115.270228 
L 764.248653 115.470243 
L 765.571042 114.404766 
L 766.232237 115.328891 
L 766.893432 117.220563 
L 768.215822 110.354233 
L 768.877017 111.022236 
L 769.538211 113.347583 
L 770.199406 113.630702 
L 770.860601 116.017521 
L 771.521796 111.749513 
L 772.182991 114.165101 
L 772.844186 113.878895 
L 773.505381 116.329883 
L 774.166575 116.878783 
L 774.82777 117.592928 
L 776.15016 120.783297 
L 776.811355 120.619047 
L 777.47255 122.807126 
L 778.133745 122.458089 
L 779.456134 115.319361 
L 780.117329 117.86449 
L 780.778524 114.061491 
L 781.439719 111.693906 
L 782.762109 105.513866 
L 783.423303 104.07989 
L 784.084498 101.822971 
L 784.745693 103.42821 
L 785.406888 101.037743 
L 786.068083 102.483701 
L 786.729278 103.354414 
L 787.390473 103.585616 
L 788.051667 105.670141 
L 788.712862 108.575778 
L 789.374057 106.115233 
L 790.035252 106.117158 
L 790.696447 103.118558 
L 803.920344 94.061636 
L 803.920344 94.061636 
" style="fill:none;stroke:#a2142f;stroke-linecap:square;stroke-width:3;"/>
   </g>
   <g id="patch_3">
    <path d="M 110.36 613.24 
L 110.36 10.8 
" style="fill:none;stroke:#000000;stroke-linecap:square;stroke-linejoin:miter;stroke-width:0.8;"/>
   </g>
   <g id="patch_4">
    <path d="M 836.947027 613.24 
L 836.947027 10.8 
" style="fill:none;stroke:#000000;stroke-linecap:square;stroke-linejoin:miter;stroke-width:0.8;"/>
   </g>
   <g id="patch_5">
    <path d="M 110.36 613.24 
L 836.947027 613.24 
" style="fill:none;stroke:#000000;stroke-linecap:square;stroke-linejoin:miter;stroke-width:0.8;"/>
   </g>
   <g id="patch_6">
    <path d="M 110.36 10.8 
L 836.947027 10.8 
" style="fill:none;stroke:#000000;stroke-linecap:square;stroke-linejoin:miter;stroke-width:0.8;"/>
   </g>
   <g id="legend_1">
    <g id="line2d_34">
     <path d="M 549.166715 415.820937 
L 641.166715 415.820937 
" style="fill:none;stroke:#7e2f8e;stroke-linecap:square;stroke-width:3;"/>
    </g>
    <g id="line2d_35"/>
    <g id="text_18">
     <!-- RDSE -->
     <g transform="translate(677.966715 431.920937)scale(0.46 -0.46)">
      <defs>
       <path d="M 4325 0 
L 3194 0 
L 1759 1981 
Q 1600 1975 1500 1975 
Q 1459 1975 1412 1976 
Q 1366 1978 1316 1981 
L 1316 750 
Q 1316 350 1403 253 
Q 1522 116 1759 116 
L 1925 116 
L 1925 0 
L 109 0 
L 109 116 
L 269 116 
Q 538 116 653 291 
Q 719 388 719 750 
L 719 3488 
Q 719 3888 631 3984 
Q 509 4122 269 4122 
L 109 4122 
L 109 4238 
L 1653 4238 
Q 2328 4238 2648 4139 
Q 2969 4041 3192 3777 
Q 3416 3513 3416 3147 
Q 3416 2756 3161 2468 
Q 2906 2181 2372 2063 
L 3247 847 
Q 3547 428 3762 290 
Q 3978 153 4325 116 
L 4325 0 
z
M 1316 2178 
Q 1375 2178 1419 2176 
Q 1463 2175 1491 2175 
Q 2097 2175 2405 2437 
Q 2713 2700 2713 3106 
Q 2713 3503 2464 3751 
Q 2216 4000 1806 4000 
Q 1625 4000 1316 3941 
L 1316 2178 
z
" id="TimesNewRomanPSMT-52" transform="scale(0.015625)"/>
       <path d="M 109 0 
L 109 116 
L 269 116 
Q 538 116 650 288 
Q 719 391 719 750 
L 719 3488 
Q 719 3884 631 3984 
Q 509 4122 269 4122 
L 109 4122 
L 109 4238 
L 1834 4238 
Q 2784 4238 3279 4022 
Q 3775 3806 4076 3303 
Q 4378 2800 4378 2141 
Q 4378 1256 3841 663 
Q 3238 0 2003 0 
L 109 0 
z
M 1319 306 
Q 1716 219 1984 219 
Q 2709 219 3187 728 
Q 3666 1238 3666 2109 
Q 3666 2988 3187 3494 
Q 2709 4000 1959 4000 
Q 1678 4000 1319 3909 
L 1319 306 
z
" id="TimesNewRomanPSMT-44" transform="scale(0.015625)"/>
       <path d="M 2934 4334 
L 2934 2869 
L 2819 2869 
Q 2763 3291 2617 3541 
Q 2472 3791 2203 3937 
Q 1934 4084 1647 4084 
Q 1322 4084 1109 3886 
Q 897 3688 897 3434 
Q 897 3241 1031 3081 
Q 1225 2847 1953 2456 
Q 2547 2138 2764 1967 
Q 2981 1797 3098 1565 
Q 3216 1334 3216 1081 
Q 3216 600 2842 251 
Q 2469 -97 1881 -97 
Q 1697 -97 1534 -69 
Q 1438 -53 1133 45 
Q 828 144 747 144 
Q 669 144 623 97 
Q 578 50 556 -97 
L 441 -97 
L 441 1356 
L 556 1356 
Q 638 900 775 673 
Q 913 447 1195 297 
Q 1478 147 1816 147 
Q 2206 147 2432 353 
Q 2659 559 2659 841 
Q 2659 997 2573 1156 
Q 2488 1316 2306 1453 
Q 2184 1547 1640 1851 
Q 1097 2156 867 2337 
Q 638 2519 519 2737 
Q 400 2956 400 3219 
Q 400 3675 750 4004 
Q 1100 4334 1641 4334 
Q 1978 4334 2356 4169 
Q 2531 4091 2603 4091 
Q 2684 4091 2736 4139 
Q 2788 4188 2819 4334 
L 2934 4334 
z
" id="TimesNewRomanPSMT-53" transform="scale(0.015625)"/>
       <path d="M 1338 4006 
L 1338 2331 
L 2269 2331 
Q 2631 2331 2753 2441 
Q 2916 2584 2934 2947 
L 3050 2947 
L 3050 1472 
L 2934 1472 
Q 2891 1781 2847 1869 
Q 2791 1978 2662 2040 
Q 2534 2103 2269 2103 
L 1338 2103 
L 1338 706 
Q 1338 425 1363 364 
Q 1388 303 1450 267 
Q 1513 231 1688 231 
L 2406 231 
Q 2766 231 2928 281 
Q 3091 331 3241 478 
Q 3434 672 3638 1063 
L 3763 1063 
L 3397 0 
L 131 0 
L 131 116 
L 281 116 
Q 431 116 566 188 
Q 666 238 702 338 
Q 738 438 738 747 
L 738 3500 
Q 738 3903 656 3997 
Q 544 4122 281 4122 
L 131 4122 
L 131 4238 
L 3397 4238 
L 3444 3309 
L 3322 3309 
Q 3256 3644 3176 3769 
Q 3097 3894 2941 3959 
Q 2816 4006 2500 4006 
L 1338 4006 
z
" id="TimesNewRomanPSMT-45" transform="scale(0.015625)"/>
      </defs>
      <use xlink:href="#TimesNewRomanPSMT-52"/>
      <use x="66.699219" xlink:href="#TimesNewRomanPSMT-44"/>
      <use x="138.916016" xlink:href="#TimesNewRomanPSMT-53"/>
      <use x="194.53125" xlink:href="#TimesNewRomanPSMT-45"/>
     </g>
    </g>
    <g id="line2d_36">
     <path d="M 549.166715 480.860625 
L 641.166715 480.860625 
" style="fill:none;stroke:#d95319;stroke-linecap:square;stroke-width:3;"/>
    </g>
    <g id="line2d_37"/>
    <g id="text_19">
     <!-- PPO -->
     <g transform="translate(677.966715 496.960625)scale(0.46 -0.46)">
      <defs>
       <path d="M 1313 1984 
L 1313 750 
Q 1313 350 1400 253 
Q 1519 116 1759 116 
L 1922 116 
L 1922 0 
L 106 0 
L 106 116 
L 266 116 
Q 534 116 650 291 
Q 713 388 713 750 
L 713 3488 
Q 713 3888 628 3984 
Q 506 4122 266 4122 
L 106 4122 
L 106 4238 
L 1659 4238 
Q 2228 4238 2556 4120 
Q 2884 4003 3109 3725 
Q 3334 3447 3334 3066 
Q 3334 2547 2992 2222 
Q 2650 1897 2025 1897 
Q 1872 1897 1694 1919 
Q 1516 1941 1313 1984 
z
M 1313 2163 
Q 1478 2131 1606 2115 
Q 1734 2100 1825 2100 
Q 2150 2100 2386 2351 
Q 2622 2603 2622 3003 
Q 2622 3278 2509 3514 
Q 2397 3750 2190 3867 
Q 1984 3984 1722 3984 
Q 1563 3984 1313 3925 
L 1313 2163 
z
" id="TimesNewRomanPSMT-50" transform="scale(0.015625)"/>
       <path d="M 2341 4334 
Q 3166 4334 3770 3707 
Q 4375 3081 4375 2144 
Q 4375 1178 3765 540 
Q 3156 -97 2291 -97 
Q 1416 -97 820 525 
Q 225 1147 225 2134 
Q 225 3144 913 3781 
Q 1509 4334 2341 4334 
z
M 2281 4106 
Q 1713 4106 1369 3684 
Q 941 3159 941 2147 
Q 941 1109 1384 550 
Q 1725 125 2284 125 
Q 2881 125 3270 590 
Q 3659 1056 3659 2059 
Q 3659 3147 3231 3681 
Q 2888 4106 2281 4106 
z
" id="TimesNewRomanPSMT-4f" transform="scale(0.015625)"/>
      </defs>
      <use xlink:href="#TimesNewRomanPSMT-50"/>
      <use x="55.615234" xlink:href="#TimesNewRomanPSMT-50"/>
      <use x="111.230469" xlink:href="#TimesNewRomanPSMT-4f"/>
     </g>
    </g>
    <g id="line2d_38">
     <path d="M 549.166715 545.900312 
L 641.166715 545.900312 
" style="fill:none;stroke:#a2142f;stroke-linecap:square;stroke-width:3;"/>
    </g>
    <g id="line2d_39"/>
    <g id="text_20">
     <!-- A2C -->
     <g transform="translate(677.966715 562.000312)scale(0.46 -0.46)">
      <defs>
       <path d="M 2928 1419 
L 1288 1419 
L 1000 750 
Q 894 503 894 381 
Q 894 284 986 211 
Q 1078 138 1384 116 
L 1384 0 
L 50 0 
L 50 116 
Q 316 163 394 238 
Q 553 388 747 847 
L 2238 4334 
L 2347 4334 
L 3822 809 
Q 4000 384 4145 257 
Q 4291 131 4550 116 
L 4550 0 
L 2878 0 
L 2878 116 
Q 3131 128 3220 200 
Q 3309 272 3309 375 
Q 3309 513 3184 809 
L 2928 1419 
z
M 2841 1650 
L 2122 3363 
L 1384 1650 
L 2841 1650 
z
" id="TimesNewRomanPSMT-41" transform="scale(0.015625)"/>
       <path d="M 3853 4334 
L 3950 2894 
L 3853 2894 
Q 3659 3541 3300 3825 
Q 2941 4109 2438 4109 
Q 2016 4109 1675 3895 
Q 1334 3681 1139 3212 
Q 944 2744 944 2047 
Q 944 1472 1128 1050 
Q 1313 628 1683 403 
Q 2053 178 2528 178 
Q 2941 178 3256 354 
Q 3572 531 3950 1056 
L 4047 994 
Q 3728 428 3303 165 
Q 2878 -97 2294 -97 
Q 1241 -97 663 684 
Q 231 1266 231 2053 
Q 231 2688 515 3219 
Q 800 3750 1298 4042 
Q 1797 4334 2388 4334 
Q 2847 4334 3294 4109 
Q 3425 4041 3481 4041 
Q 3566 4041 3628 4100 
Q 3709 4184 3744 4334 
L 3853 4334 
z
" id="TimesNewRomanPSMT-43" transform="scale(0.015625)"/>
      </defs>
      <use xlink:href="#TimesNewRomanPSMT-41"/>
      <use x="72.216797" xlink:href="#TimesNewRomanPSMT-32"/>
      <use x="122.216797" xlink:href="#TimesNewRomanPSMT-43"/>
     </g>
    </g>
   </g>
  </g>
 </g>
 <defs>
  <clipPath id="p739a6d1dab">
   <rect height="602.44" width="726.587027" x="110.36" y="10.8"/>
  </clipPath>
 </defs>
</svg>
